mtllib almura:sprout_0.mtl

v  0.358236 0.003640 0.666532
v  0.309124 -0.008805 0.517411
v  0.498556 -0.024805 0.517411
v  0.498556 -0.008805 0.718724
v  0.358236 0.003640 0.368290
v  0.498556 -0.008805 0.316098
v  0.638876 0.003640 0.368290
v  0.687988 -0.008805 0.517411
v  0.638876 0.003640 0.666532
v  0.358236 0.074751 0.666532
v  0.498556 0.087195 0.718724
v  0.498556 0.133093 0.517411
v  0.309124 0.087195 0.517411
v  0.638876 0.074751 0.666532
v  0.687988 0.087195 0.517411
v  0.638876 0.074751 0.368290
v  0.498556 0.087195 0.316098
v  0.358236 0.074751 0.368290
v  0.498556 -0.020544 0.785828
v  0.309124 -0.020544 0.718724
v  0.687988 -0.020544 0.718724
v  0.751132 -0.020544 0.517411
v  0.687988 -0.020544 0.316098
v  0.498556 -0.020544 0.248994
v  0.309124 -0.020544 0.316098
v  0.245980 -0.020544 0.517411
# 26 vertices

vn 0.102994 -0.990341 -0.092827
vn 0.077203 -0.997015 -0.000000
vn 0.000000 -1.000000 -0.000000
vn 0.000000 -0.997121 -0.075822
vn 0.102994 -0.990341 0.092827
vn 0.000000 -0.997121 0.075822
vn -0.102994 -0.990341 0.092827
vn -0.077203 -0.997015 -0.000000
vn -0.102994 -0.990341 -0.092827
vn -0.439222 0.797584 0.413452
vn 0.000000 0.782758 0.622326
vn 0.000000 1.000000 -0.000000
vn -0.633225 0.773968 -0.000000
vn 0.439222 0.797584 0.413452
vn 0.633225 0.773968 -0.000000
vn 0.439222 0.797584 -0.413452
vn 0.000000 0.782758 -0.622326
vn -0.439222 0.797584 -0.413452
vn 0.000000 -0.484420 0.874836
vn -0.626660 -0.484599 0.610296
vn 0.626660 -0.484599 0.610296
vn 0.862891 -0.505391 -0.000000
vn 0.626660 -0.484599 -0.610296
vn 0.000000 -0.484420 -0.874836
vn -0.626660 -0.484599 -0.610296
vn -0.862891 -0.505391 -0.000000
# 26 vertex normals

vt 0.977362 0.022638 0.000000
vt 0.977362 0.472835 0.000000
vt 0.497736 0.472835 0.000000
vt 0.497736 0.022638 0.000000
vt 0.977362 0.923031 0.000000
vt 0.497736 0.923031 0.000000
vt 0.018110 0.923031 0.000000
vt 0.018110 0.472835 0.000000
vt 0.018110 0.022638 0.000000
# 9 texture coords

g sprout_0
usemtl sprout_0

f 1/1/1 2/2/2 3/3/3 4/4/4 
f 5/5/5 6/6/6 3/3/3 2/2/2 
f 7/7/7 8/8/8 3/3/3 6/6/6 
f 9/9/9 4/4/4 3/3/3 8/8/8 
f 10/9/10 11/4/11 12/3/12 13/8/13 
f 14/1/14 15/2/15 12/3/12 11/4/11 
f 16/5/16 17/6/17 12/3/12 15/2/15 
f 18/7/18 13/8/13 12/3/12 17/6/17 
f 1/9/1 4/4/4 19/3/19 20/8/20 
f 9/1/9 21/2/21 19/3/19 4/4/4 
f 14/5/14 11/6/11 19/3/19 21/2/21 
f 10/7/10 20/8/20 19/3/19 11/6/11 
f 9/9/9 8/4/8 22/3/22 21/8/21 
f 7/1/7 23/2/23 22/3/22 8/4/8 
f 16/5/16 15/6/15 22/3/22 23/2/23 
f 14/7/14 21/8/21 22/3/22 15/6/15 
f 7/9/7 6/4/6 24/3/24 23/8/23 
f 5/1/5 25/2/25 24/3/24 6/4/6 
f 18/5/18 17/6/17 24/3/24 25/2/25 
f 16/7/16 23/8/23 24/3/24 17/6/17 
f 5/9/5 2/4/2 26/3/26 25/8/25 
f 1/1/1 20/2/20 26/3/26 2/4/2 
f 10/5/10 13/6/13 26/3/26 20/2/20 
f 18/7/18 25/8/25 26/3/26 13/6/13 
# 24 polygons

