mtllib almura:sprout_0.mtl

v  0.252978 0.000000 0.779185
v  0.252978 0.000000 0.279185
v  0.752978 0.000000 0.279185
v  0.752978 0.000000 0.779185
v  0.451024 0.130000 0.581139
v  0.554932 0.130000 0.581139
v  0.554932 0.130000 0.477231
v  0.451024 0.130000 0.477231
# 8 vertices

vn -0.698213 -0.158107 0.698213
vn -0.698213 -0.158107 -0.698213
vn 0.698213 -0.158107 -0.698213
vn 0.698213 -0.158107 0.698213
vn -0.220478 0.950147 0.220478
vn 0.220478 0.950147 0.220478
vn 0.220478 0.950147 -0.220478
vn -0.220478 0.950147 -0.220478
# 8 vertex normals

vt 0.960563 0.029748 0.000000
vt 0.960563 0.903434 0.000000
vt 0.029352 0.903434 0.000000
vt 0.029352 0.029748 0.000000
vt 0.279231 0.252782 0.000000
vt 0.672334 0.252782 0.000000
vt 0.672334 0.561516 0.000000
vt 0.279231 0.561516 0.000000
vt 0.040857 0.116873 0.000000
vt 0.960563 0.116873 0.000000
vt 0.596275 0.827814 0.000000
vt 0.405145 0.827814 0.000000
vt 0.056197 0.132212 0.000000
vt 0.945223 0.132213 0.000000
vt 0.593087 0.827814 0.000000
vt 0.408333 0.827814 0.000000
vt 0.067702 0.105368 0.000000
vt 0.945223 0.105368 0.000000
vt 0.597644 0.827814 0.000000
vt 0.415281 0.827814 0.000000
vt 0.048527 0.059348 0.000000
vt 0.945223 0.059348 0.000000
vt 0.590049 0.827814 0.000000
vt 0.403701 0.827814 0.000000
# 24 texture coords

g sprout_0
usemtl sprout_0

f 1/1/1 2/2/2 3/3/3 4/4/4 
f 5/5/5 6/6/6 7/7/7 8/8/8 
f 1/9/1 4/10/4 6/11/6 5/12/5 
f 4/13/4 3/14/3 7/15/7 6/16/6 
f 3/17/3 2/18/2 8/19/8 7/20/7 
f 2/21/2 1/22/1 5/23/5 8/24/8 
# 6 polygons

