mtllib almura:oat_3.mtl

v 0.0 0.0 0.8750001
v 0.0 1.0 0.8750001
v 1.0 1.0 0.875
v 1.0 0.0 0.875
v 0.0 0.0 0.6875001
v 0.0 1.0 0.6875001
v 1.0 1.0 0.6875
v 1.0 0.0 0.6875
v 0.0 0.0 0.46875006
v 0.0 1.0 0.46875006
v 0.99999994 1.0 0.46875
v 0.99999994 0.0 0.46875
v -1.1920929E-7 0.0 0.25000006
v -1.1920929E-7 1.0 0.25000006
v 0.99999994 1.0 0.25
v 0.99999994 0.0 0.25
v -1.1920929E-7 0.0 0.06250006
v -1.1920929E-7 1.0 0.06250006
v 0.99999994 1.0 0.0625
v 0.99999994 0.0 0.0625
v 0.8749999 0.0 0.0
v 0.8749999 1.0 0.0
v 0.875 1.0 1.0
v 0.875 0.0 1.0
v 0.6874999 0.0 0.0
v 0.6874999 1.0 0.0
v 0.6875 1.0 1.0
v 0.6875 0.0 1.0
v 0.46874994 0.0 5.9604645E-8
v 0.46874994 1.0 5.9604645E-8
v 0.46875 1.0 1.0
v 0.46875 0.0 1.0
v 0.24999994 0.0 5.9604645E-8
v 0.24999994 1.0 5.9604645E-8
v 0.25 1.0 1.0000001
v 0.25 0.0 1.0000001
v 0.06249994 0.0 5.9604645E-8
v 0.06249994 1.0 5.9604645E-8
v 0.0625 1.0 1.0000001
v 0.0625 0.0 1.0000001
# 40 vertices

vn -1.1920929E-7 0.0 -1.0
vn 1.1920929E-7 0.0 1.0
vn -5.960465E-8 0.0 -1.0
vn 5.960465E-8 0.0 1.0
vn -5.9604645E-8 0.0 -1.0
vn 5.9604645E-8 0.0 1.0
vn 1.0 0.0 -1.1920929E-7
vn -1.0 0.0 1.1920929E-7
vn 1.0 0.0 -5.960465E-8
vn -1.0 0.0 5.960465E-8
vn 1.0 0.0 -5.9604645E-8
vn -1.0 0.0 5.9604645E-8
# 12 vertex normals

vt 0.16 0.68
vt 0.16 0.72
vt 0.12 0.72
vt 0.12 0.68
# 4 texture coords

g oat_3
usemtl oat_3

f 1/1/1 2/2/1 3/3/1 4/4/1
f 4/1/2 3/2/2 2/3/2 1/4/2
f 5/1/1 6/2/1 7/3/1 8/4/1
f 8/1/2 7/2/2 6/3/2 5/4/2
f 9/1/3 10/2/3 11/3/3 12/4/3
f 12/1/4 11/2/4 10/3/4 9/4/4
f 13/1/5 14/2/5 15/3/5 16/4/5
f 16/1/6 15/2/6 14/3/6 13/4/6
f 17/1/5 18/2/5 19/3/5 20/4/5
f 20/1/6 19/2/6 18/3/6 17/4/6
f 21/1/7 22/2/7 23/3/7 24/4/7
f 24/1/8 23/2/8 22/3/8 21/4/8
f 25/1/7 26/2/7 27/3/7 28/4/7
f 28/1/8 27/2/8 26/3/8 25/4/8
f 29/1/9 30/2/9 31/3/9 32/4/9
f 32/1/10 31/2/10 30/3/10 29/4/10
f 33/1/11 34/2/11 35/3/11 36/4/11
f 36/1/12 35/2/12 34/3/12 33/4/12
f 37/1/11 38/2/11 39/3/11 40/4/11
f 40/1/12 39/2/12 38/3/12 37/4/12
# 20 faces
