mtllib almura:cactus_flower.mtl

v 0.87499994 1.0 0.125
v 0.12499994 1.0 0.12500006
v 0.125 1.0 0.87500006
v 0.875 1.0 0.875
v 0.87499994 0.0 0.125
v 0.12499994 0.0 0.12500006
v 0.125 0.0 0.87500006
v 0.875 0.0 0.875
# 8 vertices

vn 0.0 1.0 0.0
vn -7.947286E-8 0.0 -1.0
vn -1.0 0.0 7.947286E-8
vn 7.947286E-8 0.0 1.0
vn 1.0 0.0 -7.947286E-8
vn 0.0 -1.0 0.0
# 6 vertex normals

vt 0.125 0.875
vt 0.125 1.0
vt 0.0 1.0
vt 0.0 0.875
vt 0.5 0.875
vt 0.5 1.0
vt 0.375 1.0
vt 0.375 0.875
vt 0.25 1.0
vt 0.25 0.875
# 10 texture coords

g cactus_flower
usemtl cactus_flower

f 1/1/1 2/2/1 3/3/1 4/4/1
f 2/5/2 1/6/2 5/7/2 6/8/2
f 2/8/3 6/7/3 7/9/3 3/10/3
f 4/5/4 3/6/4 7/7/4 8/8/4
f 4/8/5 8/7/5 5/9/5 1/10/5
f 6/10/6 5/9/6 8/2/6 7/1/6
# 6 faces
