mtllib almura:claypot.mtl

v -1.1920929E-7 0.0 5.9604645E-8
v -1.1920929E-7 1.0 5.9604645E-8
v 0.99999994 1.0 0.0
v 0.99999994 0.0 0.0
v 1.0 0.0 1.0
v 1.0 1.0 1.0
v 0.0 1.0 1.0000001
v 0.0 0.0 1.0000001
# 8 vertices

vn -5.9604645E-8 0.0 -1.0
vn 1.1920929E-7 0.0 1.0
vn 0.0 1.0 0.0
vn -1.0 0.0 1.1920929E-7
vn 1.0 0.0 -5.9604645E-8
vn 0.0 -1.0 0.0
# 6 vertex normals

vt 0.125 0.9375
vt 0.125 1.0
vt 0.0625 1.0
vt 0.0625 0.9375
vt 0.1875 0.9375
vt 0.1875 1.0
vt 0.375 0.9375
vt 0.375 1.0
vt 0.3125 1.0
vt 0.3125 0.9375
vt 0.25 0.9375
vt 0.25 1.0
vt 0.0 1.0
vt 0.0 0.9375
# 14 texture coords

g claypot
usemtl claypot

f 1/1/1 2/2/1 3/3/1 4/4/1
f 5/5/2 6/6/2 7/2/2 8/1/2
f 2/7/3 7/8/3 6/9/3 3/10/3
f 8/11/4 7/12/4 2/6/4 1/5/4
f 4/10/5 3/9/5 6/12/5 5/11/5
f 4/4/6 5/3/6 8/13/6 1/14/6
# 6 faces
