mtllib almura:honeydew_3.mtl

v -1.1920929E-7 0.0 5.9604645E-8
v -1.1920929E-7 1.0 5.9604645E-8
v 1.0 1.0 1.0
v 1.0 0.0 1.0
v 0.0 0.0 1.0000001
v 0.0 1.0 1.0000001
v 0.99999994 1.0 0.0
v 0.99999994 0.0 0.0
# 8 vertices

vn 0.70710677 0.0 -0.7071069
vn -0.7071069 0.0 -0.70710677
vn 0.7071069 0.0 0.70710677
vn -0.70710677 0.0 0.7071069
# 4 vertex normals

vt 0.08 0.38
vt 0.08 0.42000002
vt 0.04 0.42000002
vt 0.04 0.38
vt 0.17999999 0.38
vt 0.17999999 0.42000002
vt 0.14 0.42000002
vt 0.14 0.38
# 8 texture coords

g honeydew_3
usemtl honeydew_3

f 1/1/1 2/2/1 3/3/1 4/4/1
f 5/1/2 6/2/2 7/3/2 8/4/2
f 8/5/3 7/6/3 6/7/3 5/8/3
f 4/5/4 3/6/4 2/7/4 1/8/4
# 4 faces
