mtllib almura:almuraroofing_redroundedpeakshingles.mtl

v -1.1920929E-7 0.0 5.9604645E-8
v 0.99999994 0.0 0.0
v 1.0 0.0 1.0
v 0.0 0.0 1.0000001
v 1.0 1.0 1.0
v 0.99999994 1.0 0.0
v -1.1920929E-7 1.0 5.9604645E-8
v 0.0 1.0 1.0000001
# 8 vertices

vn 0.0 -1.0 0.0
vn -0.70710677 0.70710677 4.2146848E-8
vn 0.70710677 0.70710677 -8.4293696E-8
vn -8.4293696E-8 0.70710677 -0.70710677
vn 4.2146848E-8 0.70710677 0.70710677
# 5 vertex normals

vt 0.0625 0.625
vt 0.0625 0.6875
vt 0.0 0.6875
vt 0.0 0.625
vt 0.625 0.8125
vt 0.625 0.875
vt 0.5625 0.875
vt 0.5625 0.8125
# 8 texture coords

g almuraroofing_redroundedpeakshingles
usemtl almuraroofing_redroundedpeakshingles

f 1/1/1 2/2/1 3/3/1 4/4/1
f 4/5/2 5/6/2 6/7/2 1/8/2
f 2/5/3 7/6/3 8/7/3 3/8/3
f 1/5/4 8/6/4 5/7/4 2/8/4
f 3/5/5 6/6/5 7/7/5 4/8/5
# 5 faces
