mtllib almura:almuracustom1_light.mtl

v 0.99999994 1.0 0.0
v -1.1920929E-7 1.0 5.9604645E-8
v 0.0 1.0 1.0000001
v 1.0 1.0 1.0
v 0.99999994 0.9375 0.0
v -1.1920929E-7 0.9375 5.9604645E-8
v 0.0 0.9375 1.0000001
v 1.0 0.9375 1.0
v 0.87499994 0.625 0.125
v 0.87499994 0.9375 0.125
v 0.875 0.9375 0.875
v 0.875 0.625 0.875
v 0.125 0.9375 0.87500006
v 0.125 0.625 0.87500006
v 0.12499994 0.9375 0.12500006
v 0.12499994 0.625 0.12500006
# 16 vertices

vn 0.0 1.0 0.0
vn -5.9604645E-8 0.0 -1.0
vn -1.0 0.0 1.1920929E-7
vn 1.1920929E-7 0.0 1.0
vn 1.0 0.0 -5.9604645E-8
vn 1.0 0.0 -7.947286E-8
vn 7.947286E-8 0.0 1.0
vn 0.0 -1.0 0.0
vn -1.0 0.0 7.947286E-8
vn -7.947286E-8 0.0 -1.0
# 10 vertex normals

vt 0.125 0.625
vt 0.125 0.75
vt 0.0 0.75
vt 0.0 0.625
vt 0.25 0.625
vt 0.25 0.75
vt 0.5 0.625
vt 0.5 0.75
vt 0.375 0.75
vt 0.375 0.625
# 10 texture coords

g almuracustom1_light
usemtl almuracustom1_light

f 1/1/1 2/2/1 3/3/1 4/4/1
f 2/1/2 1/2/2 5/3/2 6/4/2
f 2/1/3 6/2/3 7/3/3 3/4/3
f 4/1/4 3/2/4 7/3/4 8/4/4
f 4/1/5 8/2/5 5/3/5 1/4/5
f 9/5/6 10/6/6 11/2/6 12/1/6
f 11/7/7 13/8/7 14/9/7 12/10/7
f 6/1/8 5/2/8 8/3/8 7/4/8
f 15/5/9 16/6/9 14/2/9 13/1/9
f 16/10/8 9/9/8 12/6/8 14/5/8
f 9/7/10 16/8/10 15/9/10 10/10/10
# 11 faces
