mtllib almura:almuraroofing_redstopcshingles.mtl

v -1.1920929E-7 0.0 5.9604645E-8
v 0.99999994 0.0 0.0
v 1.0 0.0 1.0
v 0.0 0.0 1.0000001
v 1.0 1.0 1.0
v 0.99999994 1.0 0.0
v -1.1920929E-7 1.0 5.9604645E-8
v 0.0 1.0 1.0000001
# 8 vertices

vn 0.0 -1.0 0.0
vn -0.70710677 0.70710677 4.2146848E-8
vn 0.70710677 0.70710677 -8.4293696E-8
vn -8.4293696E-8 0.70710677 -0.70710677
vn 1.1920929E-7 0.0 1.0
# 5 vertex normals

vt 0.0625 0.625
vt 0.0625 0.6875
vt 0.0 0.6875
vt 0.0 0.625
vt 0.9375 0.8125
vt 0.9375 0.875
vt 0.875 0.875
vt 0.875 0.8125
vt 0.8125 0.875
vt 0.8125 0.8125
vt 0.75 0.8125
vt 0.75 0.875
vt 0.6875 0.875
vt 0.6875 0.8125
# 14 texture coords

g almuraroofing_redstopcshingles
usemtl almuraroofing_redstopcshingles

f 1/1/1 2/2/1 3/3/1 4/4/1
f 4/5/2 5/6/2 6/7/2 1/8/2
f 2/8/3 7/7/3 8/9/3 3/10/3
f 1/11/4 8/12/4 5/13/4 2/14/4
f 3/11/5 5/12/5 8/13/5 4/14/5
# 5 faces
