mtllib almura:almuracustom2_polelight.mtl

v 0.06249994 0.625 0.06250006
v 0.93749994 0.625 0.0625
v 0.9375 0.625 0.9375
v 0.0625 0.625 0.93750006
v 0.68749994 0.875 0.3125
v 0.31249994 0.875 0.31250006
v 0.3125 0.875 0.68750006
v 0.6875 0.875 0.6875
v 0.6875 0.0 0.6875
v 0.3125 0.0 0.68750006
v 0.31249994 0.0 0.31250006
v 0.68749994 0.0 0.3125
v 0.31249994 0.0625 0.31250006
v 0.68749994 0.0625 0.3125
v 0.3125 0.0625 0.68750006
v 0.6875 0.0625 0.6875
v 0.43749994 0.875 0.56250006
v 0.5625 0.875 0.5625
v 0.5625 0.9375 0.5625
v 0.43749994 0.9375 0.56250006
v 0.43749994 0.875 0.43750006
v 0.43749994 0.9375 0.43750006
v 0.56249994 0.875 0.43750006
v 0.56249994 0.9375 0.43750006
v 0.87499994 0.0625 0.375
v 0.12499994 0.0625 0.37500006
v 0.12499994 0.625 0.12500006
v 0.87499994 0.625 0.125
v 0.37499994 0.0625 0.12500006
v 0.375 0.0625 0.87500006
v 0.125 0.625 0.87500006
v 0.12499994 0.0625 0.6250001
v 0.875 0.0625 0.625
v 0.875 0.625 0.875
v 0.625 0.0625 0.875
v 0.6249999 0.0625 0.12500006
v 0.25 0.75 0.93750006
v 0.24999994 0.75 0.06250006
v 0.9375 0.75 0.75
v 0.0625 0.75 0.7500001
v 0.7499999 0.75 0.0625
v 0.75 0.75 0.9375
v 0.06249994 0.75 0.25000006
v 0.93749994 0.75 0.25
v 0.74999994 0.75 0.25
v 0.24999994 0.75 0.25000006
v 0.24999994 0.875 0.31250006
v 0.74999994 0.875 0.3125
v 0.25 0.75 0.75000006
v 0.3125 0.875 0.75000006
v 0.31249994 0.875 0.25000006
v 0.75 0.75 0.75
v 0.75 0.875 0.6875
v 0.25 0.875 0.68750006
v 0.68749994 0.875 0.25
v 0.6875 0.875 0.75
# 56 vertices

vn 0.0 -1.0 0.0
vn 0.0 1.0 0.0
vn -1.5894572E-7 0.0 -1.0
vn -1.0 0.0 1.5894572E-7
vn 1.5894572E-7 0.0 1.0
vn 1.0 0.0 -1.5894572E-7
vn 4.7683693E-7 0.0 1.0
vn -1.0 0.0 0.0
vn 0.0 0.0 -1.0
vn 1.0 0.0 -4.768374E-7
vn -7.2623216E-8 -0.40613845 -0.91381156
vn -0.91381156 -0.40613845 7.2623216E-8
vn 1.4524642E-7 -0.40613848 0.91381156
vn 0.91381156 -0.40613854 -1.4524645E-7
vn -0.5547002 0.83205026 3.7785952E-8
vn 3.7785952E-8 0.83205026 0.5547002
vn 0.5547 0.8320503 -3.778594E-8
vn -3.7785952E-8 0.83205026 -0.5547002
vn -1.0662403E-7 0.4472136 -0.8944272
vn -0.8944272 0.4472136 1.0662403E-7
vn 1.0662403E-7 0.4472136 0.8944272
vn 0.8944272 0.4472136 -1.0662403E-7
# 22 vertex normals

vt 0.65625 0.09375
vt 0.65625 0.125
vt 0.625 0.125
vt 0.625 0.09375
vt 0.5078125 0.078125
vt 0.5078125 0.125
vt 0.5 0.125
vt 0.5 0.078125
vt 0.0078125 0.109375
vt 0.0078125 0.125
vt 0.0 0.125
vt 0.0 0.109375
vt 0.4453125 0.03125
vt 0.4453125 0.125
vt 0.375 0.125
vt 0.375 0.03125
vt 0.265625 0.015625
vt 0.265625 0.125
vt 0.25 0.125
vt 0.25 0.015625
vt 0.1328125 0.0625
vt 0.1328125 0.125
vt 0.125 0.125
vt 0.125 0.0625
# 24 texture coords

g almuracustom2_polelight
usemtl almuracustom2_polelight

f 1/1/1 2/2/1 3/3/1 4/4/1
f 5/1/2 6/2/2 7/3/2 8/4/2
f 9/1/1 10/2/1 11/3/1 12/4/1
f 12/5/3 11/6/3 13/7/3 14/8/3
f 11/5/4 10/6/4 15/7/4 13/8/4
f 10/5/5 9/6/5 16/7/5 15/8/5
f 9/5/6 12/6/6 14/7/6 16/8/6
f 14/1/2 13/2/2 15/3/2 16/4/2
f 17/9/7 18/10/7 19/11/7 20/12/7
f 21/9/8 17/10/8 20/11/8 22/12/8
f 23/9/9 21/10/9 22/11/9 24/12/9
f 18/9/10 23/10/10 24/11/10 19/12/10
f 24/1/2 22/2/2 20/3/2 19/4/2
f 25/13/11 26/14/11 27/15/11 28/16/11
f 29/13/12 30/14/12 31/15/12 27/16/12
f 32/13/13 33/14/13 34/15/13 31/16/13
f 35/13/14 36/14/14 28/15/14 34/16/14
f 1/17/15 4/18/15 37/19/15 38/20/15
f 4/17/16 3/18/16 39/19/16 40/20/16
f 3/17/17 2/18/17 41/19/17 42/20/17
f 2/17/18 1/18/18 43/19/18 44/20/18
f 45/21/19 46/22/19 47/23/19 48/24/19
f 46/21/20 49/22/20 50/23/20 51/24/20
f 49/21/21 52/22/21 53/23/21 54/24/21
f 52/21/22 45/22/22 55/23/22 56/24/22
# 25 faces
