mtllib almura:almuraroofing_redsidingblock.mtl

v 0.99999994 1.0 0.0
v -1.1920929E-7 1.0 5.9604645E-8
v 0.0 1.0 1.0000001
v 1.0 1.0 1.0
v 1.0 0.0 1.0
v 0.99999994 0.0 0.0
v -1.1920929E-7 0.0 5.9604645E-8
v 0.0 0.0 1.0000001
# 8 vertices

vn 0.0 1.0 0.0
vn 1.0 0.0 -5.9604645E-8
vn -5.9604645E-8 0.0 -1.0
vn -1.0 0.0 1.1920929E-7
vn 1.1920929E-7 0.0 1.0
vn 0.0 -1.0 0.0
# 6 vertex normals

vt 0.125 0.8125
vt 0.125 0.875
vt 0.0625 0.875
vt 0.0625 0.8125
vt 0.0625 0.625
vt 0.0625 0.6875
vt 0.0 0.6875
vt 0.0 0.625
# 8 texture coords

g almuraroofing_redsidingblock
usemtl almuraroofing_redsidingblock

f 1/1/1 2/2/1 3/3/1 4/4/1
f 4/1/2 5/2/2 6/3/2 1/4/2
f 1/1/3 6/2/3 7/3/3 2/4/3
f 2/1/4 7/2/4 8/3/4 3/4/4
f 3/1/5 8/2/5 5/3/5 4/4/5
f 7/5/6 6/6/6 5/7/6 8/8/6
# 6 faces
