mtllib almura:almuraroofing_brroundedshingles.mtl

v 0.0 0.0 1.0000001
v -1.1920929E-7 0.0 5.9604645E-8
v 0.99999994 0.0 0.0
v 1.0 0.0 1.0
v 0.0 1.0 1.0000001
v 1.0 1.0 1.0
v -1.1920929E-7 1.0 5.9604645E-8
v 0.99999994 1.0 0.0
# 8 vertices

vn 0.0 -1.0 0.0
vn -8.4293696E-8 0.70710677 -0.70710677
vn -1.0 0.0 1.1920929E-7
vn 1.0 0.0 -5.9604645E-8
vn 1.1920929E-7 0.0 1.0
# 5 vertex normals

vt 0.0625 0.625
vt 0.0625 0.6875
vt 0.0 0.6875
vt 0.0 0.625
vt 0.0625 0.75
vt 0.0 0.75
vt 0.1875 0.6875
vt 0.1875 0.75
vt 0.125 0.75
vt 0.125 0.6875
vt 0.25 0.6875
vt 0.25 0.75
# 12 texture coords

g almuraroofing_brroundedshingles
usemtl almuraroofing_brroundedshingles

f 1/1/1 2/2/1 3/3/1 4/4/1
f 2/2/2 5/5/2 6/6/2 3/3/2
f 1/7/3 5/8/3 7/9/3 2/10/3
f 3/11/4 8/12/4 6/8/4 4/7/4
f 5/10/5 1/9/5 4/5/5 6/2/5
# 5 faces
