mtllib almura:cep_harbormaster_ropecoil.mtl

v 0.6562499 0.1875 0.12500006
v 0.34374994 0.1875 0.12500006
v 0.49999994 0.1875 0.5
v 0.12499994 0.1875 0.34375006
v 0.12499994 0.1875 0.6562501
v 0.34375 0.1875 0.87500006
v 0.65625 0.1875 0.875
v 0.875 0.1875 0.65625
v 0.87499994 0.1875 0.34375
v 0.34374994 0.0 0.12500006
v 0.12499994 0.0 0.34375006
v 0.34375 0.0 0.87500006
v 0.65625 0.0 0.875
v 0.12499994 0.0 0.6562501
v 0.875 0.0 0.65625
v 0.87499994 0.0 0.34375
v 0.6562499 0.0 0.12500006
v 0.62499994 0.25 0.18750006
v 0.37499994 0.25 0.18750006
v 0.49999994 0.25 0.5
v 0.18749994 0.25 0.37500006
v 0.18749994 0.25 0.62500006
v 0.375 0.25 0.81250006
v 0.625 0.25 0.8125
v 0.8125 0.25 0.625
v 0.81249994 0.25 0.375
v 0.18749994 0.1875 0.37500006
v 0.37499994 0.1875 0.18750006
v 0.625 0.1875 0.8125
v 0.375 0.1875 0.81250006
v 0.18749994 0.1875 0.62500006
v 0.81249994 0.1875 0.375
v 0.8125 0.1875 0.625
v 0.62499994 0.1875 0.18750006
v 0.59374994 0.3125 0.25000006
v 0.40624994 0.3125 0.25000006
v 0.49999994 0.3125 0.5
v 0.24999994 0.3125 0.40625006
v 0.24999994 0.3125 0.59375006
v 0.40625 0.3125 0.75000006
v 0.59375 0.3125 0.75
v 0.75 0.3125 0.59375
v 0.74999994 0.3125 0.40625
v 0.24999994 0.25 0.40625006
v 0.40624994 0.25 0.25000006
v 0.59375 0.25 0.75
v 0.40625 0.25 0.75000006
v 0.24999994 0.25 0.59375006
v 0.74999994 0.25 0.40625
v 0.75 0.25 0.59375
v 0.59374994 0.25 0.25000006
v 0.06249994 0.0625 0.40000004
v 0.0 0.0625 0.40000004
v 0.12499994 0.0625 0.6000001
v 0.18749994 0.0625 0.6
v 0.06249994 0.001 0.20000005
v -1.1920929E-7 0.001 0.20000005
v 0.19999993 0.001 0.06250006
v 0.19999993 0.001 5.9604645E-8
v 0.39999992 0.001 0.06250006
v 0.39999992 0.001 5.9604645E-8
# 61 vertices

vn 0.0 1.0 0.0
vn -0.70710677 0.0 -0.70710677
vn 1.9073487E-7 0.0 1.0
vn -1.0 0.0 0.0
vn 1.0 0.0 -1.9073487E-7
vn 0.0 0.0 -1.0
vn 0.7071066 0.0 -0.707107
vn 0.70710677 0.0 0.70710677
vn -0.7071066 0.0 0.707107
vn -0.7071068 0.0 -0.7071068
vn 2.3841858E-7 0.0 1.0
vn 1.0 0.0 -2.3841858E-7
vn 0.70710665 0.0 -0.7071069
vn 0.7071068 0.0 0.7071068
vn -0.70710665 0.0 0.7071069
vn 3.1789145E-7 0.0 1.0
vn 1.0 0.0 -3.1789145E-7
vn 0.70710665 0.0 -0.70710695
vn 0.0 0.95583063 -0.29391795
# 19 vertex normals

vt 0.1875 0.875
vt 0.1875 0.90625
vt 0.15625 0.90625
vt 0.15625 0.875
vt 0.21875 0.875
vt 0.21875 0.90625
vt 0.25 0.875
vt 0.25 0.90625
# 8 texture coords

g cep_harbormaster_ropecoil
usemtl cep_harbormaster_ropecoil

f 1/1/1 2/2/1 3/3/1 3/4/1
f 2/1/1 4/2/1 3/3/1 3/4/1
f 4/1/1 5/2/1 3/3/1 3/4/1
f 5/1/1 6/2/1 3/3/1 3/4/1
f 6/1/1 7/2/1 3/3/1 3/4/1
f 8/1/1 9/2/1 3/3/1 3/4/1
f 7/1/1 8/2/1 3/3/1 3/4/1
f 9/1/1 1/2/1 3/3/1 3/4/1
f 10/1/2 11/2/2 4/3/2 2/4/2
f 12/1/3 13/2/3 7/3/3 6/4/3
f 11/1/4 14/2/4 5/3/4 4/4/4
f 15/1/5 16/2/5 9/3/5 8/4/5
f 17/1/6 10/2/6 2/3/6 1/4/6
f 16/1/7 17/2/7 1/3/7 9/4/7
f 13/1/8 15/2/8 8/3/8 7/4/8
f 14/1/9 12/2/9 6/3/9 5/4/9
f 18/1/1 19/2/1 20/3/1 20/4/1
f 19/1/1 21/2/1 20/3/1 20/4/1
f 21/1/1 22/2/1 20/3/1 20/4/1
f 22/1/1 23/2/1 20/3/1 20/4/1
f 23/1/1 24/2/1 20/3/1 20/4/1
f 25/1/1 26/2/1 20/3/1 20/4/1
f 24/1/1 25/2/1 20/3/1 20/4/1
f 26/1/1 18/2/1 20/3/1 20/4/1
f 27/5/10 21/6/10 19/2/10 28/1/10
f 29/5/11 24/6/11 23/2/11 30/1/11
f 31/5/4 22/6/4 21/2/4 27/1/4
f 32/5/12 26/6/12 25/2/12 33/1/12
f 28/5/6 19/6/6 18/2/6 34/1/6
f 34/5/13 18/6/13 26/2/13 32/1/13
f 33/5/14 25/6/14 24/2/14 29/1/14
f 30/5/15 23/6/15 22/2/15 31/1/15
f 35/1/1 36/2/1 37/3/1 37/4/1
f 36/1/1 38/2/1 37/3/1 37/4/1
f 38/1/1 39/2/1 37/3/1 37/4/1
f 39/1/1 40/2/1 37/3/1 37/4/1
f 40/1/1 41/2/1 37/3/1 37/4/1
f 42/1/1 43/2/1 37/3/1 37/4/1
f 41/1/1 42/2/1 37/3/1 37/4/1
f 43/1/1 35/2/1 37/3/1 37/4/1
f 44/5/2 38/6/2 36/2/2 45/1/2
f 46/5/16 41/6/16 40/2/16 47/1/16
f 48/5/4 39/6/4 38/2/4 44/1/4
f 49/5/17 43/6/17 42/2/17 50/1/17
f 45/5/6 36/6/6 35/2/6 51/1/6
f 51/5/18 35/6/18 43/2/18 49/1/18
f 50/5/8 42/6/8 41/2/8 46/1/8
f 47/5/15 40/6/15 39/2/15 48/1/15
f 52/7/1 53/8/1 54/6/1 55/5/1
f 56/7/19 57/8/19 53/6/19 52/5/19
f 57/7/1 56/8/1 58/6/1 59/5/1
f 60/7/1 61/8/1 59/6/1 58/5/1
# 52 faces
