mtllib almura:cep_battlecraftww2_fencewithpole.mtl

v 0.0 0.0 0.5000001
v 0.0 1.0 0.5000001
v 0.99999994 1.0 0.5
v 0.99999994 0.0 0.5
v 0.5 0.0 1.0
v 0.5 1.0 1.0
v 0.49999994 1.0 5.9604645E-8
v 0.49999994 0.0 5.9604645E-8
v 0.37499994 0.0 0.37500006
v 0.37499994 1.0 0.37500006
v 0.62499994 1.0 0.37500006
v 0.62499994 0.0 0.37500006
v 0.625 1.0 0.625
v 0.625 0.0 0.625
v 0.37499994 1.0 0.62500006
v 0.37499994 0.0 0.62500006
# 16 vertices

vn -1.192093E-7 0.0 -1.0
vn 1.192093E-7 0.0 1.0
vn -1.0 0.0 5.960465E-8
vn 1.0 0.0 -5.960465E-8
vn 0.0 0.0 -1.0
vn 1.0 0.0 -2.3841864E-7
vn 2.3841852E-7 0.0 1.0
vn -1.0 0.0 0.0
vn 0.0 -1.0 0.0
vn 0.0 1.0 0.0
# 10 vertex normals

vt 0.375 0.75
vt 0.375 0.875
vt 0.25 0.875
vt 0.25 0.75
vt 0.125 0.875
vt 0.125 1.0
vt 0.0 1.0
vt 0.0 0.875
vt 0.375 1.0
vt 0.25 1.0
# 10 texture coords

g cep_battlecraftww2_fencewithpole
usemtl cep_battlecraftww2_fencewithpole

f 1/1/1 2/2/1 3/3/1 4/4/1
f 4/1/2 3/2/2 2/3/2 1/4/2
f 5/5/3 6/6/3 7/7/3 8/8/3
f 8/5/4 7/6/4 6/7/4 5/8/4
f 9/2/5 10/9/5 11/10/5 12/3/5
f 12/2/6 11/9/6 13/10/6 14/3/6
f 14/2/7 13/9/7 15/10/7 16/3/7
f 16/2/8 15/9/8 10/10/8 9/3/8
f 9/2/9 12/9/9 14/10/9 16/3/9
f 11/2/10 10/9/10 15/10/10 13/3/10
# 10 faces
