mtllib almura:cep_gladiator_wallring.mtl

v -1.1920929E-7 0.0 0.20000005
v 0.0 1.0 0.9990001
v 1.0 1.0 0.999
v 0.99999994 0.0 0.19999999
v 0.0 0.0 0.5000001
v 0.0 1.0 0.5000001
v 0.99999994 1.0 0.5
v 0.99999994 0.0 0.5
v 0.49999994 0.0 5.9604645E-8
v 0.49999994 1.0 5.9604645E-8
v 0.5 1.0 1.0
v 0.5 0.0 1.0
v 1.0 0.0 0.9375
v 1.0 0.0625 0.9375
v 1.0 0.0625 1.0
v 1.0 0.0 1.0
v 0.0 0.0625 0.93750006
v 0.0 0.0625 1.0000001
v 0.0 0.0 0.93750006
v 0.0 0.0 1.0000001
# 20 vertices

vn -4.656611E-8 0.6242185 -0.7812497
vn -1.192093E-7 0.0 -1.0
vn 1.0 0.0 -5.960465E-8
vn 4.656611E-8 -0.6242185 0.7812497
vn 1.192093E-7 0.0 1.0
vn -1.0 0.0 5.960465E-8
vn 1.0 0.0 0.0
vn 0.0 1.0 0.0
vn 0.0 -1.0 0.0
# 9 vertex normals

vt 0.625 0.75
vt 0.625 0.875
vt 0.5 0.875
vt 0.5 0.75
vt 0.125 0.875
vt 0.125 1.0
vt 0.0 1.0
vt 0.0 0.875
# 8 texture coords

g cep_gladiator_wallring
usemtl cep_gladiator_wallring

f 1/1/1 2/2/1 3/3/1 4/4/1
f 5/5/2 6/6/2 7/7/2 8/8/2
f 9/5/3 10/6/3 11/7/3 12/8/3
f 4/1/4 3/2/4 2/3/4 1/4/4
f 8/5/5 7/6/5 6/7/5 5/8/5
f 12/5/6 11/6/6 10/7/6 9/8/6
f 13/5/7 14/6/7 15/7/7 16/8/7
f 14/5/8 17/6/8 18/7/8 15/8/8
f 19/5/9 13/6/9 16/7/9 20/8/9
# 9 faces
