mtllib almura:cep_king_carpet_corner.mtl

v -1.1920929E-7 0.0 5.9604645E-8
v -1.1920929E-7 1.0 5.9604645E-8
v 0.99999994 1.0 0.0
v 0.99999994 0.0 0.0
v 1.0 0.0 1.0
v 1.0 1.0 1.0
v 0.0 1.0 1.0000001
v 0.0 0.0 1.0000001
# 8 vertices

vn -5.9604645E-8 0.0 -1.0
vn 1.1920929E-7 0.0 1.0
vn 0.0 1.0 0.0
vn -1.0 0.0 1.1920929E-7
vn 1.0 0.0 -5.9604645E-8
vn 0.0 -1.0 0.0
# 6 vertex normals

vt 0.375 0.875
vt 0.375 1.0
vt 0.25 1.0
vt 0.25 0.875
vt 0.5 0.875
vt 0.5 1.0
vt 0.125 0.875
vt 0.125 1.0
vt 0.0 1.0
vt 0.0 0.875
# 10 texture coords

g cep_king_carpet_corner
usemtl cep_king_carpet_corner

f 1/1/1 2/2/1 3/3/1 4/4/1
f 5/1/2 6/2/2 7/3/2 8/4/2
f 2/5/3 7/6/3 6/2/3 3/1/3
f 8/1/4 7/2/4 2/3/4 1/4/4
f 4/1/5 3/2/5 6/3/5 5/4/5
f 4/7/6 5/8/6 8/9/6 1/10/6
# 6 faces
