mtllib almura:cep_king_chandelier.mtl

v 0.7187499 0.5 0.0
v 0.7187499 0.71875 0.0
v 0.62499994 0.71875 0.18750006
v 0.62499994 0.5 0.18750006
v 0.28124994 0.5 5.9604645E-8
v 0.28124994 0.71875 5.9604645E-8
v 0.37499994 0.71875 0.18750006
v 0.37499994 0.5 0.18750006
v -1.1920929E-7 0.5 0.28125006
v -1.1920929E-7 0.71875 0.28125006
v 0.18749994 0.71875 0.37500006
v 0.18749994 0.5 0.37500006
v 0.0 0.5 0.7187501
v 0.0 0.71875 0.7187501
v 0.18749994 0.71875 0.62500006
v 0.18749994 0.5 0.62500006
v 0.28125 0.5 1.0000001
v 0.28125 0.71875 1.0000001
v 0.375 0.71875 0.81250006
v 0.375 0.5 0.81250006
v 1.0 0.5 0.71875
v 1.0 0.71875 0.71875
v 0.8125 0.71875 0.625
v 0.8125 0.5 0.625
v 0.71875 0.5 1.0
v 0.71875 0.71875 1.0
v 0.625 0.71875 0.8125
v 0.625 0.5 0.8125
v 0.99999994 0.5 0.28125
v 0.99999994 0.71875 0.28125
v 0.81249994 0.71875 0.375
v 0.81249994 0.5 0.375
v 0.44999993 0.95 0.59375006
v 0.45 0.5 0.95000005
v 0.55 0.5 0.95000005
v 0.54999995 0.95 0.59375
v 0.49999994 1.0 0.59375
v 0.5 0.5 0.95000005
v 0.5 0.5 0.85
v 0.49999994 0.9 0.59375
v 0.54999995 0.95 0.40625006
v 0.54999995 0.5 0.10000008
v 0.44999993 0.5 0.10000008
v 0.44999993 0.95 0.40625006
v 0.49999994 1.0 0.40625006
v 0.49999994 0.5 0.05000007
v 0.49999994 0.5 0.15000004
v 0.49999994 0.9 0.40625006
v 0.40624994 0.95 0.45000005
v 0.099999964 0.5 0.45000005
v 0.099999964 0.5 0.5500001
v 0.40624994 0.95 0.5500001
v 0.40624994 1.0 0.50000006
v 0.049999952 0.5 0.5000001
v 0.14999992 0.5 0.50000006
v 0.40624994 0.9 0.50000006
v 0.59375 0.95 0.5500001
v 0.9 0.5 0.55
v 0.9 0.5 0.45
v 0.59374994 0.95 0.45000005
v 0.59375 1.0 0.5
v 0.9499999 0.5 0.5
v 0.84999996 0.5 0.5
v 0.59375 0.9 0.5
v 0.40624994 0.9 0.40625006
v 0.40624994 1.0 0.40625006
v 0.59374994 1.0 0.40625006
v 0.59374994 0.9 0.40625006
v 0.59375 0.9 0.59375
v 0.59375 1.0 0.59375
v 0.40624994 1.0 0.59375006
v 0.40624994 0.9 0.59375006
v 0.62499994 0.375 0.18750006
v 0.37499994 0.375 0.18750006
v 0.28124994 0.375 5.9604645E-8
v 0.7187499 0.375 0.0
v 0.18749994 0.375 0.37500006
v -1.1920929E-7 0.375 0.28125006
v 0.18749994 0.375 0.62500006
v 0.0 0.375 0.7187501
v 0.375 0.375 0.81250006
v 0.28125 0.375 1.0000001
v 0.625 0.375 0.8125
v 0.71875 0.375 1.0
v 0.8125 0.375 0.625
v 0.81249994 0.375 0.375
v 0.99999994 0.375 0.28125
v 1.0 0.375 0.71875
# 88 vertices

vn 0.89442736 0.0 0.44721323
vn 0.8944272 0.0 -0.4472136
vn 0.44721344 0.0 -0.89442724
vn -0.44721395 0.0 -0.894427
vn -0.89442724 0.0 -0.44721344
vn -0.4472136 0.0 0.8944272
vn -0.8944272 0.0 0.4472136
vn 0.4472136 0.0 0.8944272
vn -0.89442736 0.0 -0.44721323
vn -0.44721344 0.0 0.89442724
vn 0.44721395 0.0 0.894427
vn 0.89442724 0.0 0.44721344
vn 0.4472136 0.0 -0.8944272
vn -0.4472136 0.0 -0.8944272
vn 0.0 0.6207029 0.7840458
vn 1.0 1.1920929E-7 0.0
vn 0.0 0.56262404 -0.8267129
vn -1.0 0.0 0.0
vn -0.8267129 0.56262404 0.0
vn 5.960467E-7 -3.0547395E-7 1.0
vn 0.8267129 0.56262404 0.0
vn 0.0 0.0 -1.0
vn 0.0 -0.62070304 -0.78404576
vn -1.0 -1.4901163E-7 0.0
vn 0.0 -0.56262404 0.8267129
vn 1.0 0.0 0.0
vn 0.8267129 -0.56262404 0.0
vn -5.960467E-7 3.8184245E-7 -1.0
vn -0.82671285 -0.5626241 0.0
vn 0.0 0.0 1.0
vn 3.1789133E-7 0.0 1.0
vn 1.0 0.0 -3.1789153E-7
vn 0.0 1.0 0.0
vn 0.0 -1.0 0.0
vn -0.7071067 0.0 -0.7071068
vn 2.724784E-7 0.0 1.0
vn -1.0 0.0 2.7247833E-7
vn 1.0 0.0 -1.362392E-7
vn -1.3623921E-7 0.0 -1.0
vn 0.7071067 0.0 -0.7071068
vn 0.70710677 0.0 0.70710677
vn -0.70710677 0.0 0.70710677
vn 0.7071068 0.0 0.7071068
vn -2.3841858E-7 0.0 -1.0
vn -1.0 0.0 2.3841858E-7
vn -0.70710665 0.0 0.7071069
vn -0.7071068 0.0 -0.7071068
vn 0.70710665 0.0 -0.7071069
# 48 vertex normals

vt 0.375 0.5
vt 0.375 0.625
vt 0.25 0.625
vt 0.25 0.5
vt 0.125 0.625
vt 0.125 0.5
vt 0.0 0.625
vt 0.0 0.5
# 8 texture coords

g cep_king_chandelier
usemtl cep_king_chandelier

f 1/1/1 2/2/1 3/3/1 4/4/1
f 5/1/2 6/2/2 7/3/2 8/4/2
f 9/1/3 10/2/3 11/3/3 12/4/3
f 13/1/4 14/2/4 15/3/4 16/4/4
f 17/1/5 18/2/5 19/3/5 20/4/5
f 21/1/6 22/2/6 23/3/6 24/4/6
f 25/1/7 26/2/7 27/3/7 28/4/7
f 29/1/8 30/2/8 31/3/8 32/4/8
f 4/1/9 3/2/9 2/3/9 1/4/9
f 8/1/7 7/2/7 6/3/7 5/4/7
f 12/1/10 11/2/10 10/3/10 9/4/10
f 16/1/11 15/2/11 14/3/11 13/4/11
f 20/1/12 19/2/12 18/3/12 17/4/12
f 24/1/13 23/2/13 22/3/13 21/4/13
f 28/1/2 27/2/2 26/3/2 25/4/2
f 32/1/14 31/2/14 30/3/14 29/4/14
f 33/4/15 34/3/15 35/5/15 36/6/15
f 37/4/16 38/3/16 39/5/16 40/6/16
f 41/4/17 42/3/17 43/5/17 44/6/17
f 45/4/18 46/3/18 47/5/18 48/6/18
f 49/4/19 50/3/19 51/5/19 52/6/19
f 53/4/20 54/3/20 55/5/20 56/6/20
f 57/4/21 58/3/21 59/5/21 60/6/21
f 61/4/22 62/3/22 63/5/22 64/6/22
f 36/4/23 35/3/23 34/5/23 33/6/23
f 40/4/24 39/3/24 38/5/24 37/6/24
f 44/4/25 43/3/25 42/5/25 41/6/25
f 48/4/26 47/3/26 46/5/26 45/6/26
f 52/4/27 51/3/27 50/5/27 49/6/27
f 56/4/28 55/3/28 54/5/28 53/6/28
f 60/4/29 59/3/29 58/5/29 57/6/29
f 64/4/30 63/3/30 62/5/30 61/6/30
f 65/6/22 66/5/22 67/7/22 68/8/22
f 69/6/31 70/5/31 71/7/31 72/8/31
f 72/6/18 71/5/18 66/7/18 65/8/18
f 68/6/32 67/5/32 70/7/32 69/8/32
f 67/6/33 66/5/33 71/7/33 70/8/33
f 65/6/34 68/5/34 69/7/34 72/8/34
f 1/6/33 5/5/33 8/7/33 4/8/33
f 5/6/33 9/5/33 12/7/33 8/8/33
f 9/6/33 13/5/33 16/7/33 12/8/33
f 13/6/33 17/5/33 20/7/33 16/8/33
f 17/6/33 25/5/33 28/7/33 20/8/33
f 21/6/33 29/5/33 32/7/33 24/8/33
f 25/6/33 21/5/33 24/7/33 28/8/33
f 29/6/33 1/5/33 4/7/33 32/8/33
f 73/6/34 74/5/34 75/7/34 76/8/34
f 74/6/34 77/5/34 78/7/34 75/8/34
f 77/6/34 79/5/34 80/7/34 78/8/34
f 79/6/34 81/5/34 82/7/34 80/8/34
f 81/6/34 83/5/34 84/7/34 82/8/34
f 85/6/34 86/5/34 87/7/34 88/8/34
f 83/6/34 85/5/34 88/7/34 84/8/34
f 86/6/34 73/5/34 76/7/34 87/8/34
f 78/6/35 9/5/35 5/7/35 75/8/35
f 84/6/36 25/5/36 17/7/36 82/8/36
f 80/6/37 13/5/37 9/7/37 78/8/37
f 87/6/38 29/5/38 21/7/38 88/8/38
f 75/6/39 5/5/39 1/7/39 76/8/39
f 76/6/40 1/5/40 29/7/40 87/8/40
f 88/6/41 21/5/41 25/7/41 84/8/41
f 82/6/42 17/5/42 13/7/42 80/8/42
f 74/6/43 8/5/43 12/7/43 77/8/43
f 81/6/44 20/5/44 28/7/44 83/8/44
f 77/6/26 12/5/26 16/7/26 79/8/26
f 85/6/45 24/5/45 32/7/45 86/8/45
f 73/6/30 4/5/30 8/7/30 74/8/30
f 86/6/46 32/5/46 4/7/46 73/8/46
f 83/6/47 28/5/47 24/7/47 85/8/47
f 79/6/48 16/5/48 20/7/48 81/8/48
# 70 faces
