mtllib almura:cep_scholar_magichat.mtl

v 0.74999994 0.125 0.40625
v 0.49999994 0.625 0.5
v 0.75 0.125 0.59375
v 0.59375 0.125 0.75
v 0.40625 0.125 0.75000006
v 0.24999994 0.125 0.59375006
v 0.24999994 0.125 0.40625006
v 0.40624994 0.125 0.25000006
v 0.59374994 0.125 0.25000006
v 0.62499994 0.125 0.18750006
v 0.37499994 0.125 0.18750006
v 0.49999994 0.125 0.5
v 0.18749994 0.125 0.37500006
v 0.18749994 0.125 0.62500006
v 0.375 0.125 0.81250006
v 0.625 0.125 0.8125
v 0.8125 0.125 0.625
v 0.81249994 0.125 0.375
v 0.18749994 0.0625 0.37500006
v 0.37499994 0.0625 0.18750006
v 0.625 0.0625 0.8125
v 0.375 0.0625 0.81250006
v 0.18749994 0.0625 0.62500006
v 0.81249994 0.0625 0.375
v 0.8125 0.0625 0.625
v 0.62499994 0.0625 0.18750006
v 0.6874999 0.0 0.0
v 0.31249994 0.0 5.9604645E-8
v 0.49999994 0.1875 0.5
v -1.1920929E-7 0.0 0.31250006
v 0.0 0.0 0.6875001
v 0.3125 0.0 1.0000001
v 0.6875 0.0 1.0
v 1.0 0.0 0.6875
v 0.99999994 0.0 0.3125
v 0.49999994 0.0 0.5
# 36 vertices

vn 0.8944271 0.44721365 -2.8433072E-7
vn 2.8433072E-7 0.44721365 0.8944271
vn -0.8944272 0.4472136 0.0
vn 0.0 0.4472135 -0.8944272
vn 0.6359428 0.4372107 -0.63594306
vn 0.6359429 0.4372108 0.6359429
vn -0.63594276 0.43721077 0.635943
vn -0.63594294 0.43721068 -0.63594294
vn 0.0 1.0 0.0
vn -0.7071068 0.0 -0.7071068
vn 2.3841858E-7 0.0 1.0
vn -1.0 0.0 0.0
vn 1.0 0.0 -2.3841858E-7
vn 0.0 0.0 -1.0
vn 0.70710665 0.0 -0.7071069
vn 0.7071068 0.0 0.7071068
vn -0.70710665 0.0 0.7071069
vn -5.580958E-8 0.93632925 -0.35112345
vn -0.35112345 0.9363292 1.11619116E-7
vn -0.25445667 0.93300784 -0.25445673
vn -0.25445667 0.93300784 0.25445667
vn 1.11619116E-7 0.9363292 0.3511234
vn 0.35112342 0.9363292 -5.5809565E-8
vn 0.25445667 0.93300784 0.25445667
vn 0.25445667 0.93300784 -0.2544567
vn 0.0 -1.0 0.0
# 26 vertex normals

vt 0.125 0.0
vt 0.125 0.125
vt 0.0 0.125
vt 0.0 0.0
vt 0.25 0.0
vt 0.25 0.125
vt 0.375 0.0
vt 0.375 0.125
# 8 texture coords

g cep_scholar_magichat
usemtl cep_scholar_magichat

f 1/1/1 2/2/1 2/3/1 3/4/1
f 4/1/2 2/2/2 2/3/2 5/4/2
f 6/1/3 2/2/3 2/3/3 7/4/3
f 8/1/4 2/2/4 2/3/4 9/4/4
f 9/1/5 2/2/5 2/3/5 1/4/5
f 3/1/6 2/2/6 2/3/6 4/4/6
f 5/1/7 2/2/7 2/3/7 6/4/7
f 7/1/8 2/2/8 2/3/8 8/4/8
f 10/5/9 11/6/9 12/2/9 12/1/9
f 11/5/9 13/6/9 12/2/9 12/1/9
f 13/5/9 14/6/9 12/2/9 12/1/9
f 14/5/9 15/6/9 12/2/9 12/1/9
f 15/5/9 16/6/9 12/2/9 12/1/9
f 17/5/9 18/6/9 12/2/9 12/1/9
f 16/5/9 17/6/9 12/2/9 12/1/9
f 18/5/9 10/6/9 12/2/9 12/1/9
f 19/5/10 13/6/10 11/2/10 20/1/10
f 21/5/11 16/6/11 15/2/11 22/1/11
f 23/5/12 14/6/12 13/2/12 19/1/12
f 24/5/13 18/6/13 17/2/13 25/1/13
f 20/5/14 11/6/14 10/2/14 26/1/14
f 26/5/15 10/6/15 18/2/15 24/1/15
f 25/5/16 17/6/16 16/2/16 21/1/16
f 22/5/17 15/6/17 14/2/17 23/1/17
f 27/1/18 28/2/18 29/3/18 29/4/18
f 30/1/19 31/2/19 29/3/19 29/4/19
f 28/1/20 30/2/20 29/3/20 29/4/20
f 31/1/21 32/2/21 29/3/21 29/4/21
f 32/1/22 33/2/22 29/3/22 29/4/22
f 34/1/23 35/2/23 29/3/23 29/4/23
f 33/1/24 34/2/24 29/3/24 29/4/24
f 35/1/25 27/2/25 29/3/25 29/4/25
f 28/7/26 27/8/26 36/6/26 36/5/26
f 30/7/26 28/8/26 36/6/26 36/5/26
f 31/7/26 30/8/26 36/6/26 36/5/26
f 32/7/26 31/8/26 36/6/26 36/5/26
f 35/7/26 34/8/26 36/6/26 36/5/26
f 34/7/26 33/8/26 36/6/26 36/5/26
f 33/7/26 32/8/26 36/6/26 36/5/26
f 27/7/26 35/8/26 36/6/26 36/5/26
# 40 faces
