mtllib almura:cep_king_crown.mtl

v 0.24999994 0.5 0.25000006
v 0.25 0.5 0.75000006
v 0.75 0.5 0.75
v 0.74999994 0.5 0.25
v 0.74999994 0.0 0.25
v 0.75 0.0 0.75
v 0.25 0.0 0.75000006
v 0.24999994 0.0 0.25000006
v 0.24999994 0.0625 0.25000006
v 0.74999994 0.0625 0.25
v 0.75 0.0625 0.75
v 0.25 0.0625 0.75000006
v 0.31249994 0.125 0.31250006
v 0.68749994 0.125 0.3125
v 0.6875 0.125 0.6875
v 0.3125 0.125 0.68750006
v 0.18749994 0.21875 0.18750006
v 0.81749994 0.21875 0.1875
v 0.8175 0.21875 0.8175
v 0.1875 0.21875 0.81750005
v 0.18749994 0.40625 0.18750006
v 0.81749994 0.40625 0.1875
v 0.8175 0.40625 0.8175
v 0.1875 0.40625 0.81750005
v 0.44999993 0.125 0.31150007
v 0.44999993 0.21875 0.18650007
v 0.54999995 0.21875 0.18650007
v 0.54999995 0.125 0.31150007
v 0.54999995 0.125 0.68850005
v 0.54999995 0.21875 0.81850004
v 0.45 0.21875 0.81850004
v 0.45 0.125 0.68850005
v 0.6884999 0.125 0.45
v 0.8184999 0.21875 0.45
v 0.8184999 0.21875 0.5500001
v 0.6884999 0.125 0.5500001
v 0.31149995 0.125 0.5500001
v 0.18649995 0.21875 0.5500001
v 0.18649995 0.21875 0.45000005
v 0.31149995 0.125 0.45000005
v 0.44999993 0.40625 0.18650007
v 0.54999995 0.40625 0.18650007
v 0.54999995 0.40625 0.81850004
v 0.45 0.40625 0.81850004
v 0.8184999 0.40625 0.45
v 0.8184999 0.40625 0.5500001
v 0.18649995 0.40625 0.5500001
v 0.18649995 0.40625 0.45000005
v 0.44999993 0.5 0.24900007
v 0.54999995 0.5 0.24900007
v 0.54999995 0.5 0.75100005
v 0.45 0.5 0.75100005
v 0.7509999 0.5 0.45
v 0.7509999 0.5 0.5500001
v 0.24899995 0.5 0.5500001
v 0.24899995 0.5 0.45000005
v 0.44999993 0.6 0.5500001
v 0.45 0.501 0.75000006
v 0.54999995 0.501 0.75000006
v 0.54999995 0.6 0.5500001
v 0.54999995 0.6 0.45000005
v 0.54999995 0.501 0.25000006
v 0.44999993 0.501 0.25000006
v 0.44999993 0.6 0.45000005
v 0.75 0.501 0.5500001
v 0.74999994 0.501 0.45
v 0.24999994 0.501 0.45000005
v 0.24999994 0.501 0.5500001
v 0.37499994 0.6 0.50000006
v 0.37499994 0.85 0.50000006
v 0.625 0.85 0.5
v 0.625 0.6 0.5
# 72 vertices

vn 0.0 1.0 0.0
vn 0.0 -1.0 0.0
vn -1.1920929E-7 0.0 -1.0
vn 1.1920929E-7 0.0 1.0
vn 1.0 0.0 -1.1920929E-7
vn -1.0 0.0 1.1920929E-7
vn -1.1239159E-7 0.7071068 -0.7071067
vn 1.1239159E-7 0.7071068 0.7071067
vn 0.7071067 0.7071068 -1.1239159E-7
vn -0.7071067 0.7071068 1.1239159E-7
vn -5.6766325E-8 -0.8000001 -0.59999996
vn 5.5339687E-8 -0.8110903 0.5849209
vn 0.5849209 -0.8110903 -5.5339687E-8
vn -0.59999996 -0.8000001 5.6766325E-8
vn -9.461055E-8 0.0 -1.0
vn 9.461055E-8 0.0 1.0
vn 1.0 0.0 -9.461055E-8
vn -1.0 0.0 9.461055E-8
vn -9.918812E-8 0.55470026 -0.83205026
vn 9.674243E-8 0.58430475 0.81153435
vn 0.81153435 0.58430475 -9.674243E-8
vn -0.83205026 0.55470026 9.918812E-8
vn 0.0 -0.8 -0.6
vn 0.0 -0.8110903 0.5849209
vn 0.5849209 -0.8110903 0.0
vn -0.6 -0.8 0.0
vn 0.0 0.0 -1.0
vn 0.0 0.0 1.0
vn 1.0 0.0 0.0
vn -1.0 0.0 0.0
vn 0.0 0.5547002 -0.8320503
vn 0.0 0.5843047 0.8115344
vn 0.81153435 0.5843047 0.0
vn -0.8320503 0.5547002 0.0
vn 0.0 0.8962124 0.4436253
vn 0.0 0.89621234 -0.44362533
vn 0.44362524 0.8962124 0.0
vn -0.44362533 0.89621234 0.0
vn -2.3841852E-7 0.0 -1.0
# 39 vertex normals

vt 0.125 0.625
vt 0.125 0.75
vt 0.0 0.75
vt 0.0 0.625
vt 0.375 0.625
vt 0.375 0.75
vt 0.25 0.75
vt 0.25 0.625
vt 0.5 0.625
vt 0.5 0.75
# 10 texture coords

g cep_king_crown
usemtl cep_king_crown

f 1/1/1 2/2/1 3/3/1 4/4/1
f 5/5/2 6/6/2 7/7/2 8/8/2
f 8/5/3 9/6/3 10/7/3 5/8/3
f 6/5/4 11/6/4 12/7/4 7/8/4
f 5/5/5 10/6/5 11/7/5 6/8/5
f 7/5/6 12/6/6 9/7/6 8/8/6
f 9/8/7 13/7/7 14/2/7 10/1/7
f 11/8/8 15/7/8 16/2/8 12/1/8
f 10/8/9 14/7/9 15/2/9 11/1/9
f 12/8/10 16/7/10 13/2/10 9/1/10
f 13/1/11 17/2/11 18/3/11 14/4/11
f 15/1/12 19/2/12 20/3/12 16/4/12
f 14/1/13 18/2/13 19/3/13 15/4/13
f 16/1/14 20/2/14 17/3/14 13/4/14
f 17/1/15 21/2/15 22/3/15 18/4/15
f 19/1/16 23/2/16 24/3/16 20/4/16
f 18/1/17 22/2/17 23/3/17 19/4/17
f 20/1/18 24/2/18 21/3/18 17/4/18
f 21/1/19 1/2/19 4/3/19 22/4/19
f 23/1/20 3/2/20 2/3/20 24/4/20
f 22/1/21 4/2/21 3/3/21 23/4/21
f 24/1/22 2/2/22 1/3/22 21/4/22
f 25/5/23 26/6/23 27/7/23 28/8/23
f 29/5/24 30/6/24 31/7/24 32/8/24
f 33/5/25 34/6/25 35/7/25 36/8/25
f 37/5/26 38/6/26 39/7/26 40/8/26
f 26/5/27 41/6/27 42/7/27 27/8/27
f 30/5/28 43/6/28 44/7/28 31/8/28
f 34/5/29 45/6/29 46/7/29 35/8/29
f 38/5/30 47/6/30 48/7/30 39/8/30
f 41/5/31 49/6/31 50/7/31 42/8/31
f 43/5/32 51/6/32 52/7/32 44/8/32
f 45/5/33 53/6/33 54/7/33 46/8/33
f 47/5/34 55/6/34 56/7/34 48/8/34
f 57/5/35 58/6/35 59/7/35 60/8/35
f 61/5/36 62/6/36 63/7/36 64/8/36
f 61/5/37 60/6/37 65/7/37 66/8/37
f 57/5/38 64/6/38 67/7/38 68/8/38
f 60/5/1 61/6/1 64/7/1 57/8/1
f 69/9/39 70/10/39 71/6/39 72/5/39
# 40 faces
