mtllib almura:cep_battlecraft_ww2_faction6_pedestal.mtl

v 0.7187499 1.0 0.0
v 0.28124994 1.0 5.9604645E-8
v 0.49999994 1.0 0.5
v -1.1920929E-7 1.0 0.28125006
v 0.0 1.0 0.7187501
v 0.28125 1.0 1.0000001
v 0.71875 1.0 1.0
v 1.0 1.0 0.71875
v 0.99999994 1.0 0.28125
v 0.0 0.875 0.7187501
v -1.1920929E-7 0.875 0.28125006
v 0.49999994 0.875 0.5
v 0.28125 0.875 1.0000001
v 0.71875 0.875 1.0
v 0.99999994 0.875 0.28125
v 1.0 0.875 0.71875
v 0.28124994 0.875 5.9604645E-8
v 0.7187499 0.875 0.0
v 0.7187499 0.125 0.0
v 0.28124994 0.125 5.9604645E-8
v 0.49999994 0.125 0.5
v -1.1920929E-7 0.125 0.28125006
v 0.0 0.125 0.7187501
v 0.28125 0.125 1.0000001
v 0.71875 0.125 1.0
v 1.0 0.125 0.71875
v 0.99999994 0.125 0.28125
v 0.0 0.0 0.7187501
v -1.1920929E-7 0.0 0.28125006
v 0.49999994 0.0 0.5
v 0.28125 0.0 1.0000001
v 0.71875 0.0 1.0
v 0.99999994 0.0 0.28125
v 1.0 0.0 0.71875
v 0.28124994 0.0 5.9604645E-8
v 0.7187499 0.0 0.0
v 0.18749994 0.125 0.37500006
v 0.18749994 0.875 0.37500006
v 0.37499994 0.875 0.18750006
v 0.37499994 0.125 0.18750006
v 0.625 0.125 0.8125
v 0.625 0.875 0.8125
v 0.375 0.875 0.81250006
v 0.375 0.125 0.81250006
v 0.18749994 0.125 0.62500006
v 0.18749994 0.875 0.62500006
v 0.81249994 0.125 0.375
v 0.81249994 0.875 0.375
v 0.8125 0.875 0.625
v 0.8125 0.125 0.625
v 0.62499994 0.875 0.18750006
v 0.62499994 0.125 0.18750006
# 52 vertices

vn 0.0 1.0 0.0
vn 0.0 -1.0 0.0
vn -0.7071067 0.0 -0.7071068
vn 2.724784E-7 0.0 1.0
vn -1.0 0.0 2.7247833E-7
vn 1.0 0.0 -1.362392E-7
vn -1.3623921E-7 0.0 -1.0
vn 0.7071067 0.0 -0.7071068
vn 0.70710677 0.0 0.70710677
vn -0.70710677 0.0 0.70710677
vn -0.70710677 0.0 -0.70710677
vn 2.3841858E-7 0.0 1.0
vn -1.0 0.0 0.0
vn 1.0 0.0 -2.3841858E-7
vn 0.0 0.0 -1.0
vn 0.7071067 0.0 -0.70710695
vn -0.70710665 0.0 0.7071069
# 17 vertex normals

vt 0.375 0.625
vt 0.375 0.75
vt 0.25 0.75
vt 0.25 0.625
vt 0.5 0.625
vt 0.5 0.75
vt 0.625 0.625
vt 0.625 0.75
# 8 texture coords

g cep_battlecraft_ww2_faction6_pedestal
usemtl cep_battlecraft_ww2_faction6_pedestal

f 1/1/1 2/2/1 3/3/1 3/4/1
f 2/1/1 4/2/1 3/3/1 3/4/1
f 4/1/1 5/2/1 3/3/1 3/4/1
f 5/1/1 6/2/1 3/3/1 3/4/1
f 6/1/1 7/2/1 3/3/1 3/4/1
f 8/1/1 9/2/1 3/3/1 3/4/1
f 7/1/1 8/2/1 3/3/1 3/4/1
f 9/1/1 1/2/1 3/3/1 3/4/1
f 10/5/2 11/6/2 12/2/2 12/1/2
f 13/5/2 10/6/2 12/2/2 12/1/2
f 14/5/2 13/6/2 12/2/2 12/1/2
f 15/5/2 16/6/2 12/2/2 12/1/2
f 16/5/2 14/6/2 12/2/2 12/1/2
f 11/5/2 17/6/2 12/2/2 12/1/2
f 17/5/2 18/6/2 12/2/2 12/1/2
f 18/5/2 15/6/2 12/2/2 12/1/2
f 19/5/1 20/6/1 21/2/1 21/1/1
f 20/5/1 22/6/1 21/2/1 21/1/1
f 22/5/1 23/6/1 21/2/1 21/1/1
f 23/5/1 24/6/1 21/2/1 21/1/1
f 24/5/1 25/6/1 21/2/1 21/1/1
f 26/5/1 27/6/1 21/2/1 21/1/1
f 25/5/1 26/6/1 21/2/1 21/1/1
f 27/5/1 19/6/1 21/2/1 21/1/1
f 28/5/2 29/6/2 30/2/2 30/1/2
f 31/5/2 28/6/2 30/2/2 30/1/2
f 32/5/2 31/6/2 30/2/2 30/1/2
f 33/5/2 34/6/2 30/2/2 30/1/2
f 34/5/2 32/6/2 30/2/2 30/1/2
f 29/5/2 35/6/2 30/2/2 30/1/2
f 35/5/2 36/6/2 30/2/2 30/1/2
f 36/5/2 33/6/2 30/2/2 30/1/2
f 11/7/3 4/8/3 2/6/3 17/5/3
f 14/7/4 7/8/4 6/6/4 13/5/4
f 10/7/5 5/8/5 4/6/5 11/5/5
f 15/7/6 9/8/6 8/6/6 16/5/6
f 17/7/7 2/8/7 1/6/7 18/5/7
f 18/7/8 1/8/8 9/6/8 15/5/8
f 16/7/9 8/8/9 7/6/9 14/5/9
f 13/7/10 6/8/10 5/6/10 10/5/10
f 37/5/11 38/6/11 39/2/11 40/1/11
f 41/5/12 42/6/12 43/2/12 44/1/12
f 45/5/13 46/6/13 38/2/13 37/1/13
f 47/5/14 48/6/14 49/2/14 50/1/14
f 40/5/15 39/6/15 51/2/15 52/1/15
f 52/5/16 51/6/16 48/2/16 47/1/16
f 50/5/9 49/6/9 42/2/9 41/1/9
f 44/5/17 43/6/17 46/2/17 45/1/17
f 29/5/3 22/6/3 20/2/3 35/1/3
f 32/5/4 25/6/4 24/2/4 31/1/4
f 28/5/5 23/6/5 22/2/5 29/1/5
f 33/5/6 27/6/6 26/2/6 34/1/6
f 35/5/7 20/6/7 19/2/7 36/1/7
f 36/5/8 19/6/8 27/2/8 33/1/8
f 34/5/9 26/6/9 25/2/9 32/1/9
f 31/5/10 24/6/10 23/2/10 28/1/10
# 56 faces
