mtllib almura:cep_carpenter_chair.mtl

v 0.8124999 0.0 0.0625
v 0.8124999 0.4 0.0625
v 0.93749994 0.4 0.0625
v 0.93749994 0.0 0.0625
v 0.93749994 0.4 0.1875
v 0.93749994 0.0 0.1875
v 0.81249994 0.4 0.1875
v 0.81249994 0.0 0.1875
v 0.9375 0.0 0.9375
v 0.9375 0.4 0.9375
v 0.8125 0.4 0.9375
v 0.8125 0.0 0.9375
v 0.8125 0.4 0.8125
v 0.8125 0.0 0.8125
v 0.9375 0.4 0.8125
v 0.9375 0.0 0.8125
v 0.1875 0.0 0.93750006
v 0.1875 0.4 0.93750006
v 0.0625 0.4 0.93750006
v 0.0625 0.0 0.93750006
v 0.1875 0.0 0.81250006
v 0.1875 0.4 0.81250006
v 0.0625 0.0 0.8125001
v 0.0625 0.4 0.8125001
v 0.06249994 0.0 0.18750006
v 0.06249994 0.4 0.18750006
v 0.06249994 0.4 0.06250006
v 0.06249994 0.0 0.06250006
v 0.18749994 0.4 0.06250006
v 0.18749994 0.0 0.06250006
v 0.18749994 0.4 0.18750006
v 0.18749994 0.0 0.18750006
v 1.0 0.4 1.0
v 0.0 0.4 1.0000001
v -1.1920929E-7 0.4 5.9604645E-8
v 0.99999994 0.4 0.0
v 0.99999994 0.5 0.0
v -1.1920929E-7 0.5 5.9604645E-8
v 0.0 0.5 1.0000001
v 1.0 0.5 1.0
v 0.7 0.5 0.875
v 0.7 1.3 0.9375
v 0.9 1.3 0.9375
v 0.9 0.5 0.875
v 0.9 0.5 0.9375
v 0.9 1.3 1.0
v 0.7 1.3 1.0
v 0.7 0.5 0.9375
v 0.100000024 0.5 0.87500006
v 0.100000024 1.3 0.93750006
v 0.3 1.3 0.93750006
v 0.3 0.5 0.87500006
v 0.3 0.5 0.93750006
v 0.3 1.3 1.0000001
v 0.100000024 1.3 1.0000001
v 0.100000024 0.5 0.93750006
v 0.39999998 0.5 0.87500006
v 0.39999998 1.3 0.93750006
v 0.6 1.3 0.93750006
v 0.6 0.5 0.87500006
v 0.6 0.5 0.93750006
v 0.6 1.3 1.0
v 0.39999998 1.3 1.0
v 0.39999998 0.5 0.93750006
v 0.0 1.3 0.8750001
v 0.0 1.5 0.93750006
v 1.0 1.5 0.9375
v 1.0 1.3 0.875
v 1.0 1.3 1.0
v 1.0 1.5 1.0
v 0.0 1.5 1.0000001
v 0.0 1.3 1.0000001
# 72 vertices

vn 0.0 0.0 -1.0
vn 1.0 0.0 0.0
vn 0.0 0.0 1.0
vn -1.0 0.0 4.7683716E-7
vn -1.0 0.0 0.0
vn -4.7683716E-7 0.0 -1.0
vn 0.0 -1.0 0.0
vn 0.0 1.0 0.0
vn 0.0 0.07788767 -0.99696213
vn 0.0 -0.07788767 0.99696213
vn 0.0 -0.07788775 0.99696213
vn 0.0 0.07788768 -0.99696213
vn 0.0 -0.0778876 0.99696213
vn -5.6891448E-8 0.29827467 -0.9544801
vn 1.1920929E-7 0.0 1.0
vn -5.9604645E-8 0.0 -1.0
vn -1.0 0.0 1.1920929E-7
vn 1.0 0.0 -5.9604645E-8
# 18 vertex normals

vt 0.75 0.875
vt 0.75 1.0
vt 0.625 1.0
vt 0.625 0.875
vt 0.875 0.875
vt 0.875 1.0
# 6 texture coords

g cep_carpenter_chair
usemtl cep_carpenter_chair

f 1/1/1 2/2/1 3/3/1 4/4/1
f 4/1/2 3/2/2 5/3/2 6/4/2
f 6/1/3 5/2/3 7/3/3 8/4/3
f 8/1/4 7/2/4 2/3/4 1/4/4
f 9/1/3 10/2/3 11/3/3 12/4/3
f 12/1/5 11/2/5 13/3/5 14/4/5
f 14/1/1 13/2/1 15/3/1 16/4/1
f 16/1/2 15/2/2 10/3/2 9/4/2
f 17/1/3 18/2/3 19/3/3 20/4/3
f 21/1/2 22/2/2 18/3/2 17/4/2
f 23/1/6 24/2/6 22/3/6 21/4/6
f 20/1/5 19/2/5 24/3/5 23/4/5
f 25/1/5 26/2/5 27/3/5 28/4/5
f 28/1/1 27/2/1 29/3/1 30/4/1
f 30/1/2 29/2/2 31/3/2 32/4/2
f 32/1/3 31/2/3 26/3/3 25/4/3
f 32/5/7 25/6/7 28/2/7 30/1/7
f 9/5/7 12/6/7 14/2/7 16/1/7
f 6/5/7 8/6/7 1/2/7 4/1/7
f 23/5/7 21/6/7 17/2/7 20/1/7
f 33/5/7 34/6/7 35/2/7 36/1/7
f 37/5/8 38/6/8 39/2/8 40/1/8
f 41/1/9 42/2/9 43/3/9 44/4/9
f 45/1/10 46/2/10 47/3/10 48/4/10
f 48/1/5 47/2/5 42/3/5 41/4/5
f 44/1/2 43/2/2 46/3/2 45/4/2
f 49/1/9 50/2/9 51/3/9 52/4/9
f 53/1/11 54/2/11 55/3/11 56/4/11
f 56/1/5 55/2/5 50/3/5 49/4/5
f 52/1/2 51/2/2 54/3/2 53/4/2
f 57/1/12 58/2/12 59/3/12 60/4/12
f 61/1/13 62/2/13 63/3/13 64/4/13
f 64/1/5 63/2/5 58/3/5 57/4/5
f 60/1/2 59/2/2 62/3/2 61/4/2
f 65/5/14 66/6/14 67/2/14 68/1/14
f 69/5/15 70/6/15 71/2/15 72/1/15
f 72/1/5 71/2/5 66/3/5 65/4/5
f 68/1/2 67/2/2 70/3/2 69/4/2
f 66/1/8 71/2/8 70/3/8 67/4/8
f 68/1/7 69/2/7 72/3/7 65/4/7
f 35/5/16 38/6/16 37/2/16 36/1/16
f 33/5/15 40/6/15 39/2/15 34/1/15
f 34/5/17 39/6/17 38/2/17 35/1/17
f 36/5/18 37/6/18 40/2/18 33/1/18
# 44 faces
