mtllib almura:cep_battlecraftww2_box_ammo.mtl

v -1.1920929E-7 0.0 5.9604645E-8
v -1.1920929E-7 1.0 5.9604645E-8
v 0.99999994 1.0 0.0
v 0.99999994 0.0 0.0
v 1.0 0.0 1.0
v 1.0 1.0 1.0
v 0.0 1.0 1.0000001
v 0.0 0.0 1.0000001
# 8 vertices

vn -5.9604645E-8 0.0 -1.0
vn 1.1920929E-7 0.0 1.0
vn 0.0 1.0 0.0
vn -1.0 0.0 1.1920929E-7
vn 1.0 0.0 -5.9604645E-8
vn 0.0 -1.0 0.0
# 6 vertex normals

vt 0.125 0.125
vt 0.125 0.25
vt 0.0 0.25
vt 0.0 0.125
vt 0.25 0.375
vt 0.25 0.5
vt 0.125 0.5
vt 0.125 0.375
vt 0.0 0.5
vt 0.0 0.375
# 10 texture coords

g cep_battlecraftww2_box_ammo
usemtl cep_battlecraftww2_box_ammo

f 1/1/1 2/2/1 3/3/1 4/4/1
f 5/1/2 6/2/2 7/3/2 8/4/2
f 2/5/3 7/6/3 6/7/3 3/8/3
f 8/8/4 7/7/4 2/9/4 1/10/4
f 4/8/5 3/7/5 6/9/5 5/10/5
f 4/5/6 5/6/6 8/7/6 1/8/6
# 6 faces
