mtllib cep_forester_wood23_sapling.mtl

v -1.1920929E-7 0.0 5.9604645E-8
v -1.1920929E-7 1.0 5.9604645E-8
v 1.0 1.0 1.0
v 1.0 0.0 1.0
v 0.0 0.0 1.0000001
v 0.0 1.0 1.0000001
v 0.99999994 1.0 0.0
v 0.99999994 0.0 0.0
# 8 vertices

vn 0.70710677 0.0 -0.7071069
vn -0.7071069 0.0 -0.70710677
# 2 vertex normals

vt 0.125 0.875
vt 0.125 0.90625
vt 0.09375 0.90625
vt 0.09375 0.875
# 4 texture coords

g cep_forester_wood23_sapling
usemtl cep_forester_wood23_sapling

f 1/1/1 2/2/1 3/3/1 4/4/1
f 5/1/2 6/2/2 7/3/2 8/4/2
# 2 faces
