mtllib almura:cep_scholar_candle.mtl

v 0.46874994 0.0 0.51562506
v 0.46874994 0.375 0.51562506
v 0.46874994 0.375 0.48437506
v 0.46874994 0.0 0.48437506
v 0.48437494 0.0 0.46875006
v 0.48437494 0.375 0.46875006
v 0.51562494 0.375 0.46875006
v 0.51562494 0.0 0.46875006
v 0.53124994 0.0 0.48437506
v 0.53124994 0.375 0.48437506
v 0.53125 0.375 0.515625
v 0.53125 0.0 0.515625
v 0.515625 0.0 0.53125
v 0.515625 0.375 0.53125
v 0.48437494 0.375 0.53125006
v 0.48437494 0.0 0.53125006
v 0.43749994 0.375 0.43750006
v 0.43749994 0.5625 0.43750006
v 0.5625 0.5625 0.5625
v 0.5625 0.375 0.5625
v 0.43749994 0.375 0.56250006
v 0.43749994 0.5625 0.56250006
v 0.56249994 0.5625 0.43750006
v 0.56249994 0.375 0.43750006
v 0.53125 0.0625 0.53125
v 0.5625 0.125 0.5625
v 0.43749994 0.125 0.56250006
v 0.46874994 0.0625 0.53125006
v 0.53124994 0.0625 0.46875006
v 0.56249994 0.125 0.43750006
v 0.46874994 0.0625 0.46875006
v 0.43749994 0.125 0.43750006
v 0.56249994 0.0 0.43750006
v 0.5625 0.0 0.5625
v 0.43749994 0.0 0.43750006
v 0.43749994 0.0 0.56250006
# 36 vertices

vn -1.0 0.0 0.0
vn 0.0 0.0 -1.0
vn 1.0 0.0 -1.9073523E-6
vn 1.907345E-6 0.0 1.0
vn -0.7071068 0.0 0.7071068
vn 0.7071068 0.0 0.7071068
vn -0.7071068 0.0 -0.7071068
vn 0.7071068 0.0 -0.7071068
vn 0.7071065 0.0 -0.7071071
vn -0.7071065 0.0 0.7071071
vn 4.264959E-7 -0.44721377 0.8944271
vn 0.8944271 -0.44721377 -4.2649629E-7
vn 0.0 -0.4472136 -0.8944272
vn -0.8944272 -0.4472136 0.0
vn 0.894427 0.44721392 -8.5299286E-7
vn 0.0 0.4472136 -0.8944272
vn -0.8944272 0.4472136 0.0
vn 8.529912E-7 0.44721392 0.894427
vn 0.0 1.0 0.0
# 19 vertex normals

vt 0.625 0.125
vt 0.625 0.25
vt 0.5 0.25
vt 0.5 0.125
vt 0.75 0.125
vt 0.75 0.25
vt 0.875 0.125
vt 0.875 0.25
# 8 texture coords

g cep_scholar_candle
usemtl cep_scholar_candle

f 1/1/1 2/2/1 3/3/1 4/4/1
f 5/1/2 6/2/2 7/3/2 8/4/2
f 9/1/3 10/2/3 11/3/3 12/4/3
f 13/1/4 14/2/4 15/3/4 16/4/4
f 16/1/5 15/2/5 2/3/5 1/4/5
f 12/1/6 11/2/6 14/3/6 13/4/6
f 4/1/7 3/2/7 6/3/7 5/4/7
f 8/1/8 7/2/8 10/3/8 9/4/8
f 17/5/9 18/6/9 19/2/9 20/1/9
f 20/5/10 19/6/10 18/2/10 17/1/10
f 21/5/7 22/6/7 23/2/7 24/1/7
f 24/5/6 23/6/6 22/2/6 21/1/6
f 25/7/11 26/8/11 27/6/11 28/5/11
f 29/7/12 30/8/12 26/6/12 25/5/12
f 31/7/13 32/8/13 30/6/13 29/5/13
f 28/7/14 27/8/14 32/6/14 31/5/14
f 33/7/15 29/8/15 25/6/15 34/5/15
f 35/7/16 31/8/16 29/6/16 33/5/16
f 36/7/17 28/8/17 31/6/17 35/5/17
f 34/7/18 25/8/18 28/6/18 36/5/18
f 29/7/19 31/8/19 28/6/19 25/5/19
# 21 faces
