mtllib almura:cep_scholar_book_open.mtl

v 0.49999994 0.002 0.18750006
v 0.5 0.002 0.81250006
v 0.875 0.0625 0.8125
v 0.87499994 0.0625 0.1875
v 0.12499994 0.0625 0.18750006
v 0.125 0.0625 0.81250006
v 0.9 0.0 0.8345
v 0.100000024 0.0 0.8345001
v 0.099999964 0.0 0.16250008
v 0.8999999 0.0 0.16250002
v 0.8999999 0.001 0.16250002
v 0.099999964 0.001 0.16250008
v 0.100000024 0.001 0.8345001
v 0.9 0.001 0.8345
v 0.49999994 0.0 0.18750006
v 0.87499994 0.0 0.1875
v 0.12499994 0.0 0.18750006
v 0.875 0.0 0.8125
v 0.5 0.0 0.81250006
v 0.125 0.0 0.81250006
# 20 vertices

vn -0.15927383 0.9872345 1.5189535E-8
vn 0.15927383 0.9872345 -1.5189535E-8
vn 0.0 -1.0 0.0
vn 0.0 1.0 0.0
vn -1.5894572E-7 0.0 -1.0
vn 0.0 0.0 -1.0
vn 1.5894572E-7 0.0 1.0
vn 0.0 0.0 1.0
vn 1.0 0.0 -9.536743E-8
vn -1.0 0.0 9.536743E-8
# 10 vertex normals

vt 0.75 0.75
vt 0.75 0.875
vt 0.625 0.875
vt 0.625 0.75
vt 0.875 0.75
vt 0.875 0.875
vt 0.5 0.875
vt 0.5 0.75
vt 1.0 0.75
vt 1.0 0.875
# 10 texture coords

g cep_scholar_book_open
usemtl cep_scholar_book_open

f 1/1/1 2/2/1 3/3/1 4/4/1
f 5/5/2 6/6/2 2/2/2 1/1/2
f 7/4/3 8/3/3 9/7/3 10/8/3
f 11/4/4 12/3/4 13/7/4 14/8/4
f 15/9/5 15/10/5 4/6/5 16/5/5
f 17/9/6 5/10/6 15/6/6 15/5/6
f 18/9/7 3/10/7 19/6/7 19/5/7
f 19/9/8 19/10/8 6/6/8 20/5/8
f 16/9/9 4/10/9 3/6/9 18/5/9
f 20/9/10 6/10/10 5/6/10 17/5/10
# 10 faces
