mtllib almura:cep_king_curtain_topcenter.mtl

v 1.0 0.0 1.0
v 1.0 1.0 1.0
v 0.0 1.0 1.0000001
v 0.0 0.0 1.0000001
v 0.0 0.0 0.9999001
v 0.0 1.0 0.9999001
v 1.0 1.0 0.9999
v 1.0 0.0 0.9999
v 0.0 0.9375 1.0000001
v 0.0 1.0 0.93750006
v 0.0 0.9375 0.93750006
v 1.0 0.9375 0.9375
v 1.0 1.0 0.9375
v 1.0 0.9375 1.0
# 14 vertices

vn 1.1920929E-7 0.0 1.0
vn -1.1920929E-7 0.0 -1.0
vn -1.0 0.0 0.0
vn 1.0 0.0 0.0
vn 0.0 1.0 0.0
# 5 vertex normals

vt 0.25 0.375
vt 0.25 0.5
vt 0.125 0.5
vt 0.125 0.375
vt 0.0 0.5
vt 0.0 0.375
vt 0.375 0.25
vt 0.375 0.375
vt 0.25 0.25
# 9 texture coords

g cep_king_curtain_topcenter
usemtl cep_king_curtain_topcenter

f 1/1/1 2/2/1 3/3/1 4/4/1
f 5/4/2 6/3/2 7/5/2 8/6/2
f 9/7/3 3/8/3 10/1/3 11/9/3
f 12/7/4 13/8/4 2/1/4 14/9/4
f 2/7/5 13/8/5 10/1/5 3/9/5
# 5 faces
