mtllib almura:cep_innkeeper_barcorner.mtl

v 1.0 1.0 0.875
v 0.0 1.0 1.0000001
v 1.0 1.0 1.0
v -1.1920929E-7 1.0 5.9604645E-8
v 0.12499994 1.0 5.9604645E-8
v 0.87499994 1.0 0.5
v 0.49999994 1.0 0.12500006
v 1.0 0.875 1.0
v 0.0 0.875 1.0000001
v 1.0 0.875 0.875
v 0.12499994 0.875 5.9604645E-8
v -1.1920929E-7 0.875 5.9604645E-8
v 0.87499994 0.875 0.5
v 0.49999994 0.875 0.12500006
v 1.0 0.0625 0.875
v 0.0 0.0625 1.0000001
v 1.0 0.0625 1.0
v -1.1920929E-7 0.0625 5.9604645E-8
v 0.12499994 0.0625 5.9604645E-8
v 0.87499994 0.0625 0.5
v 0.49999994 0.0625 0.12500006
v 1.0 0.0 1.0
v 0.0 0.0 1.0000001
v 1.0 0.0 0.875
v 0.12499994 0.0 5.9604645E-8
v -1.1920929E-7 0.0 5.9604645E-8
v 0.87499994 0.0 0.5
v 0.49999994 0.0 0.12500006
v 0.75 0.0 0.875
v 0.75 1.0 0.875
v 0.75 1.0 1.0
v 0.75 0.0 1.0
v 0.625 0.0 0.625
v 0.625 1.0 0.625
v 0.37499994 0.0 0.37500006
v 0.37499994 1.0 0.37500006
v 0.12499994 0.0 0.25000006
v 0.12499994 1.0 0.25000006
v -1.1920929E-7 0.0 0.25000006
v -1.1920929E-7 1.0 0.25000006
v 0.875 0.0625 1.0
v 0.875 0.125 1.0
v 0.875 0.125 0.875
v 0.875 0.0625 0.875
v 0.75 0.125 0.5625
v 0.75 0.0625 0.5625
v 0.43749994 0.125 0.25000006
v 0.43749994 0.0625 0.25000006
v 0.12499994 0.125 0.12500006
v 0.12499994 0.0625 0.12500006
v -1.1920929E-7 0.125 0.12500006
v -1.1920929E-7 0.0625 0.12500006
v 0.9375 0.125 0.875
v 0.9375 0.125 1.0
v 0.49999994 0.125 0.18750006
v 0.81249994 0.125 0.5
v 0.12499994 0.125 0.06250006
v -1.1920929E-7 0.125 0.06250006
v 0.9375 0.0625 0.875
v 0.9375 0.0625 1.0
v 0.81249994 0.0625 0.5
v 0.49999994 0.0625 0.18750006
v 0.12499994 0.0625 0.06250006
v -1.1920929E-7 0.0625 0.06250006
# 64 vertices

vn 0.0 1.0 0.0
vn 0.0 -1.0 0.0
vn 1.0 0.0 0.0
vn 0.8944272 0.0 -0.4472136
vn 0.70710665 0.0 -0.70710695
vn 0.4472136 0.0 -0.8944272
vn 0.0 0.0 -1.0
vn 0.31622776 0.0 -0.94868326
vn 0.70710677 0.0 -0.7071069
vn 0.94868326 0.0 -0.3162279
vn -1.0 0.0 1.1920929E-7
vn 1.1920929E-7 0.0 1.0
vn -1.0 0.0 0.0
vn -0.9284767 0.0 0.37139067
vn -0.70710665 0.0 0.7071069
vn -0.37139067 0.0 0.9284767
vn 0.0 0.0 1.0
vn 0.7071067 0.0 -0.7071068
# 18 vertex normals

vt 0.125 0.5
vt 0.125 0.625
vt 0.0 0.625
vt 0.0 0.5
vt 0.25 0.5
vt 0.25 0.625
vt 0.375 0.5
vt 0.375 0.625
vt 0.625 0.5
vt 0.625 0.625
vt 0.5 0.625
vt 0.5 0.5
vt 0.75 0.5
vt 0.75 0.625
# 14 texture coords

g cep_innkeeper_barcorner
usemtl cep_innkeeper_barcorner

f 1/1/1 2/2/1 2/3/1 3/4/1
f 4/1/1 2/2/1 2/3/1 5/4/1
f 6/1/1 2/2/1 2/3/1 1/4/1
f 5/1/1 2/2/1 2/3/1 7/4/1
f 7/1/1 2/2/1 2/3/1 6/4/1
f 8/1/2 9/2/2 9/3/2 10/4/2
f 11/1/2 9/2/2 9/3/2 12/4/2
f 10/1/2 9/2/2 9/3/2 13/4/2
f 14/1/2 9/2/2 9/3/2 11/4/2
f 13/1/2 9/2/2 9/3/2 14/4/2
f 15/1/1 16/2/1 16/3/1 17/4/1
f 18/1/1 16/2/1 16/3/1 19/4/1
f 20/1/1 16/2/1 16/3/1 15/4/1
f 19/1/1 16/2/1 16/3/1 21/4/1
f 21/1/1 16/2/1 16/3/1 20/4/1
f 22/1/2 23/2/2 23/3/2 24/4/2
f 25/1/2 23/2/2 23/3/2 26/4/2
f 24/1/2 23/2/2 23/3/2 27/4/2
f 28/1/2 23/2/2 23/3/2 25/4/2
f 27/1/2 23/2/2 23/3/2 28/4/2
f 29/5/3 30/6/3 31/2/3 32/1/3
f 33/5/4 34/6/4 30/2/4 29/1/4
f 35/5/5 36/6/5 34/2/5 33/1/5
f 37/5/6 38/6/6 36/2/6 35/1/6
f 39/5/7 40/6/7 38/2/7 37/1/7
f 26/7/7 4/8/7 5/6/7 25/5/7
f 25/7/8 5/8/8 7/6/8 28/5/8
f 28/7/9 7/8/9 6/6/9 27/5/9
f 27/7/10 6/8/10 1/6/10 24/5/10
f 24/7/3 1/8/3 3/6/3 22/5/3
f 23/9/11 2/10/11 4/11/11 26/12/11
f 22/12/12 3/11/12 2/8/12 23/7/12
f 41/13/13 42/14/13 43/10/13 44/9/13
f 44/13/14 43/14/14 45/10/14 46/9/14
f 46/13/15 45/14/15 47/10/15 48/9/15
f 48/13/16 47/14/16 49/10/16 50/9/16
f 50/13/17 49/14/17 51/10/17 52/9/17
f 53/13/1 43/14/1 42/10/1 54/9/1
f 55/13/1 47/14/1 45/10/1 56/9/1
f 57/13/1 49/14/1 47/10/1 55/9/1
f 58/13/1 51/14/1 49/10/1 57/9/1
f 56/13/1 45/14/1 43/10/1 53/9/1
f 59/13/3 53/14/3 54/10/3 60/9/3
f 61/13/10 56/14/10 53/10/10 59/9/10
f 62/13/18 55/14/18 56/10/18 61/9/18
f 63/13/8 57/14/8 55/10/8 62/9/8
f 64/13/7 58/14/7 57/10/7 63/9/7
f 52/13/13 51/14/13 58/10/13 64/9/13
f 60/13/17 54/14/17 42/10/17 41/9/17
# 49 faces
