mtllib almura:cep_priest_pew_center.mtl

v 0.0 0.5 0.7125001
v 0.0 1.3 0.7750001
v 1.0 1.3 0.775
v 1.0 0.5 0.7125
v 1.0 0.5 0.8375
v 1.0 1.3 0.9
v 0.0 1.3 0.9000001
v 0.0 0.5 0.8375001
v 0.0 1.5 0.8375001
v 1.0 1.5 0.8375
v 1.0 1.5 0.9
v 0.0 1.5 0.9000001
v 1.0 0.4 0.8375
v 0.0 0.4 0.8375001
v -1.1920929E-7 0.4 5.9604645E-8
v 0.99999994 0.4 0.0
v -1.1920929E-7 0.5 5.9604645E-8
v 0.99999994 0.5 0.0
# 18 vertices

vn -1.1884715E-7 0.07788767 -0.99696213
vn 1.1884715E-7 -0.07788767 0.99696213
vn 1.0 0.0 0.0
vn -1.0 0.0 0.0
vn -1.1378289E-7 0.29827493 -0.95448005
vn 1.1920929E-7 0.0 1.0
vn 0.0 1.0 0.0
vn 0.0 -1.0 0.0
vn -5.9604645E-8 0.0 -1.0
vn 1.0 0.0 -7.116972E-8
vn -1.0 0.0 1.4233945E-7
# 11 vertex normals

vt 1.0 0.875
vt 1.0 1.0
vt 0.875 1.0
vt 0.875 0.875
vt 0.5 0.5
vt 0.5 0.625
vt 0.375 0.625
vt 0.375 0.5
# 8 texture coords

g cep_priest_pew_center
usemtl cep_priest_pew_center

f 1/1/1 2/2/1 3/3/1 4/4/1
f 1/5/1 2/6/1 2/7/1 1/8/1
f 5/5/2 6/6/2 7/7/2 8/8/2
f 4/5/3 3/6/3 6/7/3 5/8/3
f 8/5/4 7/6/4 2/7/4 1/8/4
f 2/5/5 9/6/5 10/7/5 3/8/5
f 6/5/6 11/6/6 12/7/6 7/8/6
f 9/5/4 2/6/4 7/7/4 12/8/4
f 11/5/3 6/6/3 3/7/3 10/8/3
f 9/5/7 12/6/7 11/7/7 10/8/7
f 13/5/8 14/6/8 15/7/8 16/8/8
f 17/1/7 8/2/7 5/3/7 18/4/7
f 15/5/9 17/6/9 18/7/9 16/8/9
f 13/5/6 5/6/6 8/7/6 14/8/6
f 16/5/10 18/6/10 5/7/10 13/8/10
f 14/5/11 8/6/11 17/7/11 15/8/11
# 16 faces
