mtllib almura:cep_mason_7_smooth.mtl

v -1.1920929E-7 0.0 5.9604645E-8
v -1.1920929E-7 1.0 5.9604645E-8
v 0.99999994 1.0 0.0
v 0.99999994 0.0 0.0
v 1.0 0.0 1.0
v 1.0 1.0 1.0
v 0.0 1.0 1.0000001
v 0.0 0.0 1.0000001
# 8 vertices

vn -5.9604645E-8 0.0 -1.0
vn 1.1920929E-7 0.0 1.0
vn 0.0 1.0 0.0
vn -1.0 0.0 1.1920929E-7
vn 1.0 0.0 -5.9604645E-8
vn 0.0 -1.0 0.0
# 6 vertex normals

vt 0.625 0.125
vt 0.625 0.25
vt 0.5 0.25
vt 0.5 0.125
# 4 texture coords

g cep_mason_7_smooth
usemtl cep_mason_7_smooth

f 1/1/1 2/2/1 3/3/1 4/4/1
f 5/1/2 6/2/2 7/3/2 8/4/2
f 2/1/3 7/2/3 6/3/3 3/4/3
f 8/1/4 7/2/4 2/3/4 1/4/4
f 4/1/5 3/2/5 6/3/5 5/4/5
f 4/1/6 5/2/6 8/3/6 1/4/6
# 6 faces
