mtllib almura:cep_scholar_brickpot3.mtl

v 0.81249994 0.99 0.1875
v 0.18749994 0.99 0.18750006
v 0.1875 0.99 0.81250006
v 0.8125 0.99 0.8125
v 0.8125 0.04 0.8125
v 0.1875 0.04 0.81250006
v 0.18749994 0.04 0.18750006
v 0.81249994 0.04 0.1875
v 0.625 0.0 0.8125
v 0.6875 0.1875 0.9375
v 0.3125 0.1875 0.93750006
v 0.375 0.0 0.81250006
v 0.8125 0.0 0.625
v 0.9375 0.1875 0.6875
v 0.81249994 0.0 0.375
v 0.93749994 0.1875 0.3125
v 0.62499994 0.0 0.18750006
v 0.6874999 0.1875 0.0625
v 0.18749994 0.0 0.37500006
v 0.06249994 0.1875 0.31250006
v 0.31249994 0.1875 0.06250006
v 0.37499994 0.0 0.18750006
v 0.18749994 0.0 0.62500006
v 0.0625 0.1875 0.6875001
v 0.93749994 0.6875 0.3125
v 0.9375 0.6875 0.6875
v 0.6875 0.6875 0.9375
v 0.3125 0.6875 0.93750006
v 0.0625 0.6875 0.6875001
v 0.06249994 0.6875 0.31250006
v 0.31249994 0.6875 0.06250006
v 0.6874999 0.6875 0.0625
v 0.81249994 0.875 0.375
v 0.8125 0.875 0.625
v 0.625 0.875 0.8125
v 0.375 0.875 0.81250006
v 0.18749994 0.875 0.62500006
v 0.18749994 0.875 0.37500006
v 0.37499994 0.875 0.18750006
v 0.62499994 0.875 0.18750006
v 0.6875 0.9375 0.9375
v 0.3125 0.9375 0.93750006
v 0.9375 0.9375 0.6875
v 0.93749994 0.9375 0.3125
v 0.6874999 0.9375 0.0625
v 0.06249994 0.9375 0.31250006
v 0.31249994 0.9375 0.06250006
v 0.0625 0.9375 0.6875001
v 0.93749994 1.0 0.3125
v 0.9375 1.0 0.6875
v 0.6875 1.0 0.9375
v 0.3125 1.0 0.93750006
v 0.0625 1.0 0.6875001
v 0.06249994 1.0 0.31250006
v 0.31249994 1.0 0.06250006
v 0.6874999 1.0 0.0625
v 0.37499994 1.0 0.18750006
v 0.62499994 1.0 0.18750006
v 0.18749994 1.0 0.62500006
v 0.18749994 1.0 0.37500006
v 0.375 1.0 0.81250006
v 0.8125 1.0 0.625
v 0.625 1.0 0.8125
v 0.81249994 1.0 0.375
# 64 vertices

vn 0.0 1.0 0.0
vn 0.0 -1.0 0.0
vn 1.3225083E-7 -0.5547002 0.83205026
vn 0.5773503 -0.5773503 0.5773503
vn 0.83205026 -0.5547002 -1.3225083E-7
vn 0.5773502 -0.57735026 -0.5773503
vn -0.5773503 -0.5773503 -0.5773503
vn -0.8320504 -0.5547 1.3225082E-7
vn -0.57735014 -0.57735026 0.5773503
vn -1.3225085E-7 -0.55470026 -0.83205026
vn 1.0 0.0 -1.5894572E-7
vn 1.5894572E-7 0.0 1.0
vn -1.0 0.0 1.589457E-7
vn -1.5894574E-7 0.0 -1.0
vn 0.70710665 0.0 -0.7071068
vn -0.70710677 0.0 -0.70710677
vn -0.7071067 0.0 0.7071068
vn 0.70710677 0.0 0.70710677
vn 0.83205026 0.55470026 -1.9837624E-7
vn 1.9837624E-7 0.55470026 0.83205026
vn -0.8320504 0.5547 0.0
vn 0.0 0.5547002 -0.8320503
vn 0.57735014 0.57735026 -0.5773503
vn -0.57735026 0.57735026 -0.57735026
vn -0.57735014 0.5773503 0.5773504
vn 0.57735026 0.57735026 0.57735026
vn 7.108268E-8 -0.89442724 0.44721356
vn 0.30151135 -0.904534 0.30151135
vn 0.44721356 -0.89442724 -7.108268E-8
vn 0.3015113 -0.90453404 -0.30151138
vn -0.30151135 -0.904534 -0.30151135
vn -0.4472137 -0.89442706 7.1082695E-8
vn -0.30151132 -0.90453404 0.30151138
vn -7.1082695E-8 -0.8944272 -0.44721356
# 34 vertex normals

vt 0.5 0.375
vt 0.5 0.5
vt 0.375 0.5
vt 0.375 0.375
vt 0.625 0.5
vt 0.625 0.625
vt 0.5 0.625
vt 0.75 0.5
vt 0.75 0.625
vt 0.875 0.5
vt 0.875 0.625
vt 1.0 0.5
vt 1.0 0.625
# 13 texture coords

g cep_scholar_brickpot3
usemtl cep_scholar_brickpot3

f 1/1/1 2/2/1 3/3/1 4/4/1
f 5/5/2 6/6/2 7/7/2 8/2/2
f 9/8/3 10/9/3 11/6/3 12/5/3
f 13/8/4 14/9/4 10/6/4 9/5/4
f 15/8/5 16/9/5 14/6/5 13/5/5
f 17/8/6 18/9/6 16/6/6 15/5/6
f 19/8/7 20/9/7 21/6/7 22/5/7
f 23/8/8 24/9/8 20/6/8 19/5/8
f 12/8/9 11/9/9 24/6/9 23/5/9
f 22/8/10 21/9/10 18/6/10 17/5/10
f 16/10/11 25/11/11 26/9/11 14/8/11
f 10/10/12 27/11/12 28/9/12 11/8/12
f 24/10/13 29/11/13 30/9/13 20/8/13
f 21/10/14 31/11/14 32/9/14 18/8/14
f 18/10/15 32/11/15 25/9/15 16/8/15
f 20/10/16 30/11/16 31/9/16 21/8/16
f 11/10/17 28/11/17 29/9/17 24/8/17
f 14/10/18 26/11/18 27/9/18 10/8/18
f 25/8/19 33/9/19 34/6/19 26/5/19
f 27/8/20 35/9/20 36/6/20 28/5/20
f 29/8/21 37/9/21 38/6/21 30/5/21
f 31/8/22 39/9/22 40/6/22 32/5/22
f 32/8/23 40/9/23 33/6/23 25/5/23
f 30/8/24 38/9/24 39/6/24 31/5/24
f 28/8/25 36/9/25 37/6/25 29/5/25
f 26/8/26 34/9/26 35/6/26 27/5/26
f 35/12/27 41/13/27 42/11/27 36/10/27
f 34/12/28 43/13/28 41/11/28 35/10/28
f 33/12/29 44/13/29 43/11/29 34/10/29
f 40/12/30 45/13/30 44/11/30 33/10/30
f 38/12/31 46/13/31 47/11/31 39/10/31
f 37/12/32 48/13/32 46/11/32 38/10/32
f 36/12/33 42/13/33 48/11/33 37/10/33
f 39/12/34 47/13/34 45/11/34 40/10/34
f 44/12/11 49/13/11 50/11/11 43/10/11
f 41/12/12 51/13/12 52/11/12 42/10/12
f 48/12/13 53/13/13 54/11/13 46/10/13
f 47/12/14 55/13/14 56/11/14 45/10/14
f 45/12/15 56/13/15 49/11/15 44/10/15
f 46/12/16 54/13/16 55/11/16 47/10/16
f 42/12/17 52/13/17 53/11/17 48/10/17
f 43/12/18 50/13/18 51/11/18 41/10/18
f 55/12/1 57/13/1 58/11/1 56/10/1
f 53/12/1 59/13/1 60/11/1 54/10/1
f 54/12/1 60/13/1 57/11/1 55/10/1
f 52/12/1 61/13/1 59/11/1 53/10/1
f 50/12/1 62/13/1 63/11/1 51/10/1
f 56/12/1 58/13/1 64/11/1 49/10/1
f 51/12/1 63/13/1 61/11/1 52/10/1
f 49/12/1 64/13/1 62/11/1 50/10/1
# 50 faces
