mtllib almura:cep_priest_gargoyle_sitting.mtl

v 0.5224999 0.7875 0.22500008
v 0.56249994 0.9375 0.47500008
v 0.56249994 0.6875 0.47500008
v 0.5224999 0.725 0.28750008
v 0.4674999 0.7875 0.22500008
v 0.43749994 0.9375 0.47500008
v 0.4674999 0.725 0.28750008
v 0.43749994 0.6875 0.47500008
v 0.5625 0.6875 0.52500004
v 0.5625 0.9375 0.52500004
v 0.66249996 1.0 0.6625
v 0.66249996 0.8875 0.6625
v 0.33749998 0.8875 0.6625
v 0.33749998 1.0 0.6625
v 0.43749994 0.9375 0.5250001
v 0.43749994 0.6875 0.5250001
v 0.5625 0.9375 0.6625
v 0.5625 0.6875 0.5375
v 0.43749994 0.6875 0.5375
v 0.4375 0.9375 0.6625
v 0.5625 0.2 0.725
v 0.5625 0.5 0.7875
v 0.4375 0.5 0.7875
v 0.4375 0.2 0.725
v 0.3625 0.5 0.6625
v 0.4375 0.2 0.6625
v 0.5625 0.2 0.5375
v 0.6374999 0.5 0.5375
v 0.6374999 0.5 0.6625
v 0.5625 0.2 0.6625
v 0.43749994 0.2 0.46875006
v 0.43749994 0.5 0.41250008
v 0.56249994 0.5 0.41250008
v 0.56249994 0.2 0.46875006
v 0.43749994 0.2 0.5375
v 0.36249995 0.5 0.5375
v 0.5625 0.875 0.725
v 0.4375 0.875 0.725
v 0.6999999 0.4 0.3
v 0.6999999 0.3 0.6
v 0.6999999 0.2 0.65000004
v 0.6999999 0.3 0.22500002
v 0.5899999 0.3 0.22500008
v 0.59 0.2 0.70000005
v 0.59 0.3 0.65000004
v 0.5899999 0.4 0.32500005
v 0.5999999 0.1 0.25000006
v 0.5999999 0.3 0.22500008
v 0.68999994 0.3 0.22500002
v 0.68999994 0.1 0.25
v 0.5999999 0.1 0.35000008
v 0.5999999 0.3 0.32500005
v 0.68999994 0.3 0.325
v 0.68999994 0.1 0.35000002
v 0.54999995 0.05 0.15000004
v 0.73999995 0.05 0.14999998
v 0.68999994 0.05 0.35000002
v 0.5999999 0.05 0.35000008
v 0.29999995 0.3 0.22500008
v 0.29999995 0.2 0.6500001
v 0.29999995 0.3 0.6
v 0.29999995 0.4 0.32500005
v 0.40999997 0.4 0.30000007
v 0.40999997 0.3 0.6500001
v 0.41000003 0.2 0.70000005
v 0.40999997 0.3 0.22500008
v 0.30999994 0.1 0.25000006
v 0.30999994 0.3 0.22500008
v 0.39999992 0.3 0.22500008
v 0.39999992 0.1 0.25000006
v 0.39999992 0.3 0.32500005
v 0.39999992 0.1 0.35000008
v 0.30999994 0.1 0.35000008
v 0.30999994 0.3 0.32500005
v 0.25999993 0.05 0.15000004
v 0.44999993 0.05 0.15000004
v 0.39999992 0.05 0.35000008
v 0.30999994 0.05 0.35000008
v 0.29999995 0.1 0.35000008
v 0.29999995 0.05 0.35000008
v 0.84999996 0.5 0.6
v 0.54999995 0.7 0.5500001
v 0.54999995 0.7 0.65000004
v 0.84999996 0.5 0.7
v 0.75 0.5 0.70000005
v 0.54999995 0.6 0.65000004
v 0.54999995 0.6 0.5500001
v 0.75 0.5 0.6
v 0.6999999 0.45 0.3
v 0.79999995 0.45 0.3
v 0.75 0.4 0.6
v 0.84999996 0.4 0.6
v 0.79999995 0.4 0.3
v 0.5999999 0.35 0.20000005
v 0.5999999 0.45 0.27500004
v 0.79999995 0.45 0.27499998
v 0.79999995 0.35 0.19999999
v 0.5999999 0.45 0.30000007
v 0.79999995 0.35 0.3
v 0.5999999 0.35 0.30000007
v 0.84999996 0.49 0.7
v 0.75 0.49 0.70000005
v 0.14999998 0.5 0.70000005
v 0.44999993 0.7 0.6500001
v 0.44999993 0.7 0.5500001
v 0.14999992 0.5 0.6
v 0.24999994 0.5 0.6
v 0.44999993 0.6 0.5500001
v 0.44999993 0.6 0.6500001
v 0.25 0.5 0.70000005
v 0.19999993 0.45 0.30000007
v 0.29999995 0.45 0.30000007
v 0.24999994 0.4 0.6
v 0.29999995 0.4 0.30000007
v 0.19999993 0.4 0.30000007
v 0.14999992 0.4 0.6
v 0.19999993 0.35 0.20000005
v 0.19999993 0.45 0.27500004
v 0.39999992 0.45 0.27500004
v 0.39999992 0.35 0.20000005
v 0.39999992 0.45 0.30000007
v 0.39999992 0.35 0.30000007
v 0.19999993 0.35 0.30000007
v 0.14999998 0.49 0.70000005
v 0.25 0.49 0.70000005
v -1.1920929E-7 0.05 5.9604645E-8
v 0.0 0.05 1.0000001
v 1.0 0.05 1.0
v 0.99999994 0.05 0.0
v -1.1920929E-7 0.0 5.9604645E-8
v 0.99999994 0.0 0.0
v 1.0 0.0 1.0
v 0.0 0.0 1.0000001
v 0.19999993 0.2 0.40000004
v 0.19999999 0.2 0.8000001
v 0.79999995 0.2 0.8
v 0.79999995 0.2 0.39999998
v 0.19999993 0.05 0.40000004
v 0.79999995 0.05 0.39999998
v 0.79999995 0.05 0.8
v 0.19999999 0.05 0.8000001
# 141 vertices

vn 0.9874406 0.0 -0.15799057
vn 0.0 0.8574929 -0.5144957
vn 0.0 -0.7071068 -0.7071068
vn -0.98744065 0.0 -0.15799035
vn 0.0 -0.9805807 -0.19611625
vn 0.80873615 0.0 -0.58817154
vn -0.80873615 0.0 0.58817154
vn -0.808736 0.0 -0.5881717
vn 0.808736 0.0 0.5881718
vn 1.0 0.0 -3.1789153E-7
vn -1.0 7.947281E-8 3.1789153E-7
vn 0.0 1.0 0.0
vn 0.0 -0.20395425 0.9789804
vn -0.85260916 -0.10657612 0.5115654
vn 0.97014254 -0.2425354 0.0
vn 0.8384439 -0.20961076 0.5030658
vn 0.0 -0.18428846 -0.98287225
vn 0.8535305 -0.096022174 -0.5121185
vn -0.8384436 -0.20961085 -0.5030663
vn -0.97014254 -0.24253559 4.626E-7
vn 0.0 0.16439898 0.98639387
vn -1.0 0.0 0.0
vn 0.0 0.70710677 0.70710677
vn 0.7453563 0.29814225 -0.5962845
vn 0.9718474 0.16660225 0.16660225
vn 0.0 0.31622776 -0.94868326
vn 1.0 3.1789173E-7 -9.536752E-7
vn -0.9284767 0.3713906 0.0
vn -0.9337486 0.16007116 -0.32014188
vn 1.0 0.0 0.0
vn -1.0 7.0123136E-8 1.4024624E-7
vn 0.13249691 0.94735235 0.291493
vn -0.103549205 -0.96818435 -0.22780809
vn 0.37662202 0.414284 0.82856786
vn -0.15867044 0.6981488 -0.698149
vn -6.5715943E-7 -0.124034606 -0.99227786
vn 6.5715943E-7 0.1240349 0.99227786
vn 0.0 -1.0 0.0
vn -2.9617763E-7 0.8944273 -0.4472134
vn 0.7071067 0.7071068 0.0
vn 6.622736E-7 0.0 1.0
vn 1.0 6.9538737E-7 1.9868207E-7
vn -0.15349707 0.92865604 0.33769313
vn 0.09323312 -0.9742875 -0.2051132
vn -0.37662232 0.41428334 0.828568
vn -0.15867005 0.6981488 -0.698149
vn 0.0 -0.124034606 -0.99227786
vn 0.0 0.1240349 0.99227786
vn 0.0 0.8944272 -0.4472135
vn 0.0 0.0 1.0
vn 0.55470014 0.83205026 0.0
vn -0.4472136 -0.8944272 0.0
vn -0.16439882 0.0 0.9863939
vn 0.24253535 0.0 -0.9701426
vn 0.0 0.9863939 -0.16439903
vn -0.98639387 0.0 0.1643992
vn 0.9863939 0.0 -0.16439901
vn 0.0 0.0 -1.0
vn -2.3841852E-7 0.59999996 -0.8
vn 2.9802317E-7 0.0 1.0
vn 4.2146868E-7 -0.7071067 0.7071069
vn -0.55470026 0.8320503 0.0
vn 0.4472137 -0.8944272 0.0
vn 0.12309167 0.123091154 0.984732
vn -0.16439882 0.0 -0.9863939
vn 0.0 0.9863939 -0.16439904
vn 0.9863939 0.0 0.16439904
vn -0.9863939 0.0 -0.16439904
vn 0.0 0.59999996 -0.8
vn -1.0 0.0 5.9604633E-7
vn 1.0 0.0 -5.9604633E-7
vn 0.0 -0.7071069 0.7071067
vn -5.9604645E-8 0.0 -1.0
vn 1.1920929E-7 0.0 1.0
vn -1.0 0.0 1.1920929E-7
vn 1.0 0.0 -5.9604645E-8
vn -9.934107E-8 0.0 -1.0
vn 9.934108E-8 0.0 1.0
vn -1.0 0.0 1.490116E-7
# 79 vertex normals

vt 0.5 0.75
vt 0.5 0.875
vt 0.375 0.875
vt 0.375 0.75
vt 0.25 0.875
vt 0.25 0.75
vt 0.75 0.75
vt 0.75 0.875
vt 0.625 0.875
vt 0.625 0.75
vt 0.875 0.75
vt 0.875 0.875
vt 0.125 0.75
vt 0.125 0.875
vt 0.0 0.875
vt 0.0 0.75
# 16 texture coords

g cep_priest_gargoyle_sitting
usemtl cep_priest_gargoyle_sitting

f 1/1/1 2/2/1 3/3/1 4/4/1
f 5/4/2 6/3/2 2/5/2 1/6/2
f 7/4/3 5/3/3 1/5/3 4/6/3
f 7/1/4 8/2/4 6/3/4 5/4/4
f 4/4/5 3/3/5 8/5/5 7/6/5
f 9/1/6 10/2/6 11/3/6 12/4/6
f 12/1/7 11/2/7 10/3/7 9/4/7
f 13/1/8 14/2/8 15/3/8 16/4/8
f 16/1/9 15/2/9 14/3/9 13/4/9
f 3/7/10 2/8/10 17/9/10 18/10/10
f 19/7/11 20/8/11 6/9/11 8/10/11
f 6/4/12 20/3/12 17/5/12 2/6/12
f 21/11/13 22/12/13 23/8/13 24/7/13
f 24/11/14 23/12/14 25/8/14 26/7/14
f 27/11/15 28/12/15 29/8/15 30/7/15
f 30/11/16 29/12/16 22/8/16 21/7/16
f 31/11/17 32/12/17 33/8/17 34/7/17
f 34/11/18 33/12/18 28/8/18 27/7/18
f 35/11/19 36/12/19 32/8/19 31/7/19
f 26/11/20 25/12/20 36/8/20 35/7/20
f 22/11/21 37/12/21 38/8/21 23/7/21
f 23/11/22 38/12/22 20/8/22 25/7/22
f 37/4/23 17/3/23 20/5/23 38/6/23
f 28/11/24 18/12/24 17/8/24 29/7/24
f 29/11/25 17/12/25 37/8/25 22/7/25
f 32/11/26 8/12/26 3/8/26 33/7/26
f 33/11/27 3/12/27 18/8/27 28/7/27
f 36/11/28 19/12/28 8/8/28 32/7/28
f 25/11/29 20/12/29 19/8/29 36/7/29
f 39/13/30 40/14/30 41/15/30 42/16/30
f 43/13/31 44/14/31 45/15/31 46/16/31
f 46/13/32 45/14/32 40/15/32 39/16/32
f 42/13/33 41/14/33 44/15/33 43/16/33
f 41/13/34 40/14/34 45/15/34 44/16/34
f 43/4/35 46/3/35 39/5/35 42/6/35
f 47/7/36 48/8/36 49/9/36 50/10/36
f 51/7/22 52/8/22 48/9/22 47/10/22
f 50/7/30 49/8/30 53/9/30 54/10/30
f 54/7/37 53/8/37 52/9/37 51/10/37
f 50/4/38 54/3/38 51/5/38 47/6/38
f 55/11/39 47/12/39 50/8/39 56/7/39
f 56/11/40 50/12/40 54/8/40 57/7/40
f 58/11/22 51/12/22 47/8/22 55/7/22
f 56/11/38 57/12/38 58/8/38 55/7/38
f 57/11/41 54/12/41 51/8/41 58/7/41
f 59/13/22 60/14/22 61/15/22 62/16/22
f 63/13/42 64/14/42 65/15/42 66/16/42
f 62/13/43 61/14/43 64/15/43 63/16/43
f 66/13/44 65/14/44 60/15/44 59/16/44
f 65/4/45 64/3/45 61/5/45 60/6/45
f 59/4/46 62/3/46 63/5/46 66/6/46
f 67/7/47 68/8/47 69/9/47 70/10/47
f 70/7/30 69/8/30 71/9/30 72/10/30
f 73/7/22 74/8/22 68/9/22 67/10/22
f 72/7/48 71/8/48 74/9/48 73/10/48
f 73/4/38 67/3/38 70/5/38 72/6/38
f 75/11/49 67/12/49 70/8/49 76/7/49
f 76/11/40 70/12/40 72/8/40 77/7/40
f 78/11/22 73/12/22 67/8/22 75/7/22
f 76/11/38 77/12/38 78/8/38 75/7/38
f 77/11/50 72/12/50 79/8/50 80/7/50
f 81/11/51 82/12/51 83/8/51 84/7/51
f 85/11/52 86/12/52 87/8/52 88/7/52
f 84/11/53 83/12/53 86/8/53 85/7/53
f 88/11/54 87/12/54 82/8/54 81/7/54
f 84/11/38 85/12/38 88/8/38 81/7/38
f 89/13/55 88/14/55 81/15/55 90/16/55
f 39/13/56 91/14/56 88/15/56 89/16/56
f 90/13/57 81/14/57 92/15/57 93/16/57
f 93/13/38 92/14/38 91/15/38 39/16/38
f 39/13/58 89/14/58 90/15/58 93/16/58
f 94/7/59 95/8/59 96/9/59 97/10/59
f 95/4/12 98/3/12 90/5/12 96/6/12
f 97/4/38 99/3/38 100/5/38 94/6/38
f 99/4/60 90/3/60 98/5/60 100/6/60
f 96/4/30 90/3/30 99/5/30 97/6/30
f 94/4/22 100/3/22 98/5/22 95/6/22
f 92/4/30 81/3/30 84/5/30 101/6/30
f 88/4/22 91/3/22 102/5/22 85/6/22
f 92/4/61 84/3/61 85/5/61 91/6/61
f 103/11/62 104/12/62 105/8/62 106/7/62
f 107/11/63 108/12/63 109/8/63 110/7/63
f 110/11/64 86/12/64 104/8/64 103/7/64
f 106/11/65 105/12/65 108/8/65 107/7/65
f 110/4/38 103/3/38 106/5/38 107/6/38
f 111/13/66 106/14/66 107/15/66 112/16/66
f 112/13/67 107/14/67 113/15/67 114/16/67
f 115/13/68 116/14/68 106/15/68 111/16/68
f 114/13/38 113/14/38 116/15/38 115/16/38
f 115/13/58 111/14/58 112/15/58 114/16/58
f 117/7/69 118/8/69 119/9/69 120/10/69
f 118/4/12 111/3/12 121/5/12 119/6/12
f 120/4/38 122/3/38 123/5/38 117/6/38
f 122/4/50 121/3/50 111/5/50 123/6/50
f 119/4/30 121/3/30 122/5/30 120/6/30
f 117/4/22 123/3/22 111/5/22 118/6/22
f 106/4/70 116/3/70 124/5/70 103/6/70
f 113/4/71 107/3/71 110/5/71 125/6/71
f 113/4/72 110/3/72 103/5/72 116/6/72
f 126/4/12 127/3/12 128/5/12 129/6/12
f 130/11/73 126/12/73 129/8/73 131/7/73
f 132/11/74 128/12/74 127/8/74 133/7/74
f 133/11/75 127/12/75 126/8/75 130/7/75
f 131/11/76 129/12/76 128/8/76 132/7/76
f 134/4/12 135/3/12 136/5/12 137/6/12
f 138/11/77 134/12/77 137/8/77 139/7/77
f 140/11/78 136/12/78 135/8/78 141/7/78
f 141/11/79 135/12/79 134/8/79 138/7/79
f 139/11/30 137/12/30 136/8/30 140/7/30
# 109 faces
