mtllib almura:cep_priest_stainedglass_bottom.mtl

v 0.0 0.1875 0.5000001
v 0.0 0.125 1.0000001
v 1.0 0.125 1.0
v 0.99999994 0.1875 0.5
v -1.1920929E-7 0.125 5.9604645E-8
v 0.99999994 0.125 0.0
v -1.1920929E-7 0.0 5.9604645E-8
v -1.1920929E-7 1.0 5.9604645E-8
v 0.99999994 1.0 0.0
v 0.99999994 0.0 0.0
v 1.0 0.0 1.0
v 1.0 1.0 1.0
v 0.0 1.0 1.0000001
v 0.0 0.0 1.0000001
v 0.12499994 0.0 5.9604645E-8
v 0.12499994 1.0 5.9604645E-8
v 0.125 1.0 1.0000001
v 0.125 0.0 1.0000001
v 0.875 0.0 1.0
v 0.875 1.0 1.0
v 0.8749999 1.0 0.0
v 0.8749999 0.0 0.0
v 0.0 0.0 0.5000001
v 0.0 1.0 0.5000001
v 0.99999994 1.0 0.5
v 0.99999994 0.0 0.5
# 26 vertices

vn 1.4786092E-8 0.99227786 0.12403473
vn -1.4786092E-8 0.99227786 -0.124034725
vn -5.9604645E-8 0.0 -1.0
vn 1.1920929E-7 0.0 1.0
vn -1.0 0.0 1.1920929E-7
vn 1.0 0.0 -5.9604645E-8
vn 0.0 -1.0 0.0
vn -1.192093E-7 0.0 -1.0
vn 1.192093E-7 0.0 1.0
# 9 vertex normals

vt 0.875 0.625
vt 0.875 0.75
vt 0.75 0.75
vt 0.75 0.625
vt 0.875 0.25
vt 0.875 0.375
vt 0.75 0.375
vt 0.75 0.25
vt 1.0 0.625
vt 1.0 0.75
vt 1.0 0.25
vt 1.0 0.375
# 12 texture coords

g cep_priest_stainedglass_bottom
usemtl cep_priest_stainedglass_bottom

f 1/1/1 2/2/1 3/3/1 4/4/1
f 5/1/2 1/2/2 4/3/2 6/4/2
f 7/5/3 8/6/3 9/7/3 10/8/3
f 11/5/4 12/6/4 13/7/4 14/8/4
f 14/9/5 13/10/5 8/2/5 7/1/5
f 10/9/6 9/10/6 12/2/6 11/1/6
f 15/9/6 16/10/6 17/2/6 18/1/6
f 19/9/5 20/10/5 21/2/5 22/1/5
f 14/9/7 7/10/7 10/2/7 11/1/7
f 23/11/8 24/12/8 25/6/8 26/5/8
f 26/11/9 25/12/9 24/6/9 23/5/9
# 11 faces
