mtllib almura:cep_rpg_blacksmith_smith_tabletop_goldingots.mtl

v 0.87499994 0.125 0.25
v 0.68749994 0.125 0.25
v 0.6875 0.125 0.6875
v 0.875 0.125 0.6875
v 0.6249999 0.0 0.12500006
v 0.93749994 0.0 0.125
v 0.625 0.0 0.8125
v 0.9375 0.0 0.8125
v -1.1920929E-7 0.0 0.12500006
v 0.06249994 0.125 0.25000006
v 0.24999994 0.125 0.25000006
v 0.31249994 0.0 0.12500006
v 0.25 0.125 0.68750006
v 0.3125 0.0 0.81250006
v 0.0 0.0 0.8125001
v 0.0625 0.125 0.6875001
v 0.62499994 0.0 0.18750006
v 0.56249994 0.125 0.31250006
v 0.5625 0.125 0.75000006
v 0.625 0.0 0.875
v 0.31249994 0.0 0.18750006
v 0.37499994 0.125 0.31250006
v 0.375 0.125 0.75000006
v 0.3125 0.0 0.87500006
v 0.18749994 0.25 0.43750006
v 0.24999994 0.25 0.62500006
v 0.6875 0.25 0.5625
v 0.62499994 0.25 0.37500006
v 0.8125 0.125 0.625
v 0.1875 0.125 0.75000006
v 0.06249994 0.125 0.37500006
v 0.74999994 0.125 0.25
# 32 vertices

vn 0.0 1.0 0.0
vn 0.0 0.70710653 -0.7071069
vn -0.8944271 0.44721368 1.2185602E-7
vn 0.8944271 0.44721368 -1.2185602E-7
vn 0.0 0.7071068 0.7071068
vn 0.0 -1.0 0.0
vn 0.0 0.7071068 -0.7071068
vn -0.8944271 0.44721368 1.21856E-7
vn 2.2478318E-7 0.7071068 0.7071067
vn 0.0 0.70710653 0.7071069
vn 0.11931009 0.53689504 0.8351699
vn -0.7442086 0.62017345 0.24806952
vn -0.11931 0.53689504 -0.83517003
vn 0.5883482 0.78446466 -0.19611633
# 14 vertex normals

vt 0.125 0.75
vt 0.125 0.875
vt 0.0 0.875
vt 0.0 0.75
# 4 texture coords

g cep_rpg_blacksmith_smith_tabletop_goldingots
usemtl cep_rpg_blacksmith_smith_tabletop_goldingots

f 1/1/1 2/2/1 3/3/1 4/4/1
f 5/1/2 2/2/2 1/3/2 6/4/2
f 7/1/3 3/2/3 2/3/3 5/4/3
f 6/1/4 1/2/4 4/3/4 8/4/4
f 8/1/5 4/2/5 3/3/5 7/4/5
f 8/1/6 7/2/6 5/3/6 6/4/6
f 9/1/7 10/2/7 11/3/7 12/4/7
f 12/1/4 11/2/4 13/3/4 14/4/4
f 15/1/8 16/2/8 10/3/8 9/4/8
f 14/1/9 13/2/9 16/3/9 15/4/9
f 17/1/4 18/2/4 19/3/4 20/4/4
f 21/1/7 22/2/7 18/3/7 17/4/7
f 20/1/10 19/2/10 23/3/10 24/4/10
f 14/1/6 15/2/6 9/3/6 12/4/6
f 20/1/6 24/2/6 21/3/6 17/4/6
f 11/1/1 10/2/1 16/3/1 13/4/1
f 24/1/3 23/2/3 22/3/3 21/4/3
f 25/1/1 26/2/1 27/3/1 28/4/1
f 18/1/1 22/2/1 23/3/1 19/4/1
f 29/1/11 27/2/11 26/3/11 30/4/11
f 30/1/12 26/2/12 25/3/12 31/4/12
f 31/1/13 25/2/13 28/3/13 32/4/13
f 32/1/14 28/2/14 27/3/14 29/4/14
f 29/1/6 30/2/6 31/3/6 32/4/6
# 24 faces
