mtllib almura:cep_king_wallsconce.mtl

v 0.45 0.3 0.9990001
v 0.45 0.8 0.9990001
v 0.050000012 0.8 0.8000001
v 0.050000012 0.3 0.8000001
v 0.55 0.3 0.999
v 0.55 0.8 0.999
v 0.95 0.8 0.8
v 0.95 0.3 0.8
v 0.5 0.3 0.9990001
v 0.5 0.8 0.9990001
v 0.49999994 0.8 0.6
v 0.49999994 0.3 0.6
# 12 vertices

vn -0.44542208 0.0 0.8953207
vn -0.44542208 0.0 -0.8953207
vn -1.0 0.0 1.4938506E-7
vn -5.9604633E-7 0.0 -1.0
vn 5.9604633E-7 0.0 1.0
vn 0.44542208 0.0 -0.8953207
vn 0.44542208 0.0 0.8953207
vn 1.0 0.0 -1.4938506E-7
# 8 vertex normals

vt 0.125 0.75
vt 0.125 0.875
vt 0.0 0.875
vt 0.0 0.75
vt 0.25 0.75
vt 0.25 0.875
vt 0.375 0.75
vt 0.375 0.875
# 8 texture coords

g cep_king_wallsconce
usemtl cep_king_wallsconce

f 1/1/1 2/2/1 3/3/1 4/4/1
f 5/1/2 6/2/2 7/3/2 8/4/2
f 9/1/3 10/2/3 11/3/3 12/4/3
f 1/5/4 2/6/4 6/2/4 5/1/4
f 5/5/5 6/6/5 2/2/5 1/1/5
f 4/7/6 3/8/6 2/6/6 1/5/6
f 8/7/7 7/8/7 6/6/7 5/5/7
f 12/7/8 11/8/8 10/6/8 9/5/8
# 8 faces
