mtllib almura:cep_shaman_broom.mtl

v 0.84000003 0.0 1.0
v 0.8 0.41 0.92
v 0.64 0.41 0.92
v 0.6 0.0 1.0
v 1.0 0.0 0.84000003
v 0.91999996 0.41 0.8
v 0.99999994 0.0 0.6
v 0.91999996 0.41 0.64
v 0.84 0.0 0.44
v 0.79999995 0.41 0.52000004
v 0.5999999 0.0 0.44000006
v 0.64 0.41 0.52000004
v 0.43999994 0.0 0.6
v 0.52 0.41 0.64
v 0.44 0.0 0.84000003
v 0.52 0.41 0.8000001
v 0.71999997 0.7099 0.72
v 0.71999997 0.71 0.72
v 0.77 0.5 0.77
v 0.97 2.0 0.97
v 0.87 2.0 0.97
v 0.66999996 0.5 0.77000004
v 0.77 0.5 0.67
v 0.96999997 2.0 0.87
v 0.66999996 0.5 0.67
v 0.87 2.0 0.87
# 26 vertices

vn 0.0 0.19151033 0.98149055
vn 0.69243336 0.20266348 0.692433
vn 0.98149055 0.19151033 0.0
vn 0.692433 0.20266348 -0.69243336
vn 0.0 0.19151035 -0.9814907
vn -0.692433 0.20266336 -0.69243336
vn -0.9814906 0.19151032 0.0
vn -0.69243306 0.20266332 0.6924334
vn 0.92847663 0.0 -0.37139082
vn 0.3713906 0.0 -0.9284767
vn -0.37139082 0.0 -0.92847663
vn -0.9284767 0.0 -0.3713906
vn -0.9284767 0.0 0.3713906
vn -0.37139082 0.0 0.92847663
vn 0.37139082 0.0 0.92847663
vn 0.9284767 0.0 0.3713906
vn 0.0 -0.13216375 0.9912279
vn 0.9912279 -0.13216364 -5.9081776E-7
vn 0.0 0.13216372 -0.9912279
vn -0.9912279 0.13216375 0.0
vn 0.0 1.0 0.0
# 21 vertex normals

vt 0.03125 0.75
vt 0.03125 0.78125
vt 0.0 0.78125
vt 0.0 0.75
vt 0.046875 0.75
vt 0.046875 0.78125
vt 0.078125 0.75
vt 0.078125 0.78125
vt 0.0625 0.78125
vt 0.0625 0.75
# 10 texture coords

g cep_shaman_broom
usemtl cep_shaman_broom

f 1/1/1 2/2/1 3/3/1 4/4/1
f 5/1/2 6/2/2 2/3/2 1/4/2
f 7/1/3 8/2/3 6/3/3 5/4/3
f 9/1/4 10/2/4 8/3/4 7/4/4
f 11/1/5 12/2/5 10/3/5 9/4/5
f 13/1/6 14/2/6 12/3/6 11/4/6
f 15/1/7 16/2/7 14/3/7 13/4/7
f 4/1/8 3/2/8 16/3/8 15/4/8
f 2/5/9 17/6/9 18/2/9 3/1/9
f 6/5/10 17/6/10 18/2/10 2/1/10
f 8/5/11 17/6/11 18/2/11 6/1/11
f 10/5/12 17/6/12 18/2/12 8/1/12
f 12/5/13 17/6/13 18/2/13 10/1/13
f 14/5/14 17/6/14 18/2/14 12/1/14
f 16/5/15 17/6/15 18/2/15 14/1/15
f 3/5/16 17/6/16 18/2/16 16/1/16
f 19/7/17 20/8/17 21/9/17 22/10/17
f 23/7/18 24/8/18 20/9/18 19/10/18
f 25/7/19 26/8/19 24/9/19 23/10/19
f 22/7/20 21/8/20 26/9/20 25/10/20
f 21/5/21 20/6/21 24/2/21 26/1/21
# 21 faces
