mtllib almura:cep_priest_alter.mtl

v 0.125 0.0 1.0000001
v 0.12499994 0.0 0.12500006
v 0.87499994 0.0 0.125
v 0.875 0.0 1.0
v 0.87499994 0.9375 0.125
v 0.875 0.9375 1.0
v 0.12499994 0.9375 0.12500006
v 0.125 0.9375 1.0000001
v 0.93749994 0.9375 0.0625
v 0.93749994 1.0 0.0625
v 0.9375 1.0 1.0
v 0.9375 0.9375 1.0
v 0.06249994 0.9375 0.06250006
v 0.0625 0.9375 1.0000001
v 0.06249994 1.0 0.06250006
v 0.0625 1.0 1.0000001
# 16 vertices

vn 0.0 -1.0 0.0
vn 1.0 0.0 -6.81196E-8
vn -7.947286E-8 0.0 -1.0
vn 1.5894572E-7 0.0 1.0
vn -1.0 0.0 6.811959E-8
vn 1.0 0.0 -6.357829E-8
vn -6.81196E-8 0.0 -1.0
vn 1.362392E-7 0.0 1.0
vn -1.0 0.0 6.3578284E-8
vn 0.0 1.0 0.0
# 10 vertex normals

vt 0.5 0.625
vt 0.5 0.75
vt 0.375 0.75
vt 0.375 0.625
vt 0.25 0.625
vt 0.25 0.75
vt 0.125 0.75
vt 0.125 0.625
vt 0.0 0.75
vt 0.0 0.625
vt 0.625 0.625
vt 0.625 0.75
# 12 texture coords

g cep_priest_alter
usemtl cep_priest_alter

f 1/1/1 2/2/1 3/3/1 4/4/1
f 3/5/2 5/6/2 6/7/2 4/8/2
f 2/8/3 7/7/3 5/9/3 3/10/3
f 4/4/4 6/3/4 8/6/4 1/5/4
f 1/5/5 8/6/5 7/7/5 2/8/5
f 9/1/6 10/2/6 11/3/6 12/4/6
f 13/1/1 9/2/1 12/3/1 14/4/1
f 13/1/7 15/2/7 10/3/7 9/4/7
f 12/1/8 11/2/8 16/3/8 14/4/8
f 14/1/9 16/2/9 15/3/9 13/4/9
f 15/11/10 16/12/10 11/2/10 10/1/10
# 11 faces
