mtllib almura:cep_mason_statue_3.mtl

v 0.24999994 2.0 0.25000006
v 0.25 2.0 0.75000006
v 0.75 2.0 0.75
v 0.74999994 2.0 0.25
v 0.24999994 1.5 0.25000006
v 0.74999994 1.5 0.25
v 0.75 1.5 0.75
v 0.25 1.5 0.75000006
v 0.24989992 2.001 0.24990004
v 0.24989998 2.001 0.7501001
v 0.7501 2.001 0.7501
v 0.75009996 2.001 0.24989998
v 0.24989992 1.5 0.24990004
v 0.24989992 2.0 0.24990004
v 0.75009996 2.0 0.24989998
v 0.75009996 1.5 0.24989998
v 0.7501 1.5 0.7501
v 0.7501 2.0 0.7501
v 0.24989998 2.0 0.7501001
v 0.24989998 1.5 0.7501001
v 0.24999994 0.75 0.37500006
v 0.24999994 1.5 0.37500006
v 0.74999994 1.5 0.375
v 0.74999994 0.75 0.375
v 0.75 0.75 0.625
v 0.75 1.5 0.625
v 0.24999994 1.5 0.62500006
v 0.24999994 0.75 0.62500006
v 0.24999994 0.0 0.37500006
v 0.49999994 0.75 0.37500006
v 0.49999994 0.0 0.37500006
v 0.49999994 0.75 0.625
v 0.49999994 0.0 0.625
v 0.24999994 0.0 0.62500006
v 0.74999994 0.0 0.375
v 0.75 0.0 0.625
v 0.7499999 1.3 -0.125
v 0.75 1.5 0.57500005
v 0.99999994 1.5 0.575
v 0.9999999 1.3 -0.125
v 0.99999994 1.25 0.625
v 0.9999999 1.05 -0.07500005
v 0.7499999 1.05 -0.07500005
v 0.75 1.25 0.625
v 0.0 0.75 0.37500006
v 0.0 1.5 0.37500006
v 0.0 0.75 0.6250001
v 0.0 1.5 0.6250001
v 0.8999999 1.0 0.100000024
v 0.8999999 2.0 0.0
v 0.8999999 2.0 -0.20000005
v 0.8999999 1.0 -0.100000024
v 0.8999999 0.0 0.19999999
v 0.8999999 0.0 0.0
v 0.7999999 1.0 0.0
v 0.7999999 2.0 -0.100000024
v 0.9999999 2.0 -0.100000024
v 0.99999994 1.0 0.0
v 0.79999995 0.0 0.100000024
v 0.99999994 0.0 0.100000024
v 0.7999999 2.2 -0.125
v 0.9999999 2.2 -0.125
v 0.8999999 2.2 -0.024999976
v 0.8999999 2.2 -0.22500002
# 64 vertices

vn 0.0 1.0 0.0
vn -1.1920929E-7 0.0 -1.0
vn 1.1920929E-7 0.0 1.0
vn 1.0 0.0 -1.1920929E-7
vn -1.0 0.0 1.1920929E-7
vn 0.0 -1.0 0.0
vn -1.1916162E-7 0.0 -1.0
vn 1.1916162E-7 0.0 1.0
vn 1.0 0.0 -1.1916162E-7
vn -1.0 0.0 1.1916162E-7
vn 1.1920927E-7 0.0 1.0
vn 1.0 0.0 -2.3841858E-7
vn -1.0 0.0 0.0
vn 0.0 0.0 -1.0
vn 1.0 0.0 0.0
vn 2.3841858E-7 0.0 1.0
vn -2.3841858E-7 0.0 -1.0
vn 0.0 0.0 1.0
vn -6.549865E-8 0.9615239 -0.27472118
vn 1.0 -1.6109366E-8 -8.054682E-8
vn -1.0 3.2218697E-8 1.6109364E-7
vn 0.0 -0.9615239 0.27472118
vn 0.0 -0.19611596 -0.9805807
vn 0.0 0.19611596 0.9805807
vn 2.3841864E-7 0.0 1.0
vn 0.0 -0.09950374 -0.9950372
vn 0.0 0.09950374 0.9950372
vn 0.0 -0.12403458 -0.99227786
vn 0.0 0.12403458 0.99227786
# 29 vertex normals

vt 0.125 0.9375
vt 0.125 1.0
vt 0.0625 1.0
vt 0.0625 0.9375
vt 0.125 0.875
vt 0.0625 0.875
vt 0.25 0.875
vt 0.25 0.9375
vt 0.1875 0.9375
vt 0.1875 0.875
vt 0.0 0.9375
vt 0.0 0.875
vt 0.1875 1.0
vt 0.375 0.9375
vt 0.375 1.0
vt 0.3125 1.0
vt 0.3125 0.9375
vt 0.375 0.875
vt 0.3125 0.875
vt 0.4375 0.875
vt 0.4375 0.9375
vt 0.4375 1.0
vt 0.21875 0.75
vt 0.21875 0.84375
vt 0.15625 0.84375
vt 0.15625 0.75
vt 0.3125 0.75
vt 0.3125 0.84375
vt 0.25 0.84375
vt 0.25 0.75
vt 0.125 0.84375
vt 0.125 0.75
vt 0.21875 0.875
vt 0.15625 0.875
vt 0.28125 0.84375
vt 0.28125 0.875
vt 0.03125 0.75
vt 0.03125 0.84375
vt 0.0625 0.84375
vt 0.0625 0.75
vt 0.09375 0.84375
vt 0.09375 0.75
vt 0.0 0.75
vt 0.0 0.84375
vt 0.03125 0.875
vt 0.375 0.75
vt 0.375 0.84375
vt 0.34375 0.84375
vt 0.34375 0.75
vt 0.40625 0.75
vt 0.40625 0.84375
vt 0.4375 0.75
vt 0.4375 0.84375
vt 0.40625 0.875
vt 0.34375 0.875
vt 0.4765625 0.75
vt 0.4765625 0.875
vt 0.4609375 0.875
vt 0.4609375 0.75
vt 0.4921875 0.875
vt 0.4921875 0.921875
vt 0.4453125 0.921875
vt 0.4453125 0.875
# 63 texture coords

g cep_mason_statue_3
usemtl cep_mason_statue_3

f 1/1/1 2/2/1 3/3/1 4/4/1
f 5/5/2 1/1/2 4/4/2 6/6/2
f 7/7/3 3/8/3 2/9/3 8/10/3
f 6/6/4 4/4/4 3/11/4 7/12/4
f 8/10/5 2/9/5 1/1/5 5/5/5
f 6/9/6 7/13/6 8/2/6 5/1/6
f 9/14/1 10/15/1 11/16/1 12/17/1
f 13/18/7 14/14/7 15/17/7 16/19/7
f 17/18/8 18/14/8 19/17/8 20/19/8
f 16/19/9 15/17/9 18/8/9 17/7/9
f 20/20/10 19/21/10 14/14/10 13/18/10
f 16/21/6 17/22/6 20/15/6 13/14/6
f 21/23/2 22/24/2 23/25/2 24/26/2
f 25/27/11 26/28/11 27/29/11 28/30/11
f 24/26/12 23/25/12 26/31/12 25/32/12
f 28/30/13 27/29/13 22/24/13 21/23/13
f 22/24/1 27/33/1 26/34/1 23/25/1
f 24/35/6 25/36/6 28/33/6 21/24/6
f 29/37/14 21/38/14 30/39/14 31/40/14
f 31/40/15 30/39/15 32/41/15 33/42/15
f 34/43/13 28/44/13 21/38/13 29/37/13
f 33/42/16 32/41/16 28/31/16 34/32/16
f 21/38/1 28/45/1 32/6/1 30/39/1
f 31/38/6 33/45/6 34/6/6 29/39/6
f 31/40/17 30/39/17 24/38/17 35/37/17
f 35/37/12 24/38/12 25/44/12 36/43/12
f 33/42/13 32/41/13 30/39/13 31/40/13
f 36/32/18 25/31/18 32/41/18 33/42/18
f 30/39/1 32/6/1 25/45/1 24/38/1
f 35/39/6 36/6/6 33/45/6 31/38/6
f 37/46/19 38/47/19 39/48/19 40/49/19
f 40/49/20 39/48/20 41/28/20 42/27/20
f 43/50/21 44/51/21 38/47/21 37/46/21
f 42/52/22 41/53/22 44/51/22 43/50/22
f 40/51/23 42/54/23 43/18/23 37/47/23
f 38/47/24 44/18/24 41/55/24 39/48/24
f 45/49/14 46/48/14 22/47/14 21/46/14
f 21/46/15 22/47/15 27/51/15 28/50/15
f 47/27/13 48/28/13 46/48/13 45/49/13
f 28/50/25 27/51/25 48/53/25 47/52/25
f 21/47/6 28/18/6 47/54/6 45/51/6
f 46/48/1 48/55/1 27/18/1 22/47/1
f 49/56/13 50/57/13 51/58/13 52/59/13
f 52/56/15 51/57/15 50/58/15 49/59/15
f 53/56/13 49/57/13 52/58/13 54/59/13
f 54/56/15 52/57/15 49/58/15 53/59/15
f 55/56/26 56/57/26 57/58/26 58/59/26
f 58/56/27 57/57/27 56/58/27 55/59/27
f 59/56/26 55/57/26 58/58/26 60/59/26
f 60/56/27 58/57/27 55/58/27 59/59/27
f 56/60/28 61/61/28 62/62/28 57/63/28
f 57/60/29 62/61/29 61/62/29 56/63/29
f 50/60/13 63/61/13 64/62/13 51/63/13
f 51/60/15 64/61/15 63/62/15 50/63/15
# 54 faces
