mtllib almura:cep_battlecraftww2_gun_springfield.mtl

v 0.0 0.0 0.9990001
v 0.0 1.0 0.9990001
v 1.0 1.0 0.999
v 1.0 0.0 0.999
v 0.0 2.0 0.9990001
v 1.0 2.0 0.999
v -1.0 0.0 0.9990002
v -1.0 1.0 0.9990002
v 1.0 0.0 0.9375
v 1.0 0.0625 0.9375
v 1.0 0.0625 1.0
v 1.0 0.0 1.0
v 0.0 0.0625 0.93750006
v 0.0 0.0625 1.0000001
v 0.0 0.0 0.93750006
v 0.0 0.0 1.0000001
# 16 vertices

vn -5.9604645E-8 0.0 -1.0
vn -8.940697E-8 0.0 -1.0
vn 5.9604645E-8 0.0 1.0
vn 1.0 0.0 0.0
vn 0.0 1.0 0.0
vn 0.0 -1.0 0.0
# 6 vertex normals

vt 0.125 0.875
vt 0.125 1.0
vt 0.0 1.0
vt 0.0 0.875
vt 1.0 0.5
vt 1.0 0.625
vt 0.75 0.625
vt 0.75 0.5
# 8 texture coords

g cep_battlecraftww2_gun_springfield
usemtl cep_battlecraftww2_gun_springfield

f 1/1/1 2/2/1 3/3/1 4/4/1
f 1/1/1 5/2/1 6/3/1 4/4/1
f 7/5/2 8/6/2 3/7/2 4/8/2
f 4/1/3 3/2/3 2/3/3 1/4/3
f 9/1/4 10/2/4 11/3/4 12/4/4
f 10/1/5 13/2/5 14/3/5 11/4/5
f 15/1/6 9/2/6 12/3/6 16/4/6
# 7 faces
