mtllib almura:cep_priest_pew_left.mtl

v 0.8749999 0.0 0.0
v 0.8749999 0.8 0.0
v 0.99999994 0.8 0.0
v 0.99999994 0.0 0.0
v 1.0 0.0 1.0
v 1.0 1.5 1.0
v 0.875 1.5 1.0
v 0.875 0.0 1.0
v 1.0 0.8 1.0
v 0.875 0.8 1.0
v 1.0 1.5 0.9
v 0.875 1.5 0.9
v 1.0 1.3 0.775
v 1.0 1.5 0.8375
v 1.0 1.3 1.0
v 0.875 1.3 1.0
v 0.875 1.5 0.83750004
v 0.875 1.3 0.77500004
v 1.0 0.8 0.736
v 0.875 0.8 0.736
v 0.0 0.5 0.7125001
v 0.0 1.3 0.7750001
v 0.875 0.5 0.7125
v 1.0 0.5 0.7125
v 1.0 0.5 0.8375
v 1.0 1.3 0.9
v 0.0 1.3 0.9000001
v 0.0 0.5 0.8375001
v 0.0 1.5 0.8375001
v 0.0 1.5 0.9000001
v 0.875 0.4 0.83750004
v 0.0 0.4 0.8375001
v -1.1920929E-7 0.4 5.9604645E-8
v 0.8749999 0.4 0.0
v -1.1920929E-7 0.5 5.9604645E-8
v 0.875 0.5 0.83750004
v 0.8749999 0.5 0.0
# 37 vertices

vn 0.0 0.0 -1.0
vn 0.0 0.0 1.0
vn 1.0 0.0 -5.9604645E-8
vn -1.0 0.0 1.1920929E-7
vn 0.0 -1.0 0.0
vn 0.0 1.0 0.0
vn 1.0 0.0 0.0
vn -1.0 0.0 0.0
vn -6.791266E-8 0.07788768 -0.9969622
vn -4.753886E-7 0.07788774 -0.99696213
vn 1.1884715E-7 -0.07788767 0.99696213
vn -1.1378289E-7 0.29827493 -0.95448005
vn 1.1920929E-7 0.0 1.0
vn -6.81196E-8 0.0 -1.0
vn 6.81196E-8 0.0 1.0
vn -1.0 0.0 1.4233945E-7
# 16 vertex normals

vt 0.5 0.5
vt 0.5 0.625
vt 0.375 0.625
vt 0.375 0.5
vt 1.0 0.875
vt 1.0 1.0
vt 0.875 1.0
vt 0.875 0.875
# 8 texture coords

g cep_priest_pew_left
usemtl cep_priest_pew_left

f 1/1/1 2/2/1 3/3/1 4/4/1
f 5/1/2 6/2/2 7/3/2 8/4/2
f 4/1/3 3/2/3 9/3/3 5/4/3
f 8/1/4 10/2/4 2/3/4 1/4/4
f 5/1/5 8/2/5 1/3/5 4/4/5
f 3/1/6 2/2/6 10/3/6 9/4/6
f 11/1/6 12/2/6 7/3/6 6/4/6
f 13/1/7 14/2/7 6/3/7 15/4/7
f 16/1/8 7/2/8 17/3/8 18/4/8
f 19/1/7 13/2/7 15/3/7 9/4/7
f 10/1/8 16/2/8 18/3/8 20/4/8
f 21/5/9 22/6/9 18/7/9 23/8/9
f 23/1/10 18/2/10 13/3/10 24/4/10
f 25/1/11 26/2/11 27/3/11 28/4/11
f 28/1/8 27/2/8 22/3/8 21/4/8
f 22/1/12 29/2/12 14/3/12 13/4/12
f 26/1/13 11/2/13 30/3/13 27/4/13
f 29/1/8 22/2/8 27/3/8 30/4/8
f 29/1/6 30/2/6 11/3/6 14/4/6
f 31/1/5 32/2/5 33/3/5 34/4/5
f 35/5/6 28/6/6 36/7/6 37/8/6
f 33/1/14 35/2/14 37/3/14 34/4/14
f 31/1/15 36/2/15 28/3/15 32/4/15
f 32/1/16 28/2/16 35/3/16 33/4/16
# 24 faces
