mtllib almura:cep_priest_dirtpile.mtl

v 0.62499994 0.0 0.18750006
v 0.37499994 0.0 0.18750006
v 0.49999994 0.0625 0.5
v 0.18749994 0.0 0.37500006
v 0.18749994 0.0 0.62500006
v 0.375 0.0 0.81250006
v 0.625 0.0 0.8125
v 0.8125 0.0 0.625
v 0.81249994 0.0 0.375
# 9 vertices

vn 0.0 0.9805807 -0.19611616
vn -0.14002803 0.980196 -0.14002803
vn -0.19611613 0.9805807 0.0
vn -0.14002798 0.98019606 0.14002803
vn 4.6757727E-8 0.9805807 0.19611612
vn 0.19611612 0.9805807 -4.6757727E-8
vn 0.14002798 0.98019606 0.14002798
vn 0.14002798 0.980196 -0.14002803
# 8 vertex normals

vt 0.375 0.875
vt 0.375 1.0
vt 0.25 1.0
vt 0.25 0.875
# 4 texture coords

g cep_priest_dirtpile
usemtl cep_priest_dirtpile

f 1/1/1 2/2/1 3/3/1 3/4/1
f 2/1/2 4/2/2 3/3/2 3/4/2
f 4/1/3 5/2/3 3/3/3 3/4/3
f 5/1/4 6/2/4 3/3/4 3/4/4
f 6/1/5 7/2/5 3/3/5 3/4/5
f 8/1/6 9/2/6 3/3/6 3/4/6
f 7/1/7 8/2/7 3/3/7 3/4/7
f 9/1/8 1/2/8 3/3/8 3/4/8
# 8 faces
