mtllib almura:cep_harbormaster_shipwheel.mtl

v 0.0 0.51 0.37500006
v 0.0 1.51 0.37500006
v 0.99999994 1.51 0.375
v 0.99999994 0.51 0.375
v 0.43749994 0.9375 0.34375006
v 0.43749994 1.0625 0.34375006
v 0.56249994 1.0625 0.34375006
v 0.56249994 0.9375 0.34375006
v 0.5625 0.9375 0.75000006
v 0.5625 1.0625 0.75000006
v 0.4375 1.0625 0.75000006
v 0.4375 0.9375 0.75000006
v 0.24999994 0.25 0.25000006
v 0.25 0.25 0.75000006
v 0.75 0.25 0.75
v 0.74999994 0.25 0.25
v 0.25 0.125 0.75000006
v 0.24999994 0.125 0.25000006
v 0.74999994 0.125 0.25
v 0.75 0.125 0.75
v 0.37499994 1.0 0.50000006
v 0.375 1.0 0.71875006
v 0.625 1.0 0.71875
v 0.625 1.0 0.5
v 0.28124994 0.25 0.50000006
v 0.71875 0.25 0.5
v 0.71875 0.25 0.71875
v 0.28125 0.25 0.71875006
v 0.0 0.0 0.7187501
v -1.1920929E-7 0.0 0.28125006
v 0.49999994 0.0 0.5
v 0.28125 0.0 1.0000001
v 0.71875 0.0 1.0
v 0.99999994 0.0 0.28125
v 1.0 0.0 0.71875
v 0.28124994 0.0 5.9604645E-8
v 0.7187499 0.0 0.0
v 0.7187499 0.125 0.0
v 0.28124994 0.125 5.9604645E-8
v 0.49999994 0.125 0.5
v -1.1920929E-7 0.125 0.28125006
v 0.0 0.125 0.7187501
v 0.28125 0.125 1.0000001
v 0.71875 0.125 1.0
v 1.0 0.125 0.71875
v 0.99999994 0.125 0.28125
# 46 vertices

vn -5.960465E-8 0.0 -1.0
vn 5.960465E-8 0.0 1.0
vn 0.0 0.0 -1.0
vn 0.0 0.0 1.0
vn 0.0 1.0 0.0
vn -1.0 0.0 1.4671913E-7
vn 1.0 0.0 -1.4671913E-7
vn 0.0 -1.0 0.0
vn -1.0 0.0 1.1920929E-7
vn 1.0 0.0 -1.1920929E-7
vn -1.1920929E-7 0.0 -1.0
vn 1.1920929E-7 0.0 1.0
vn -2.3841852E-7 2.9802315E-8 -1.0
vn 2.3841858E-7 2.9802322E-8 1.0
vn -0.99227786 0.12403473 2.7037424E-7
vn 0.99227786 0.12403473 0.0
vn -0.7071067 0.0 -0.7071068
vn 2.724784E-7 0.0 1.0
vn -1.0 0.0 2.7247833E-7
vn 1.0 0.0 -1.362392E-7
vn -1.3623921E-7 0.0 -1.0
vn 0.7071067 0.0 -0.7071068
vn 0.70710677 0.0 0.70710677
vn -0.70710677 0.0 0.70710677
# 24 vertex normals

vt 0.15625 0.84375
vt 0.15625 0.875
vt 0.125 0.875
vt 0.125 0.84375
vt 0.22265625 0.84375
vt 0.22265625 0.875
vt 0.19140625 0.875
vt 0.19140625 0.84375
vt 0.1875 0.84375
vt 0.1875 0.875
# 10 texture coords

g cep_harbormaster_shipwheel
usemtl cep_harbormaster_shipwheel

f 1/1/1 2/2/1 3/3/1 4/4/1
f 4/1/2 3/2/2 2/3/2 1/4/2
f 5/5/3 6/6/3 7/7/3 8/8/3
f 9/5/4 10/6/4 11/7/4 12/8/4
f 6/5/5 11/6/5 10/7/5 7/8/5
f 12/5/6 11/6/6 6/7/6 5/8/6
f 8/5/7 7/6/7 10/7/7 9/8/7
f 8/5/8 9/6/8 12/7/8 5/8/8
f 13/9/5 14/10/5 15/2/5 16/1/5
f 17/9/9 14/10/9 13/2/9 18/1/9
f 19/9/10 16/10/10 15/2/10 20/1/10
f 18/9/11 13/10/11 16/2/11 19/1/11
f 20/9/12 15/10/12 14/2/12 17/1/12
f 21/9/5 22/10/5 23/2/5 24/1/5
f 25/9/13 21/10/13 24/2/13 26/1/13
f 27/9/14 23/10/14 22/2/14 28/1/14
f 28/9/15 22/10/15 21/2/15 25/1/15
f 26/9/16 24/10/16 23/2/16 27/1/16
f 29/9/8 30/10/8 31/2/8 31/1/8
f 32/9/8 29/10/8 31/2/8 31/1/8
f 33/9/8 32/10/8 31/2/8 31/1/8
f 34/9/8 35/10/8 31/2/8 31/1/8
f 35/9/8 33/10/8 31/2/8 31/1/8
f 30/9/8 36/10/8 31/2/8 31/1/8
f 36/9/8 37/10/8 31/2/8 31/1/8
f 37/9/8 34/10/8 31/2/8 31/1/8
f 38/9/5 39/10/5 40/2/5 40/1/5
f 39/9/5 41/10/5 40/2/5 40/1/5
f 41/9/5 42/10/5 40/2/5 40/1/5
f 42/9/5 43/10/5 40/2/5 40/1/5
f 43/9/5 44/10/5 40/2/5 40/1/5
f 45/9/5 46/10/5 40/2/5 40/1/5
f 44/9/5 45/10/5 40/2/5 40/1/5
f 46/9/5 38/10/5 40/2/5 40/1/5
f 30/9/17 41/10/17 39/2/17 36/1/17
f 33/9/18 44/10/18 43/2/18 32/1/18
f 29/9/19 42/10/19 41/2/19 30/1/19
f 34/9/20 46/10/20 45/2/20 35/1/20
f 36/9/21 39/10/21 38/2/21 37/1/21
f 37/9/22 38/10/22 46/2/22 34/1/22
f 35/9/23 45/10/23 44/2/23 33/1/23
f 32/9/24 43/10/24 42/2/24 29/1/24
# 42 faces
