mtllib almura:cep_harbormaster_net_top_post.mtl

v -1.1920929E-7 0.001 5.9604645E-8
v 0.0 0.001 1.0000001
v 1.0 0.001 1.0
v 0.99999994 0.001 0.0
v 0.34999996 0.0 0.35000008
v 0.34999996 0.5 0.35000008
v 0.65 0.5 0.35000008
v 0.65 0.0 0.35000008
v 0.65 0.0 0.65000004
v 0.65 0.5 0.65000004
v 0.34999996 0.5 0.6500001
v 0.34999996 0.0 0.6500001
# 12 vertices

vn 0.0 1.0 0.0
vn 0.0 -1.0 0.0
vn 0.0 0.0 -1.0
vn 1.9868214E-7 0.0 1.0
vn -1.0 0.0 0.0
vn 1.0 0.0 0.0
# 6 vertex normals

vt 0.125 0.90625
vt 0.125 0.9375
vt 0.09375 0.9375
vt 0.09375 0.90625
vt 0.1875 0.90625
vt 0.1875 0.9375
vt 0.15625 0.9375
vt 0.15625 0.90625
vt 0.21875 0.90625
vt 0.21875 0.9375
# 10 texture coords

g cep_harbormaster_net_top_post
usemtl cep_harbormaster_net_top_post

f 1/1/1 2/2/1 3/3/1 4/4/1
f 4/1/2 3/2/2 2/3/2 1/4/2
f 5/5/3 6/6/3 7/7/3 8/8/3
f 9/5/4 10/6/4 11/7/4 12/8/4
f 6/9/1 11/10/1 10/6/1 7/5/1
f 12/9/2 5/10/2 8/6/2 9/5/2
f 12/5/5 11/6/5 6/7/5 5/8/5
f 8/5/6 7/6/6 10/7/6 9/8/6
# 8 faces
