mtllib almura:cep_priest_skeletontop.mtl

v 0.75 0.0 1.0
v 0.75 0.5 1.0
v 0.25 0.5 1.0000001
v 0.25 0.0 1.0000001
v 0.75 0.001 0.5
v 0.75 0.001 1.0
v 0.25 0.001 1.0000001
v 0.24999994 0.001 0.50000006
v 0.75 0.5 0.5
v 0.75 0.0 0.5
v 0.24999994 0.5 0.50000006
v 0.24999994 0.0 0.50000006
v 0.24999994 0.5 0.5001
v 0.75 0.5 0.5001
v 0.75 0.0 0.5001
v 0.24999994 0.0 0.5001
v -1.1920929E-7 0.1875 5.9604645E-8
v 0.18749994 0.1875 5.9604645E-8
v 0.18749994 0.0 5.9604645E-8
v -1.1920929E-7 0.0 5.9604645E-8
v 0.24999994 0.25 0.50000006
v 0.24999994 0.0625 0.50000006
v 0.06249994 0.0625 0.5000001
v 0.06249994 0.25 0.5000001
v 0.8124999 0.1875 0.0
v 0.8124999 0.0 0.0
v 0.75 0.0625 0.5
v 0.75 0.25 0.5
v 0.93749994 0.25 0.5
v 0.93749994 0.0625 0.5
v 0.99999994 0.0 0.0
v 0.99999994 0.1875 0.0
v 0.24999994 0.25 5.9604645E-8
v 0.7499999 0.25 0.0
v 0.7499999 0.001 0.0
v 0.24999994 0.001 5.9604645E-8
v 0.7499999 0.0 0.0
v 0.24999994 0.0 5.9604645E-8
# 38 vertices

vn 2.3841858E-7 0.0 1.0
vn 0.0 -1.0 0.0
vn 1.0 0.0 0.0
vn 0.0 1.0 0.0
vn -1.0 0.0 1.19209275E-7
vn 0.0 0.0 -1.0
vn 0.99227786 0.0 -0.12403473
vn 0.0 -0.99227786 0.12403473
vn 3.1789145E-7 0.0 1.0
vn 0.0 0.99227786 -0.12403472
vn -0.99227786 0.0 0.12403483
vn -0.992278 0.0 -0.12403451
vn 0.99227786 0.0 0.12403473
vn 0.0 0.99227786 -0.12403473
vn 0.0 0.0 1.0
vn 1.0 0.0 -2.3841858E-7
vn -1.0 0.0 0.0
vn -1.192093E-7 0.0 -1.0
vn 1.19209275E-7 0.0 1.0
# 19 vertex normals

vt 0.625 0.375
vt 0.625 0.5
vt 0.5 0.5
vt 0.5 0.375
vt 0.5 0.25
vt 0.375 0.375
vt 0.375 0.25
vt 0.125 0.25
vt 0.125 0.375
vt 0.0 0.375
vt 0.0 0.25
vt 0.25 0.25
vt 0.25 0.375
vt 0.75 0.375
vt 0.75 0.5
vt 0.125 0.125
vt 0.0 0.125
vt 0.25 0.125
vt 0.375 0.125
# 19 texture coords

g cep_priest_skeletontop
usemtl cep_priest_skeletontop

f 1/1/1 2/2/1 3/3/1 4/4/1
f 5/5/2 6/4/2 7/6/2 8/7/2
f 9/8/3 2/9/3 1/10/3 10/11/3
f 11/12/4 3/13/4 2/9/4 9/8/4
f 12/7/5 4/6/5 3/13/5 11/12/5
f 13/14/6 14/15/6 15/2/6 16/1/6
f 17/16/6 18/8/6 19/11/6 20/17/6
f 21/16/7 22/8/7 19/11/7 18/17/7
f 20/16/8 19/8/8 22/11/8 23/17/8
f 21/16/9 24/8/9 23/11/9 22/17/9
f 18/16/10 17/8/10 24/11/10 21/17/10
f 17/16/11 20/8/11 23/11/11 24/17/11
f 25/16/12 26/8/12 27/11/12 28/17/12
f 29/16/13 30/8/13 31/11/13 32/17/13
f 25/16/6 32/8/6 31/11/6 26/17/6
f 32/16/14 25/8/14 28/11/14 29/17/14
f 26/16/8 31/8/8 30/11/8 27/17/8
f 29/16/15 28/8/15 27/11/15 30/17/15
f 33/18/4 21/12/4 28/8/4 34/16/4
f 35/18/2 5/12/2 8/8/2 36/16/2
f 34/19/16 28/7/16 10/12/16 37/18/16
f 38/19/17 12/7/17 21/12/17 33/18/17
f 33/8/18 34/9/18 37/10/18 38/11/18
f 28/16/19 21/8/19 12/11/19 10/17/19
# 24 faces
