mtllib almura:cep_battlecraftww2_sandbags_slab.mtl

v -1.1920929E-7 0.0 5.9604645E-8
v -1.1920929E-7 0.5 5.9604645E-8
v 0.99999994 0.5 0.0
v 0.99999994 0.0 0.0
v 1.0 0.0 1.0
v 1.0 0.5 1.0
v 0.0 0.5 1.0000001
v 0.0 0.0 1.0000001
# 8 vertices

vn -5.9604645E-8 0.0 -1.0
vn 1.1920929E-7 0.0 1.0
vn 0.0 1.0 0.0
vn -1.0 0.0 1.1920929E-7
vn 1.0 0.0 -5.9604645E-8
vn 0.0 -1.0 0.0
# 6 vertex normals

vt 0.75 0.75
vt 0.75 0.8125
vt 0.625 0.8125
vt 0.625 0.75
vt 0.75 0.875
vt 0.75 1.0
vt 0.625 1.0
vt 0.625 0.875
vt 0.875 0.75
vt 0.875 0.8125
# 10 texture coords

g cep_battlecraftww2_sandbags_slab
usemtl cep_battlecraftww2_sandbags_slab

f 1/1/1 2/2/1 3/3/1 4/4/1
f 5/1/2 6/2/2 7/3/2 8/4/2
f 2/5/3 7/6/3 6/7/3 3/8/3
f 8/9/4 7/10/4 2/2/4 1/1/4
f 4/9/5 3/10/5 6/2/5 5/1/5
f 5/5/6 8/6/6 1/7/6 4/8/6
# 6 faces
