mtllib almura:cep_priest_cross_wood.mtl

v 0.62499994 0.0 0.18750006
v 0.37499994 0.0 0.18750006
v 0.49999994 0.0625 0.5
v 0.18749994 0.0 0.37500006
v 0.18749994 0.0 0.62500006
v 0.375 0.0 0.81250006
v 0.625 0.0 0.8125
v 0.8125 0.0 0.625
v 0.81249994 0.0 0.375
v 0.0 0.0 0.40625006
v 0.0 1.0 0.40625006
v 0.99999994 1.0 0.40625
v 0.99999994 0.0 0.40625
v 0.99999994 0.0 0.59375
v 0.99999994 1.0 0.59375
v 0.0 1.0 0.5937501
v 0.0 0.0 0.5937501
v 0.40625 0.0 1.0
v 0.40625 1.0 1.0
v 0.40624994 1.0 5.9604645E-8
v 0.40624994 0.0 5.9604645E-8
v 0.5937499 0.0 5.9604645E-8
v 0.5937499 1.0 5.9604645E-8
v 0.59375 1.0 1.0
v 0.59375 0.0 1.0
v -1.1920929E-7 0.75 5.9604645E-8
v 0.0 0.75 1.0000001
v 1.0 0.75 1.0
v 0.99999994 0.75 0.0
v 0.99999994 0.5625 0.0
v 1.0 0.5625 1.0
v 0.0 0.5625 1.0000001
v -1.1920929E-7 0.5625 5.9604645E-8
v 0.12499994 0.5625 0.5937501
v 0.12499994 0.75 0.5937501
v 0.12499994 0.75 0.40625006
v 0.12499994 0.5625 0.40625006
v 0.87499994 0.5625 0.40625
v 0.87499994 0.75 0.40625
v 0.875 0.75 0.59375
v 0.875 0.5625 0.59375
v 0.40624994 1.0 0.40625006
v 0.40624994 1.0 0.59375006
v 0.59375 1.0 0.59375
v 0.59374994 1.0 0.40625006
v 0.59374994 0.0 0.40625006
v 0.59375 0.0 0.59375
v 0.40624994 0.0 0.59375006
v 0.40624994 0.0 0.40625006
# 49 vertices

vn 0.0 0.9805807 -0.19611616
vn -0.14002803 0.980196 -0.14002803
vn -0.19611613 0.9805807 0.0
vn -0.14002798 0.98019606 0.14002803
vn 4.6757727E-8 0.9805807 0.19611612
vn 0.19611612 0.9805807 -4.6757727E-8
vn 0.14002798 0.98019606 0.14002798
vn 0.14002798 0.980196 -0.14002803
vn -5.960465E-8 0.0 -1.0
vn 1.192093E-7 0.0 1.0
vn -1.0 0.0 5.960465E-8
vn 1.0 0.0 -1.192093E-7
vn 0.0 1.0 0.0
vn 0.0 -1.0 0.0
vn -1.0 0.0 0.0
vn 1.0 0.0 -3.1789145E-7
# 16 vertex normals

vt 0.375 0.875
vt 0.375 1.0
vt 0.25 1.0
vt 0.25 0.875
vt 0.5 0.875
vt 0.5 1.0
vt 0.625 0.875
vt 0.625 1.0
vt 0.75 0.875
vt 0.75 1.0
vt 0.875 0.875
vt 0.875 1.0
# 12 texture coords

g cep_priest_cross_wood
usemtl cep_priest_cross_wood

f 1/1/1 2/2/1 3/3/1 3/4/1
f 2/1/2 4/2/2 3/3/2 3/4/2
f 4/1/3 5/2/3 3/3/3 3/4/3
f 5/1/4 6/2/4 3/3/4 3/4/4
f 6/1/5 7/2/5 3/3/5 3/4/5
f 8/1/6 9/2/6 3/3/6 3/4/6
f 7/1/7 8/2/7 3/3/7 3/4/7
f 9/1/8 1/2/8 3/3/8 3/4/8
f 10/5/9 11/6/9 12/2/9 13/1/9
f 14/5/10 15/6/10 16/2/10 17/1/10
f 18/7/11 19/8/11 20/6/11 21/5/11
f 22/7/12 23/8/12 24/6/12 25/5/12
f 26/9/13 27/10/13 28/8/13 29/7/13
f 30/9/14 31/10/14 32/8/14 33/7/14
f 34/11/15 35/12/15 36/10/15 37/9/15
f 38/11/16 39/12/16 40/10/16 41/9/16
f 42/11/13 43/12/13 44/10/13 45/9/13
f 46/11/14 47/12/14 48/10/14 49/9/14
# 18 faces
