mtllib almura:cep_harbormaster_shipssail_corner.mtl

v 0.99999994 0.0 0.5001
v 0.99999994 1.0 0.5001
v 0.0 1.0 0.5001001
v 0.0 0.0 0.5001001
v 0.0 0.0 0.49990004
v 0.0 1.0 0.49990004
v 0.99999994 1.0 0.49989998
v 0.99999994 0.0 0.49989998
v 0.0 0.9375 0.46875006
v 0.0 1.0 0.46875006
v 0.99999994 1.0 0.46875
v 0.99999994 0.9375 0.46875
v 0.99999994 0.9375 0.53125
v 0.99999994 1.0 0.53125
v 0.0 1.0 0.5312501
v 0.0 0.9375 0.5312501
# 16 vertices

vn 5.960465E-8 0.0 1.0
vn -5.960465E-8 0.0 -1.0
vn 1.192093E-7 0.0 1.0
vn -1.0 0.0 0.0
vn 1.0 0.0 0.0
vn 0.0 1.0 0.0
vn 0.0 -1.0 0.0
# 7 vertex normals

vt 0.0625 0.875
vt 0.0625 0.90625
vt 0.03125 0.90625
vt 0.03125 0.875
vt 0.09375 0.875
vt 0.09375 0.90625
vt 0.03125 0.96875
vt 0.03125 1.0
vt 0.0 1.0
vt 0.0 0.96875
# 10 texture coords

g cep_harbormaster_shipssail_corner
usemtl cep_harbormaster_shipssail_corner

f 1/1/1 2/2/1 3/3/1 4/4/1
f 5/5/2 6/6/2 7/2/2 8/1/2
f 9/7/2 10/8/2 11/9/2 12/10/2
f 13/7/3 14/8/3 15/9/3 16/10/3
f 16/7/4 15/8/4 10/9/4 9/10/4
f 12/7/5 11/8/5 14/9/5 13/10/5
f 11/7/6 10/8/6 15/9/6 14/10/6
f 9/7/7 12/8/7 13/9/7 16/10/7
# 8 faces
