mtllib almura:cep_innkeeper_barstool.mtl

v 0.61249995 0.0 0.26250005
v 0.56249994 0.6 0.31250006
v 0.68749994 0.6 0.3125
v 0.73749995 0.0 0.2625
v 0.68749994 0.6 0.4375
v 0.73749995 0.0 0.3875
v 0.56249994 0.6 0.43750006
v 0.61249995 0.0 0.38750005
v 0.73749995 0.0 0.7375001
v 0.6875 0.6 0.6875
v 0.5625 0.6 0.6875
v 0.61249995 0.0 0.7375001
v 0.5625 0.6 0.5625
v 0.61249995 0.0 0.6125001
v 0.6875 0.6 0.5625
v 0.73749995 0.0 0.6125001
v 0.3875 0.0 0.7375001
v 0.4375 0.6 0.68750006
v 0.3125 0.6 0.68750006
v 0.2625 0.0 0.7375001
v 0.38749993 0.0 0.6125001
v 0.43749994 0.6 0.56250006
v 0.26249993 0.0 0.6125001
v 0.31249994 0.6 0.56250006
v 0.26249993 0.0 0.38750005
v 0.31249994 0.6 0.43750006
v 0.31249994 0.6 0.31250006
v 0.26249993 0.0 0.26250005
v 0.43749994 0.6 0.31250006
v 0.38749993 0.0 0.26250005
v 0.43749994 0.6 0.43750006
v 0.38749993 0.0 0.38750005
v 0.32499993 0.3 0.6
v 0.32499993 0.4 0.6
v 0.32499993 0.4 0.40000004
v 0.32499993 0.3 0.40000004
v 0.67499995 0.3 0.6
v 0.67499995 0.4 0.6
v 0.67499995 0.4 0.39999998
v 0.67499995 0.3 0.39999998
v 0.39999998 0.3 0.6750001
v 0.39999998 0.4 0.6750001
v 0.59999996 0.4 0.6750001
v 0.59999996 0.3 0.6750001
v 0.39999992 0.3 0.32500005
v 0.39999992 0.4 0.32500005
v 0.5999999 0.4 0.32500005
v 0.5999999 0.3 0.32500005
v 0.18749994 0.6 0.62500006
v 0.18749994 0.6 0.37500006
v 0.49999994 0.6 0.5
v 0.375 0.6 0.81250006
v 0.625 0.6 0.8125
v 0.81249994 0.6 0.375
v 0.8125 0.6 0.625
v 0.37499994 0.6 0.18750006
v 0.62499994 0.6 0.18750006
v 0.62499994 0.7 0.18750006
v 0.37499994 0.7 0.18750006
v 0.49999994 0.7 0.5
v 0.18749994 0.7 0.37500006
v 0.18749994 0.7 0.62500006
v 0.375 0.7 0.81250006
v 0.625 0.7 0.8125
v 0.8125 0.7 0.625
v 0.81249994 0.7 0.375
# 66 vertices

vn -4.7519006E-7 0.08304546 -0.9965458
vn 0.9965458 0.0830455 0.0
vn 4.7519006E-7 -0.08304546 0.9965458
vn -0.9965458 -0.0830455 0.0
vn 0.0 0.083045594 0.9965458
vn -0.9965458 -0.0830454 0.0
vn 0.0 -0.083045594 -0.9965458
vn 0.9965458 0.0830454 0.0
vn 0.0 0.0830455 0.9965458
vn 0.9965458 -0.083045535 -4.7519006E-7
vn 0.0 -0.0830455 -0.9965458
vn -0.9965458 0.083045535 4.7519006E-7
vn -0.9965458 0.0830455 0.0
vn 0.0 0.0830455 -0.9965458
vn 0.9965458 -0.0830455 0.0
vn 0.0 -0.0830455 0.9965458
vn 0.0 -1.0 0.0
vn -1.0 0.0 0.0
vn 0.0 0.0 -1.0
vn 0.0 1.0 0.0
vn -0.70710677 0.0 -0.70710677
vn 2.3841858E-7 0.0 1.0
vn 1.0 0.0 -2.3841858E-7
vn 0.70710665 0.0 -0.7071069
vn 0.70710677 0.0 0.70710677
vn -0.70710665 0.0 0.7071069
# 26 vertex normals

vt 0.375 0.625
vt 0.375 0.75
vt 0.25 0.75
vt 0.25 0.625
vt 0.125 0.625
vt 0.125 0.75
vt 0.0 0.75
vt 0.0 0.625
# 8 texture coords

g cep_innkeeper_barstool
usemtl cep_innkeeper_barstool

f 1/1/1 2/2/1 3/3/1 4/4/1
f 4/1/2 3/2/2 5/3/2 6/4/2
f 6/1/3 5/2/3 7/3/3 8/4/3
f 8/1/4 7/2/4 2/3/4 1/4/4
f 9/1/5 10/2/5 11/3/5 12/4/5
f 12/1/6 11/2/6 13/3/6 14/4/6
f 14/1/7 13/2/7 15/3/7 16/4/7
f 16/1/8 15/2/8 10/3/8 9/4/8
f 17/1/9 18/2/9 19/3/9 20/4/9
f 21/1/10 22/2/10 18/3/10 17/4/10
f 23/1/11 24/2/11 22/3/11 21/4/11
f 20/1/12 19/2/12 24/3/12 23/4/12
f 25/1/13 26/2/13 27/3/13 28/4/13
f 28/1/14 27/2/14 29/3/14 30/4/14
f 30/1/15 29/2/15 31/3/15 32/4/15
f 32/1/16 31/2/16 26/3/16 25/4/16
f 32/5/17 25/6/17 28/7/17 30/8/17
f 9/5/17 12/6/17 14/7/17 16/8/17
f 6/5/17 8/6/17 1/7/17 4/8/17
f 23/5/17 21/6/17 17/7/17 20/8/17
f 33/4/18 34/3/18 35/6/18 36/5/18
f 37/4/18 38/3/18 39/6/18 40/5/18
f 41/4/19 42/3/19 43/6/19 44/5/19
f 45/4/19 46/3/19 47/6/19 48/5/19
f 49/5/17 50/6/17 51/7/17 51/8/17
f 52/5/17 49/6/17 51/7/17 51/8/17
f 53/5/17 52/6/17 51/7/17 51/8/17
f 54/5/17 55/6/17 51/7/17 51/8/17
f 55/5/17 53/6/17 51/7/17 51/8/17
f 50/5/17 56/6/17 51/7/17 51/8/17
f 56/5/17 57/6/17 51/7/17 51/8/17
f 57/5/17 54/6/17 51/7/17 51/8/17
f 58/5/20 59/6/20 60/7/20 60/8/20
f 59/5/20 61/6/20 60/7/20 60/8/20
f 61/5/20 62/6/20 60/7/20 60/8/20
f 62/5/20 63/6/20 60/7/20 60/8/20
f 63/5/20 64/6/20 60/7/20 60/8/20
f 65/5/20 66/6/20 60/7/20 60/8/20
f 64/5/20 65/6/20 60/7/20 60/8/20
f 66/5/20 58/6/20 60/7/20 60/8/20
f 50/4/21 61/3/21 59/6/21 56/5/21
f 53/4/22 64/3/22 63/6/22 52/5/22
f 49/4/18 62/3/18 61/6/18 50/5/18
f 54/4/23 66/3/23 65/6/23 55/5/23
f 56/4/19 59/3/19 58/6/19 57/5/19
f 57/4/24 58/3/24 66/6/24 54/5/24
f 55/4/25 65/3/25 64/6/25 53/5/25
f 52/4/26 63/3/26 62/6/26 49/5/26
# 48 faces
