mtllib almura:cep_carpenter_axe.mtl

v 0.39899993 0.0 0.50000006
v 0.604 0.0 1.0
v 0.704 0.5 1.0
v 0.49899995 0.5 0.5
# 4 vertices

vn -0.9098054 0.18196112 0.37302035
vn 0.9098054 -0.18196116 -0.37302035
vn 0.9098054 -0.18196113 -0.3730203
vn -0.9098054 0.18196116 0.3730203
# 4 vertex normals

vt 1.0 0.875
vt 1.0 1.0
vt 0.875 1.0
vt 0.875 0.875
# 4 texture coords

g cep_carpenter_axe
usemtl cep_carpenter_axe

f 1/1/1 2/2/1 3/3/1 4/4/1
f 2/1/2 1/2/2 4/3/2 3/4/2
f 4/1/3 3/2/3 2/3/3 1/4/3
f 3/1/4 4/2/4 1/3/4 2/4/4
# 4 faces
