mtllib almura:cep_innkeeper_beermug_center.mtl

v 0.55249995 0.28 0.37500006
v 0.5525 0.28 0.625
v 0.625 0.28 0.5525
v 0.62499994 0.28 0.44750005
v 0.44749993 0.28 0.37500006
v 0.44749993 0.28 0.62500006
v 0.37499994 0.28 0.44750005
v 0.37499994 0.28 0.55250007
v 0.62499994 0.0 0.44750005
v 0.62499994 0.3125 0.44750005
v 0.625 0.3125 0.5525
v 0.625 0.0 0.5525
v 0.44749993 0.0 0.37500006
v 0.44749993 0.3125 0.37500006
v 0.55249995 0.3125 0.37500006
v 0.55249995 0.0 0.37500006
v 0.37499994 0.0 0.55250007
v 0.37499994 0.3125 0.55250007
v 0.37499994 0.3125 0.44750005
v 0.37499994 0.0 0.44750005
v 0.5525 0.0 0.625
v 0.5525 0.3125 0.625
v 0.44749993 0.3125 0.62500006
v 0.44749993 0.0 0.62500006
v 0.29499996 0.05 0.48750007
v 0.29499996 0.2575 0.48750007
v 0.33499992 0.2175 0.48750007
v 0.33499992 0.09 0.48750007
v 0.37499994 0.2575 0.48750007
v 0.37499994 0.2175 0.48750007
v 0.37499994 0.09 0.48750007
v 0.37499994 0.05 0.48750007
v 0.33499992 0.09 0.55250007
v 0.33499992 0.2175 0.55250007
v 0.29499996 0.2575 0.55250007
v 0.29499996 0.05 0.55250007
v 0.37499994 0.2175 0.55250007
v 0.37499994 0.2575 0.55250007
v 0.37499994 0.05 0.55250007
v 0.37499994 0.09 0.55250007
# 40 vertices

vn 0.0 1.0 0.0
vn 1.0 0.0 -5.676635E-7
vn 0.0 0.0 -1.0
vn -1.0 0.0 0.0
vn 5.676629E-7 0.0 1.0
vn -0.70710677 0.0 -0.70710677
vn 0.70710677 0.0 -0.70710677
vn -0.70710677 0.0 0.70710677
vn 0.70710677 0.0 0.70710677
vn 0.0 0.0 1.0
vn 0.0 -1.0 0.0
# 11 vertex normals

vt 0.375 0.875
vt 0.375 1.0
vt 0.25 1.0
vt 0.25 0.875
vt 0.5 0.875
vt 0.5 1.0
vt 0.625 0.875
vt 0.625 1.0
vt 0.75 0.875
vt 0.75 1.0
# 10 texture coords

g cep_innkeeper_beermug_center
usemtl cep_innkeeper_beermug_center

f 1/1/1 2/2/1 3/3/1 4/4/1
f 1/1/1 5/2/1 6/3/1 2/4/1
f 7/1/1 8/2/1 6/3/1 5/4/1
f 9/5/2 10/6/2 11/2/2 12/1/2
f 13/5/3 14/6/3 15/2/3 16/1/3
f 17/5/4 18/6/4 19/2/4 20/1/4
f 21/5/5 22/6/5 23/2/5 24/1/5
f 20/5/6 19/6/6 14/2/6 13/1/6
f 16/5/7 15/6/7 10/2/7 9/1/7
f 24/5/8 23/6/8 18/2/8 17/1/8
f 12/5/9 11/6/9 22/2/9 21/1/9
f 16/7/1 21/8/1 12/6/1 9/5/1
f 16/7/1 13/8/1 24/6/1 21/5/1
f 20/7/1 17/8/1 24/6/1 13/5/1
f 25/9/3 26/10/3 27/8/3 28/7/3
f 27/9/3 26/10/3 29/8/3 30/7/3
f 25/9/3 28/10/3 31/8/3 32/7/3
f 33/9/10 34/10/10 35/8/10 36/7/10
f 37/9/10 38/10/10 35/8/10 34/7/10
f 39/9/10 40/10/10 33/8/10 36/7/10
f 36/9/4 35/10/4 26/8/4 25/7/4
f 35/9/1 38/10/1 29/8/1 26/7/1
f 25/9/11 32/10/11 39/8/11 36/7/11
# 23 faces
