mtllib almura:cep_priest_organ.mtl

v -1.1920929E-7 1.0 0.25000006
v 0.0 1.5 0.37500006
v 0.99999994 1.5 0.375
v 0.99999994 1.0 0.25
v -1.0 1.0 0.25000018
v -1.0 1.5 0.37500018
v 0.0 1.5 1.0000001
v 1.0 1.5 1.0
v -1.0 1.5 1.0000001
v 1.0 1.0 1.0
v -1.0 1.0 1.0000001
v 0.0 1.0 1.0000001
v -1.1920929E-7 1.0 5.9604645E-8
v 0.99999994 1.0 0.0
v -1.0 1.0 1.7881393E-7
v 0.99999994 0.75 0.0
v 1.0 0.75 1.0
v 0.0 0.75 1.0000001
v -1.1920929E-7 0.75 5.9604645E-8
v -1.0 0.75 1.0000001
v -1.0 0.75 1.7881393E-7
v -1.1920929E-7 0.0625 5.9604645E-8
v 0.0 0.0625 1.0000001
v 1.0 0.0625 1.0
v 0.99999994 0.0625 0.0
v -1.0 0.0625 1.7881393E-7
v -1.0 0.0625 1.0000001
v 0.0 0.0 1.0000001
v -1.1920929E-7 0.0 5.9604645E-8
v 0.99999994 0.0 0.0
v 1.0 0.0 1.0
v -1.0 0.0 1.0000001
v -1.0 0.0 1.7881393E-7
v -1.1920929E-7 0.0 0.25000006
v 0.99999994 0.0 0.25
v -1.0 0.0 0.25000018
v -0.100000024 1.5 0.8000001
v -0.100000024 3.0 0.8000001
v -0.049999952 3.0 0.70000005
v -0.049999952 1.5 0.70000005
v 0.050000012 3.0 0.70000005
v 0.050000012 1.5 0.70000005
v 0.100000024 3.0 0.8000001
v 0.100000024 1.5 0.8000001
v -0.049999952 1.5 0.9000001
v -0.049999952 3.0 0.9000001
v 0.050000012 1.5 0.9000001
v 0.050000012 3.0 0.9000001
v 0.0 3.0 0.8000001
v -0.39999998 1.5 0.80000013
v -0.39999998 2.75 0.80000013
v -0.35000002 2.75 0.7000001
v -0.35000002 1.5 0.7000001
v -0.25 2.75 0.7000001
v -0.25 1.5 0.7000001
v -0.20000005 2.75 0.8000001
v -0.20000005 1.5 0.8000001
v -0.35000002 1.5 0.9000001
v -0.35000002 2.75 0.9000001
v -0.25 1.5 0.9000001
v -0.25 2.75 0.9000001
v -0.29999995 2.75 0.80000013
v -0.70000005 1.5 0.80000013
v -0.70000005 2.5 0.80000013
v -0.65 2.5 0.70000017
v -0.65 1.5 0.70000017
v -0.54999995 2.5 0.70000017
v -0.54999995 1.5 0.70000017
v -0.5 2.5 0.80000013
v -0.5 1.5 0.80000013
v -0.65 1.5 0.90000015
v -0.65 2.5 0.90000015
v -0.54999995 1.5 0.90000015
v -0.54999995 2.5 0.90000015
v -0.6 2.5 0.80000013
v 0.19999999 1.5 0.8000001
v 0.19999999 2.75 0.8000001
v 0.25 2.75 0.70000005
v 0.25 1.5 0.70000005
v 0.35000002 2.75 0.70000005
v 0.35000002 1.5 0.70000005
v 0.39999998 2.75 0.8000001
v 0.39999998 1.5 0.8000001
v 0.25 1.5 0.9000001
v 0.25 2.75 0.9000001
v 0.35000002 1.5 0.90000004
v 0.35000002 2.75 0.90000004
v 0.3 2.75 0.8000001
v 0.5 1.5 0.8000001
v 0.5 2.5 0.8000001
v 0.54999995 2.5 0.70000005
v 0.54999995 1.5 0.70000005
v 0.65 2.5 0.70000005
v 0.65 1.5 0.70000005
v 0.6999999 2.5 0.8
v 0.6999999 1.5 0.8
v 0.55 1.5 0.90000004
v 0.55 2.5 0.90000004
v 0.65 1.5 0.90000004
v 0.65 2.5 0.90000004
v 0.59999996 2.5 0.8
v -0.54999995 2.25 0.70000017
v -0.5 2.25 0.60000014
v -0.5 1.5 0.60000014
v -0.39999998 2.25 0.60000014
v -0.39999998 1.5 0.60000014
v -0.35000002 2.25 0.7000001
v -0.5 2.25 0.80000013
v -0.39999998 2.25 0.80000013
v -0.45000005 2.25 0.7000001
v -0.25 2.5 0.7000001
v -0.20000005 2.5 0.60000014
v -0.20000005 1.5 0.60000014
v -0.100000024 2.5 0.6000001
v -0.100000024 1.5 0.6000001
v -0.049999952 2.5 0.70000005
v -0.20000005 2.5 0.8000001
v -0.100000024 2.5 0.8000001
v -0.14999998 2.5 0.70000005
v -0.85 1.5 0.70000017
v -0.85 2.0 0.70000017
v -0.79999995 2.0 0.60000014
v -0.79999995 1.5 0.60000014
v -0.70000005 2.0 0.60000014
v -0.70000005 1.5 0.60000014
v -0.65 2.0 0.70000017
v -0.79999995 1.5 0.8000002
v -0.79999995 2.0 0.8000002
v -0.70000005 2.0 0.80000013
v -0.75 2.0 0.70000017
v 0.050000012 2.5 0.70000005
v 0.099999964 2.5 0.6000001
v 0.099999964 1.5 0.6000001
v 0.19999993 2.5 0.6
v 0.19999993 1.5 0.6
v 0.25 2.5 0.70000005
v 0.100000024 2.5 0.8000001
v 0.19999999 2.5 0.8000001
v 0.14999998 2.5 0.70000005
v 0.35000002 2.25 0.70000005
v 0.39999992 2.25 0.6
v 0.39999992 1.5 0.6
v 0.49999994 2.25 0.6
v 0.49999994 1.5 0.6
v 0.54999995 2.25 0.70000005
v 0.39999998 2.25 0.8000001
v 0.5 2.25 0.8000001
v 0.45 2.25 0.70000005
v 0.65 2.0 0.70000005
v 0.6999999 2.0 0.6
v 0.6999999 1.5 0.6
v 0.79999995 2.0 0.6
v 0.79999995 1.5 0.6
v 0.84999996 2.0 0.7
v 0.84999996 1.5 0.7
v 0.6999999 2.0 0.8
v 0.79999995 1.5 0.8
v 0.79999995 2.0 0.8
v 0.75 2.0 0.70000005
# 159 vertices

vn -5.7825E-8 0.24253562 -0.9701425
vn -1.1565E-7 0.24253564 -0.97014254
vn 0.0 1.0 0.0
vn 1.0 2.3841858E-8 -9.536743E-8
vn -1.0 0.0 0.0
vn 1.1920929E-7 0.0 1.0
vn 0.0 0.0 1.0
vn 0.0 -1.0 0.0
vn -5.9604645E-8 0.0 -1.0
vn -1.192093E-7 0.0 -1.0
vn 1.0 0.0 -5.9604645E-8
vn -0.894427 0.0 -0.447214
vn 0.0 0.0 -1.0
vn 0.89442724 0.0 -0.44721362
vn -0.894427 0.0 0.447214
vn 0.89442724 0.0 0.44721362
vn -0.8944274 0.0 -0.44721317
vn 0.89442736 0.0 -0.4472134
vn -0.89442736 0.0 0.4472134
vn 0.8944274 0.0 0.44721317
vn -0.8944269 0.0 -0.44721425
vn 0.8944273 0.0 -0.44721338
vn -0.894427 0.0 0.44721404
vn -0.8944272 0.0 -0.4472136
vn 0.8944274 0.0 -0.44721317
vn -0.8944272 0.0 0.4472136
vn 5.9604633E-7 0.0 1.0
vn 0.89442736 0.0 0.4472134
vn -0.89442706 0.0 0.4472138
vn -0.8944275 0.0 -0.4472132
vn -0.8944273 0.0 0.44721338
vn 0.8944275 0.0 0.4472132
vn -0.8944273 0.0 -0.44721338
vn -5.9604633E-7 0.0 -1.0
vn 0.8944269 0.0 -0.44721425
vn 0.894427 0.0 0.44721404
vn -0.894427 0.0 -0.44721404
vn 0.894427 0.0 -0.44721404
vn 5.96047E-7 0.0 1.0
vn 0.8944269 0.0 0.44721425
vn -5.960467E-7 0.0 -1.0
vn 0.8944272 0.0 0.4472136
vn -0.8944276 0.0 -0.44721273
vn -0.8944275 0.0 0.4472132
vn 0.89442706 0.0 -0.4472138
# 45 vertex normals

vt 0.25 0.0
vt 0.25 0.125
vt 0.125 0.125
vt 0.125 0.0
vt 0.0 0.125
vt 0.0 0.0
vt 0.75 0.0
vt 0.75 0.125
vt 0.625 0.125
vt 0.625 0.0
vt 0.375 0.0
vt 0.375 0.125
vt 0.5 0.0
vt 0.5 0.125
vt 0.875 0.0
vt 0.875 0.125
vt 1.0 0.0
vt 1.0 0.125
# 18 texture coords

g cep_priest_organ
usemtl cep_priest_organ

f 1/1/1 2/2/1 3/3/1 4/4/1
f 5/1/2 6/2/2 2/3/2 1/4/2
f 2/4/3 7/3/3 8/5/3 3/6/3
f 6/4/3 9/3/3 7/5/3 2/6/3
f 4/1/4 3/2/4 8/3/4 10/4/4
f 11/1/5 9/2/5 6/3/5 5/4/5
f 10/1/6 8/2/6 7/3/6 12/4/6
f 12/1/7 7/2/7 9/3/7 11/4/7
f 13/7/3 12/8/3 10/9/3 14/10/3
f 15/7/3 11/8/3 12/9/3 13/10/3
f 16/1/8 17/2/8 18/3/8 19/4/8
f 19/1/8 18/2/8 20/3/8 21/4/8
f 22/4/3 23/3/3 24/5/3 25/6/3
f 26/4/3 27/3/3 23/5/3 22/6/3
f 28/4/8 29/3/8 30/5/8 31/6/8
f 32/4/8 33/3/8 29/5/8 28/6/8
f 34/1/9 1/2/9 4/3/9 35/4/9
f 36/1/10 5/2/10 1/3/10 34/4/10
f 29/11/9 13/12/9 14/2/9 30/1/9
f 33/11/10 15/12/10 13/2/10 29/1/10
f 30/13/11 14/14/11 10/12/11 31/11/11
f 32/10/5 11/9/5 15/14/5 33/13/5
f 31/1/6 10/2/6 12/3/6 28/4/6
f 28/1/7 12/2/7 11/3/7 32/4/7
f 37/15/12 38/16/12 39/8/12 40/7/12
f 40/15/13 39/16/13 41/8/13 42/7/13
f 42/15/14 41/16/14 43/8/14 44/7/14
f 45/15/15 46/16/15 38/8/15 37/7/15
f 47/15/7 48/16/7 46/8/7 45/7/7
f 44/15/16 43/16/16 48/8/16 47/7/16
f 49/17/3 46/18/3 48/16/3 49/15/3
f 49/17/3 38/18/3 46/16/3 49/15/3
f 49/17/3 39/18/3 38/16/3 49/15/3
f 49/17/3 41/18/3 39/16/3 49/15/3
f 49/17/3 43/18/3 41/16/3 49/15/3
f 49/17/3 48/18/3 43/16/3 49/15/3
f 50/15/17 51/16/17 52/8/17 53/7/17
f 53/15/13 52/16/13 54/8/13 55/7/13
f 55/15/18 54/16/18 56/8/18 57/7/18
f 58/15/19 59/16/19 51/8/19 50/7/19
f 60/15/7 61/16/7 59/8/7 58/7/7
f 57/15/20 56/16/20 61/8/20 60/7/20
f 62/17/3 59/18/3 61/16/3 62/15/3
f 62/17/3 51/18/3 59/16/3 62/15/3
f 62/17/3 52/18/3 51/16/3 62/15/3
f 62/17/3 54/18/3 52/16/3 62/15/3
f 62/17/3 56/18/3 54/16/3 62/15/3
f 62/17/3 61/18/3 56/16/3 62/15/3
f 63/15/21 64/16/21 65/8/21 66/7/21
f 66/15/13 65/16/13 67/8/13 68/7/13
f 68/15/22 67/16/22 69/8/22 70/7/22
f 71/15/23 72/16/23 64/8/23 63/7/23
f 73/15/7 74/16/7 72/8/7 71/7/7
f 70/15/20 69/16/20 74/8/20 73/7/20
f 75/17/3 72/18/3 74/16/3 75/15/3
f 75/17/3 64/18/3 72/16/3 75/15/3
f 75/17/3 65/18/3 64/16/3 75/15/3
f 75/17/3 67/18/3 65/16/3 75/15/3
f 75/17/3 69/18/3 67/16/3 75/15/3
f 75/17/3 74/18/3 69/16/3 75/15/3
f 76/15/24 77/16/24 78/8/24 79/7/24
f 79/15/13 78/16/13 80/8/13 81/7/13
f 81/15/25 80/16/25 82/8/25 83/7/25
f 84/15/26 85/16/26 77/8/26 76/7/26
f 86/15/27 87/16/27 85/8/27 84/7/27
f 83/15/28 82/16/28 87/8/28 86/7/28
f 88/17/3 85/18/3 87/16/3 88/15/3
f 88/17/3 77/18/3 85/16/3 88/15/3
f 88/17/3 78/18/3 77/16/3 88/15/3
f 88/17/3 80/18/3 78/16/3 88/15/3
f 88/17/3 82/18/3 80/16/3 88/15/3
f 88/17/3 87/18/3 82/16/3 88/15/3
f 89/15/17 90/16/17 91/8/17 92/7/17
f 92/15/13 91/16/13 93/8/13 94/7/13
f 94/15/22 93/16/22 95/8/22 96/7/22
f 97/15/29 98/16/29 90/8/29 89/7/29
f 99/15/7 100/16/7 98/8/7 97/7/7
f 96/15/20 95/16/20 100/8/20 99/7/20
f 101/17/3 98/18/3 100/16/3 101/15/3
f 101/17/3 90/18/3 98/16/3 101/15/3
f 101/17/3 91/18/3 90/16/3 101/15/3
f 101/17/3 93/18/3 91/16/3 101/15/3
f 101/17/3 95/18/3 93/16/3 101/15/3
f 101/17/3 100/18/3 95/16/3 101/15/3
f 68/15/30 102/16/30 103/8/30 104/7/30
f 104/15/13 103/16/13 105/8/13 106/7/13
f 106/15/22 105/16/22 107/8/22 53/7/22
f 70/15/31 108/16/31 102/8/31 68/7/31
f 50/15/7 109/16/7 108/8/7 70/7/7
f 53/15/32 107/16/32 109/8/32 50/7/32
f 110/17/3 108/18/3 109/16/3 110/15/3
f 110/17/3 102/18/3 108/16/3 110/15/3
f 110/17/3 103/18/3 102/16/3 110/15/3
f 110/17/3 105/18/3 103/16/3 110/15/3
f 110/17/3 107/18/3 105/16/3 110/15/3
f 110/17/3 109/18/3 107/16/3 110/15/3
f 55/15/33 111/16/33 112/8/33 113/7/33
f 113/15/34 112/16/34 114/8/34 115/7/34
f 115/15/35 114/16/35 116/8/35 40/7/35
f 57/15/31 117/16/31 111/8/31 55/7/31
f 37/15/7 118/16/7 117/8/7 57/7/7
f 40/15/36 116/16/36 118/8/36 37/7/36
f 119/17/3 117/18/3 118/16/3 119/15/3
f 119/17/3 111/18/3 117/16/3 119/15/3
f 119/17/3 112/18/3 111/16/3 119/15/3
f 119/17/3 114/18/3 112/16/3 119/15/3
f 119/17/3 116/18/3 114/16/3 119/15/3
f 119/17/3 118/18/3 116/16/3 119/15/3
f 120/15/37 121/16/37 122/8/37 123/7/37
f 123/15/13 122/16/13 124/8/13 125/7/13
f 125/15/38 124/16/38 126/8/38 66/7/38
f 127/15/23 128/16/23 121/8/23 120/7/23
f 63/15/39 129/16/39 128/8/39 127/7/39
f 66/15/40 126/16/40 129/8/40 63/7/40
f 130/17/3 128/18/3 129/16/3 130/15/3
f 130/17/3 121/18/3 128/16/3 130/15/3
f 130/17/3 122/18/3 121/16/3 130/15/3
f 130/17/3 124/18/3 122/16/3 130/15/3
f 130/17/3 126/18/3 124/16/3 130/15/3
f 130/17/3 129/18/3 126/16/3 130/15/3
f 42/15/33 131/16/33 132/8/33 133/7/33
f 133/15/41 132/16/41 134/8/41 135/7/41
f 135/15/38 134/16/38 136/8/38 79/7/38
f 44/15/26 137/16/26 131/8/26 42/7/26
f 76/15/7 138/16/7 137/8/7 44/7/7
f 79/15/42 136/16/42 138/8/42 76/7/42
f 139/17/3 137/18/3 138/16/3 139/15/3
f 139/17/3 131/18/3 137/16/3 139/15/3
f 139/17/3 132/18/3 131/16/3 139/15/3
f 139/17/3 134/18/3 132/16/3 139/15/3
f 139/17/3 136/18/3 134/16/3 139/15/3
f 139/17/3 138/18/3 136/16/3 139/15/3
f 81/15/43 140/16/43 141/8/43 142/7/43
f 142/15/13 141/16/13 143/8/13 144/7/13
f 144/15/14 143/16/14 145/8/14 92/7/14
f 83/15/44 146/16/44 140/8/44 81/7/44
f 89/15/7 147/16/7 146/8/7 83/7/7
f 92/15/32 145/16/32 147/8/32 89/7/32
f 148/17/3 146/18/3 147/16/3 148/15/3
f 148/17/3 140/18/3 146/16/3 148/15/3
f 148/17/3 141/18/3 140/16/3 148/15/3
f 148/17/3 143/18/3 141/16/3 148/15/3
f 148/17/3 145/18/3 143/16/3 148/15/3
f 148/17/3 147/18/3 145/16/3 148/15/3
f 94/15/17 149/16/17 150/8/17 151/7/17
f 151/15/13 150/16/13 152/8/13 153/7/13
f 153/15/45 152/16/45 154/8/45 155/7/45
f 96/15/31 156/16/31 149/8/31 94/7/31
f 157/15/7 158/16/7 156/8/7 96/7/7
f 155/15/42 154/16/42 158/8/42 157/7/42
f 159/17/3 156/18/3 158/16/3 159/15/3
f 159/17/3 149/18/3 156/16/3 159/15/3
f 159/17/3 150/18/3 149/16/3 159/15/3
f 159/17/3 152/18/3 150/16/3 159/15/3
f 159/17/3 154/18/3 152/16/3 159/15/3
f 159/17/3 158/18/3 154/16/3 159/15/3
# 156 faces
