mtllib almura:cep_gladiator_spiketrap_floor.mtl

v 0.0 0.0 0.82000005
v 0.0 1.0 0.82000005
v 1.0 1.0 0.82
v 1.0 0.0 0.82
v 0.0 0.0 0.5000001
v 0.0 1.0 0.5000001
v 0.99999994 1.0 0.5
v 0.99999994 0.0 0.5
v -1.1920929E-7 0.0 0.18000007
v -1.1920929E-7 1.0 0.18000007
v 0.99999994 1.0 0.18
v 0.99999994 0.0 0.18
v -1.1920929E-7 0.001 5.9604645E-8
v 0.0 0.001 1.0000001
v 1.0 0.001 1.0
v 0.99999994 0.001 0.0
v 0.82 0.0 1.0
v 0.82 1.0 1.0
v 0.81999993 1.0 0.0
v 0.81999993 0.0 0.0
v 0.5 0.0 1.0
v 0.5 1.0 1.0
v 0.49999994 1.0 5.9604645E-8
v 0.49999994 0.0 5.9604645E-8
v 0.18 0.0 1.0000001
v 0.18 1.0 1.0000001
v 0.17999995 1.0 5.9604645E-8
v 0.17999995 0.0 5.9604645E-8
# 28 vertices

vn -5.9604645E-8 0.0 -1.0
vn 5.9604645E-8 0.0 1.0
vn -1.192093E-7 0.0 -1.0
vn 1.192093E-7 0.0 1.0
vn 0.0 1.0 0.0
vn 0.0 -1.0 0.0
vn -1.0 0.0 5.9604645E-8
vn 1.0 0.0 -5.9604645E-8
vn -1.0 0.0 5.960465E-8
vn 1.0 0.0 -5.960465E-8
# 10 vertex normals

vt 0.75 0.25
vt 0.75 0.5
vt 0.5 0.5
vt 0.5 0.25
vt 0.25 0.5
vt 0.25 0.25
# 6 texture coords

g cep_gladiator_spiketrap_floor
usemtl cep_gladiator_spiketrap_floor

f 1/1/1 2/2/1 3/3/1 4/4/1
f 4/1/2 3/2/2 2/3/2 1/4/2
f 5/1/3 6/2/3 7/3/3 8/4/3
f 8/1/4 7/2/4 6/3/4 5/4/4
f 9/1/1 10/2/1 11/3/1 12/4/1
f 12/1/2 11/2/2 10/3/2 9/4/2
f 13/4/5 14/3/5 15/5/5 16/6/5
f 16/4/6 15/3/6 14/5/6 13/6/6
f 17/1/7 18/2/7 19/3/7 20/4/7
f 20/1/8 19/2/8 18/3/8 17/4/8
f 21/1/9 22/2/9 23/3/9 24/4/9
f 24/1/10 23/2/10 22/3/10 21/4/10
f 25/1/7 26/2/7 27/3/7 28/4/7
f 28/1/8 27/2/8 26/3/8 25/4/8
# 14 faces
