mtllib almura:cep_scholar_potion.mtl

v 0.875 0.001 0.6875
v 0.6875 0.001 0.6875
v 0.6875 0.001 0.875
v 0.875 0.001 0.875
v 0.6875 0.0 0.6875
v 0.875 0.0 0.6875
v 0.875 0.0 0.875
v 0.6875 0.0 0.875
v 0.75 0.1875 0.75
v 0.8125 0.1875 0.75
v 0.75 0.1875 0.8125
v 0.8125 0.1875 0.8125
v 0.8125 0.25 0.8125
v 0.75 0.25 0.8125
v 0.8125 0.25 0.75
v 0.75 0.25 0.75
# 16 vertices

vn 0.0 1.0 0.0
vn 0.0 -1.0 0.0
vn 0.0 0.31622776 -0.94868326
vn -0.94868326 0.31622776 0.0
vn 0.0 0.31622776 0.94868326
vn 0.94868326 0.31622776 0.0
vn 0.0 0.0 1.0
vn 1.0 0.0 0.0
vn 0.0 0.0 -1.0
vn -1.0 0.0 0.0
# 10 vertex normals

vt 0.125 0.75
vt 0.125 0.875
vt 0.0 0.875
vt 0.0 0.75
vt 0.25 0.75
vt 0.25 0.875
vt 0.375 0.75
vt 0.375 0.875
vt 0.5 0.75
vt 0.5 0.875
# 10 texture coords

g cep_scholar_potion
usemtl cep_scholar_potion

f 1/1/1 2/2/1 3/3/1 4/4/1
f 5/1/2 6/2/2 7/3/2 8/4/2
f 5/5/3 9/6/3 10/2/3 6/1/3
f 8/5/4 11/6/4 9/2/4 5/1/4
f 7/5/5 12/6/5 11/2/5 8/1/5
f 6/5/6 10/6/6 12/2/6 7/1/6
f 12/7/7 13/8/7 14/6/7 11/5/7
f 10/7/8 15/8/8 13/6/8 12/5/8
f 9/7/9 16/8/9 15/6/9 10/5/9
f 11/7/10 14/8/10 16/6/10 9/5/10
f 15/9/1 16/10/1 14/8/1 13/7/1
# 11 faces
