mtllib almura:cep_scholar_book_closed.mtl

v 0.100000024 0.0 0.8345001
v 0.099999964 0.0 0.16250008
v 0.49999994 0.0 0.16250008
v 0.5 0.0 0.8345001
v 0.099999964 0.001 0.16250008
v 0.100000024 0.001 0.8345001
v 0.5 0.001 0.8345001
v 0.49999994 0.001 0.16250008
v 0.100000024 0.0625 0.8345001
v 0.099999964 0.0625 0.16250008
v 0.49999994 0.0625 0.16250008
v 0.5 0.0625 0.8345001
v 0.12499994 0.0 0.18750006
v 0.12499994 0.0625 0.18750006
v 0.49999994 0.0625 0.18750006
v 0.49999994 0.0 0.18750006
v 0.5 0.0 0.81250006
v 0.5 0.0625 0.81250006
v 0.125 0.0625 0.81250006
v 0.125 0.0 0.81250006
# 20 vertices

vn 0.0 -1.0 0.0
vn 0.0 1.0 0.0
vn 0.0 0.0 -1.0
vn 0.0 0.0 1.0
vn 1.0 0.0 -8.869739E-8
vn -1.0 0.0 8.869739E-8
vn -1.0 0.0 9.536743E-8
# 7 vertex normals

vt 0.125 0.625
vt 0.125 0.75
vt 0.0 0.75
vt 0.0 0.625
vt 1.0 0.75
vt 1.0 0.875
vt 0.875 0.875
vt 0.875 0.75
vt 0.25 0.625
vt 0.25 0.75
vt 0.375 0.625
vt 0.375 0.75
# 12 texture coords

g cep_scholar_book_closed
usemtl cep_scholar_book_closed

f 1/1/1 2/2/1 3/3/1 4/4/1
f 5/1/2 6/2/2 7/3/2 8/4/2
f 9/1/1 10/2/1 11/3/1 12/4/1
f 10/1/2 9/2/2 12/3/2 11/4/2
f 13/5/3 14/6/3 15/7/3 16/8/3
f 17/5/4 18/6/4 19/7/4 20/8/4
f 11/9/5 12/10/5 4/2/5 3/1/5
f 3/9/6 4/10/6 12/2/6 11/1/6
f 20/11/7 19/12/7 14/10/7 13/9/7
# 9 faces
