mtllib almura:cep_gladiator_walldisplay_whip.mtl

v 0.0 0.0 0.9990001
v 0.0 1.0 0.9990001
v 1.0 1.0 0.999
v 1.0 0.0 0.999
v 0.0 2.0 0.9990001
v 1.0 2.0 0.999
v -1.0 0.0 0.9990002
v -1.0 1.0 0.9990002
v 1.0 0.0 0.9375
v 1.0 0.0625 0.9375
v 1.0 0.0625 1.0
v 1.0 0.0 1.0
v 0.0 0.0625 0.93750006
v 0.0 0.0625 1.0000001
v 0.0 0.0 0.93750006
v 0.0 0.0 1.0000001
# 16 vertices

vn -5.9604645E-8 0.0 -1.0
vn 5.9604645E-8 0.0 1.0
vn -8.940697E-8 0.0 -1.0
vn 8.940697E-8 0.0 1.0
vn 1.0 0.0 0.0
vn 0.0 1.0 0.0
vn 0.0 -1.0 0.0
# 7 vertex normals

vt 1.0 0.5
vt 1.0 0.625
vt 0.875 0.625
vt 0.875 0.5
vt 0.125 0.875
vt 0.125 1.0
vt 0.0 1.0
vt 0.0 0.875
# 8 texture coords

g cep_gladiator_walldisplay_whip
usemtl cep_gladiator_walldisplay_whip

f 1/1/1 2/2/1 3/3/1 4/4/1
f 4/1/2 3/2/2 2/3/2 1/4/2
f 1/5/1 5/6/1 6/7/1 4/8/1
f 4/5/2 6/6/2 5/7/2 1/8/2
f 7/5/3 8/6/3 3/7/3 4/8/3
f 4/5/4 3/6/4 8/7/4 7/8/4
f 4/5/2 3/6/2 2/7/2 1/8/2
f 9/5/5 10/6/5 11/7/5 12/8/5
f 10/5/6 13/6/6 14/7/6 11/8/6
f 15/5/7 9/6/7 12/7/7 16/8/7
# 10 faces
