mtllib almura:cep_harbormaster_ironporthole.mtl

v 1.0 0.0 1.0
v 1.0 1.0 1.0
v 0.0 1.0 1.0000001
v 0.0 0.0 1.0000001
v 0.0 0.0 0.9990001
v 0.0 1.0 0.9990001
v 1.0 1.0 0.999
v 1.0 0.0 0.999
v 1.0 0.0 0.9375
v 1.0 0.0625 0.9375
v 1.0 0.0625 1.0
v 0.0 0.0625 0.93750006
v 0.0 0.0625 1.0000001
v 0.0 0.0 0.93750006
# 14 vertices

vn 1.1920929E-7 0.0 1.0
vn -5.9604645E-8 0.0 -1.0
vn 1.0 0.0 0.0
vn 0.0 1.0 0.0
vn 0.0 -1.0 0.0
# 5 vertex normals

vt 0.0625 0.875
vt 0.0625 0.90625
vt 0.03125 0.90625
vt 0.03125 0.875
vt 0.03125 0.96875
vt 0.03125 1.0
vt 0.0 1.0
vt 0.0 0.96875
# 8 texture coords

g cep_harbormaster_ironporthole
usemtl cep_harbormaster_ironporthole

f 1/1/1 2/2/1 3/3/1 4/4/1
f 5/1/2 6/2/2 7/3/2 8/4/2
f 9/5/3 10/6/3 11/7/3 1/8/3
f 10/5/4 12/6/4 13/7/4 11/8/4
f 14/5/5 9/6/5 1/7/5 4/8/5
# 5 faces
