mtllib almura:cep_priest_skeletonbottom.mtl

v 0.74999994 0.25 0.25
v 0.7499999 0.25 0.0
v 0.24999994 0.25 5.9604645E-8
v 0.24999994 0.25 0.25000006
v 0.7499999 0.0 0.0
v 0.24999994 0.0 5.9604645E-8
v 0.24999994 0.0 0.25000006
v 0.74999994 0.25 0.24989998
v 0.24999994 0.25 0.24990004
v 0.24999994 0.0 0.24990004
v 0.74999994 0.0 0.24989998
v 0.74999994 0.0 0.25
v 0.74999994 0.001 0.25
v 0.24999994 0.001 0.25000006
v 0.24999994 0.001 5.9604645E-8
v 0.7499999 0.001 0.0
v -1.1920929E-7 0.1875 5.9604645E-8
v 0.18749994 0.1875 5.9604645E-8
v 0.18749994 0.0 5.9604645E-8
v -1.1920929E-7 0.0 5.9604645E-8
v -1.1920929E-7 0.1875 0.25000006
v 0.18749994 0.1875 0.25000006
v -1.1920929E-7 0.0 0.25000006
v 0.18749994 0.0 0.25000006
v -1.1920929E-7 0.001 5.9604645E-8
v 0.18749994 0.001 5.9604645E-8
v 0.18749994 0.001 0.25000006
v -1.1920929E-7 0.001 0.25000006
v 0.99999994 0.0 0.0
v 0.99999994 0.1875 0.0
v 0.99999994 0.1875 0.25
v 0.99999994 0.0 0.25
v 0.81249994 0.1875 0.25
v 0.81249994 0.0 0.25
v 0.8124999 0.1875 0.0
v 0.8124999 0.0 0.0
v 0.8124999 0.001 0.0
v 0.99999994 0.001 0.0
v 0.99999994 0.001 0.25
v 0.81249994 0.001 0.25
v 0.75 0.1875 1.0
v 0.75 0.0 1.0
v 0.68749994 0.0625 0.25
v 0.68749994 0.25 0.25
v 0.49999994 0.25 0.25000006
v 0.5625 0.1875 1.0
v 0.49999994 0.0625 0.25000006
v 0.5625 0.0 1.0
v 0.31249994 0.25 0.25000006
v 0.25 0.1875 1.0000001
v 0.4375 0.1875 1.0
v 0.25 0.0 1.0000001
v 0.4375 0.0 1.0
v 0.31249994 0.0625 0.25000006
# 54 vertices

vn 0.0 1.0 0.0
vn -1.192093E-7 0.0 -1.0
vn -1.0 0.0 0.0
vn 1.1920929E-7 0.0 1.0
vn 1.0 0.0 -2.3841858E-7
vn 0.0 -1.0 0.0
vn 0.0 0.0 -1.0
vn 0.0 0.0 1.0
vn 1.0 0.0 0.0
vn -1.0 0.0 2.3841858E-7
vn 0.9965458 0.0 -0.083045565
vn 2.6399452E-8 0.9965458 0.08304549
vn -2.6399448E-8 -0.9965458 -0.08304548
vn -0.9965458 0.0 0.08304557
vn -3.1789145E-7 0.0 -1.0
vn 0.0 0.9965458 0.083045475
vn 6.357829E-7 0.0 1.0
vn -0.9965458 0.0 -0.08304539
vn 0.0 -0.9965458 -0.08304549
vn 0.9965458 0.0 0.083045416
# 20 vertex normals

vt 0.75 0.25
vt 0.75 0.375
vt 0.625 0.375
vt 0.625 0.25
vt 0.125 0.25
vt 0.125 0.375
vt 0.0 0.375
vt 0.0 0.25
vt 0.5 0.375
vt 0.5 0.25
vt 0.125 0.125
vt 0.0 0.125
# 12 texture coords

g cep_priest_skeletonbottom
usemtl cep_priest_skeletonbottom

f 1/1/1 2/2/1 3/3/1 4/4/1
f 5/5/2 6/6/2 3/7/2 2/8/2
f 3/5/3 6/6/3 7/7/3 4/8/3
f 8/5/4 9/6/4 10/7/4 11/8/4
f 1/5/5 12/6/5 5/7/5 2/8/5
f 13/4/6 14/3/6 15/9/6 16/10/6
f 17/11/7 18/5/7 19/8/7 20/12/7
f 18/11/1 17/5/1 21/8/1 22/12/1
f 22/11/8 21/5/8 23/8/8 24/12/8
f 22/11/9 24/5/9 19/8/9 18/12/9
f 25/11/6 26/5/6 27/8/6 28/12/6
f 17/11/3 20/5/3 23/8/3 21/12/3
f 29/11/9 30/5/9 31/8/9 32/12/9
f 31/11/8 33/5/8 34/8/8 32/12/8
f 30/11/1 35/5/1 33/8/1 31/12/1
f 35/11/7 30/5/7 29/8/7 36/12/7
f 37/11/6 38/5/6 39/8/6 40/12/6
f 35/11/10 36/5/10 34/8/10 33/12/10
f 41/11/11 42/5/11 43/8/11 44/12/11
f 44/11/12 45/5/12 46/8/12 41/12/12
f 47/11/13 43/5/13 42/8/13 48/12/13
f 45/11/14 47/5/14 48/8/14 46/12/14
f 41/11/8 46/5/8 48/8/8 42/12/8
f 45/11/15 44/5/15 43/8/15 47/12/15
f 45/11/16 49/5/16 50/8/16 51/12/16
f 51/11/17 50/5/17 52/8/17 53/12/17
f 49/11/18 54/5/18 52/8/18 50/12/18
f 54/11/19 47/5/19 53/8/19 52/12/19
f 51/11/20 53/5/20 47/8/20 45/12/20
f 49/11/7 45/5/7 47/8/7 54/12/7
# 30 faces
