mtllib almura:cep_priest_goddess.mtl

v 0.62499994 1.935 0.43750006
v 0.56249994 1.935 0.37500006
v 0.5625 1.935 0.625
v 0.625 1.935 0.5625
v 0.49999994 1.935 0.37500006
v 0.49999994 1.935 0.625
v 0.43749994 1.935 0.37500006
v 0.43749994 1.935 0.62500006
v 0.37499994 1.935 0.56250006
v 0.37499994 1.935 0.43750006
v 0.37499994 1.875 0.31250006
v 0.43749994 1.9375 0.37500006
v 0.56249994 1.9375 0.37500006
v 0.62499994 1.875 0.31250006
v 0.62499994 1.9375 0.43750006
v 0.68749994 1.875 0.375
v 0.31249994 1.875 0.37500006
v 0.37499994 1.9375 0.43750006
v 0.625 1.9375 0.5625
v 0.6875 1.875 0.625
v 0.31249994 1.875 0.62500006
v 0.37499994 1.9375 0.56250006
v 0.625 1.875 0.6875
v 0.5625 1.9375 0.625
v 0.43749994 1.9375 0.62500006
v 0.375 1.875 0.68750006
v 0.37499994 1.625 0.31260008
v 0.37499994 1.875 0.31260008
v 0.62499994 1.875 0.31260008
v 0.62499994 1.625 0.31260008
v 0.62499994 1.625 0.31250006
v 0.68749994 1.575 0.375
v 0.31249994 1.575 0.37500006
v 0.37499994 1.625 0.31250006
v 0.6875 1.525 0.625
v 0.31249994 1.525 0.62500006
v 0.625 1.125 0.77500004
v 0.375 1.125 0.7750001
v 0.43749994 1.5625 0.37500006
v 0.56249994 1.5625 0.37500006
v 0.68749994 1.625 0.375
v 0.62499994 1.5625 0.43750006
v 0.37499994 1.5625 0.43750006
v 0.31249994 1.625 0.37500006
v 0.6875 1.625 0.625
v 0.625 1.5625 0.5625
v 0.37499994 1.5625 0.56250006
v 0.31249994 1.625 0.62500006
v 0.5625 1.5625 0.625
v 0.625 1.625 0.6875
v 0.375 1.625 0.68750006
v 0.43749994 1.5625 0.62500006
v 0.37499994 1.5 0.31250006
v 0.62499994 1.5 0.31250006
v 0.74999994 1.5 0.375
v 0.24999994 1.5 0.37500006
v 0.75 1.5 0.625
v 0.24999994 1.5 0.62500006
v 0.625 1.5 0.6875
v 0.375 1.5 0.68750006
v 0.37499994 0.875 0.37500006
v 0.62499994 0.875 0.37500006
v 0.6999999 0.875 0.4375
v 0.29999995 0.875 0.43750006
v 0.625 0.875 0.625
v 0.37499994 0.875 0.62500006
v 0.6999999 0.875 0.5625
v 0.29999995 0.875 0.56250006
v 0.84999996 1.125 0.4375
v 0.65 1.5 0.43750006
v 0.775 1.5 0.4375
v 0.97499996 1.125 0.4375
v 0.775 1.5 0.5625
v 0.97499996 1.125 0.5625
v 0.84999996 1.125 0.5625
v 0.65 1.5 0.5625
v 0.024999917 1.125 0.43750006
v 0.22499996 1.5 0.43750006
v 0.34999996 1.5 0.43750006
v 0.14999992 1.125 0.43750006
v 0.34999996 1.5 0.56250006
v 0.14999992 1.125 0.56250006
v 0.024999917 1.125 0.5625001
v 0.22499996 1.5 0.56250006
v 0.97499996 1.0 0.4375
v 0.84999996 1.0 0.4375
v 0.97499996 1.124 0.5625
v 0.84999996 1.124 0.5625
v 0.024999917 1.0 0.43750006
v 0.14999992 1.0 0.43750006
v 0.14999992 1.124 0.56250006
v 0.024999917 1.124 0.5625001
v 0.87499994 1.025 0.1875
v 0.74999994 1.025 0.1875
v 0.74999994 0.9 0.1875
v 0.87499994 0.9 0.1875
v 0.24999994 1.025 0.18750006
v 0.12499994 1.025 0.18750006
v 0.12499994 0.9 0.18750006
v 0.24999994 0.9 0.18750006
v 0.29999995 0.0 0.17500007
v 0.49999994 0.875 0.37500006
v 0.49999994 0.0 0.17500007
v 0.14999992 0.0 0.62500006
v 0.14999992 0.0 0.37500006
v 0.5 0.0 0.82500005
v 0.49999994 0.875 0.625
v 0.3 0.0 0.82500005
v 0.6999999 0.0 0.17500001
v 0.8499999 0.0 0.375
v 0.84999996 0.0 0.625
v 0.6999999 0.0 0.82500005
v 0.0 1.2 1.0000001
v 0.0 2.0 1.0000001
v 0.49999994 2.0 0.5
v 0.49999994 1.2 0.5
v 0.0 0.0 1.0000001
v 0.49999994 0.0 0.5
v 1.0 2.0 1.0
v 1.0 1.2 1.0
v 1.0 0.0 1.0
v 0.49999994 1.3125 0.31250006
v 0.49999994 1.4075 0.31250006
v 0.62499994 1.4375 0.31250006
v 0.62499994 1.3125 0.25000006
v 0.7199999 1.4075 0.385
v 0.74999994 1.3125 0.39499998
v 0.49999994 1.2175 0.31250006
v 0.62499994 1.1875 0.34250003
v 0.74999994 1.3125 0.39
v 0.7199999 1.2175 0.385
v 0.24999994 1.3125 0.39500004
v 0.2799999 1.4075 0.38500005
v 0.37499994 1.4375 0.31250006
v 0.37499994 1.3125 0.25000006
v 0.2799999 1.2175 0.38500005
v 0.24999994 1.3125 0.39000005
v 0.37499994 1.1875 0.34250003
# 138 vertices

vn 0.0 1.0 0.0
vn 0.0 0.70710677 -0.70710677
vn 0.40824828 0.81649655 -0.40824828
vn -0.40824828 0.81649655 -0.40824828
vn 0.70710665 0.70710695 -3.3717487E-7
vn -0.70710677 0.70710677 0.0
vn 3.3717453E-7 0.70710695 0.7071066
vn 0.40824828 0.81649655 0.40824828
vn -0.40824842 0.8164965 0.40824842
vn 0.0 0.0 -1.0
vn 0.7071064 0.0 -0.70710707
vn -0.70710677 0.0 -0.70710677
vn 1.0 0.0 -2.3841858E-7
vn -1.0 0.0 0.0
vn 2.3681237E-7 0.11588074 0.99326307
vn 0.70710677 0.0 0.70710677
vn -0.70471257 0.082216576 0.7047132
vn 0.0 -0.70710677 -0.70710677
vn 0.4082481 -0.81649655 -0.40824848
vn -0.40824828 -0.81649655 -0.40824828
vn 0.70710665 -0.7071068 -1.6858736E-7
vn -0.70710677 -0.70710677 0.0
vn 1.6858736E-7 -0.7071068 0.70710665
vn 0.40824828 -0.81649655 0.40824828
vn -0.40824825 -0.8164965 0.40824863
vn -0.30151135 0.904534 -0.30151135
vn 0.44721353 0.89442724 -2.1324813E-7
vn -0.4472136 0.8944272 0.0
vn 0.30151135 0.904534 0.30151135
vn 0.0 -0.099503726 -0.9950372
vn 0.44543508 -0.0890871 -0.890871
vn -0.44374815 -0.12424949 -0.8874963
vn 2.3723535E-7 -0.099503726 0.9950372
vn 0.44374815 -0.12424953 0.8874963
vn -0.44543523 -0.08908705 0.89087087
vn 0.99681526 -0.07974526 -2.3765928E-7
vn -0.99681526 -0.07974524 0.0
vn -4.7683716E-7 -9.536742E-8 -1.0
vn 0.882353 0.47058824 0.0
vn -0.88235295 -0.4705882 0.0
vn 0.0 0.0 1.0
vn 0.0 -1.0 0.0
vn 0.8823529 -0.47058833 0.0
vn -0.8823529 0.47058833 0.0
vn 0.0 -0.70710677 0.70710677
vn 1.0 0.0 0.0
vn 0.0 -0.70710695 0.7071066
vn 0.0 0.92847663 -0.37139073
vn 0.0 -0.92847663 0.37139073
vn 0.92847663 0.0 -0.37139073
vn -0.92847663 0.0 0.37139073
vn -0.92847663 0.0 -0.37139073
vn 0.92847663 0.0 0.37139073
vn 0.0 0.2228248 -0.9748585
vn -0.9856222 0.16896385 0.0
vn 4.6484877E-7 0.22282486 0.9748585
vn -0.6238315 0.22457926 0.7485977
vn -0.6316826 0.16243267 -0.758019
vn 0.9856223 0.16896379 0.0
vn 0.0 0.22282484 0.97485846
vn 0.6316828 0.1624327 0.7580187
vn 0.6238311 0.22457938 -0.7485979
vn -0.70710695 0.0 -0.70710665
vn -0.7071069 0.0 -0.7071067
vn 0.70710695 0.0 0.70710665
vn 0.7071069 0.0 0.7071067
vn 0.70710677 0.0 -0.7071069
vn 0.70710677 0.0 -0.7071068
vn -0.70710677 0.0 0.7071069
vn -0.70710677 0.0 0.7071068
vn 0.63583815 0.34516948 -0.69033897
vn -0.4472136 0.0 -0.8944272
vn 0.66908896 -0.4420767 -0.59740114
vn -0.6255073 0.11631806 -0.77149904
vn 0.10671822 0.44465968 -0.88931936
vn -0.7313808 -0.19659272 -0.65301865
vn 0.37292674 -0.5519314 -0.7458535
# 77 vertex normals

vt 0.25 0.5
vt 0.25 0.625
vt 0.125 0.625
vt 0.125 0.5
vt 0.25 0.875
vt 0.25 1.0
vt 0.125 1.0
vt 0.125 0.875
vt 0.0 1.0
vt 0.0 0.875
vt 0.375 0.875
vt 0.375 1.0
vt 0.5 0.875
vt 0.5 1.0
vt 0.625 0.875
vt 0.625 1.0
vt 0.875 0.875
vt 0.875 1.0
vt 0.75 1.0
vt 0.75 0.875
vt 1.0 0.875
vt 1.0 1.0
vt 0.0 0.625
vt 0.5 0.625
vt 0.75 0.625
vt 1.0 0.625
# 26 texture coords

g cep_priest_goddess
usemtl cep_priest_goddess

f 1/1/1 2/2/1 3/3/1 4/4/1
f 2/1/1 5/2/1 6/3/1 3/4/1
f 5/1/1 7/2/1 8/3/1 6/4/1
f 9/1/1 8/2/1 7/3/1 10/4/1
f 11/5/2 12/6/2 13/7/2 14/8/2
f 14/5/3 13/6/3 15/7/3 16/8/3
f 17/5/4 18/6/4 12/7/4 11/8/4
f 16/5/5 15/6/5 19/7/5 20/8/5
f 21/5/6 22/6/6 18/7/6 17/8/6
f 23/5/7 24/6/7 25/7/7 26/8/7
f 20/5/8 19/6/8 24/7/8 23/8/8
f 26/5/9 25/6/9 22/7/9 21/8/9
f 27/8/10 28/7/10 29/9/10 30/10/10
f 31/5/11 14/6/11 16/7/11 32/8/11
f 33/5/12 17/6/12 11/7/12 34/8/12
f 32/5/13 16/6/13 20/7/13 35/8/13
f 36/5/14 21/6/14 17/7/14 33/8/14
f 37/5/15 23/6/15 26/7/15 38/8/15
f 35/5/16 20/6/16 23/7/16 37/8/16
f 38/5/17 26/6/17 21/7/17 36/8/17
f 39/11/18 34/12/18 31/6/18 40/5/18
f 40/11/19 31/12/19 41/6/19 42/5/19
f 43/11/20 44/12/20 34/6/20 39/5/20
f 42/11/21 41/12/21 45/6/21 46/5/21
f 47/11/22 48/12/22 44/6/22 43/5/22
f 49/11/23 50/12/23 51/6/23 52/5/23
f 46/11/24 45/12/24 50/6/24 49/5/24
f 52/11/25 51/12/25 48/6/25 47/5/25
f 53/13/2 39/14/2 40/12/2 54/11/2
f 54/13/3 40/14/3 42/12/3 55/11/3
f 56/13/26 43/14/26 39/12/26 53/11/26
f 55/13/27 42/14/27 46/12/27 57/11/27
f 58/13/28 47/14/28 43/12/28 56/11/28
f 59/13/7 49/14/7 52/12/7 60/11/7
f 57/13/29 46/14/29 49/12/29 59/11/29
f 60/13/9 52/14/9 47/12/9 58/11/9
f 61/15/30 53/16/30 54/14/30 62/13/30
f 62/17/31 54/18/31 55/19/31 63/20/31
f 64/20/32 56/19/32 53/16/32 61/15/32
f 65/15/33 59/16/33 60/14/33 66/13/33
f 67/15/34 57/16/34 59/14/34 65/13/34
f 66/15/35 60/16/35 58/14/35 68/13/35
f 63/15/36 55/16/36 57/14/36 67/13/36
f 68/15/37 58/16/37 56/14/37 64/13/37
f 69/15/38 70/16/38 71/14/38 72/13/38
f 72/15/39 71/16/39 73/14/39 74/13/39
f 75/15/40 76/16/40 70/14/40 69/13/40
f 74/15/41 73/16/41 76/14/41 75/13/41
f 72/15/42 74/16/42 75/14/42 69/13/42
f 70/15/1 76/16/1 73/14/1 71/13/1
f 77/15/10 78/16/10 79/14/10 80/13/10
f 80/15/43 79/16/43 81/14/43 82/13/43
f 83/15/44 84/16/44 78/14/44 77/13/44
f 82/15/41 81/16/41 84/14/41 83/13/41
f 80/15/42 82/16/42 83/14/42 77/13/42
f 78/15/1 84/16/1 81/14/1 79/13/1
f 85/21/45 74/22/45 75/18/45 86/17/45
f 72/21/46 74/22/46 87/18/46 85/17/46
f 86/21/14 88/22/14 75/18/14 69/17/14
f 83/21/47 89/22/47 90/18/47 82/17/47
f 91/21/46 90/22/46 80/18/46 82/17/46
f 83/21/14 77/22/14 89/18/14 92/17/14
f 72/15/48 93/16/48 94/14/48 69/13/48
f 86/15/49 95/16/49 96/14/49 85/13/49
f 85/15/50 96/16/50 93/14/50 72/13/50
f 69/15/51 94/16/51 95/14/51 86/13/51
f 95/11/10 94/12/10 93/6/10 96/5/10
f 80/15/48 97/16/48 98/14/48 77/13/48
f 89/15/49 99/16/49 100/14/49 90/13/49
f 77/15/52 98/16/52 99/14/52 89/13/52
f 90/15/53 100/16/53 97/14/53 80/13/53
f 99/11/10 98/12/10 97/6/10 100/5/10
f 101/21/54 61/22/54 102/18/54 103/17/54
f 104/21/55 68/22/55 64/18/55 105/17/55
f 106/21/56 107/22/56 66/18/56 108/17/56
f 108/21/57 66/22/57 68/18/57 104/17/57
f 105/21/58 64/22/58 61/18/58 101/17/58
f 103/21/54 102/22/54 62/18/54 109/17/54
f 110/21/59 63/22/59 67/18/59 111/17/59
f 112/21/60 65/22/60 107/18/60 106/17/60
f 111/21/61 67/22/61 65/18/61 112/17/61
f 109/21/62 62/22/62 63/18/62 110/17/62
f 113/2/63 114/5/63 115/10/63 116/23/63
f 117/24/64 113/13/64 116/5/64 118/2/64
f 116/25/65 115/20/65 114/13/65 113/24/65
f 118/26/66 116/21/66 113/20/66 117/25/66
f 116/25/67 115/20/67 119/13/67 120/24/67
f 118/26/68 116/21/68 120/20/68 121/25/68
f 120/2/69 119/5/69 115/10/69 116/23/69
f 121/24/70 120/13/70 116/5/70 118/2/70
f 122/15/10 123/16/10 124/14/10 125/13/10
f 125/17/71 124/18/71 126/19/71 127/20/71
f 128/21/72 122/22/72 125/18/72 129/17/72
f 129/21/73 125/22/73 130/18/73 131/17/73
f 132/20/74 133/19/74 134/16/74 135/15/74
f 135/15/75 134/16/75 123/14/75 122/13/75
f 136/21/76 137/22/76 135/18/76 138/17/76
f 138/21/77 135/22/77 122/18/77 128/17/77
# 98 faces
