mtllib almura:cep_king_faction_banner_center.mtl

v 1.0 0.0 0.9688
v 1.0 1.0 0.9688
v 0.0 1.0 0.96880007
v 0.0 0.0 0.96880007
v 0.0 0.0 0.9687001
v 0.0 1.0 0.9687001
v 1.0 1.0 0.9687
v 1.0 0.0 0.9687
v 0.0 0.9375 0.93750006
v 0.0 1.0 0.93750006
v 1.0 1.0 0.9375
v 1.0 0.9375 0.9375
v 1.0 0.9375 1.0
v 1.0 1.0 1.0
v 0.0 1.0 1.0000001
v 0.0 0.9375 1.0000001
v 0.0 0.0 0.93750006
v 0.0 0.0625 0.93750006
v 1.0 0.0625 0.9375
v 1.0 0.0 0.9375
v 1.0 0.0 1.0
v 1.0 0.0625 1.0
v 0.0 0.0625 1.0000001
v 0.0 0.0 1.0000001
# 24 vertices

vn 5.9604645E-8 0.0 1.0
vn -1.1920929E-7 0.0 -1.0
vn -5.9604645E-8 0.0 -1.0
vn 1.1920929E-7 0.0 1.0
vn -1.0 0.0 0.0
vn 1.0 0.0 0.0
vn 0.0 1.0 0.0
vn 0.0 -1.0 0.0
# 8 vertex normals

vt 0.875 0.625
vt 0.875 0.75
vt 0.75 0.75
vt 0.75 0.625
vt 1.0 0.75
vt 1.0 0.875
vt 0.875 0.875
# 7 texture coords

g cep_king_faction_banner_center
usemtl cep_king_faction_banner_center

f 1/1/1 2/2/1 3/3/1 4/4/1
f 5/1/2 6/2/2 7/3/2 8/4/2
f 9/5/3 10/6/3 11/7/3 12/2/3
f 13/5/4 14/6/4 15/7/4 16/2/4
f 16/5/5 15/6/5 10/7/5 9/2/5
f 12/5/6 11/6/6 14/7/6 13/2/6
f 14/5/7 11/6/7 10/7/7 15/2/7
f 16/5/8 9/6/8 12/7/8 13/2/8
f 17/5/3 18/6/3 19/7/3 20/2/3
f 21/5/4 22/6/4 23/7/4 24/2/4
f 24/5/5 23/6/5 18/7/5 17/2/5
f 20/5/6 19/6/6 22/7/6 21/2/6
f 19/5/7 18/6/7 23/7/7 22/2/7
f 17/5/8 20/6/8 21/7/8 24/2/8
# 14 faces
