mtllib almura:cep_scholar_brickpot2.mtl

v 0.81249994 0.99 0.1875
v 0.18749994 0.99 0.18750006
v 0.1875 0.99 0.81250006
v 0.8125 0.99 0.8125
v 0.8125 0.04 0.8125
v 0.1875 0.04 0.81250006
v 0.18749994 0.04 0.18750006
v 0.81249994 0.04 0.1875
v 0.625 0.0 0.8125
v 0.6875 0.1875 0.9375
v 0.3125 0.1875 0.93750006
v 0.375 0.0 0.81250006
v 0.8125 0.0 0.625
v 0.9375 0.1875 0.6875
v 0.81249994 0.0 0.375
v 0.93749994 0.1875 0.3125
v 0.62499994 0.0 0.18750006
v 0.6874999 0.1875 0.0625
v 0.18749994 0.0 0.37500006
v 0.06249994 0.1875 0.31250006
v 0.31249994 0.1875 0.06250006
v 0.37499994 0.0 0.18750006
v 0.18749994 0.0 0.62500006
v 0.0625 0.1875 0.6875001
v 0.93749994 0.6875 0.3125
v 0.9375 0.6875 0.6875
v 0.6875 0.6875 0.9375
v 0.3125 0.6875 0.93750006
v 0.0625 0.6875 0.6875001
v 0.06249994 0.6875 0.31250006
v 0.31249994 0.6875 0.06250006
v 0.6874999 0.6875 0.0625
v 0.81249994 0.875 0.375
v 0.8125 0.875 0.625
v 0.625 0.875 0.8125
v 0.375 0.875 0.81250006
v 0.18749994 0.875 0.62500006
v 0.18749994 0.875 0.37500006
v 0.37499994 0.875 0.18750006
v 0.62499994 0.875 0.18750006
v 0.6875 0.9375 0.9375
v 0.3125 0.9375 0.93750006
v 0.9375 0.9375 0.6875
v 0.93749994 0.9375 0.3125
v 0.6874999 0.9375 0.0625
v 0.06249994 0.9375 0.31250006
v 0.31249994 0.9375 0.06250006
v 0.0625 0.9375 0.6875001
v 0.93749994 1.0 0.3125
v 0.9375 1.0 0.6875
v 0.6875 1.0 0.9375
v 0.3125 1.0 0.93750006
v 0.0625 1.0 0.6875001
v 0.06249994 1.0 0.31250006
v 0.31249994 1.0 0.06250006
v 0.6874999 1.0 0.0625
v 0.37499994 1.0 0.18750006
v 0.62499994 1.0 0.18750006
v 0.18749994 1.0 0.62500006
v 0.18749994 1.0 0.37500006
v 0.375 1.0 0.81250006
v 0.8125 1.0 0.625
v 0.625 1.0 0.8125
v 0.81249994 1.0 0.375
# 64 vertices

vn 0.0 1.0 0.0
vn 0.0 -1.0 0.0
vn 1.3225083E-7 -0.5547002 0.83205026
vn 0.5773503 -0.5773503 0.5773503
vn 0.83205026 -0.5547002 -1.3225083E-7
vn 0.5773502 -0.57735026 -0.5773503
vn -0.5773503 -0.5773503 -0.5773503
vn -0.8320504 -0.5547 1.3225082E-7
vn -0.57735014 -0.57735026 0.5773503
vn -1.3225085E-7 -0.55470026 -0.83205026
vn 1.0 0.0 -1.5894572E-7
vn 1.5894572E-7 0.0 1.0
vn -1.0 0.0 1.589457E-7
vn -1.5894574E-7 0.0 -1.0
vn 0.70710665 0.0 -0.7071068
vn -0.70710677 0.0 -0.70710677
vn -0.7071067 0.0 0.7071068
vn 0.70710677 0.0 0.70710677
vn 0.83205026 0.55470026 -1.9837624E-7
vn 1.9837624E-7 0.55470026 0.83205026
vn -0.8320504 0.5547 0.0
vn 0.0 0.5547002 -0.8320503
vn 0.57735014 0.57735026 -0.5773503
vn -0.57735026 0.57735026 -0.57735026
vn -0.57735014 0.5773503 0.5773504
vn 0.57735026 0.57735026 0.57735026
vn 7.108268E-8 -0.89442724 0.44721356
vn 0.30151135 -0.904534 0.30151135
vn 0.44721356 -0.89442724 -7.108268E-8
vn 0.3015113 -0.90453404 -0.30151138
vn -0.30151135 -0.904534 -0.30151135
vn -0.4472137 -0.89442706 7.1082695E-8
vn -0.30151132 -0.90453404 0.30151138
vn -7.1082695E-8 -0.8944272 -0.44721356
# 34 vertex normals

vt 0.5 0.375
vt 0.5 0.5
vt 0.375 0.5
vt 0.375 0.375
vt 0.625 0.375
vt 0.625 0.5
vt 0.5 0.625
vt 0.375 0.625
vt 0.5 0.75
vt 0.375 0.75
vt 0.75 0.375
vt 0.75 0.5
vt 1.0 0.375
vt 1.0 0.5
vt 0.875 0.5
vt 0.875 0.375
# 16 texture coords

g cep_scholar_brickpot2
usemtl cep_scholar_brickpot2

f 1/1/1 2/2/1 3/3/1 4/4/1
f 5/5/2 6/6/2 7/2/2 8/1/2
f 9/2/3 10/7/3 11/8/3 12/3/3
f 13/2/4 14/7/4 10/8/4 9/3/4
f 15/2/5 16/7/5 14/8/5 13/3/5
f 17/2/6 18/7/6 16/8/6 15/3/6
f 19/2/7 20/7/7 21/8/7 22/3/7
f 23/2/8 24/7/8 20/8/8 19/3/8
f 12/2/9 11/7/9 24/8/9 23/3/9
f 22/2/10 21/7/10 18/8/10 17/3/10
f 16/7/11 25/9/11 26/10/11 14/8/11
f 10/7/12 27/9/12 28/10/12 11/8/12
f 24/7/13 29/9/13 30/10/13 20/8/13
f 21/7/14 31/9/14 32/10/14 18/8/14
f 18/7/15 32/9/15 25/10/15 16/8/15
f 20/7/16 30/9/16 31/10/16 21/8/16
f 11/7/17 28/9/17 29/10/17 24/8/17
f 14/7/18 26/9/18 27/10/18 10/8/18
f 25/11/19 33/12/19 34/6/19 26/5/19
f 27/11/20 35/12/20 36/6/20 28/5/20
f 29/11/21 37/12/21 38/6/21 30/5/21
f 31/11/22 39/12/22 40/6/22 32/5/22
f 32/11/23 40/12/23 33/6/23 25/5/23
f 30/11/24 38/12/24 39/6/24 31/5/24
f 28/11/25 36/12/25 37/6/25 29/5/25
f 26/11/26 34/12/26 35/6/26 27/5/26
f 35/13/27 41/14/27 42/15/27 36/16/27
f 34/13/28 43/14/28 41/15/28 35/16/28
f 33/13/29 44/14/29 43/15/29 34/16/29
f 40/13/30 45/14/30 44/15/30 33/16/30
f 38/13/31 46/14/31 47/15/31 39/16/31
f 37/13/32 48/14/32 46/15/32 38/16/32
f 36/13/33 42/14/33 48/15/33 37/16/33
f 39/13/34 47/14/34 45/15/34 40/16/34
f 44/13/11 49/14/11 50/15/11 43/16/11
f 41/13/12 51/14/12 52/15/12 42/16/12
f 48/13/13 53/14/13 54/15/13 46/16/13
f 47/13/14 55/14/14 56/15/14 45/16/14
f 45/13/15 56/14/15 49/15/15 44/16/15
f 46/13/16 54/14/16 55/15/16 47/16/16
f 42/13/17 52/14/17 53/15/17 48/16/17
f 43/13/18 50/14/18 51/15/18 41/16/18
f 55/13/1 57/14/1 58/15/1 56/16/1
f 53/13/1 59/14/1 60/15/1 54/16/1
f 54/13/1 60/14/1 57/15/1 55/16/1
f 52/13/1 61/14/1 59/15/1 53/16/1
f 50/13/1 62/14/1 63/15/1 51/16/1
f 56/13/1 58/14/1 64/15/1 49/16/1
f 51/13/1 63/14/1 61/15/1 52/16/1
f 49/13/1 64/14/1 62/15/1 50/16/1
# 50 faces
