mtllib almura:cep_harbormaster_woodpole.mtl

v 0.62499994 1.0 0.37500006
v 0.37499994 1.0 0.37500006
v 0.37499994 1.0 0.62500006
v 0.625 1.0 0.625
v 0.37499994 0.0 0.37500006
v 0.62499994 0.0 0.37500006
v 0.625 0.0 0.625
v 0.37499994 0.0 0.62500006
# 8 vertices

vn 0.0 1.0 0.0
vn 0.0 -1.0 0.0
vn 1.0 0.0 -2.3841864E-7
vn 2.3841852E-7 0.0 1.0
vn -1.0 0.0 0.0
vn 0.0 0.0 -1.0
# 6 vertex normals

vt 0.1875 0.9375
vt 0.1875 0.96875
vt 0.15625 0.96875
vt 0.15625 0.9375
vt 0.125 0.96875
vt 0.125 0.9375
# 6 texture coords

g cep_harbormaster_woodpole
usemtl cep_harbormaster_woodpole

f 1/1/1 2/2/1 3/3/1 4/4/1
f 5/1/2 6/2/2 7/3/2 8/4/2
f 6/4/3 1/3/3 4/5/3 7/6/3
f 4/1/4 3/2/4 8/3/4 7/4/4
f 2/4/5 5/3/5 8/5/5 3/6/5
f 2/1/6 1/2/6 6/3/6 5/4/6
# 6 faces
