mtllib almura:cep_gladiator_wallring_chain.mtl

v -1.1920929E-7 0.0 0.20000005
v 0.0 1.0 0.9990001
v 1.0 1.0 0.999
v 0.99999994 0.0 0.19999999
v 0.0 0.0 0.5000001
v 0.0 1.0 0.5000001
v 0.99999994 1.0 0.5
v 0.99999994 0.0 0.5
v 0.49999994 0.0 5.9604645E-8
v 0.49999994 1.0 5.9604645E-8
v 0.5 1.0 1.0
v 0.5 0.0 1.0
v 1.0 0.0 0.9375
v 1.0 0.0625 0.9375
v 1.0 0.0625 1.0
v 1.0 0.0 1.0
v 0.0 0.0625 0.93750006
v 0.0 0.0625 1.0000001
v 0.0 0.0 0.93750006
v 0.0 0.0 1.0000001
# 20 vertices

vn -4.656611E-8 0.6242185 -0.7812497
vn -1.192093E-7 0.0 -1.0
vn 1.0 0.0 -5.960465E-8
vn 4.656611E-8 -0.6242185 0.7812497
vn 1.192093E-7 0.0 1.0
vn -1.0 0.0 5.960465E-8
vn 1.0 0.0 0.0
vn 0.0 1.0 0.0
vn 0.0 -1.0 0.0
# 9 vertex normals

vt 0.625 0.75
vt 0.625 0.875
vt 0.5 0.875
vt 0.5 0.75
vt 0.75 0.75
vt 0.75 0.875
vt 0.125 0.875
vt 0.125 1.0
vt 0.0 1.0
vt 0.0 0.875
# 10 texture coords

g cep_gladiator_wallring_chain
usemtl cep_gladiator_wallring_chain

f 1/1/1 2/2/1 3/3/1 4/4/1
f 5/5/2 6/6/2 7/2/2 8/1/2
f 9/5/3 10/6/3 11/2/3 12/1/3
f 4/1/4 3/2/4 2/3/4 1/4/4
f 8/5/5 7/6/5 6/2/5 5/1/5
f 12/5/6 11/6/6 10/2/6 9/1/6
f 13/7/7 14/8/7 15/9/7 16/10/7
f 14/7/8 17/8/8 18/9/8 15/10/8
f 19/7/9 13/8/9 16/9/9 20/10/9
# 9 faces
