mtllib almura:cep_mason_1_slope.mtl

v -1.1920929E-7 0.0 5.9604645E-8
v 0.0 1.0 1.0000001
v 1.0 1.0 1.0
v 0.99999994 0.0 0.0
v 1.0 0.0 1.0
v 0.0 0.0 1.0000001
# 6 vertices

vn -8.4293696E-8 0.70710677 -0.70710677
vn 1.1920929E-7 0.0 1.0
vn -1.0 0.0 1.1920929E-7
vn 1.0 0.0 -5.9604645E-8
vn 0.0 -1.0 0.0
# 5 vertex normals

vt 0.375 0.875
vt 0.375 1.0
vt 0.25 1.0
vt 0.25 0.875
# 4 texture coords

g cep_mason_1_slope
usemtl cep_mason_1_slope

f 1/1/1 2/2/1 3/3/1 4/4/1
f 5/1/2 3/2/2 2/3/2 6/4/2
f 6/1/3 2/2/3 2/3/3 1/4/3
f 4/1/4 3/2/4 3/3/4 5/4/4
f 4/1/5 5/2/5 6/3/5 1/4/5
# 5 faces
