mtllib almura:cokebottom.mtl

v 0.99999994 1.0 0.0
v -1.1920929E-7 1.0 5.9604645E-8
v 0.0 1.0 1.0000001
v 1.0 1.0 1.0
v 1.0 0.0 1.0
v 0.99999994 0.0 0.0
v -1.1920929E-7 0.0 5.9604645E-8
v 0.0 0.0 1.0000001
# 8 vertices

vn 0.0 1.0 0.0
vn 1.0 0.0 -5.9604645E-8
vn -5.9604645E-8 0.0 -1.0
vn -1.0 0.0 1.1920929E-7
vn 1.1920929E-7 0.0 1.0
vn 0.0 -1.0 0.0
# 6 vertex normals

vt 0.28 0.44
vt 0.28 0.48000002
vt 0.24 0.48000002
vt 0.24 0.44
vt 0.19999999 0.48000002
vt 0.19999999 0.44
vt 0.32 0.44
vt 0.32 0.48000002
# 8 texture coords

g cokebottom
usemtl cokebottom

f 1/1/1 2/2/1 3/3/1 4/4/1
f 4/4/2 5/3/2 6/5/2 1/6/2
f 1/7/3 6/8/3 7/2/3 2/1/3
f 2/4/4 7/3/4 8/5/4 3/6/4
f 3/4/5 8/3/5 5/5/5 4/6/5
f 7/1/6 6/2/6 5/3/6 8/4/6
# 6 faces
