mtllib almura:passportbox.mtl

v 0.99999994 1.0 0.0
v -1.1920929E-7 1.0 5.9604645E-8
v 0.0 1.0 1.0000001
v 1.0 1.0 1.0
v 1.0 0.0 1.0
v 0.99999994 0.0 0.0
v -1.1920929E-7 0.0 5.9604645E-8
v 0.0 0.0 1.0000001
# 8 vertices

vn 0.0 1.0 0.0
vn 1.0 0.0 -5.9604645E-8
vn -5.9604645E-8 0.0 -1.0
vn -1.0 0.0 1.1920929E-7
vn 1.1920929E-7 0.0 1.0
vn 0.0 -1.0 0.0
# 6 vertex normals

vt 0.5 0.375
vt 0.5 0.625
vt 0.25 0.625
vt 0.25 0.375
vt 0.0 0.625
vt 0.0 0.375
# 6 texture coords

g passportbox
usemtl passportbox

f 1/1/1 2/2/1 3/3/1 4/4/1
f 4/1/2 5/2/2 6/3/2 1/4/2
f 1/4/3 6/3/3 7/5/3 2/6/3
f 2/1/4 7/2/4 8/3/4 3/4/4
f 3/1/5 8/2/5 5/3/5 4/4/5
f 7/1/6 6/2/6 5/3/6 8/4/6
# 6 faces
