mtllib almura:corn_4.mtl

v  0.000000 0.000000 -0.000000
v  0.000000 3.000000 -0.000000
v  1.000000 3.000000 1.000000
v  1.000000 0.000000 1.000000
v  0.000000 0.000000 1.000000
v  0.000000 3.000000 1.000000
v  1.000000 3.000000 -0.000000
v  1.000000 0.000000 -0.000000
# 8 vertices

vn 0.707107 0.000000 -0.707107
vn -0.707107 0.000000 -0.707107
vn -0.707107 0.000000 0.707107
vn 0.707107 0.000000 0.707107
# 4 vertex normals

vt 0.503224 0.003523 0.000000
vt 0.503224 0.995361 0.000000
vt 1.006765 0.995361 0.000000
vt 1.006765 0.003523 0.000000
vt 0.495889 0.001569 0.000000
vt 0.495889 0.993050 0.000000
vt 0.008106 0.993050 0.000000
vt 0.008106 0.001569 0.000000
vt 0.996204 0.002521 0.000000
vt 0.996204 0.995280 0.000000
vt 0.509051 0.995281 0.000000
vt 0.509051 0.002521 0.000000
vt 0.004227 0.003498 0.000000
vt 0.004227 0.995372 0.000000
vt 0.508210 0.995372 0.000000
vt 0.508210 0.003498 0.000000
# 16 texture coords

o feild_corn
g feild_corn
usemtl corn_4
f 1/1/1 2/2/1 3/3/1 4/4/1 
f 5/5/2 6/6/2 7/7/2 8/8/2 
f 4/9/3 3/10/3 2/11/3 1/12/3 
f 8/13/4 7/14/4 6/15/4 5/16/4 
# 4 polygons

