mtllib almura:doku_log_saw.mtl

v 0.99999994 1.0 0.0
v 0.7999999 1.0 0.0
v 0.8 1.0 1.0
v 1.0 1.0 1.0
v 0.5 0.5 1.0
v 0.49999994 0.5 5.9604645E-8
v 0.0 0.5 1.0000001
v 0.0 1.0 1.0000001
v -1.1920929E-7 1.0 5.9604645E-8
v -1.1920929E-7 0.5 5.9604645E-8
v 0.19999999 1.0 1.0000001
v 0.19999993 1.0 5.9604645E-8
v 0.99999994 0.5 0.0
v 1.0 0.5 1.0
v 0.99999994 0.0 0.0
v 1.0 0.0 1.0
v 0.0 0.0 1.0000001
v -1.1920929E-7 0.0 5.9604645E-8
v 0.099999964 1.05 0.45000005
v 0.099999964 1.05 0.5500001
v 0.9 1.05 0.55
v 0.9 1.05 0.45
v 0.9 0.95 0.45
v 0.9 0.95 0.55
v 0.099999964 0.95 0.5500001
v 0.099999964 0.95 0.45000005
v 0.49 0.5 1.0
v 0.49 1.5 1.0
v 0.48999995 1.5 5.9604645E-8
v 0.48999995 0.5 5.9604645E-8
v 0.5099999 0.5 5.9604645E-8
v 0.5099999 1.5 5.9604645E-8
v 0.51 1.5 1.0
v 0.51 0.5 1.0
# 34 vertices

vn 0.0 1.0 0.0
vn -0.8574929 0.5144958 1.0222112E-7
vn -1.0 0.0 1.1920929E-7
vn 0.8574929 0.5144958 -5.111056E-8
vn 1.0 0.0 -5.9604645E-8
vn 0.0 -1.1920929E-7 -1.0
vn 0.0 0.0 -1.0
vn 0.0 0.0 1.0
vn 0.0 -2.3841858E-7 1.0
vn -5.9604645E-8 0.0 -1.0
vn 1.1920929E-7 0.0 1.0
vn 0.0 -1.0 0.0
vn 7.45058E-8 0.0 1.0
vn -7.45058E-8 0.0 -1.0
vn 1.0 0.0 0.0
vn -1.0 0.0 0.0
vn -1.0 0.0 5.960465E-8
vn 1.0 0.0 -1.192093E-7
# 18 vertex normals

vt 0.125 0.75
vt 0.125 0.875
vt 0.0 0.875
vt 0.0 0.75
vt 0.125 1.0
vt 0.0 1.0
vt 0.375 0.75
vt 0.375 0.875
vt 0.25 0.875
vt 0.25 0.75
# 10 texture coords

g doku_log_saw
usemtl doku_log_saw

f 1/1/1 2/2/1 3/3/1 4/4/1
f 5/1/2 3/2/2 2/3/2 6/4/2
f 7/2/3 8/5/3 9/6/3 10/3/3
f 8/1/1 11/2/1 12/3/1 9/4/1
f 6/1/4 12/2/4 11/3/4 5/4/4
f 13/2/5 1/5/5 4/6/5 14/3/5
f 6/2/6 2/5/6 1/6/6 13/3/6
f 10/2/7 9/5/7 12/6/7 6/3/7
f 14/2/8 4/5/8 3/6/8 5/3/8
f 5/2/9 11/5/9 8/6/9 7/3/9
f 15/2/5 13/5/5 14/6/5 16/3/5
f 17/2/3 7/5/3 10/6/3 18/3/3
f 18/2/10 10/5/10 13/6/10 15/3/10
f 16/2/11 14/5/11 7/6/11 17/3/11
f 15/2/12 16/5/12 17/6/12 18/3/12
f 19/7/1 20/8/1 21/9/1 22/10/1
f 23/7/12 24/8/12 25/9/12 26/10/12
f 24/7/13 21/8/13 20/9/13 25/10/13
f 26/7/14 19/8/14 22/9/14 23/10/14
f 23/7/15 22/8/15 21/9/15 24/10/15
f 25/7/16 20/8/16 19/9/16 26/10/16
f 27/10/17 28/9/17 29/2/17 30/1/17
f 31/10/18 32/9/18 33/2/18 34/1/18
# 23 faces
