mtllib almura:mint_1.mtl

v 0.43749994 0.125 0.43750006
v 0.56249994 0.125 0.43750006
v 0.62499994 0.0 0.25000006
v 0.37499994 0.0 0.25000006
v 0.49999994 0.125 0.43750006
v 0.24999994 0.0 0.37500006
v 0.43749994 0.125 0.56250006
v 0.24999994 0.0 0.62500006
v 0.375 0.0 0.75000006
v 0.5625 0.125 0.5625
v 0.625 0.0 0.75
v 0.49999994 0.125 0.5625
v 0.75 0.0 0.625
v 0.74999994 0.0 0.375
v 0.49999994 0.15 0.5625
v 0.5625 0.0 0.5625
v 0.56249994 0.0 0.43750006
v 0.49999994 0.15 0.43750006
v 0.43749994 0.15 0.50000006
v 0.5625 0.15 0.5
v 0.43749994 0.0 0.43750006
v 0.43749994 0.0 0.56250006
# 22 vertices

vn 0.0 0.8320503 -0.5547002
vn -0.40824825 0.81649655 0.40824842
vn 2.6450155E-7 0.83205026 0.55470026
vn 0.0 0.83205026 0.5547002
vn 0.5547002 0.83205026 -1.3225083E-7
vn 0.40824816 0.8164966 -0.40824836
vn -0.5547002 0.8320503 0.0
vn 0.0 -1.0 0.0
vn 0.0 1.0 0.0
vn 0.9230768 0.3846157 -4.4015752E-7
vn -4.4015724E-7 0.38461506 -0.9230771
vn -0.9230769 0.38461536 0.0
vn 4.4015718E-7 0.38461536 0.9230769
# 13 vertex normals

vt 0.02 0.42000002
vt 0.02 0.44
vt 0.0 0.44
vt 0.0 0.42000002
vt 0.04 0.42000002
vt 0.04 0.44
vt 0.06 0.42000002
vt 0.06 0.44
# 8 texture coords

g mint_1
usemtl mint_1

f 1/1/1 2/2/1 3/3/1 4/4/1
f 1/1/1 5/2/1 4/3/1 6/4/1
f 7/1/2 8/2/2 9/3/2 7/4/2
f 10/1/3 7/2/3 9/3/3 11/4/3
f 10/1/4 12/2/4 11/3/4 13/4/4
f 10/1/5 13/2/5 14/3/5 2/4/5
f 2/1/6 14/2/6 3/3/6 5/4/6
f 1/1/7 6/2/7 8/3/7 7/4/7
f 6/1/8 4/2/8 9/3/8 8/4/8
f 3/1/8 14/2/8 13/3/8 11/4/8
f 4/1/8 3/2/8 11/3/8 9/4/8
f 2/1/9 1/2/9 7/3/9 10/4/9
f 15/5/10 16/6/10 17/2/10 18/1/10
f 19/7/11 20/8/11 17/6/11 21/5/11
f 18/5/12 21/6/12 22/2/12 15/1/12
f 20/7/13 19/8/13 22/6/13 16/5/13
# 16 faces
