mtllib almura:hop_4.mtl

v -1.1920929E-7 0.0 5.9604645E-8
v -1.1920929E-7 3.0 5.9604645E-8
v 1.0 3.0 1.0
v 1.0 0.0 1.0
v 0.0 0.0 1.0000001
v 0.0 3.0 1.0000001
v 0.99999994 3.0 0.0
v 0.99999994 0.0 0.0
# 8 vertices

vn 0.70710665 0.0 -0.7071068
vn -0.7071068 0.0 -0.70710665
vn -0.70710665 0.0 0.7071068
vn 0.7071068 0.0 0.70710665
# 4 vertex normals

vt 0.45999998 0.52
vt 0.45999998 0.64
vt 0.42 0.64
vt 0.42 0.52
# 4 texture coords

g hop_4
usemtl hop_4

f 1/1/1 2/2/1 3/3/1 4/4/1
f 5/1/2 6/2/2 7/3/2 8/4/2
f 4/1/3 3/2/3 2/3/3 1/4/3
f 8/1/4 7/2/4 6/3/4 5/4/4
# 4 faces
