mtllib almura:hop_3.mtl

v -0.000000 3.000000 0.000000
v 1.000000 3.000000 1.000000
v 1.000000 0.000000 1.000000
v -0.000000 0.000000 0.000000
v 0.000000 3.000000 1.000000
v 1.000000 3.000000 -0.000000
v 1.000000 0.000000 -0.000000
v 0.000000 0.000000 1.000000
# 8 vertices

vn 0.707107 0.000000 -0.707107
vn -0.707107 0.000000 -0.707107
vn -0.707107 0.000000 0.707107
vn 0.707107 0.000000 0.707107
# 4 vertex normals

vt 0.004512 0.995361 0.000000
vt 0.996461 0.995361 0.000000
vt 0.996461 0.003523 0.000000
vt 0.004512 0.003523 0.000000
vt 0.996662 0.995111 0.000000
vt 0.003984 0.995111 0.000000
vt 0.003984 0.003630 0.000000
vt 0.996662 0.003630 0.000000
vt 0.996204 0.995280 0.000000
vt 0.004157 0.995281 0.000000
vt 0.004157 0.002521 0.000000
vt 0.996204 0.002521 0.000000
vt 0.004227 0.995372 0.000000
vt 0.996618 0.995372 0.000000
vt 0.996618 0.003498 0.000000
vt 0.004227 0.003498 0.000000
# 16 texture coords

o hop_3
g hop_3
usemtl hop_3

f 1/1/1 2/2/1 3/3/1 4/4/1 
f 5/5/2 6/6/2 7/7/2 8/8/2 
f 2/9/3 1/10/3 4/11/3 3/12/3 
f 6/13/4 5/14/4 8/15/4 7/16/4 
# 4 polygons

