mtllib almura:almuraroofing_brscornershingles.mtl

v -1.1920929E-7 0.0 5.9604645E-8
v 0.99999994 0.0 0.0
v 1.0 0.0 1.0
v 0.0 0.0 1.0000001
v 1.0 1.0 1.0
v 0.99999994 1.0 0.0
v 0.0 1.0 1.0000001
# 7 vertices

vn 0.0 -1.0 0.0
vn -0.70710677 0.70710677 4.2146848E-8
vn -8.4293696E-8 0.70710677 -0.70710677
vn 1.1920929E-7 0.0 1.0
vn 1.0 0.0 -5.9604645E-8
# 5 vertex normals

vt 0.0625 0.625
vt 0.0625 0.6875
vt 0.0 0.6875
vt 0.0 0.625
vt 0.375 0.6875
vt 0.375 0.75
vt 0.3125 0.75
vt 0.3125 0.6875
vt 0.4375 0.6875
vt 0.4375 0.75
# 10 texture coords

g almuraroofing_brscornershingles
usemtl almuraroofing_brscornershingles

f 1/1/1 2/2/1 3/3/1 4/4/1
f 4/5/2 5/6/2 6/7/2 1/8/2
f 1/9/3 7/10/3 5/6/3 2/5/3
f 3/5/4 5/6/4 7/7/4 4/8/4
f 2/9/5 6/10/5 5/6/5 3/5/5
# 5 faces
