mtllib almura:almuracustom1_walllight.mtl

v 0.75 0.2 1.0
v 0.65 0.2 0.875
v 0.65 0.8 0.875
v 0.75 0.8 1.0
v 0.35000002 0.2 0.87500006
v 0.25 0.2 1.0000001
v 0.25 0.8 1.0000001
v 0.35000002 0.8 0.87500006
v 0.5749999 0.2 0.8125
v 0.5749999 0.8 0.8125
v 0.425 0.2 0.81250006
v 0.425 0.8 0.81250006
v 0.75 0.79 0.8125
v 0.25 0.79 0.81250006
v 0.25 0.79 1.0000001
v 0.75 0.79 1.0
v 0.25 0.21 0.81250006
v 0.75 0.21 0.8125
v 0.75 0.21 1.0
v 0.25 0.21 1.0000001
# 20 vertices

vn 0.7808687 0.0 -0.6246951
vn -0.7808689 0.0 -0.624695
vn 0.64018416 0.0 -0.7682215
vn -0.64018446 0.0 -0.7682212
vn -3.9736452E-7 0.0 -1.0
vn 0.0 1.0 0.0
vn 2.3841858E-7 0.0 1.0
vn 0.0 -1.0 0.0
# 8 vertex normals

vt 0.25 0.75
vt 0.25 0.875
vt 0.125 0.875
vt 0.125 0.75
vt 0.5 0.75
vt 0.5 0.875
vt 0.375 0.875
vt 0.375 0.75
vt 0.0 0.875
vt 0.0 0.75
# 10 texture coords

g almuracustom1_walllight
usemtl almuracustom1_walllight

f 1/1/1 2/2/1 3/3/1 4/4/1
f 5/1/2 6/2/2 7/3/2 8/4/2
f 2/5/3 9/6/3 10/7/3 3/8/3
f 11/5/4 5/6/4 8/7/4 12/8/4
f 9/1/5 11/2/5 12/3/5 10/4/5
f 13/4/6 14/3/6 15/9/6 16/10/6
f 4/8/7 7/7/7 6/2/7 1/1/7
f 17/4/8 18/3/8 19/9/8 20/10/8
# 8 faces
