mtllib almura:cep_shaman_runestone_dark.mtl

v 0.18749994 0.2 0.24900007
v 0.18749994 0.825 0.24900007
v 0.81249994 0.825 0.24900001
v 0.81249994 0.2 0.24900001
v 0.18749994 0.0 0.25000006
v 0.18749994 0.625 0.25000006
v 0.81249994 0.625 0.25
v 0.81249994 0.0 0.25
v 0.49999994 0.625 0.25000006
v 0.49999994 1.4375 0.35000008
v 0.74999994 0.975 0.45
v 0.24999994 1.375 0.45000005
v 0.93749994 0.625 0.5
v 0.93749994 0.0 0.5
v 0.8125 0.625 0.75
v 0.8125 0.0 0.75
v 0.79999995 1.2375 0.5
v 0.75 0.975 0.75
v 0.06249994 0.0 0.5000001
v 0.06249994 0.625 0.5000001
v 0.1875 0.0 0.75000006
v 0.1875 0.625 0.75000006
v 0.12499994 1.0375 0.5000001
v 0.25 0.875 0.75000006
v 0.5 1.0375 0.75000006
v 0.5 0.625 0.75000006
v 0.49999994 1.3625 0.5
# 27 vertices

vn -9.536743E-8 0.0 -1.0
vn 0.52877235 0.10368092 -0.8424073
vn -0.41466403 0.26656976 -0.8700542
vn 0.8944272 0.0 -0.4472136
vn 0.8944273 0.0 0.4472134
vn -0.6935248 0.260072 -0.6718526
vn 0.8979388 0.2015781 0.39124453
vn -0.89442724 0.0 -0.44721353
vn -0.8944271 0.0 0.44721386
vn -0.55855584 0.08462967 -0.8251382
vn -0.81611395 0.20402849 0.5406758
vn 9.536743E-8 0.0 1.0
vn 2.4955963E-7 4.4564217E-8 1.0
vn 0.0 0.0 1.0
vn 0.8278505 0.50172764 0.25086412
vn 0.24622485 0.59093964 0.76822114
vn 0.37139052 2.7106057E-7 0.9284768
vn -0.5067684 0.5847332 0.6334611
vn 0.0 -1.0 0.0
# 19 vertex normals

vt 0.28125 0.9375
vt 0.28125 0.96875
vt 0.25 0.96875
vt 0.25 0.9375
vt 0.0625 0.96875
vt 0.0625 1.0
vt 0.03125 1.0
vt 0.03125 0.96875
vt 0.046875 0.96875
vt 0.046875 1.0
# 10 texture coords

g cep_shaman_runestone_dark
usemtl cep_shaman_runestone_dark

f 1/1/1 2/2/1 3/3/1 4/4/1
f 5/5/1 6/6/1 7/7/1 8/8/1
f 9/9/2 10/10/2 11/7/2 7/8/2
f 6/5/3 12/6/3 10/10/3 9/9/3
f 8/5/4 7/6/4 13/10/4 14/9/4
f 14/9/5 13/10/5 15/7/5 16/8/5
f 7/5/6 11/6/6 17/10/6 13/9/6
f 13/9/7 17/10/7 18/7/7 15/8/7
f 19/9/8 20/10/8 6/7/8 5/8/8
f 21/5/9 22/6/9 20/10/9 19/9/9
f 20/9/10 23/10/10 12/7/10 6/8/10
f 22/5/11 24/6/11 23/10/11 20/9/11
f 16/5/12 15/6/12 22/7/12 21/8/12
f 15/5/13 18/6/13 25/10/13 26/9/13
f 26/9/14 25/10/14 24/7/14 22/8/14
f 11/9/15 10/10/15 27/7/15 17/8/15
f 17/9/16 27/10/16 25/7/16 18/8/16
f 10/5/17 12/6/17 23/10/17 27/9/17
f 27/5/18 23/6/18 24/10/18 25/9/18
f 14/9/19 16/10/19 21/7/19 19/8/19
f 8/5/19 14/6/19 19/10/19 5/9/19
# 21 faces
