mtllib almura:cep_forester_wood25_slab.mtl

v -1.1920929E-7 0.0 5.9604645E-8
v -1.1920929E-7 0.5 5.9604645E-8
v 0.99999994 0.5 0.0
v 0.99999994 0.0 0.0
v 1.0 0.5 1.0
v 1.0 0.0 1.0
v 0.0 0.0 1.0000001
v 0.0 0.5 1.0000001
# 8 vertices

vn -5.9604645E-8 0.0 -1.0
vn 1.0 0.0 -5.9604645E-8
vn -1.0 0.0 1.1920929E-7
vn 0.0 -1.0 0.0
vn 0.0 1.0 0.0
vn 1.1920929E-7 0.0 1.0
# 6 vertex normals

vt 0.1875 0.8125
vt 0.1875 0.828125
vt 0.15625 0.828125
vt 0.15625 0.8125
vt 0.1875 0.84375
vt 0.15625 0.84375
# 6 texture coords

g cep_forester_wood25_slab
usemtl cep_forester_wood25_slab

f 1/1/1 2/2/1 3/3/1 4/4/1
f 4/1/2 3/2/2 5/3/2 6/4/2
f 7/1/3 8/2/3 2/3/3 1/4/3
f 7/1/4 1/5/4 4/6/4 6/4/4
f 2/1/5 8/5/5 5/6/5 3/4/5
f 6/1/6 5/2/6 8/3/6 7/4/6
# 6 faces
