mtllib almura:cep_priest_sarcophagus_top.mtl

v -1.1920929E-7 0.5 5.9604645E-8
v 0.0 0.5 1.0000001
v 1.0 0.5 1.0
v 0.99999994 0.5 0.0
v -1.1920929E-7 0.0 5.9604645E-8
v 0.99999994 0.0 0.0
v 1.0 0.0 1.0
v 0.0 0.0 1.0000001
# 8 vertices

vn 0.0 1.0 0.0
vn -5.9604645E-8 0.0 -1.0
vn 1.1920929E-7 0.0 1.0
vn -1.0 0.0 1.1920929E-7
vn 1.0 0.0 -5.9604645E-8
vn 0.0 -1.0 0.0
# 6 vertex normals

vt 0.375 0.75
vt 0.375 0.875
vt 0.25 0.875
vt 0.25 0.75
vt 0.75 0.75
vt 0.75 0.875
vt 0.625 0.875
vt 0.625 0.75
# 8 texture coords

g cep_priest_sarcophagus_top
usemtl cep_priest_sarcophagus_top

f 1/1/1 2/2/1 3/3/1 4/4/1
f 5/5/2 1/6/2 4/7/2 6/8/2
f 7/5/3 3/6/3 2/7/3 8/8/3
f 8/5/4 2/6/4 1/7/4 5/8/4
f 6/5/5 4/6/5 3/7/5 7/8/5
f 8/1/6 5/2/6 6/3/6 7/4/6
# 6 faces
