mtllib almura:cep_priest_sarcophagus.mtl

v 0.875 1.0 0.875
v 0.125 1.0 0.87500006
v 0.0 1.0 1.0000001
v 1.0 1.0 1.0
v 0.99999994 1.0 0.0
v 0.8749999 1.0 0.0
v 0.12499994 1.0 5.9604645E-8
v -1.1920929E-7 1.0 5.9604645E-8
v -1.1920929E-7 0.0 5.9604645E-8
v 0.12499994 0.0 0.0010000467
v 0.8749999 0.0 9.999871E-4
v 0.99999994 0.0 0.0
v 0.12499994 0.125 5.9604645E-8
v 0.8749999 0.125 0.0
v 1.0 0.0 1.0
v 0.0 0.0 1.0000001
v 0.12499994 0.0 5.9604645E-8
v 0.125 0.0 0.87500006
v 0.125 0.125 0.87500006
v 0.875 0.125 0.875
v 0.875 0.0 0.875
v 0.125 0.0 0.8740001
v 0.125 1.0 0.8740001
v 0.875 1.0 0.874
v 0.875 0.0 0.874
v 0.8749999 0.0 0.0
# 26 vertices

vn 0.0 1.0 0.0
vn 0.0 0.0 -1.0
vn 0.0 -9.999867E-4 -0.9999995
vn -7.947287E-8 7.9472905E-8 -1.0
vn 0.0 -1.0 0.0
vn 1.1920929E-7 0.0 1.0
vn -1.0 0.0 1.1920929E-7
vn 1.0 0.0 -5.9604645E-8
vn 1.0 0.0 -6.81196E-8
vn -7.947286E-8 0.0 -1.0
vn -1.0 0.0 1.362392E-7
# 11 vertex normals

vt 0.375 0.75
vt 0.375 0.875
vt 0.25 0.875
vt 0.25 0.75
vt 0.125 0.75
vt 0.125 0.875
vt 0.0 0.875
vt 0.0 0.75
vt 0.75 0.75
vt 0.75 0.875
vt 0.625 0.875
vt 0.625 0.75
vt 0.5 0.875
vt 0.5 0.75
# 14 texture coords

g cep_priest_sarcophagus
usemtl cep_priest_sarcophagus

f 1/1/1 2/2/1 3/3/1 4/4/1
f 5/1/1 6/2/1 1/3/1 4/4/1
f 7/1/1 8/2/1 3/3/1 2/4/1
f 9/5/2 8/6/2 7/7/2 10/8/2
f 11/5/3 6/6/3 5/7/3 12/8/3
f 9/1/4 13/2/4 14/3/4 12/4/4
f 9/1/5 12/2/5 15/3/5 16/4/5
f 15/9/6 4/10/6 3/11/6 16/12/6
f 16/5/7 3/6/7 8/7/7 9/8/7
f 12/5/8 5/6/8 4/7/8 15/8/8
f 17/5/9 7/6/9 2/7/9 18/8/9
f 14/1/1 13/2/1 19/3/1 20/4/1
f 18/5/10 2/6/10 1/7/10 21/8/10
f 22/12/10 23/11/10 24/13/10 25/14/10
f 21/5/11 1/6/11 6/7/11 26/8/11
# 15 faces
