mtllib almura:cep_shaman_floor_magiccircle_4.mtl

v -1.1920929E-7 0.001 5.9604645E-8
v 0.0 0.001 1.0000001
v 1.0 0.001 1.0
v 0.99999994 0.001 0.0
v 1.0 0.0 0.999
v 1.0 1.0 0.999
v 0.0 1.0 0.9990001
v 0.0 0.0 0.9990001
v 1.0 0.0 0.9375
v 1.0 0.0625 0.9375
v 1.0 0.0625 1.0
v 1.0 0.0 1.0
v 0.0 0.0625 0.93750006
v 0.0 0.0625 1.0000001
v 0.0 0.0 0.93750006
v 0.0 0.0 1.0000001
# 16 vertices

vn 0.0 1.0 0.0
vn 5.9604645E-8 0.0 1.0
vn 1.0 0.0 0.0
vn 0.0 -1.0 0.0
# 4 vertex normals

vt 0.4375 0.84375
vt 0.4375 0.90625
vt 0.375 0.90625
vt 0.375 0.84375
vt 0.03125 0.96875
vt 0.03125 1.0
vt 0.0 1.0
vt 0.0 0.96875
# 8 texture coords

g cep_shaman_floor_magiccircle_4
usemtl cep_shaman_floor_magiccircle_4

f 1/1/1 2/2/1 3/3/1 4/4/1
f 5/5/2 6/6/2 7/7/2 8/8/2
f 9/5/3 10/6/3 11/7/3 12/8/3
f 10/5/1 13/6/1 14/7/1 11/8/1
f 15/5/4 9/6/4 12/7/4 16/8/4
# 5 faces
