mtllib almura:cep_gladiator_punchingbag.mtl

v 0.0 0.0 0.7187501
v -1.1920929E-7 0.0 0.28125006
v 0.49999994 0.0 0.5
v 0.28125 0.0 1.0000001
v 0.71875 0.0 1.0
v 0.99999994 0.0 0.28125
v 1.0 0.0 0.71875
v 0.28124994 0.0 5.9604645E-8
v 0.7187499 0.0 0.0
v 0.7187499 1.5 0.0
v 0.28124994 1.5 5.9604645E-8
v 0.49999994 1.5 0.5
v -1.1920929E-7 1.5 0.28125006
v 0.0 1.5 0.7187501
v 0.28125 1.5 1.0000001
v 0.71875 1.5 1.0
v 1.0 1.5 0.71875
v 0.99999994 1.5 0.28125
v 0.37499994 1.5 0.37500006
v 0.37499994 1.75 0.37500006
v 0.62499994 1.75 0.37500006
v 0.62499994 1.5 0.37500006
v 0.625 1.5 0.625
v 0.625 1.75 0.625
v 0.37499994 1.75 0.62500006
v 0.37499994 1.5 0.62500006
v 0.5 1.0 1.0
v 0.5 2.0 1.0
v 0.49999994 2.0 5.9604645E-8
v 0.49999994 1.0 5.9604645E-8
v 0.0 1.0 0.5000001
v 0.0 2.0 0.5000001
v 0.99999994 2.0 0.5
v 0.99999994 1.0 0.5
# 34 vertices

vn 0.0 -1.0 0.0
vn 0.0 1.0 0.0
vn -0.7071067 0.0 -0.7071069
vn 2.724784E-7 0.0 1.0
vn -1.0 0.0 2.7247833E-7
vn 1.0 0.0 -1.362392E-7
vn -1.3623921E-7 0.0 -1.0
vn 0.7071067 0.0 -0.7071069
vn 0.70710677 0.0 0.70710677
vn -0.70710677 0.0 0.70710677
vn 0.0 0.0 -1.0
vn 2.3841852E-7 0.0 1.0
vn -1.0 0.0 0.0
vn 1.0 0.0 -2.3841864E-7
vn -1.0 0.0 5.960465E-8
vn -1.192093E-7 0.0 -1.0
# 16 vertex normals

vt 0.375 0.625
vt 0.375 0.75
vt 0.25 0.75
vt 0.25 0.625
vt 0.125 0.75
vt 0.125 0.625
vt 0.5 0.5
vt 0.5 0.625
vt 0.375 0.5
vt 0.625 0.625
vt 0.625 0.75
vt 0.5 0.75
# 12 texture coords

g cep_gladiator_punchingbag
usemtl cep_gladiator_punchingbag

f 1/1/1 2/2/1 3/3/1 3/4/1
f 4/1/1 1/2/1 3/3/1 3/4/1
f 5/1/1 4/2/1 3/3/1 3/4/1
f 6/1/1 7/2/1 3/3/1 3/4/1
f 7/1/1 5/2/1 3/3/1 3/4/1
f 2/1/1 8/2/1 3/3/1 3/4/1
f 8/1/1 9/2/1 3/3/1 3/4/1
f 9/1/1 6/2/1 3/3/1 3/4/1
f 10/1/2 11/2/2 12/3/2 12/4/2
f 11/1/2 13/2/2 12/3/2 12/4/2
f 13/1/2 14/2/2 12/3/2 12/4/2
f 14/1/2 15/2/2 12/3/2 12/4/2
f 15/1/2 16/2/2 12/3/2 12/4/2
f 17/1/2 18/2/2 12/3/2 12/4/2
f 16/1/2 17/2/2 12/3/2 12/4/2
f 18/1/2 10/2/2 12/3/2 12/4/2
f 8/4/3 2/3/3 13/5/3 11/6/3
f 4/4/4 5/3/4 16/5/4 15/6/4
f 2/4/5 1/3/5 14/5/5 13/6/5
f 7/4/6 6/3/6 18/5/6 17/6/6
f 9/4/7 8/3/7 11/5/7 10/6/7
f 6/4/8 9/3/8 10/5/8 18/6/8
f 5/4/9 7/3/9 17/5/9 16/6/9
f 1/4/10 4/3/10 15/5/10 14/6/10
f 19/7/11 20/8/11 21/1/11 22/9/11
f 23/7/12 24/8/12 25/1/12 26/9/12
f 20/7/2 25/8/2 24/1/2 21/9/2
f 26/7/13 25/8/13 20/1/13 19/9/13
f 22/7/14 21/8/14 24/1/14 23/9/14
f 27/10/15 28/11/15 29/12/15 30/8/15
f 31/10/16 32/11/16 33/12/16 34/8/16
# 31 faces
