mtllib almura:cep_scholar_largeshelf5.mtl

v 0.99999994 1.0 0.0
v -1.1920929E-7 1.0 5.9604645E-8
v 0.0 1.0 1.0000001
v 1.0 1.0 1.0
v -1.1920929E-7 0.0 5.9604645E-8
v 0.99999994 0.0 0.0
v 1.0 0.0 1.0
v 0.0 0.0 1.0000001
v 1.0 0.90625 1.0
v 0.0 0.90625 1.0000001
v -1.1920929E-7 0.90625 5.9604645E-8
v 0.99999994 0.90625 0.0
v 0.99999994 0.1875 0.0
v -1.1920929E-7 0.1875 5.9604645E-8
v 0.0 0.1875 1.0000001
v 1.0 0.1875 1.0
v -1.1920929E-7 0.0 0.12500006
v -1.1920929E-7 1.0 0.12500006
v 0.99999994 1.0 0.125
v 0.99999994 0.0 0.125
v 0.99999994 0.0 0.0625
v 0.99999994 1.0 0.0625
v -1.1920929E-7 1.0 0.06250006
v -1.1920929E-7 0.0 0.06250006
v 0.0 0.0 0.93750006
v 0.0 1.0 0.93750006
v 1.0 1.0 0.9375
v 1.0 0.0 0.9375
v 0.9375 0.0 1.0
v 0.9375 1.0 1.0
v 0.9374999 1.0 0.0
v 0.9374999 0.0 0.0
v 0.06249994 0.0 5.9604645E-8
v 0.06249994 1.0 5.9604645E-8
v 0.0625 1.0 1.0000001
v 0.0625 0.0 1.0000001
# 36 vertices

vn 0.0 1.0 0.0
vn 0.0 -1.0 0.0
vn -5.9604645E-8 0.0 -1.0
vn 5.9604645E-8 0.0 1.0
vn 1.1920929E-7 0.0 1.0
vn -1.0 0.0 1.1920929E-7
vn 1.0 0.0 -5.9604645E-8
# 7 vertex normals

vt 0.0625 0.9375
vt 0.0625 1.0
vt 0.0 1.0
vt 0.0 0.9375
vt 0.125 0.9375
vt 0.125 1.0
vt 0.1875 0.9375
vt 0.1875 1.0
vt 0.5 0.9375
vt 0.5 1.0
vt 0.4375 1.0
vt 0.4375 0.9375
# 12 texture coords

g cep_scholar_largeshelf5
usemtl cep_scholar_largeshelf5

f 1/1/1 2/2/1 3/3/1 4/4/1
f 5/1/2 6/2/2 7/3/2 8/4/2
f 9/1/2 10/2/2 11/3/2 12/4/2
f 13/5/1 14/6/1 15/2/1 16/1/1
f 5/7/3 2/8/3 1/6/3 6/5/3
f 17/9/3 18/10/3 19/11/3 20/12/3
f 21/7/4 22/8/4 23/6/4 24/5/4
f 25/7/3 26/8/3 27/6/3 28/5/3
f 7/1/5 4/2/5 3/3/5 8/4/5
f 8/1/6 3/2/6 2/3/6 5/4/6
f 6/1/7 1/2/7 4/3/7 7/4/7
f 29/1/6 30/2/6 31/3/6 32/4/6
f 33/1/7 34/2/7 35/3/7 36/4/7
# 13 faces
