mtllib almura:cep_rpg_blacksmith_smith_trainingdummy.mtl

v 0.6875 1.0 0.6875
v 0.68749994 1.0 0.3125
v 0.31249994 1.0 0.31250006
v 0.3125 1.0 0.68750006
v 0.3125 0.625 0.68750006
v 0.6875 0.625 0.6875
v 0.68749994 0.625 0.3125
v 0.31249994 0.625 0.31250006
v 0.75 0.625 0.625
v 0.74999994 0.625 0.375
v 0.24999994 0.625 0.37500006
v 0.24999994 0.625 0.62500006
v 0.24999994 0.0 0.62500006
v 0.75 0.0 0.625
v 0.74999994 0.0 0.375
v 0.24999994 0.0 0.37500006
v 0.06249994 0.625 0.5937501
v 0.06249994 0.625 0.40625006
v 0.24999994 0.625 0.40625006
v 0.24999994 0.625 0.59375006
v 0.0 0.3125 0.5937501
v 0.18749994 0.3125 0.59375006
v 0.18749994 0.3125 0.40625006
v 0.0 0.3125 0.40625006
v 0.93749994 0.625 0.40625
v 0.93749994 0.625 0.59375
v 0.75 0.625 0.59375
v 0.74999994 0.625 0.40625
v 0.8125 0.3125 0.59375
v 0.99999994 0.3125 0.59375
v 0.99999994 0.3125 0.40625
v 0.81249994 0.3125 0.40625
# 32 vertices

vn 0.0 1.0 0.0
vn -1.5894572E-7 0.0 -1.0
vn 1.5894572E-7 0.0 1.0
vn -1.0 0.0 1.5894572E-7
vn 1.0 0.0 -1.5894572E-7
vn -1.19209275E-7 0.0 -1.0
vn 1.1920929E-7 0.0 1.0
vn -1.0 0.0 2.3841858E-7
vn 1.0 0.0 0.0
vn 0.0 -1.0 0.0
vn -3.1789145E-7 6.357823E-8 -1.0
vn 0.0 0.0 1.0
vn -0.9805807 0.19611613 0.0
vn 0.9805807 -0.19611596 0.0
vn 0.0 0.0 -1.0
vn 0.9805807 0.19611613 -3.1171822E-7
vn -0.9805807 -0.19611613 0.0
# 17 vertex normals

vt 0.25 0.5
vt 0.25 0.625
vt 0.125 0.625
vt 0.125 0.5
vt 0.0 0.625
vt 0.0 0.5
vt 0.5 0.5
vt 0.5 0.625
vt 0.375 0.625
vt 0.375 0.5
# 10 texture coords

g cep_rpg_blacksmith_smith_trainingdummy
usemtl cep_rpg_blacksmith_smith_trainingdummy

f 1/1/1 2/2/1 3/3/1 4/4/1
f 5/1/2 4/2/2 1/3/2 6/4/2
f 7/4/3 2/3/3 3/5/3 8/6/3
f 6/1/4 1/2/4 2/3/4 7/4/4
f 8/1/5 3/2/5 4/3/5 5/4/5
f 6/1/1 7/2/1 8/3/1 5/4/1
f 9/7/1 10/8/1 11/9/1 12/10/1
f 13/7/6 12/8/6 9/9/6 14/10/6
f 15/10/7 10/9/7 11/2/7 16/1/7
f 14/7/8 9/8/8 10/9/8 15/10/8
f 16/7/9 11/8/9 12/9/9 13/10/9
f 14/7/1 15/8/1 16/9/1 13/10/1
f 17/7/10 18/8/10 19/9/10 20/10/10
f 21/7/11 17/8/11 20/9/11 22/10/11
f 23/7/12 19/8/12 18/9/12 24/10/12
f 22/7/13 20/8/13 19/9/13 23/10/13
f 24/7/14 18/8/14 17/9/14 21/10/14
f 22/7/1 23/8/1 24/9/1 21/10/1
f 25/7/10 26/8/10 27/9/10 28/10/10
f 29/7/15 27/8/15 26/9/15 30/10/15
f 31/7/12 25/8/12 28/9/12 32/10/12
f 32/7/16 28/8/16 27/9/16 29/10/16
f 30/7/17 26/8/17 25/9/17 31/10/17
f 30/7/1 31/8/1 32/9/1 29/10/1
# 24 faces
