mtllib almura:cep_priest_stainedglass_center.mtl

v -1.1920929E-7 0.0 5.9604645E-8
v -1.1920929E-7 1.0 5.9604645E-8
v 0.99999994 1.0 0.0
v 0.99999994 0.0 0.0
v 1.0 0.0 1.0
v 1.0 1.0 1.0
v 0.0 1.0 1.0000001
v 0.0 0.0 1.0000001
v 0.12499994 0.0 5.9604645E-8
v 0.12499994 1.0 5.9604645E-8
v 0.125 1.0 1.0000001
v 0.125 0.0 1.0000001
v 0.875 0.0 1.0
v 0.875 1.0 1.0
v 0.8749999 1.0 0.0
v 0.8749999 0.0 0.0
v 0.0 0.0 0.5000001
v 0.0 1.0 0.5000001
v 0.99999994 1.0 0.5
v 0.99999994 0.0 0.5
# 20 vertices

vn -5.9604645E-8 0.0 -1.0
vn 1.1920929E-7 0.0 1.0
vn -1.0 0.0 1.1920929E-7
vn 1.0 0.0 -5.9604645E-8
vn -1.192093E-7 0.0 -1.0
vn 1.192093E-7 0.0 1.0
# 6 vertex normals

vt 0.875 0.375
vt 0.875 0.5
vt 0.75 0.5
vt 0.75 0.375
vt 1.0 0.625
vt 1.0 0.75
vt 0.875 0.75
vt 0.875 0.625
vt 1.0 0.375
vt 1.0 0.5
# 10 texture coords

g cep_priest_stainedglass_center
usemtl cep_priest_stainedglass_center

f 1/1/1 2/2/1 3/3/1 4/4/1
f 5/1/2 6/2/2 7/3/2 8/4/2
f 8/5/3 7/6/3 2/7/3 1/8/3
f 4/5/4 3/6/4 6/7/4 5/8/4
f 9/5/4 10/6/4 11/7/4 12/8/4
f 13/5/3 14/6/3 15/7/3 16/8/3
f 17/9/5 18/10/5 19/2/5 20/1/5
f 20/9/6 19/10/6 18/2/6 17/1/6
# 8 faces
