mtllib almura:cep_battlecraftww2_rubble2.mtl

v 0.62499994 0.001 0.18750006
v 0.27499992 0.001 0.087500036
v 0.49999994 0.25 0.5
v 0.0 0.001 0.37500006
v 0.099999964 0.0 0.5000001
v 0.099999964 0.001 0.5000001
v 0.0 0.001 0.7250001
v 0.0 0.001 0.8000001
v 0.39999998 0.001 1.0
v 0.79999995 0.001 0.8125
v 0.7125 0.001 0.625
v 0.81249994 0.001 0.17500001
v 0.49999994 0.2 0.5
v 0.59999996 0.5 0.5
v 0.65 0.5 0.5
v 0.54999995 0.2 0.5
v 0.525 0.2 0.47500008
v 0.62499994 0.5 0.47500008
v 0.625 0.5 0.52500004
v 0.525 0.2 0.52500004
v 0.19999993 0.1 0.35000008
v 0.19999993 0.2 0.30000007
v 0.24999994 0.2 0.30000007
v 0.24999994 0.1 0.35000008
v 0.22499996 0.1 0.37500006
v 0.22499996 0.2 0.32500005
v 0.22499996 0.2 0.27500004
v 0.22499996 0.1 0.32500005
v 0.6999999 0.001 0.5500001
v 0.6999999 0.2 0.5
v 0.75 0.2 0.5
v 0.75 0.001 0.5500001
v 0.72499996 0.001 0.57500005
v 0.72499996 0.2 0.52500004
v 0.7249999 0.2 0.47500002
v 0.72499996 0.001 0.52500004
v 0.0 0.001 0.7500001
v 0.100000024 0.3 0.75000006
v 0.14999998 0.3 0.75000006
v 0.050000012 0.001 0.7500001
v 0.024999976 0.001 0.7750001
v 0.125 0.3 0.7750001
v 0.125 0.3 0.7250001
v 0.024999976 0.001 0.7250001
v 0.65 0.121 0.20000005
v 0.65 0.121 0.40000004
v 0.8499999 0.001 0.39999998
v 0.8499999 0.001 0.19999999
v 0.54999995 0.2 0.70000005
v 0.55 0.02 0.90000004
v 0.75 0.02 0.90000004
v 0.75 0.1 0.70000005
# 52 vertices

vn 0.16394131 0.8024233 -0.5737945
vn 0.0045543658 0.99998015 0.0043563484
vn 0.0 1.0 0.0
vn -0.2019653 0.8922164 0.40393072
vn 0.22020581 0.854882 0.4697724
vn 0.71057 0.68567955 0.15790439
vn 0.7902938 0.48930523 -0.36880368
vn -0.04219227 0.7730982 -0.63288164
vn 0.0 0.0 -1.0
vn 0.94868326 -0.3162276 -1.1309197E-6
vn 0.0 -0.44721368 -0.8944272
vn -1.0 0.0 0.0
vn 0.0 -0.24368253 -0.96985507
vn -1.0 2.9952082E-7 1.1920926E-6
vn 0.0 -1.9934663E-7 -1.0
vn -0.9483657 0.3171792 0.0
vn 0.51449585 0.85749286 0.0
vn 0.0 0.7432942 0.6689648
# 18 vertex normals

vt 0.25 0.875
vt 0.25 1.0
vt 0.125 1.0
vt 0.125 0.875
vt 0.375 0.875
vt 0.375 1.0
vt 0.5 0.875
vt 0.5 1.0
# 8 texture coords

g cep_battlecraftww2_rubble2
usemtl cep_battlecraftww2_rubble2

f 1/1/1 2/2/1 3/3/1 3/4/1
f 2/1/2 4/2/2 5/3/2 3/4/2
f 6/1/3 7/2/3 8/3/3 3/4/3
f 8/1/4 9/2/4 3/3/4 3/4/4
f 9/1/5 10/2/5 3/3/5 3/4/5
f 11/1/6 12/2/6 3/3/6 3/4/6
f 10/1/7 11/2/7 3/3/7 3/4/7
f 12/1/8 1/2/8 3/3/8 3/4/8
f 13/5/9 14/6/9 15/2/9 16/1/9
f 17/5/10 18/6/10 19/2/10 20/1/10
f 21/5/11 22/6/11 23/2/11 24/1/11
f 25/5/12 26/6/12 27/2/12 28/1/12
f 29/5/13 30/6/13 31/2/13 32/1/13
f 33/5/14 34/6/14 35/2/14 36/1/14
f 37/5/15 38/6/15 39/2/15 40/1/15
f 41/5/16 42/6/16 43/2/16 44/1/16
f 45/7/17 46/8/17 47/6/17 48/5/17
f 49/7/18 50/8/18 51/6/18 52/5/18
# 18 faces
