mtllib almura:cep_rpg_blacksmith_smith_tabletop_hammer.mtl

v 0.8125 0.09375 0.9375
v 0.37499994 0.09375 0.50000006
v 0.37499994 0.03125 0.50000006
v 0.8125 0.03125 0.9375
v 0.875 0.03125 0.875
v 0.43749994 0.03125 0.43750006
v 0.43749994 0.09375 0.43750006
v 0.875 0.09375 0.875
v 0.24999994 0.0 0.62500006
v 0.12499994 0.0 0.5000001
v 0.43749994 0.0 0.18750006
v 0.56249994 0.0 0.31250006
v 0.56249994 0.125 0.31250006
v 0.43749994 0.125 0.18750006
v 0.12499994 0.125 0.5000001
v 0.24999994 0.125 0.62500006
# 16 vertices

vn -0.70710665 0.0 0.7071069
vn 0.70710665 0.0 -0.7071069
vn 0.0 1.0 0.0
vn 0.0 -1.0 0.0
vn 0.70710677 0.0 0.70710677
vn -0.7071069 0.0 -0.7071067
vn 0.70710677 0.0 -0.70710677
vn -0.70710665 0.0 0.70710695
# 8 vertex normals

vt 0.125 0.875
vt 0.125 1.0
vt 0.0 1.0
vt 0.0 0.875
vt 0.25 0.875
vt 0.25 1.0
vt 0.375 0.875
vt 0.375 1.0
vt 0.5 0.875
vt 0.5 1.0
vt 0.625 0.875
vt 0.625 1.0
# 12 texture coords

g cep_rpg_blacksmith_smith_tabletop_hammer
usemtl cep_rpg_blacksmith_smith_tabletop_hammer

f 1/1/1 2/2/1 3/3/1 4/4/1
f 5/1/2 6/2/2 7/3/2 8/4/2
f 8/1/3 7/2/3 2/3/3 1/4/3
f 4/1/4 3/2/4 6/3/4 5/4/4
f 5/5/5 8/6/5 1/2/5 4/1/5
f 9/7/4 10/8/4 11/6/4 12/5/4
f 13/7/3 14/8/3 15/6/3 16/5/3
f 10/9/6 15/10/6 14/8/6 11/7/6
f 12/9/5 13/10/5 16/8/5 9/7/5
f 11/11/7 14/12/7 13/10/7 12/9/7
f 9/11/8 16/12/8 15/10/8 10/9/8
# 11 faces
