mtllib almura:cep_shaman_runestone_moon.mtl

v 0.18749994 0.625 0.24900007
v 0.18749994 1.25 0.24900007
v 0.81249994 1.25 0.24900001
v 0.81249994 0.625 0.24900001
v 0.18749994 0.0 0.25000006
v 0.18749994 0.625 0.25000006
v 0.81249994 0.625 0.25
v 0.81249994 0.0 0.25
v 0.18749994 1.25 0.25000006
v 0.81249994 1.25 0.25
v 0.49999994 1.25 0.25000006
v 0.49999994 1.5625 0.25000006
v 0.74999994 1.5 0.25
v 0.24999994 1.5 0.25000006
v 0.93749994 0.625 0.5
v 0.93749994 0.0 0.5
v 0.8125 0.625 0.75
v 0.8125 0.0 0.75
v 0.93749994 1.25 0.5
v 0.8125 1.25 0.75
v 0.87499994 1.5625 0.5
v 0.75 1.5 0.75
v 0.06249994 0.0 0.5000001
v 0.06249994 0.625 0.5000001
v 0.1875 0.0 0.75000006
v 0.1875 0.625 0.75000006
v 0.06249994 1.25 0.5000001
v 0.1875 1.25 0.75000006
v 0.12499994 1.5625 0.5000001
v 0.25 1.5 0.75000006
v 0.5 1.5625 0.75000006
v 0.5 1.25 0.75000006
v 0.49999994 1.6875 0.5
# 33 vertices

vn -9.536743E-8 0.0 -1.0
vn -2.3841858E-7 0.0 -1.0
vn 0.0 0.0 -1.0
vn 0.8944272 0.0 -0.4472136
vn 0.8944273 0.0 0.4472134
vn 0.8515941 0.21289852 -0.47902167
vn 0.8630638 0.17261276 0.4746849
vn -0.89442724 0.0 -0.44721353
vn -0.8944271 0.0 0.44721386
vn -0.86306375 0.17261276 -0.47468498
vn -0.851594 0.2128985 0.47902194
vn 9.536743E-8 0.0 1.0
vn 2.5431316E-7 6.357829E-8 1.0
vn 0.0 0.0 1.0
vn 0.21821778 0.8728715 -0.43643585
vn 0.2857143 0.85714287 0.42857128
vn -0.22792116 0.91168463 -0.34188166
vn -0.2940857 0.8822575 0.36760738
vn 0.0 -1.0 0.0
# 19 vertex normals

vt 0.0625 0.9375
vt 0.0625 0.96875
vt 0.03125 0.96875
vt 0.03125 0.9375
vt 0.0625 1.0
vt 0.03125 1.0
vt 0.046875 0.96875
vt 0.046875 1.0
# 8 texture coords

g cep_shaman_runestone_moon
usemtl cep_shaman_runestone_moon

f 1/1/1 2/2/1 3/3/1 4/4/1
f 5/2/1 6/5/1 7/6/1 8/3/1
f 6/2/1 9/5/1 10/6/1 7/3/1
f 11/7/2 12/8/2 13/6/2 10/3/2
f 9/2/3 14/5/3 12/8/3 11/7/3
f 8/2/4 7/5/4 15/8/4 16/7/4
f 16/7/5 15/8/5 17/6/5 18/3/5
f 7/2/4 10/5/4 19/8/4 15/7/4
f 15/7/5 19/8/5 20/6/5 17/3/5
f 10/2/6 13/5/6 21/8/6 19/7/6
f 19/7/7 21/8/7 22/6/7 20/3/7
f 23/7/8 24/8/8 6/6/8 5/3/8
f 25/2/9 26/5/9 24/8/9 23/7/9
f 24/7/8 27/8/8 9/6/8 6/3/8
f 26/2/9 28/5/9 27/8/9 24/7/9
f 27/7/10 29/8/10 14/6/10 9/3/10
f 28/2/11 30/5/11 29/8/11 27/7/11
f 18/2/12 17/5/12 26/6/12 25/3/12
f 17/2/12 20/5/12 28/6/12 26/3/12
f 20/2/13 22/5/13 31/8/13 32/7/13
f 32/7/14 31/8/14 30/6/14 28/3/14
f 13/7/15 12/8/15 33/6/15 21/3/15
f 21/7/16 33/8/16 31/6/16 22/3/16
f 12/2/17 14/5/17 29/8/17 33/7/17
f 33/2/18 29/5/18 30/8/18 31/7/18
f 16/7/19 18/8/19 25/6/19 23/3/19
f 8/2/19 16/5/19 23/8/19 5/7/19
# 27 faces
