mtllib almura:cep_priest_pew_chair.mtl

v 0.8749999 0.0 0.0
v 0.8749999 0.8 0.0
v 0.99999994 0.8 0.0
v 0.99999994 0.0 0.0
v 1.0 0.0 1.0
v 1.0 1.5 1.0
v 0.875 1.5 1.0
v 0.875 0.0 1.0
v 1.0 0.8 1.0
v 0.875 0.8 1.0
v 1.0 1.5 0.9
v 0.875 1.5 0.9
v 1.0 1.3 0.775
v 1.0 1.5 0.8375
v 1.0 1.3 1.0
v 0.875 1.3 1.0
v 0.875 1.5 0.83750004
v 0.875 1.3 0.77500004
v 1.0 0.8 0.736
v 0.875 0.8 0.736
v -1.1920929E-7 0.0 5.9604645E-8
v -1.1920929E-7 0.8 5.9604645E-8
v 0.12499994 0.8 5.9604645E-8
v 0.12499994 0.0 5.9604645E-8
v 0.125 0.0 1.0000001
v 0.125 1.5 1.0000001
v 0.0 1.5 1.0000001
v 0.0 0.0 1.0000001
v 0.125 0.8 1.0000001
v 0.0 0.8 1.0000001
v 0.125 1.5 0.9000001
v 0.0 1.5 0.9000001
v 0.125 1.3 0.7750001
v 0.125 1.5 0.8375001
v 0.125 1.3 1.0000001
v 0.0 1.3 1.0000001
v 0.0 1.5 0.8375001
v 0.0 1.3 0.7750001
v 0.125 0.8 0.73600006
v 0.0 0.8 0.73600006
v 0.125 0.5 0.7125001
v 0.875 0.5 0.7125
v 0.0 0.5 0.7125001
v 1.0 0.5 0.7125
v 1.0 0.5 0.8375
v 1.0 1.3 0.9
v 0.0 1.3 0.9000001
v 0.0 0.5 0.8375001
v 1.0 0.4 0.8375
v 0.125 0.4 0.8375001
v 0.12499994 0.4 5.9604645E-8
v 0.99999994 0.4 0.0
v 0.12499994 0.5 5.9604645E-8
v 0.125 0.5 0.8375001
v 0.99999994 0.5 0.0
v 0.8749999 0.5 0.0
v 0.8749999 0.4 0.0
# 57 vertices

vn 0.0 0.0 -1.0
vn 0.0 0.0 1.0
vn 1.0 0.0 -5.9604645E-8
vn -1.0 0.0 1.1920929E-7
vn 0.0 -1.0 0.0
vn 0.0 1.0 0.0
vn 1.0 0.0 0.0
vn -1.0 0.0 0.0
vn -7.9231434E-8 0.07788768 -0.9969622
vn 0.0 0.07788767 -0.99696213
vn -4.753886E-7 0.07788774 -0.99696213
vn 1.1884715E-7 -0.07788767 0.99696213
vn -1.1378289E-7 0.29827493 -0.95448005
vn 1.1920929E-7 0.0 1.0
vn -7.947287E-8 0.0 -1.0
vn 1.362392E-7 0.0 1.0
# 16 vertex normals

vt 0.5 0.5
vt 0.5 0.625
vt 0.375 0.625
vt 0.375 0.5
vt 1.0 0.875
vt 1.0 1.0
vt 0.875 1.0
vt 0.875 0.875
# 8 texture coords

g cep_priest_pew_chair
usemtl cep_priest_pew_chair

f 1/1/1 2/2/1 3/3/1 4/4/1
f 5/1/2 6/2/2 7/3/2 8/4/2
f 4/1/3 3/2/3 9/3/3 5/4/3
f 8/1/4 10/2/4 2/3/4 1/4/4
f 5/1/5 8/2/5 1/3/5 4/4/5
f 3/1/6 2/2/6 10/3/6 9/4/6
f 11/1/6 12/2/6 7/3/6 6/4/6
f 13/1/7 14/2/7 6/3/7 15/4/7
f 16/1/8 7/2/8 17/3/8 18/4/8
f 19/1/7 13/2/7 15/3/7 9/4/7
f 10/1/8 16/2/8 18/3/8 20/4/8
f 21/1/1 22/2/1 23/3/1 24/4/1
f 25/1/2 26/2/2 27/3/2 28/4/2
f 24/1/3 23/2/3 29/3/3 25/4/3
f 28/1/4 30/2/4 22/3/4 21/4/4
f 25/1/5 28/2/5 21/3/5 24/4/5
f 23/1/6 22/2/6 30/3/6 29/4/6
f 31/1/6 32/2/6 27/3/6 26/4/6
f 33/1/7 34/2/7 26/3/7 35/4/7
f 36/1/8 27/2/8 37/3/8 38/4/8
f 39/1/7 33/2/7 35/3/7 29/4/7
f 30/1/8 36/2/8 38/3/8 40/4/8
f 41/5/9 33/6/9 18/7/9 42/8/9
f 43/1/10 38/2/10 33/3/10 41/4/10
f 42/1/11 18/2/11 13/3/11 44/4/11
f 45/1/12 46/2/12 47/3/12 48/4/12
f 38/1/13 37/2/13 14/3/13 13/4/13
f 46/1/14 11/2/14 32/3/14 47/4/14
f 37/1/6 32/2/6 11/3/6 14/4/6
f 49/1/5 50/2/5 51/3/5 52/4/5
f 53/5/6 54/6/6 45/7/6 55/8/6
f 51/1/15 53/2/15 56/3/15 57/4/15
f 49/1/16 45/2/16 54/3/16 50/4/16
# 33 faces
