mtllib almura:cep_carpenter_sink.mtl

v 0.47500002 0.1 0.8000001
v 0.47500002 0.175 0.8000001
v 0.525 0.175 0.8000001
v 0.525 0.1 0.8000001
v 0.525 0.1 0.85
v 0.525 0.15 0.85
v 0.47500002 0.15 0.85
v 0.47500002 0.1 0.85
v 0.47500002 0.2 0.85
v 0.525 0.2 0.85
v 0.47500002 0.2 1.0
v 0.525 0.2 1.0
v 0.47500002 0.15 1.0
v 0.525 0.15 1.0
v 0.525 0.2 0.90000004
v 0.525 0.25 0.90000004
v 0.47500002 0.25 0.95000005
v 0.47500002 0.2 0.95000005
v 0.47500002 0.2 0.90000004
v 0.47500002 0.25 0.90000004
v 0.525 0.25 0.95000005
v 0.525 0.2 0.95000005
v 0.65 0.125 0.975
v 0.35000002 0.125 0.9750001
v 0.35000002 0.225 0.9750001
v 0.65 0.225 0.975
v 0.35000002 0.225 1.0
v 0.65 0.225 1.0
v 0.65 0.125 1.0
v 0.35000002 0.125 1.0
v 0.0 0.0 0.9990001
v 0.0 1.0 0.9990001
v 1.0 1.0 0.999
v 1.0 0.0 0.999
v 0.99999994 0.0 0.0
v 1.0 0.0 1.0
v 0.0 0.0 1.0000001
v -1.1920929E-7 0.0 5.9604645E-8
v -1.1920929E-7 0.001 5.9604645E-8
v 0.0 0.001 1.0000001
v 1.0 0.001 1.0
v 0.99999994 0.001 0.0
# 42 vertices

vn 0.0 0.0 -1.0
vn 0.0 0.0 1.0
vn 0.0 0.89442694 -0.447214
vn 0.0 1.0 0.0
vn 0.0 -1.0 0.0
vn -1.0 0.0 0.0
vn 1.0 0.0 0.0
vn 0.7071072 0.0 0.70710635
vn 0.7071072 0.0 -0.70710635
vn -0.7071072 0.0 -0.70710635
vn -0.7071072 0.0 0.70710635
vn -1.9868217E-7 0.0 -1.0
vn -5.9604645E-8 0.0 -1.0
# 13 vertex normals

vt 0.625 0.5
vt 0.625 0.625
vt 0.5 0.625
vt 0.5 0.5
vt 0.75 0.5
vt 0.75 0.625
vt 0.875 0.5
vt 0.875 0.625
vt 1.0 0.5
vt 1.0 0.625
# 10 texture coords

g cep_carpenter_sink
usemtl cep_carpenter_sink

f 1/1/1 2/2/1 3/3/1 4/4/1
f 5/1/2 6/2/2 7/3/2 8/4/2
f 2/1/3 9/2/3 10/3/3 3/4/3
f 9/1/4 11/2/4 12/3/4 10/4/4
f 13/1/5 7/2/5 6/3/5 14/4/5
f 13/1/6 11/2/6 9/3/6 7/4/6
f 8/1/6 9/2/6 2/3/6 1/4/6
f 6/1/7 10/2/7 12/3/7 14/4/7
f 4/1/7 3/2/7 10/3/7 5/4/7
f 8/1/5 1/2/5 4/3/5 5/4/5
f 15/5/8 16/6/8 17/2/8 18/1/8
f 19/5/9 20/6/9 21/2/9 22/1/9
f 18/5/10 17/6/10 16/2/10 15/1/10
f 22/5/11 21/6/11 20/2/11 19/1/11
f 23/1/12 24/2/12 25/3/12 26/4/12
f 26/1/4 25/2/4 27/3/4 28/4/4
f 29/1/5 30/2/5 24/3/5 23/4/5
f 29/1/7 23/2/7 26/3/7 28/4/7
f 24/1/6 30/2/6 27/3/6 25/4/6
f 31/7/13 32/8/13 33/6/13 34/5/13
f 35/9/5 36/10/5 37/8/5 38/7/5
f 39/9/4 40/10/4 41/8/4 42/7/4
# 22 faces
