mtllib almura:cep_shaman_bundle_feathers.mtl

v 0.0 0.0 0.5000001
v 0.0 1.0 0.5000001
v 0.99999994 1.0 0.5
v 0.99999994 0.0 0.5
v 0.49999994 0.0 5.9604645E-8
v 0.49999994 1.0 5.9604645E-8
v 0.5 1.0 1.0
v 0.5 0.0 1.0
v 0.44999993 0.9375 0.45000005
v 0.44999993 1.0 0.45000005
v 0.54999995 1.0 0.45000005
v 0.54999995 0.9375 0.45000005
v 0.54999995 0.9375 0.5500001
v 0.54999995 1.0 0.5500001
v 0.44999993 1.0 0.5500001
v 0.44999993 0.9375 0.5500001
# 16 vertices

vn -1.192093E-7 0.0 -1.0
vn 1.0 0.0 -5.960465E-8
vn 1.192093E-7 0.0 1.0
vn -1.0 0.0 5.960465E-8
vn 0.0 0.0 -1.0
vn 0.0 0.0 1.0
vn -1.0 0.0 0.0
vn 1.0 0.0 0.0
vn 0.0 1.0 0.0
vn 0.0 -1.0 0.0
# 10 vertex normals

vt 0.15625 0.75
vt 0.15625 0.78125
vt 0.125 0.78125
vt 0.125 0.75
vt 0.09375 0.78125
vt 0.09375 0.75
# 6 texture coords

g cep_shaman_bundle_feathers
usemtl cep_shaman_bundle_feathers

f 1/1/1 2/2/1 3/3/1 4/4/1
f 5/1/2 6/2/2 7/3/2 8/4/2
f 4/1/3 3/2/3 2/3/3 1/4/3
f 8/1/4 7/2/4 6/3/4 5/4/4
f 9/4/5 10/3/5 11/5/5 12/6/5
f 13/4/6 14/3/6 15/5/6 16/6/6
f 16/4/7 15/3/7 10/5/7 9/6/7
f 12/4/8 11/3/8 14/5/8 13/6/8
f 11/4/9 10/3/9 15/5/9 14/6/9
f 9/4/10 12/3/10 13/5/10 16/6/10
# 10 faces
