mtllib almura:cep_harbormaster_walldisplay_fishingpole.mtl

v -1.0 0.84374 0.92625016
v -1.0 0.84375 0.92625016
v 0.5 0.855 0.915
v 0.5 0.8325 0.915
v 0.5 0.8325 0.93750006
v 0.5 0.855 0.93750006
v -1.0 0.84375 0.92624015
v -1.0 0.84374 0.92624015
v 0.75 0.855 0.915
v 0.75 0.8325 0.915
v 0.75 0.8325 0.9375
v 0.75 0.855 0.9375
v 0.625 0.855 0.88375
v 0.625 0.9175 0.88375
v 0.6875 0.9175 0.88375
v 0.6875 0.855 0.88375
v 0.6875 0.855 0.96875
v 0.6875 0.9175 0.96875
v 0.625 0.9175 0.96875006
v 0.625 0.855 0.96875006
v 1.0 0.855 0.915
v 1.0 0.8325 0.915
v 1.0 0.8325 0.9375
v 1.0 0.855 0.9375
# 24 vertices

vn -0.0074998816 0.0 -0.9999719
vn -0.007499722 0.0 0.99997187
vn -0.007499802 0.9999719 0.0
vn -0.0074931267 -0.9999719 0.0
vn 0.0 0.0 -1.0
vn 2.3841858E-7 0.0 1.0
vn 0.0 1.0 0.0
vn 0.0 -1.0 0.0
vn 9.536743E-7 0.0 1.0
vn -1.0 0.0 0.0
vn 1.0 0.0 0.0
vn 0.0 0.0 1.0
# 12 vertex normals

vt 0.25 0.84375
vt 0.25 0.875
vt 0.21875 0.875
vt 0.21875 0.84375
vt 0.3125 0.84375
vt 0.3125 0.875
vt 0.28125 0.875
vt 0.28125 0.84375
vt 0.34375 0.84375
vt 0.34375 0.875
# 10 texture coords

g cep_harbormaster_walldisplay_fishingpole
usemtl cep_harbormaster_walldisplay_fishingpole

f 1/1/1 2/2/1 3/3/1 4/4/1
f 5/1/2 6/2/2 2/3/2 1/4/2
f 7/1/3 2/2/3 6/3/3 3/4/3
f 1/1/4 8/2/4 4/3/4 5/4/4
f 4/5/5 3/6/5 9/7/5 10/8/5
f 11/5/6 12/6/6 6/7/6 5/8/6
f 3/5/7 6/6/7 12/7/7 9/8/7
f 5/5/8 4/6/8 10/7/8 11/8/8
f 13/9/5 14/10/5 15/6/5 16/5/5
f 17/9/9 18/10/9 19/6/9 20/5/9
f 18/8/7 15/7/7 14/2/7 19/1/7
f 16/8/8 17/7/8 20/2/8 13/1/8
f 19/8/10 14/7/10 13/2/10 20/1/10
f 15/8/11 18/7/11 17/2/11 16/1/11
f 10/5/5 9/6/5 21/7/5 22/8/5
f 12/5/12 11/6/12 23/7/12 24/8/12
f 22/5/11 21/6/11 24/7/11 23/8/11
f 9/5/7 12/6/7 24/7/7 21/8/7
f 11/5/8 10/6/8 22/7/8 23/8/8
# 19 faces
