mtllib almura:cep_rpg_blacksmith_smith_bellow.mtl

v 0.99999994 0.25 0.4375
v 0.81249994 0.25 0.4375
v 0.81249994 0.25 0.5625
v 0.99999994 0.25 0.5625
v 0.31249994 0.3125 0.25000006
v 0.12499994 0.3125 0.31250006
v 0.125 0.3125 0.6875001
v 0.3125 0.3125 0.75000006
v 0.0 0.3125 0.43750006
v 0.0 0.375 0.43750006
v 0.24999994 0.3125 0.43750006
v 0.24999994 0.3125 0.56250006
v 0.0 0.375 0.5625001
v 0.0 0.3125 0.5625001
v 0.99999994 0.1875 0.4375
v 0.99999994 0.1875 0.5625
v 0.81249994 0.1875 0.5625
v 0.81249994 0.1875 0.4375
v 0.125 0.125 0.6875001
v 0.12499994 0.125 0.31250006
v 0.31249994 0.125 0.25000006
v 0.3125 0.125 0.75000006
v 0.12499994 0.3125 0.5625001
v 0.12499994 0.3125 0.43750006
v 0.12499994 0.125 0.43750006
v 0.0 0.125 0.43750006
v 0.0 0.125 0.5625001
v 0.12499994 0.125 0.5625001
v 0.0 0.0625 0.5625001
v 0.0 0.0625 0.43750006
v 0.24999994 0.125 0.43750006
v 0.24999994 0.125 0.56250006
v 0.31249994 0.0 0.18750006
v 0.31249994 0.125 0.18750006
v 0.37499994 0.125 0.18750006
v 0.37499994 0.0 0.18750006
v 0.375 0.125 0.81250006
v 0.3125 0.125 0.81250006
v 0.3125 0.0 0.81250006
v 0.375 0.0 0.81250006
v 0.93749994 0.0 0.25
v 0.93749994 0.1875 0.25
v 0.9375 0.1875 0.75
v 0.9375 0.0 0.75
v 0.87499994 0.1875 0.25
v 0.875 0.1875 0.75
v 0.87499994 0.0 0.25
v 0.875 0.0 0.75
# 48 vertices

vn 0.0 1.0 0.0
vn 0.12403475 0.9922779 -1.4786094E-8
vn 0.0 0.0 -1.0
vn 2.3841864E-7 0.0 1.0
vn 0.2425357 0.97014254 0.0
vn -1.0 0.0 0.0
vn 1.0 0.0 0.0
vn 0.0 0.0 1.0
vn -1.0 0.0 1.5894568E-7
vn 0.0 -1.0 0.0
vn 0.35112336 0.0 -0.93632925
vn -0.31622776 0.0 -0.9486833
vn -0.31622747 0.0 0.9486833
vn 0.35112357 0.0 0.93632907
vn 0.12403475 -0.9922779 -1.4786094E-8
vn 0.2425357 -0.97014254 0.0
vn 1.0 0.0 -9.536743E-8
vn -1.0 0.0 9.536743E-8
vn 1.0 0.0 -1.1920929E-7
vn -1.0 0.0 1.1920929E-7
# 20 vertex normals

vt 0.375 0.625
vt 0.375 0.75
vt 0.25 0.75
vt 0.25 0.625
vt 0.125 0.625
vt 0.125 0.75
vt 0.0 0.75
vt 0.0 0.625
# 8 texture coords

g cep_rpg_blacksmith_smith_bellow
usemtl cep_rpg_blacksmith_smith_bellow

f 1/1/1 2/2/1 3/3/1 4/4/1
f 5/5/1 6/6/1 7/7/1 8/8/1
f 2/5/2 5/6/2 8/7/2 3/8/2
f 9/5/3 10/6/3 11/7/3 11/8/3
f 12/5/4 13/6/4 14/7/4 12/8/4
f 11/5/5 10/6/5 13/7/5 12/8/5
f 14/5/6 13/6/6 10/7/6 9/8/6
f 15/1/7 1/2/7 4/3/7 16/4/7
f 16/1/8 4/2/8 3/3/8 17/4/8
f 18/1/3 2/2/3 1/3/3 15/4/3
f 19/4/9 7/3/9 6/6/9 20/5/9
f 16/1/10 17/2/10 18/3/10 15/4/10
f 21/4/11 5/3/11 2/6/11 18/5/11
f 20/4/12 6/3/12 5/6/12 21/5/12
f 22/4/13 8/3/13 7/6/13 19/5/13
f 17/4/14 3/3/14 8/6/14 22/5/14
f 17/5/15 22/6/15 21/7/15 18/8/15
f 22/5/10 19/6/10 20/7/10 21/8/10
f 23/5/10 14/6/10 9/7/10 24/8/10
f 25/5/1 26/6/1 27/7/1 28/8/1
f 29/5/6 27/6/6 26/7/6 30/8/6
f 30/5/3 26/6/3 31/7/3 31/8/3
f 32/5/4 32/6/4 27/7/4 29/8/4
f 32/5/16 29/6/16 30/7/16 31/8/16
f 33/5/3 34/6/3 35/7/3 36/8/3
f 37/5/8 38/6/8 39/7/8 40/8/8
f 36/5/17 35/6/17 37/7/17 40/8/17
f 39/5/18 38/6/18 34/7/18 33/8/18
f 35/5/1 34/6/1 38/7/1 37/8/1
f 41/5/19 42/6/19 43/7/19 44/8/19
f 42/5/1 45/6/1 46/7/1 43/8/1
f 47/5/3 45/6/3 42/7/3 41/8/3
f 48/5/20 46/6/20 45/7/20 47/8/20
f 44/5/8 43/6/8 46/7/8 48/8/8
f 47/5/10 41/6/10 44/7/10 48/8/10
# 35 faces
