mtllib almura:cep_carpenter_endtable.mtl

v 0.8124999 0.0 0.0625
v 0.8124999 0.0625 0.0625
v 0.93749994 0.0625 0.0625
v 0.93749994 0.0 0.0625
v 0.93749994 0.0625 0.1875
v 0.93749994 0.0 0.1875
v 0.81249994 0.0625 0.1875
v 0.81249994 0.0 0.1875
v 0.9375 0.0 0.9375
v 0.9375 0.0625 0.9375
v 0.8125 0.0625 0.9375
v 0.8125 0.0 0.9375
v 0.8125 0.0625 0.8125
v 0.8125 0.0 0.8125
v 0.9375 0.0625 0.8125
v 0.9375 0.0 0.8125
v 0.1875 0.0 0.93750006
v 0.1875 0.0625 0.93750006
v 0.0625 0.0625 0.93750006
v 0.0625 0.0 0.93750006
v 0.1875 0.0 0.81250006
v 0.1875 0.0625 0.81250006
v 0.0625 0.0 0.8125001
v 0.0625 0.0625 0.8125001
v 0.06249994 0.0 0.18750006
v 0.06249994 0.0625 0.18750006
v 0.06249994 0.0625 0.06250006
v 0.06249994 0.0 0.06250006
v 0.18749994 0.0625 0.06250006
v 0.18749994 0.0 0.06250006
v 0.18749994 0.0625 0.18750006
v 0.18749994 0.0 0.18750006
v 0.9374999 0.0 0.0
v 0.9374999 1.0 0.0
v 0.9375 1.0 1.0
v 0.9375 0.0 1.0
v 0.0625 0.0 1.0000001
v 0.0625 1.0 1.0000001
v 0.06249994 1.0 5.9604645E-8
v 0.06249994 0.0 5.9604645E-8
v -1.1920929E-7 0.0 0.06250006
v -1.1920929E-7 1.0 0.06250006
v 0.99999994 1.0 0.0625
v 0.99999994 0.0 0.0625
v 1.0 0.0 0.9375
v 1.0 1.0 0.9375
v 0.0 1.0 0.93750006
v 0.0 0.0 0.93750006
v 1.0 0.0625 1.0
v 0.0 0.0625 1.0000001
v -1.1920929E-7 0.0625 5.9604645E-8
v 0.99999994 0.0625 0.0
v 0.99999994 0.125 0.0
v -1.1920929E-7 0.125 5.9604645E-8
v 0.0 0.125 1.0000001
v 1.0 0.125 1.0
v 0.99999994 1.0 0.0
v -1.1920929E-7 1.0 5.9604645E-8
v 0.0 1.0 1.0000001
v 1.0 1.0 1.0
v 0.0 0.0 1.0000001
v -1.1920929E-7 0.0 5.9604645E-8
v 1.0 0.0 1.0
v 0.99999994 0.0 0.0
# 64 vertices

vn 0.0 0.0 -1.0
vn 1.0 0.0 0.0
vn 0.0 0.0 1.0
vn -1.0 0.0 4.7683716E-7
vn -1.0 0.0 0.0
vn -4.7683716E-7 0.0 -1.0
vn 0.0 -1.0 0.0
vn 1.0 0.0 -1.1920929E-7
vn -1.0 0.0 5.9604645E-8
vn -5.9604645E-8 0.0 -1.0
vn 5.9604645E-8 0.0 1.0
vn 0.0 1.0 0.0
vn -1.0 0.0 1.1920929E-7
vn 1.1920929E-7 0.0 1.0
vn 1.0 0.0 -5.9604645E-8
# 15 vertex normals

vt 0.5 0.625
vt 0.5 0.75
vt 0.375 0.75
vt 0.375 0.625
vt 0.75 0.625
vt 0.75 0.75
vt 0.625 0.75
vt 0.625 0.625
vt 0.875 0.75
vt 0.875 0.875
vt 0.75 0.875
vt 0.875 0.625
vt 0.5 0.875
vt 0.375 0.875
vt 1.0 0.625
vt 1.0 0.75
# 16 texture coords

g cep_carpenter_endtable
usemtl cep_carpenter_endtable

f 1/1/1 2/2/1 3/3/1 4/4/1
f 4/1/2 3/2/2 5/3/2 6/4/2
f 6/1/3 5/2/3 7/3/3 8/4/3
f 8/1/4 7/2/4 2/3/4 1/4/4
f 9/1/3 10/2/3 11/3/3 12/4/3
f 12/1/5 11/2/5 13/3/5 14/4/5
f 14/1/1 13/2/1 15/3/1 16/4/1
f 16/1/2 15/2/2 10/3/2 9/4/2
f 17/1/3 18/2/3 19/3/3 20/4/3
f 21/1/2 22/2/2 18/3/2 17/4/2
f 23/1/6 24/2/6 22/3/6 21/4/6
f 20/1/5 19/2/5 24/3/5 23/4/5
f 25/1/5 26/2/5 27/3/5 28/4/5
f 28/1/1 27/2/1 29/3/1 30/4/1
f 30/1/2 29/2/2 31/3/2 32/4/2
f 32/1/3 31/2/3 26/3/3 25/4/3
f 32/1/7 25/2/7 28/3/7 30/4/7
f 9/1/7 12/2/7 14/3/7 16/4/7
f 6/1/7 8/2/7 1/3/7 4/4/7
f 23/1/7 21/2/7 17/3/7 20/4/7
f 33/5/8 34/6/8 35/7/8 36/8/8
f 37/5/9 38/6/9 39/7/9 40/8/9
f 41/9/10 42/10/10 43/11/10 44/6/10
f 45/5/11 46/6/11 47/7/11 48/8/11
f 49/12/7 50/9/7 51/6/7 52/5/7
f 53/12/12 54/9/12 55/6/12 56/5/12
f 57/2/12 58/13/12 59/14/12 60/3/12
f 61/15/13 59/16/13 58/9/13 62/12/13
f 63/15/14 60/16/14 59/9/14 61/12/14
f 64/15/15 57/16/15 60/9/15 63/12/15
f 62/15/10 58/16/10 57/9/10 64/12/10
# 31 faces
