mtllib almura:cep_king_window_1x1_arrowslits.mtl

v 0.0 0.1875 0.5000001
v 0.0 0.125 1.0000001
v 1.0 0.125 1.0
v 0.99999994 0.1875 0.5
v -1.1920929E-7 0.125 5.9604645E-8
v 0.99999994 0.125 0.0
v -1.1920929E-7 0.0 5.9604645E-8
v -1.1920929E-7 1.0 5.9604645E-8
v 0.99999994 1.0 0.0
v 0.99999994 0.0 0.0
v 1.0 0.0 1.0
v 1.0 1.0 1.0
v 0.0 1.0 1.0000001
v 0.0 0.0 1.0000001
v 0.12499994 0.0 5.9604645E-8
v 0.12499994 1.0 5.9604645E-8
v 0.125 1.0 1.0000001
v 0.125 0.0 1.0000001
v 0.875 0.0 1.0
v 0.875 1.0 1.0
v 0.8749999 1.0 0.0
v 0.8749999 0.0 0.0
v 0.0 0.9375 1.0000001
v -1.1920929E-7 0.9375 5.9604645E-8
v 0.99999994 0.9375 0.0
v 1.0 0.9375 1.0
v 0.0 0.0 0.5000001
v 0.0 1.0 0.5000001
v 0.99999994 1.0 0.5
v 0.99999994 0.0 0.5
# 30 vertices

vn 1.4786092E-8 0.99227786 0.12403473
vn -1.4786092E-8 0.99227786 -0.124034725
vn -5.9604645E-8 0.0 -1.0
vn 1.1920929E-7 0.0 1.0
vn 0.0 1.0 0.0
vn -1.0 0.0 1.1920929E-7
vn 1.0 0.0 -5.9604645E-8
vn 0.0 -1.0 0.0
vn -1.192093E-7 0.0 -1.0
vn 1.192093E-7 0.0 1.0
# 10 vertex normals

vt 0.875 0.625
vt 0.875 0.75
vt 0.75 0.75
vt 0.75 0.625
vt 0.875 0.0
vt 0.875 0.125
vt 0.75 0.125
vt 0.75 0.0
vt 1.0 0.625
vt 1.0 0.75
vt 1.0 0.0
vt 1.0 0.125
# 12 texture coords

g cep_king_window_1x1_arrowslits
usemtl cep_king_window_1x1_arrowslits

f 1/1/1 2/2/1 3/3/1 4/4/1
f 5/1/2 1/2/2 4/3/2 6/4/2
f 7/5/3 8/6/3 9/7/3 10/8/3
f 11/5/4 12/6/4 13/7/4 14/8/4
f 8/9/5 13/10/5 12/2/5 9/1/5
f 14/9/6 13/10/6 8/2/6 7/1/6
f 10/9/7 9/10/7 12/2/7 11/1/7
f 15/9/7 16/10/7 17/2/7 18/1/7
f 19/9/6 20/10/6 21/2/6 22/1/6
f 14/9/8 7/10/8 10/2/8 11/1/8
f 23/9/8 24/10/8 25/2/8 26/1/8
f 27/11/9 28/12/9 29/6/9 30/5/9
f 30/11/10 29/12/10 28/6/10 27/5/10
# 13 faces
