mtllib almura:cep_shaman_bundle_claw.mtl

v 0.0 0.0 0.5000001
v 0.0 1.0 0.5000001
v 0.99999994 1.0 0.5
v 0.99999994 0.0 0.5
v 0.49999994 0.0 5.9604645E-8
v 0.49999994 1.0 5.9604645E-8
v 0.5 1.0 1.0
v 0.5 0.0 1.0
v 0.44999993 0.9375 0.45000005
v 0.44999993 1.0 0.45000005
v 0.54999995 1.0 0.45000005
v 0.54999995 0.9375 0.45000005
v 0.54999995 0.9375 0.5500001
v 0.54999995 1.0 0.5500001
v 0.44999993 1.0 0.5500001
v 0.44999993 0.9375 0.5500001
# 16 vertices

vn -1.192093E-7 0.0 -1.0
vn 1.0 0.0 -5.960465E-8
vn 1.192093E-7 0.0 1.0
vn -1.0 0.0 5.960465E-8
vn 0.0 0.0 -1.0
vn 0.0 0.0 1.0
vn -1.0 0.0 0.0
vn 1.0 0.0 0.0
vn 0.0 1.0 0.0
vn 0.0 -1.0 0.0
# 10 vertex normals

vt 0.21875 0.75
vt 0.21875 0.78125
vt 0.1875 0.78125
vt 0.1875 0.75
vt 0.125 0.75
vt 0.125 0.78125
vt 0.09375 0.78125
vt 0.09375 0.75
# 8 texture coords

g cep_shaman_bundle_claw
usemtl cep_shaman_bundle_claw

f 1/1/1 2/2/1 3/3/1 4/4/1
f 5/1/2 6/2/2 7/3/2 8/4/2
f 4/1/3 3/2/3 2/3/3 1/4/3
f 8/1/4 7/2/4 6/3/4 5/4/4
f 9/5/5 10/6/5 11/7/5 12/8/5
f 13/5/6 14/6/6 15/7/6 16/8/6
f 16/5/7 15/6/7 10/7/7 9/8/7
f 12/5/8 11/6/8 14/7/8 13/8/8
f 11/5/9 10/6/9 15/7/9 14/8/9
f 9/5/10 12/6/10 13/7/10 16/8/10
# 10 faces
