mtllib almura:cep_scholar_scales.mtl

v 0.46874994 0.125 0.51562506
v 0.46874994 0.625 0.51562506
v 0.46874994 0.625 0.48437506
v 0.46874994 0.125 0.48437506
v 0.48437494 0.125 0.46875006
v 0.48437494 0.625 0.46875006
v 0.51562494 0.625 0.46875006
v 0.51562494 0.125 0.46875006
v 0.53124994 0.125 0.48437506
v 0.53124994 0.625 0.48437506
v 0.53125 0.625 0.515625
v 0.53125 0.125 0.515625
v 0.515625 0.125 0.53125
v 0.515625 0.625 0.53125
v 0.48437494 0.625 0.53125006
v 0.48437494 0.125 0.53125006
v 0.31249994 0.375 0.37500006
v 0.06249994 0.375 0.37500006
v 0.06249994 0.375 0.6250001
v 0.31249994 0.375 0.62500006
v 0.93749994 0.375 0.375
v 0.68749994 0.375 0.375
v 0.6875 0.375 0.625
v 0.9375 0.375 0.625
v 0.6875 0.375 0.5
v 0.81249994 0.625 0.5
v 0.81249994 0.375 0.375
v 0.93749994 0.375 0.5
v 0.8125 0.375 0.625
v 0.06249994 0.375 0.5000001
v 0.18749994 0.625 0.50000006
v 0.18749994 0.375 0.37500006
v 0.31249994 0.375 0.50000006
v 0.18749994 0.375 0.62500006
v 0.81249994 0.6875 0.4375
v 0.49999994 0.75 0.43750006
v 0.49999994 0.75 0.5625
v 0.81249994 0.6875 0.5625
v 0.18749994 0.6875 0.43750006
v 0.18749994 0.6875 0.56250006
v 0.81249994 0.625 0.5625
v 0.18749994 0.625 0.56250006
v 0.18749994 0.625 0.43750006
v 0.81249994 0.625 0.4375
v 0.49999994 0.625 0.43750006
v 0.49999994 0.625 0.5625
v 0.56249994 0.125 0.43750006
v 0.43749994 0.125 0.43750006
v 0.43749994 0.125 0.56250006
v 0.5625 0.125 0.5625
v 0.62499994 0.0 0.37500006
v 0.625 0.0 0.625
v 0.37499994 0.0 0.62500006
v 0.37499994 0.0 0.37500006
# 54 vertices

vn -1.0 0.0 0.0
vn 0.0 0.0 -1.0
vn 1.0 0.0 -1.9073523E-6
vn 1.907345E-6 0.0 1.0
vn -0.70710677 0.0 0.70710677
vn 0.70710677 0.0 0.70710677
vn -0.70710677 0.0 -0.70710677
vn 0.70710677 0.0 -0.70710677
vn 0.0 1.0 0.0
vn -0.6666668 0.33333325 -0.6666665
vn 0.6666667 0.33333334 -0.6666667
vn 0.6666668 0.3333334 0.6666665
vn -0.66666675 0.3333332 0.66666675
vn 0.6666667 0.33333334 0.6666667
vn -0.6666665 0.3333334 0.6666668
vn 0.19611613 0.9805807 0.0
vn -0.19611613 0.9805807 0.0
vn 0.0 -1.0 0.0
vn 1.0 0.0 0.0
vn -1.9073487E-7 0.0 -1.0
vn 0.0 0.0 1.0
vn 1.9073487E-7 0.0 1.0
vn 0.8944271 0.44721377 -4.2649629E-7
vn 4.264959E-7 0.44721377 0.8944271
vn -0.8944272 0.4472136 0.0
vn 0.0 0.4472136 -0.8944272
# 26 vertex normals

vt 0.125 0.25
vt 0.125 0.375
vt 0.0 0.375
vt 0.0 0.25
vt 0.25 0.25
vt 0.25 0.375
vt 0.375 0.25
vt 0.375 0.375
# 8 texture coords

g cep_scholar_scales
usemtl cep_scholar_scales

f 1/1/1 2/2/1 3/3/1 4/4/1
f 5/1/2 6/2/2 7/3/2 8/4/2
f 9/1/3 10/2/3 11/3/3 12/4/3
f 13/1/4 14/2/4 15/3/4 16/4/4
f 16/1/5 15/2/5 2/3/5 1/4/5
f 12/1/6 11/2/6 14/3/6 13/4/6
f 4/1/7 3/2/7 6/3/7 5/4/7
f 8/1/8 7/2/8 10/3/8 9/4/8
f 17/5/9 18/6/9 19/2/9 20/1/9
f 21/5/9 22/6/9 23/2/9 24/1/9
f 25/7/10 26/8/10 26/6/10 27/5/10
f 27/7/11 26/8/11 26/6/11 28/5/11
f 28/7/12 26/8/12 26/6/12 29/5/12
f 29/7/13 26/8/13 26/6/13 25/5/13
f 30/7/10 31/8/10 31/6/10 32/5/10
f 32/7/11 31/8/11 31/6/11 33/5/11
f 33/7/14 31/8/14 31/6/14 34/5/14
f 34/7/15 31/8/15 31/6/15 30/5/15
f 35/1/16 36/2/16 37/3/16 38/4/16
f 36/1/17 39/2/17 40/3/17 37/4/17
f 41/1/18 42/2/18 43/3/18 44/4/18
f 44/1/19 35/2/19 38/3/19 41/4/19
f 42/1/1 40/2/1 39/3/1 43/4/1
f 45/1/20 36/2/20 35/3/20 44/4/20
f 43/1/2 39/2/2 36/3/2 45/4/2
f 41/1/21 38/2/21 37/3/21 46/4/21
f 46/1/22 37/2/22 40/3/22 42/4/22
f 47/5/9 48/6/9 49/2/9 50/1/9
f 51/5/23 47/6/23 50/2/23 52/1/23
f 52/5/24 50/6/24 49/2/24 53/1/24
f 53/5/25 49/6/25 48/2/25 54/1/25
f 54/5/26 48/6/26 47/2/26 51/1/26
# 32 faces
