mtllib almura:cep_harbormaster_cannon.mtl

v 0.12499982 0.25 -0.8799999
v 0.12499982 0.875 -0.8799999
v 0.8124998 0.875 -0.88
v 0.8124998 0.25 -0.88
v 0.75 0.3125 0.75
v 0.75 0.8125 0.75
v 0.25 0.8125 0.75000006
v 0.25 0.3125 0.75000006
v 0.7499998 0.8125 -0.88
v 0.24999982 0.8125 -0.8799999
v 0.24999982 0.3125 -0.8799999
v 0.7499998 0.3125 -0.88
v 0.43749994 0.875 0.50000006
v 0.5625 0.875 0.5
v 0.5625 0.8125 0.5
v 0.43749994 0.8125 0.50000006
v 0.5625 0.875 0.625
v 0.43749994 0.875 0.62500006
v 0.43749994 0.8125 0.62500006
v 0.5625 0.8125 0.625
v 0.625 0.4375 1.0
v 0.625 0.6875 1.0
v 0.375 0.6875 1.0
v 0.375 0.4375 1.0
v 0.625 0.6875 0.75
v 0.375 0.6875 0.75000006
v 0.375 0.4375 0.75000006
v 0.625 0.4375 0.75
v 0.8124998 0.25 -0.875
v 0.8124998 0.875 -0.875
v 0.18749982 0.875 -0.8749999
v 0.18749982 0.25 -0.8749999
v 0.8124998 0.875 -1.0
v 0.12499982 0.875 -0.9999999
v 0.12499982 0.875 -0.8749999
v 0.12499982 0.25 -0.8749999
v 0.12499982 0.25 -0.9999999
v 0.8124998 0.25 -1.0
v -1.1920929E-7 0.5 0.25000006
v -1.1920929E-7 0.625 0.25000006
v 0.99999994 0.625 0.25
v 0.99999994 0.5 0.25
v 0.99999994 0.5 0.375
v 0.99999994 0.625 0.375
v 0.0 0.625 0.37500006
v 0.0 0.5 0.37500006
v 0.7499999 0.0 -0.25
v 0.7499999 0.5 0.0
v 0.99999994 0.5 0.0
v 0.9999999 0.0 -0.25
v -1.1920929E-7 0.0 -0.24999988
v -1.1920929E-7 0.5 5.9604645E-8
v 0.24999994 0.5 5.9604645E-8
v 0.24999988 0.0 -0.24999988
v 0.0 0.5 0.5000001
v 0.24999994 0.5 0.50000006
v 0.75 0.5 0.5
v 0.99999994 0.5 0.5
v 0.0 0.0 0.5000001
v 0.24999994 0.0 0.50000006
v 0.99999994 0.0 0.5
v 0.75 0.0 0.5
v 0.25 0.0 1.0000001
v 0.0 0.0 1.0000001
v 1.0 0.0 1.0
v 0.75 0.0 1.0
v 0.0 0.25 0.7500001
v 0.25 0.25 0.75000006
v 0.75 0.25 0.75
v 1.0 0.25 0.75
v 0.0 0.0 0.7500001
v 0.25 0.0 0.75000006
v 1.0 0.0 0.75
v 0.75 0.0 0.75
v 0.0 0.25 1.0000001
v 0.25 0.25 1.0000001
v 0.75 0.25 1.0
v 1.0 0.25 1.0
# 78 vertices

vn -1.7339534E-7 0.0 -1.0
vn 1.1920929E-7 0.0 1.0
vn 0.0 1.0 0.0
vn -1.0 0.0 1.0970181E-7
vn 1.0 0.0 -1.097018E-7
vn 0.0 -1.0 0.0
vn -4.7683693E-7 0.0 -1.0
vn 4.7683693E-7 0.0 1.0
vn -1.0 0.0 0.0
vn 1.0 0.0 0.0
vn 0.0 0.0 1.0
vn 1.9073487E-7 0.0 1.0
vn -5.9604645E-8 0.0 -1.0
vn 5.960465E-8 0.0 1.0
vn -1.0 0.0 9.536743E-7
vn 0.0 0.4472136 -0.8944272
vn 0.0 0.4472135 -0.8944272
vn -1.0 0.0 2.3841855E-7
vn 1.0 -1.1920929E-7 0.0
vn -1.0 0.0 2.3841858E-7
vn 1.6858739E-7 0.70710677 0.70710677
vn 0.0 0.70710677 0.70710677
vn 1.0 0.0 -2.3841858E-7
# 23 vertex normals

vt 0.0625 0.9375
vt 0.0625 0.96875
vt 0.03125 0.96875
vt 0.03125 0.9375
vt 0.09375 0.9375
vt 0.09375 0.96875
vt 0.0 0.96875
vt 0.0 0.9375
vt 0.125 0.9375
vt 0.125 0.96875
# 10 texture coords

g cep_harbormaster_cannon
usemtl cep_harbormaster_cannon

f 1/1/1 2/2/1 3/3/1 4/4/1
f 5/5/2 6/6/2 7/2/2 8/1/2
f 9/4/3 10/3/3 7/7/3 6/8/3
f 8/4/4 7/3/4 10/7/4 11/8/4
f 12/4/5 9/3/5 6/7/5 5/8/5
f 11/4/6 12/3/6 5/7/6 8/8/6
f 13/4/7 14/3/7 15/7/7 16/8/7
f 17/4/8 18/3/8 19/7/8 20/8/8
f 14/1/3 13/2/3 18/3/3 17/4/3
f 18/4/9 13/3/9 16/7/9 19/8/9
f 14/4/10 17/3/10 20/7/10 15/8/10
f 21/5/11 22/6/11 23/2/11 24/1/11
f 25/4/3 26/3/3 23/7/3 22/8/3
f 24/4/9 23/3/9 26/7/9 27/8/9
f 28/4/10 25/3/10 22/7/10 21/8/10
f 27/4/6 28/3/6 21/7/6 24/8/6
f 29/5/12 30/6/12 31/2/12 32/1/12
f 33/4/3 34/3/3 35/7/3 30/8/3
f 36/4/9 35/3/9 34/7/9 37/8/9
f 38/4/10 33/3/10 30/7/10 29/8/10
f 37/4/6 38/3/6 29/7/6 36/8/6
f 39/4/13 40/3/13 41/7/13 42/8/13
f 43/4/14 44/3/14 45/7/14 46/8/14
f 41/4/3 40/3/3 45/7/3 44/8/3
f 46/5/15 45/6/15 40/2/15 39/1/15
f 42/5/10 41/6/10 44/2/10 43/1/10
f 47/9/16 48/10/16 49/6/16 50/5/16
f 51/9/17 52/10/17 53/6/17 54/5/17
f 52/9/3 55/10/3 56/6/3 53/5/3
f 48/9/3 57/10/3 58/6/3 49/5/3
f 59/9/18 55/10/18 52/6/18 51/5/18
f 54/9/19 53/10/19 56/6/19 60/5/19
f 50/9/19 49/10/19 58/6/19 61/5/19
f 62/9/20 57/10/20 48/6/20 47/5/20
f 51/9/6 54/10/6 63/6/6 64/5/6
f 65/9/6 66/10/6 47/6/6 50/5/6
f 55/9/21 67/10/21 68/6/21 56/5/21
f 57/9/22 69/10/22 70/6/22 58/5/22
f 71/9/9 67/10/9 55/6/9 59/5/9
f 60/9/23 56/10/23 68/6/23 72/5/23
f 61/9/23 58/10/23 70/6/23 73/5/23
f 74/9/9 69/10/9 57/6/9 62/5/9
f 67/9/3 75/10/3 76/6/3 68/5/3
f 69/9/3 77/10/3 78/6/3 70/5/3
f 64/9/9 75/10/9 67/6/9 71/5/9
f 72/9/10 68/10/10 76/6/10 63/5/10
f 73/9/10 70/10/10 78/6/10 65/5/10
f 66/9/9 77/10/9 69/6/9 74/5/9
f 65/9/11 78/10/11 77/6/11 66/5/11
f 63/9/11 76/10/11 75/6/11 64/5/11
# 50 faces
