mtllib almura:cep_shaman_standingstone_horizontal_upper.mtl

v 0.18749994 0.5 5.9604645E-8
v 0.18749994 1.0 5.9604645E-8
v 0.8124999 1.0 0.0
v 0.8124999 0.5 0.0
v 0.99999994 0.75 0.0
v -1.1920929E-7 0.75 5.9604645E-8
v 0.8125 0.5 1.0
v 0.8125 1.0 1.0
v 0.1875 1.0 1.0000001
v 0.1875 0.5 1.0000001
v 1.0 0.75 1.0
v 0.0 0.75 1.0000001
# 12 vertices

vn -9.536744E-8 0.0 -1.0
vn 0.0 0.0 -1.0
vn 1.9073487E-7 0.0 1.0
vn 0.0 0.0 1.0
vn 0.0 1.0 0.0
vn -0.8 0.6 9.536743E-8
vn 0.8 0.6 -9.536743E-8
vn 0.0 -1.0 0.0
vn 0.8 -0.6 -4.7683717E-8
vn -0.8 -0.6 4.7683717E-8
# 10 vertex normals

vt 0.0625 0.96875
vt 0.0625 1.0
vt 0.03125 1.0
vt 0.03125 0.96875
vt 0.046875 0.96875
vt 0.046875 1.0
# 6 texture coords

g cep_shaman_standingstone_horizontal_upper
usemtl cep_shaman_standingstone_horizontal_upper

f 1/1/1 2/2/1 3/3/1 4/4/1
f 4/1/2 3/2/2 5/3/2 5/4/2
f 6/1/2 6/2/2 2/3/2 1/4/2
f 7/1/3 8/2/3 9/3/3 10/4/3
f 11/1/4 11/2/4 8/3/4 7/4/4
f 10/1/4 9/2/4 12/3/4 12/4/4
f 2/1/5 9/2/5 8/3/5 3/4/5
f 6/5/6 12/6/6 9/3/6 2/4/6
f 3/1/7 8/2/7 11/6/7 5/5/7
f 4/1/8 7/2/8 10/3/8 1/4/8
f 5/5/9 11/6/9 7/3/9 4/4/9
f 1/1/10 10/2/10 12/6/10 6/5/10
# 12 faces
