mtllib almura:cep_gladiator_ironchain.mtl

v 0.0 0.0 0.5000001
v 0.0 1.0 0.5000001
v 0.99999994 1.0 0.5
v 0.99999994 0.0 0.5
v 0.49999994 0.0 5.9604645E-8
v 0.49999994 1.0 5.9604645E-8
v 0.5 1.0 1.0
v 0.5 0.0 1.0
# 8 vertices

vn -1.192093E-7 0.0 -1.0
vn 1.0 0.0 -5.960465E-8
vn 1.192093E-7 0.0 1.0
vn -1.0 0.0 5.960465E-8
# 4 vertex normals

vt 0.5 0.75
vt 0.5 0.875
vt 0.375 0.875
vt 0.375 0.75
# 4 texture coords

g cep_gladiator_ironchain
usemtl cep_gladiator_ironchain

f 1/1/1 2/2/1 3/3/1 4/4/1
f 5/1/2 6/2/2 7/3/2 8/4/2
f 4/1/3 3/2/3 2/3/3 1/4/3
f 8/1/4 7/2/4 6/3/4 5/4/4
# 4 faces
