mtllib almura:cep_battlecraftww2_rubble1.mtl

v 0.6249999 0.001 -0.11249995
v 0.27499992 0.001 0.087500036
v 0.49999994 0.25 0.5
v -0.29999995 0.001 0.37500012
v -0.5 0.001 0.5000001
v -0.39999998 0.001 0.72500014
v 0.0 0.001 0.8000001
v 0.39999998 0.001 1.0
v 0.79999995 0.001 0.8125
v 0.8125 0.001 0.625
v 0.81249994 0.001 0.17500001
v 0.49999994 0.2 0.5
v 0.29999995 0.5 0.50000006
v 0.34999996 0.5 0.50000006
v 0.54999995 0.2 0.5
v 0.525 0.2 0.47500008
v 0.32499993 0.5 0.47500008
v 0.32499993 0.5 0.5250001
v 0.525 0.2 0.52500004
v 0.19999993 0.1 0.35000008
v 0.19999993 0.2 0.30000007
v 0.24999994 0.2 0.30000007
v 0.24999994 0.1 0.35000008
v 0.22499996 0.1 0.37500006
v 0.22499996 0.2 0.32500005
v 0.22499996 0.2 0.27500004
v 0.22499996 0.1 0.32500005
v -0.29999995 0.001 0.55000013
v -0.29999995 0.2 0.5000001
v -0.25 0.2 0.5000001
v -0.25 0.001 0.55000013
v -0.27499998 0.001 0.5750001
v -0.27499998 0.2 0.5250001
v -0.27499998 0.2 0.47500014
v -0.27499998 0.001 0.5250001
v 0.0 0.001 0.7500001
v 0.100000024 0.3 0.75000006
v 0.14999998 0.3 0.75000006
v 0.050000012 0.001 0.7500001
v 0.024999976 0.001 0.7750001
v 0.125 0.3 0.7750001
v 0.125 0.3 0.7250001
v 0.024999976 0.001 0.7250001
v 0.74999994 0.021 0.39999998
v 0.75 0.021 0.6
v 0.95 0.001 0.6
v 0.9499999 0.001 0.39999998
v 0.14999992 0.03 0.20000005
v 0.14999992 0.1 0.40000004
v 0.34999996 0.2 0.40000004
v 0.34999996 0.08 0.20000005
# 51 vertices

vn -0.23235022 0.8835606 -0.40661287
vn 0.0 1.0 0.0
vn -0.2019653 0.8922164 0.40393072
vn 0.22020581 0.854882 0.4697724
vn 0.62316775 0.78208816 -8.254154E-8
vn 0.6126047 0.78933364 0.040840473
vn 0.41303888 0.86996377 -0.2693733
vn 0.0 1.9868214E-7 -1.0
vn 0.83205026 0.55470026 0.0
vn 0.0 -0.44721368 -0.8944272
vn -1.0 0.0 0.0
vn 0.0 -0.24368225 -0.96985507
vn 0.0 -1.9934663E-7 -1.0
vn -0.9483657 0.3171792 0.0
vn 0.09950372 0.99503714 -2.9654412E-8
vn -0.42678955 0.8535792 -0.29875275
# 16 vertex normals

vt 0.25 0.875
vt 0.25 1.0
vt 0.125 1.0
vt 0.125 0.875
vt 0.375 0.875
vt 0.375 1.0
vt 0.5 0.875
vt 0.5 1.0
# 8 texture coords

g cep_battlecraftww2_rubble1
usemtl cep_battlecraftww2_rubble1

f 1/1/1 2/2/1 3/3/1 3/4/1
f 2/1/2 4/2/2 5/3/2 3/4/2
f 5/1/2 6/2/2 7/3/2 3/4/2
f 7/1/3 8/2/3 3/3/3 3/4/3
f 8/1/4 9/2/4 3/3/4 3/4/4
f 10/1/5 11/2/5 3/3/5 3/4/5
f 9/1/6 10/2/6 3/3/6 3/4/6
f 11/1/7 1/2/7 3/3/7 3/4/7
f 12/5/8 13/6/8 14/2/8 15/1/8
f 16/5/9 17/6/9 18/2/9 19/1/9
f 20/5/10 21/6/10 22/2/10 23/1/10
f 24/5/11 25/6/11 26/2/11 27/1/11
f 28/5/12 29/6/12 30/2/12 31/1/12
f 32/5/11 33/6/11 34/2/11 35/1/11
f 36/5/13 37/6/13 38/2/13 39/1/13
f 40/5/14 41/6/14 42/2/14 43/1/14
f 44/7/15 45/8/15 46/6/15 47/5/15
f 48/7/16 49/8/16 50/6/16 51/5/16
# 18 faces
