mtllib almura:cep_scholar_crystalball.mtl

v 0.99999994 0.0 0.0
v 0.87499994 0.125 0.125
v 0.875 0.125 0.875
v 1.0 0.0 1.0
v 0.0 0.0 1.0000001
v 0.125 0.125 0.87500006
v 0.12499994 0.125 0.12500006
v -1.1920929E-7 0.0 5.9604645E-8
v 0.56249994 0.375 0.43750006
v 0.43749994 0.375 0.43750006
v 0.43749994 0.375 0.56250006
v 0.5625 0.375 0.5625
v 0.62499994 0.3125 0.43750006
v 0.625 0.3125 0.5625
v 0.43749994 0.3125 0.37500006
v 0.56249994 0.3125 0.37500006
v 0.37499994 0.3125 0.56250006
v 0.37499994 0.3125 0.43750006
v 0.5625 0.3125 0.625
v 0.43749994 0.3125 0.62500006
v 0.62499994 0.1875 0.43750006
v 0.625 0.1875 0.5625
v 0.43749994 0.1875 0.37500006
v 0.56249994 0.1875 0.37500006
v 0.37499994 0.1875 0.56250006
v 0.37499994 0.1875 0.43750006
v 0.5625 0.1875 0.625
v 0.43749994 0.1875 0.62500006
v 0.56249994 0.125 0.43750006
v 0.5625 0.125 0.5625
v 0.43749994 0.125 0.56250006
v 0.43749994 0.125 0.43750006
# 32 vertices

vn 0.7071067 0.70710677 -5.6195795E-8
vn -0.7071067 0.70710677 5.6195795E-8
vn 5.6195795E-8 0.70710677 0.7071067
vn -5.6195795E-8 0.70710677 -0.7071067
vn 0.0 1.0 0.0
vn 0.0 -1.0 0.0
vn 0.70710677 0.70710677 -3.3717492E-7
vn 0.0 0.70710677 -0.70710677
vn -0.70710677 0.70710677 0.0
vn 3.371746E-7 0.70710677 0.70710677
vn -0.57735026 0.57735026 -0.57735026
vn -0.57735026 0.57735026 0.57735026
vn 0.57735026 0.57735026 0.57735026
vn 0.57735026 0.57735026 -0.57735026
vn 1.0 0.0 -4.768374E-7
vn 0.0 0.0 -1.0
vn -1.0 0.0 0.0
vn 4.7683693E-7 0.0 1.0
vn -0.70710677 0.0 -0.70710677
vn 0.70710677 0.0 -0.70710677
vn -0.70710677 0.0 0.70710677
vn 0.70710677 0.0 0.70710677
vn 0.70710677 -0.70710677 -3.3717492E-7
vn 3.371746E-7 -0.70710677 0.70710677
vn -0.70710677 -0.70710677 0.0
vn 0.0 -0.70710677 -0.70710677
vn -0.57735026 -0.57735026 -0.57735026
vn -0.57735026 -0.57735026 0.57735026
vn 0.57735026 -0.57735026 0.57735026
vn 0.57735026 -0.57735026 -0.57735026
# 30 vertex normals

vt 0.5 0.25
vt 0.5 0.375
vt 0.375 0.375
vt 0.375 0.25
vt 0.625 0.25
vt 0.625 0.375
vt 0.875 0.25
vt 0.875 0.375
vt 0.75 0.375
vt 0.75 0.25
# 10 texture coords

g cep_scholar_crystalball
usemtl cep_scholar_crystalball

f 1/1/1 2/2/1 3/3/1 4/4/1
f 5/1/2 6/2/2 7/3/2 8/4/2
f 4/1/3 3/2/3 6/3/3 5/4/3
f 8/1/4 7/2/4 2/3/4 1/4/4
f 2/5/5 7/6/5 6/2/5 3/1/5
f 8/7/6 1/8/6 4/9/6 5/10/6
f 9/10/5 10/9/5 11/6/5 12/5/5
f 13/10/7 9/9/7 12/6/7 14/5/7
f 15/10/8 10/9/8 9/6/8 16/5/8
f 17/10/9 11/9/9 10/6/9 18/5/9
f 19/10/10 12/9/10 11/6/10 20/5/10
f 18/10/11 10/9/11 10/6/11 15/5/11
f 20/10/12 11/9/12 11/6/12 17/5/12
f 14/10/13 12/9/13 12/6/13 19/5/13
f 16/10/14 9/9/14 9/6/14 13/5/14
f 21/10/15 13/9/15 14/6/15 22/5/15
f 23/10/16 15/9/16 16/6/16 24/5/16
f 25/10/17 17/9/17 18/6/17 26/5/17
f 27/10/18 19/9/18 20/6/18 28/5/18
f 26/10/19 18/9/19 15/6/19 23/5/19
f 24/10/20 16/9/20 13/6/20 21/5/20
f 28/10/21 20/9/21 17/6/21 25/5/21
f 22/10/22 14/9/22 19/6/22 27/5/22
f 29/10/23 21/9/23 22/6/23 30/5/23
f 30/10/24 27/9/24 28/6/24 31/5/24
f 31/10/25 25/9/25 26/6/25 32/5/25
f 32/10/26 23/9/26 24/6/26 29/5/26
f 32/10/27 26/9/27 23/6/27 32/5/27
f 31/10/28 28/9/28 25/6/28 31/5/28
f 30/10/29 22/9/29 27/6/29 30/5/29
f 29/10/30 24/9/30 21/6/30 29/5/30
f 30/10/6 31/9/6 32/6/6 29/5/6
# 32 faces
