mtllib almura:cep_mason_statue_2.mtl

v 0.24999994 2.0 0.25000006
v 0.25 2.0 0.75000006
v 0.75 2.0 0.75
v 0.74999994 2.0 0.25
v 0.24999994 1.5 0.25000006
v 0.74999994 1.5 0.25
v 0.75 1.5 0.75
v 0.25 1.5 0.75000006
v 0.24989992 2.001 0.24990004
v 0.24989998 2.001 0.7501001
v 0.7501 2.001 0.7501
v 0.75009996 2.001 0.24989998
v 0.24989992 1.5 0.24990004
v 0.24989992 2.0 0.24990004
v 0.75009996 2.0 0.24989998
v 0.75009996 1.5 0.24989998
v 0.7501 1.5 0.7501
v 0.7501 2.0 0.7501
v 0.24989998 2.0 0.7501001
v 0.24989998 1.5 0.7501001
v 0.24999994 0.75 0.37500006
v 0.24999994 1.5 0.37500006
v 0.74999994 1.5 0.375
v 0.74999994 0.75 0.375
v 0.75 0.75 0.625
v 0.75 1.5 0.625
v 0.24999994 1.5 0.62500006
v 0.24999994 0.75 0.62500006
v 0.24999994 0.0 0.37500006
v 0.49999994 0.75 0.37500006
v 0.49999994 0.0 0.37500006
v 0.49999994 0.75 0.625
v 0.49999994 0.0 0.625
v 0.24999994 0.0 0.62500006
v 0.74999994 0.0 0.375
v 0.75 0.0 0.625
v 0.54999995 1.3 -0.125
v 0.75 1.5 0.57500005
v 0.99999994 1.5 0.575
v 0.7999999 1.3 -0.125
v 0.99999994 1.25 0.625
v 0.7999999 1.05 -0.07500005
v 0.54999995 1.05 -0.07500005
v 0.75 1.25 0.625
v 0.19999987 1.7 -0.07499993
v 0.0 1.5 0.6250001
v 0.44999987 1.7 -0.07500005
v 0.24999994 1.25 0.57500005
v 0.44999987 1.45 -0.125
v 0.19999987 1.45 -0.12499988
v 0.0 1.25 0.57500005
v 0.29999995 1.55 0.25000006
v 0.29999995 2.55 0.45000005
v 0.2999999 2.65 -0.049999833
v 0.2999999 1.65 -0.24999988
v 0.6999999 1.4 0.25
v 0.6999999 2.4 0.050000012
v 0.69999987 2.3 -0.45000005
v 0.69999987 1.3 -0.25
# 59 vertices

vn 0.0 1.0 0.0
vn -1.1920929E-7 0.0 -1.0
vn 1.1920929E-7 0.0 1.0
vn 1.0 0.0 -1.1920929E-7
vn -1.0 0.0 1.1920929E-7
vn 0.0 -1.0 0.0
vn -1.1916162E-7 0.0 -1.0
vn 1.1916162E-7 0.0 1.0
vn 1.0 0.0 -1.1916162E-7
vn -1.0 0.0 1.1916162E-7
vn 1.1920927E-7 0.0 1.0
vn 1.0 0.0 -2.3841858E-7
vn -1.0 0.0 0.0
vn 0.0 0.0 -1.0
vn 1.0 0.0 0.0
vn 2.3841858E-7 0.0 1.0
vn -2.3841858E-7 0.0 -1.0
vn 0.0 0.0 1.0
vn -6.549864E-8 0.9615239 -0.27472115
vn 0.9640517 -0.052110925 -0.26055458
vn -0.9640517 0.05211087 0.26055458
vn 0.0 -0.9615239 0.27472118
vn 0.0 -0.19611596 -0.9805807
vn 0.0 0.19611596 0.9805807
vn 6.5498654E-8 0.9615239 0.2747212
vn 0.9640517 -0.052110888 0.26055437
vn -0.9640517 0.052110944 -0.26055434
vn 0.0 -0.9615239 -0.27472118
vn -4.675773E-7 0.19611596 -0.9805807
vn 0.0 -0.1961164 0.98058057
vn -1.0 -2.2924866E-8 1.14624335E-7
vn 1.0 2.292487E-8 -1.14624335E-7
vn -1.0 2.2924855E-8 1.1462429E-7
vn 1.0 -2.2924864E-8 -1.1462429E-7
# 34 vertex normals

vt 0.125 0.9375
vt 0.125 1.0
vt 0.0625 1.0
vt 0.0625 0.9375
vt 0.125 0.875
vt 0.0625 0.875
vt 0.25 0.875
vt 0.25 0.9375
vt 0.1875 0.9375
vt 0.1875 0.875
vt 0.0 0.9375
vt 0.0 0.875
vt 0.1875 1.0
vt 0.375 0.9375
vt 0.375 1.0
vt 0.3125 1.0
vt 0.3125 0.9375
vt 0.375 0.875
vt 0.3125 0.875
vt 0.5 0.875
vt 0.5 0.9375
vt 0.4375 0.9375
vt 0.4375 0.875
vt 0.4375 1.0
vt 0.21875 0.75
vt 0.21875 0.84375
vt 0.15625 0.84375
vt 0.15625 0.75
vt 0.3125 0.75
vt 0.3125 0.84375
vt 0.25 0.84375
vt 0.25 0.75
vt 0.125 0.84375
vt 0.125 0.75
vt 0.21875 0.875
vt 0.15625 0.875
vt 0.28125 0.84375
vt 0.28125 0.875
vt 0.03125 0.75
vt 0.03125 0.84375
vt 0.0625 0.84375
vt 0.0625 0.75
vt 0.09375 0.84375
vt 0.09375 0.75
vt 0.0 0.75
vt 0.0 0.84375
vt 0.03125 0.875
vt 0.375 0.75
vt 0.375 0.84375
vt 0.34375 0.84375
vt 0.34375 0.75
vt 0.40625 0.75
vt 0.40625 0.84375
vt 0.4375 0.75
vt 0.4375 0.84375
vt 0.40625 0.875
vt 0.34375 0.875
vt 0.5 0.75
# 58 texture coords

g cep_mason_statue_2
usemtl cep_mason_statue_2

f 1/1/1 2/2/1 3/3/1 4/4/1
f 5/5/2 1/1/2 4/4/2 6/6/2
f 7/7/3 3/8/3 2/9/3 8/10/3
f 6/6/4 4/4/4 3/11/4 7/12/4
f 8/10/5 2/9/5 1/1/5 5/5/5
f 6/9/6 7/13/6 8/2/6 5/1/6
f 9/14/1 10/15/1 11/16/1 12/17/1
f 13/18/7 14/14/7 15/17/7 16/19/7
f 17/20/8 18/21/8 19/22/8 20/23/8
f 16/19/9 15/17/9 18/8/9 17/7/9
f 20/23/10 19/22/10 14/14/10 13/18/10
f 16/22/6 17/24/6 20/15/6 13/14/6
f 21/25/2 22/26/2 23/27/2 24/28/2
f 25/29/11 26/30/11 27/31/11 28/32/11
f 24/28/12 23/27/12 26/33/12 25/34/12
f 28/32/13 27/31/13 22/26/13 21/25/13
f 22/26/1 27/35/1 26/36/1 23/27/1
f 24/37/6 25/38/6 28/35/6 21/26/6
f 29/39/14 21/40/14 30/41/14 31/42/14
f 31/42/15 30/41/15 32/43/15 33/44/15
f 34/45/13 28/46/13 21/40/13 29/39/13
f 33/44/16 32/43/16 28/33/16 34/34/16
f 21/40/1 28/47/1 32/6/1 30/41/1
f 31/40/6 33/47/6 34/6/6 29/41/6
f 31/42/17 30/41/17 24/40/17 35/39/17
f 35/39/12 24/40/12 25/46/12 36/45/12
f 33/44/13 32/43/13 30/41/13 31/42/13
f 36/34/18 25/33/18 32/43/18 33/44/18
f 30/41/1 32/6/1 25/47/1 24/40/1
f 35/41/6 36/6/6 33/47/6 31/40/6
f 37/48/19 38/49/19 39/50/19 40/51/19
f 40/51/20 39/50/20 41/30/20 42/29/20
f 43/52/21 44/53/21 38/49/21 37/48/21
f 42/54/22 41/55/22 44/53/22 43/52/22
f 40/53/23 42/56/23 43/18/23 37/49/23
f 38/49/24 44/18/24 41/57/24 39/50/24
f 45/51/25 46/50/25 27/49/25 47/48/25
f 47/48/26 27/49/26 48/53/26 49/52/26
f 50/29/27 51/30/27 46/50/27 45/51/27
f 49/52/28 48/53/28 51/55/28 50/54/28
f 47/49/29 49/18/29 50/56/29 45/53/29
f 46/50/30 51/57/30 48/18/30 27/49/30
f 52/58/31 53/20/31 54/23/31 55/54/31
f 55/58/32 54/20/32 53/23/32 52/54/32
f 56/58/33 57/20/33 58/23/33 59/54/33
f 59/58/34 58/20/34 57/23/34 56/54/34
# 46 faces
