mtllib almura:cep_carpenter_wardrobe.mtl

v 0.8124999 0.0 0.0625
v 0.8124999 0.0625 0.0625
v 0.93749994 0.0625 0.0625
v 0.93749994 0.0 0.0625
v 0.93749994 0.0625 0.1875
v 0.93749994 0.0 0.1875
v 0.81249994 0.0625 0.1875
v 0.81249994 0.0 0.1875
v 0.9375 0.0 0.9375
v 0.9375 0.0625 0.9375
v 0.8125 0.0625 0.9375
v 0.8125 0.0 0.9375
v 0.8125 0.0625 0.8125
v 0.8125 0.0 0.8125
v 0.9375 0.0625 0.8125
v 0.9375 0.0 0.8125
v 0.1875 0.0 0.93750006
v 0.1875 0.0625 0.93750006
v 0.0625 0.0625 0.93750006
v 0.0625 0.0 0.93750006
v 0.1875 0.0 0.81250006
v 0.1875 0.0625 0.81250006
v 0.0625 0.0 0.8125001
v 0.0625 0.0625 0.8125001
v 0.06249994 0.0 0.18750006
v 0.06249994 0.0625 0.18750006
v 0.06249994 0.0625 0.06250006
v 0.06249994 0.0 0.06250006
v 0.18749994 0.0625 0.06250006
v 0.18749994 0.0 0.06250006
v 0.18749994 0.0625 0.18750006
v 0.18749994 0.0 0.18750006
v 0.9374999 0.0 0.0
v 0.9374999 1.0 0.0
v 0.9375 1.0 1.0
v 0.9375 0.0 1.0
v 0.0625 0.0 1.0000001
v 0.0625 1.0 1.0000001
v 0.06249994 1.0 5.9604645E-8
v 0.06249994 0.0 5.9604645E-8
v -1.1920929E-7 0.0 0.06250006
v -1.1920929E-7 1.0 0.06250006
v 0.99999994 1.0 0.0625
v 0.99999994 0.0 0.0625
v 1.0 0.0 0.9375
v 1.0 1.0 0.9375
v 0.0 1.0 0.93750006
v 0.0 0.0 0.93750006
v 1.0 0.0625 1.0
v 0.0 0.0625 1.0000001
v -1.1920929E-7 0.0625 5.9604645E-8
v 0.99999994 0.0625 0.0
v 0.99999994 0.125 0.0
v -1.1920929E-7 0.125 5.9604645E-8
v 0.0 0.125 1.0000001
v 1.0 0.125 1.0
v 0.99999994 1.0 0.0
v -1.1920929E-7 1.0 5.9604645E-8
v 0.0 1.0 1.0000001
v 1.0 1.0 1.0
v 0.0 0.0 1.0000001
v -1.1920929E-7 0.0 5.9604645E-8
v 1.0 0.0 1.0
v 0.99999994 0.0 0.0
v 0.9374999 2.0 0.0
v 0.9375 2.0 1.0
v 0.0625 2.0 1.0000001
v 0.06249994 2.0 5.9604645E-8
v -1.1920929E-7 2.0 0.06250006
v 0.99999994 2.0 0.0625
v 1.0 2.0 0.9375
v 0.0 2.0 0.93750006
v 1.0 1.75 1.0
v 0.0 1.75 1.0000001
v -1.1920929E-7 1.75 5.9604645E-8
v 0.99999994 1.75 0.0
v 0.99999994 1.8125 0.0
v -1.1920929E-7 1.8125 5.9604645E-8
v 0.0 1.8125 1.0000001
v 1.0 1.8125 1.0
v 0.0 2.0 1.0000001
v -1.1920929E-7 2.0 5.9604645E-8
v 1.0 2.0 1.0
v 0.99999994 2.0 0.0
# 84 vertices

vn 0.0 0.0 -1.0
vn 1.0 0.0 0.0
vn 0.0 0.0 1.0
vn -1.0 0.0 4.7683716E-7
vn -1.0 0.0 0.0
vn -4.7683716E-7 0.0 -1.0
vn 0.0 -1.0 0.0
vn 1.0 0.0 -1.1920929E-7
vn -1.0 0.0 5.9604645E-8
vn -5.9604645E-8 0.0 -1.0
vn 5.9604645E-8 0.0 1.0
vn 0.0 1.0 0.0
vn -1.0 0.0 1.1920929E-7
vn 1.1920929E-7 0.0 1.0
vn 1.0 0.0 -5.9604645E-8
# 15 vertex normals

vt 0.5 0.625
vt 0.5 0.75
vt 0.375 0.75
vt 0.375 0.625
vt 0.75 0.625
vt 0.75 0.75
vt 0.625 0.75
vt 0.625 0.625
vt 0.875 0.625
vt 0.875 0.75
vt 0.5 0.875
vt 0.375 0.875
vt 1.0 0.625
vt 1.0 0.75
vt 0.75 0.875
vt 0.625 0.875
vt 1.0 0.875
vt 0.875 0.875
# 18 texture coords

g cep_carpenter_wardrobe
usemtl cep_carpenter_wardrobe

f 1/1/1 2/2/1 3/3/1 4/4/1
f 4/1/2 3/2/2 5/3/2 6/4/2
f 6/1/3 5/2/3 7/3/3 8/4/3
f 8/1/4 7/2/4 2/3/4 1/4/4
f 9/1/3 10/2/3 11/3/3 12/4/3
f 12/1/5 11/2/5 13/3/5 14/4/5
f 14/1/1 13/2/1 15/3/1 16/4/1
f 16/1/2 15/2/2 10/3/2 9/4/2
f 17/1/3 18/2/3 19/3/3 20/4/3
f 21/1/2 22/2/2 18/3/2 17/4/2
f 23/1/6 24/2/6 22/3/6 21/4/6
f 20/1/5 19/2/5 24/3/5 23/4/5
f 25/1/5 26/2/5 27/3/5 28/4/5
f 28/1/1 27/2/1 29/3/1 30/4/1
f 30/1/2 29/2/2 31/3/2 32/4/2
f 32/1/3 31/2/3 26/3/3 25/4/3
f 32/1/7 25/2/7 28/3/7 30/4/7
f 9/1/7 12/2/7 14/3/7 16/4/7
f 6/1/7 8/2/7 1/3/7 4/4/7
f 23/1/7 21/2/7 17/3/7 20/4/7
f 33/5/8 34/6/8 35/7/8 36/8/8
f 37/5/9 38/6/9 39/7/9 40/8/9
f 41/8/10 42/7/10 43/2/10 44/1/10
f 45/5/11 46/6/11 47/7/11 48/8/11
f 49/9/7 50/10/7 51/6/7 52/5/7
f 53/9/12 54/10/12 55/6/12 56/5/12
f 57/2/12 58/11/12 59/12/12 60/3/12
f 61/13/13 59/14/13 58/10/13 62/9/13
f 63/13/14 60/14/14 59/10/14 61/9/14
f 64/13/15 57/14/15 60/10/15 63/9/15
f 62/13/10 58/14/10 57/10/10 64/9/10
f 63/2/7 61/11/7 62/12/7 64/3/7
f 34/6/8 65/15/8 66/16/8 35/7/8
f 38/6/9 67/15/9 68/16/9 39/7/9
f 42/7/10 69/16/10 70/11/10 43/2/10
f 46/6/11 71/15/11 72/16/11 47/7/11
f 73/9/7 74/10/7 75/6/7 76/5/7
f 77/9/12 78/10/12 79/6/12 80/5/12
f 77/2/12 78/11/12 79/12/12 80/3/12
f 59/14/13 81/17/13 82/18/13 58/10/13
f 60/14/14 83/17/14 81/18/14 59/10/14
f 58/14/10 82/17/10 84/18/10 57/10/10
f 57/14/15 84/17/15 83/18/15 60/10/15
# 43 faces
