mtllib almura:cep_shaman_caldronblack.mtl

v 0.81249994 0.99 0.1875
v 0.18749994 0.99 0.18750006
v 0.1875 0.99 0.81250006
v 0.8125 0.99 0.8125
v 0.8125 0.04 0.8125
v 0.1875 0.04 0.81250006
v 0.18749994 0.04 0.18750006
v 0.81249994 0.04 0.1875
v 0.625 0.0 0.8125
v 0.6875 0.1875 0.9375
v 0.3125 0.1875 0.93750006
v 0.375 0.0 0.81250006
v 0.8125 0.0 0.625
v 0.9375 0.1875 0.6875
v 0.81249994 0.0 0.375
v 0.93749994 0.1875 0.3125
v 0.62499994 0.0 0.18750006
v 0.6874999 0.1875 0.0625
v 0.18749994 0.0 0.37500006
v 0.06249994 0.1875 0.31250006
v 0.31249994 0.1875 0.06250006
v 0.37499994 0.0 0.18750006
v 0.18749994 0.0 0.62500006
v 0.0625 0.1875 0.6875001
v 0.93749994 0.6875 0.3125
v 0.9375 0.6875 0.6875
v 0.6875 0.6875 0.9375
v 0.3125 0.6875 0.93750006
v 0.0625 0.6875 0.6875001
v 0.06249994 0.6875 0.31250006
v 0.31249994 0.6875 0.06250006
v 0.6874999 0.6875 0.0625
v 0.81249994 0.875 0.375
v 0.8125 0.875 0.625
v 0.625 0.875 0.8125
v 0.375 0.875 0.81250006
v 0.18749994 0.875 0.62500006
v 0.18749994 0.875 0.37500006
v 0.37499994 0.875 0.18750006
v 0.62499994 0.875 0.18750006
v 0.6875 0.9375 0.9375
v 0.3125 0.9375 0.93750006
v 0.9375 0.9375 0.6875
v 0.93749994 0.9375 0.3125
v 0.6874999 0.9375 0.0625
v 0.06249994 0.9375 0.31250006
v 0.31249994 0.9375 0.06250006
v 0.0625 0.9375 0.6875001
v 0.93749994 1.0 0.3125
v 0.9375 1.0 0.6875
v 0.6875 1.0 0.9375
v 0.3125 1.0 0.93750006
v 0.0625 1.0 0.6875001
v 0.06249994 1.0 0.31250006
v 0.31249994 1.0 0.06250006
v 0.6874999 1.0 0.0625
v 0.37499994 1.0 0.18750006
v 0.62499994 1.0 0.18750006
v 0.18749994 1.0 0.62500006
v 0.18749994 1.0 0.37500006
v 0.375 1.0 0.81250006
v 0.8125 1.0 0.625
v 0.625 1.0 0.8125
v 0.81249994 1.0 0.375
# 64 vertices

vn 0.0 1.0 0.0
vn 0.0 -1.0 0.0
vn 1.3225083E-7 -0.5547002 0.83205026
vn 0.5773503 -0.5773503 0.5773503
vn 0.83205026 -0.5547002 -1.3225083E-7
vn 0.5773502 -0.57735026 -0.5773503
vn -0.5773503 -0.5773503 -0.5773503
vn -0.8320504 -0.5547 1.3225082E-7
vn -0.57735014 -0.57735026 0.5773503
vn -1.3225085E-7 -0.55470026 -0.83205026
vn 1.0 0.0 -1.5894572E-7
vn 1.5894572E-7 0.0 1.0
vn -1.0 0.0 1.589457E-7
vn -1.5894574E-7 0.0 -1.0
vn 0.70710665 0.0 -0.7071068
vn -0.70710677 0.0 -0.70710677
vn -0.7071067 0.0 0.7071068
vn 0.70710677 0.0 0.70710677
vn 0.83205026 0.55470026 -1.9837624E-7
vn 1.9837624E-7 0.55470026 0.83205026
vn -0.8320504 0.5547 0.0
vn 0.0 0.5547002 -0.8320503
vn 0.57735014 0.57735026 -0.5773503
vn -0.57735026 0.57735026 -0.57735026
vn -0.57735014 0.5773503 0.5773504
vn 0.57735026 0.57735026 0.57735026
vn 7.108268E-8 -0.89442724 0.44721356
vn 0.30151135 -0.904534 0.30151135
vn 0.44721356 -0.89442724 -7.108268E-8
vn 0.3015113 -0.90453404 -0.30151138
vn -0.30151135 -0.904534 -0.30151135
vn -0.4472137 -0.89442706 7.1082695E-8
vn -0.30151132 -0.90453404 0.30151138
vn -7.1082695E-8 -0.8944272 -0.44721356
# 34 vertex normals

vt 0.03125 0.90625
vt 0.03125 0.9375
vt 0.0 0.9375
vt 0.0 0.90625
vt 0.03125 0.875
vt 0.0 0.875
vt 0.0625 0.875
vt 0.0625 0.90625
vt 0.09375 0.875
vt 0.09375 0.90625
vt 0.125 0.875
vt 0.125 0.90625
vt 0.15625 0.875
vt 0.15625 0.90625
vt 0.1875 0.875
vt 0.1875 0.90625
# 16 texture coords

g cep_shaman_caldronblack
usemtl cep_shaman_caldronblack

f 1/1/1 2/2/1 3/3/1 4/4/1
f 5/5/2 6/1/2 7/4/2 8/6/2
f 9/7/3 10/8/3 11/1/3 12/5/3
f 13/7/4 14/8/4 10/1/4 9/5/4
f 15/7/5 16/8/5 14/1/5 13/5/5
f 17/7/6 18/8/6 16/1/6 15/5/6
f 19/7/7 20/8/7 21/1/7 22/5/7
f 23/7/8 24/8/8 20/1/8 19/5/8
f 12/7/9 11/8/9 24/1/9 23/5/9
f 22/7/10 21/8/10 18/1/10 17/5/10
f 16/9/11 25/10/11 26/8/11 14/7/11
f 10/11/12 27/12/12 28/10/12 11/9/12
f 24/9/13 29/10/13 30/8/13 20/7/13
f 21/11/14 31/12/14 32/10/14 18/9/14
f 18/11/15 32/12/15 25/10/15 16/9/15
f 20/11/16 30/12/16 31/10/16 21/9/16
f 11/11/17 28/12/17 29/10/17 24/9/17
f 14/11/18 26/12/18 27/10/18 10/9/18
f 25/13/19 33/14/19 34/12/19 26/11/19
f 27/13/20 35/14/20 36/12/20 28/11/20
f 29/13/21 37/14/21 38/12/21 30/11/21
f 31/13/22 39/14/22 40/12/22 32/11/22
f 32/13/23 40/14/23 33/12/23 25/11/23
f 30/13/24 38/14/24 39/12/24 31/11/24
f 28/13/25 36/14/25 37/12/25 29/11/25
f 26/13/26 34/14/26 35/12/26 27/11/26
f 35/15/27 41/16/27 42/14/27 36/13/27
f 34/15/28 43/16/28 41/14/28 35/13/28
f 33/15/29 44/16/29 43/14/29 34/13/29
f 40/15/30 45/16/30 44/14/30 33/13/30
f 38/15/31 46/16/31 47/14/31 39/13/31
f 37/15/32 48/16/32 46/14/32 38/13/32
f 36/15/33 42/16/33 48/14/33 37/13/33
f 39/15/34 47/16/34 45/14/34 40/13/34
f 44/15/11 49/16/11 50/14/11 43/13/11
f 41/15/12 51/16/12 52/14/12 42/13/12
f 48/15/13 53/16/13 54/14/13 46/13/13
f 47/15/14 55/16/14 56/14/14 45/13/14
f 45/15/15 56/16/15 49/14/15 44/13/15
f 46/15/16 54/16/16 55/14/16 47/13/16
f 42/15/17 52/16/17 53/14/17 48/13/17
f 43/15/18 50/16/18 51/14/18 41/13/18
f 55/15/1 57/16/1 58/14/1 56/13/1
f 53/15/1 59/16/1 60/14/1 54/13/1
f 54/15/1 60/16/1 57/14/1 55/13/1
f 52/15/1 61/16/1 59/14/1 53/13/1
f 50/15/1 62/16/1 63/14/1 51/13/1
f 56/15/1 58/16/1 64/14/1 49/13/1
f 51/15/1 63/16/1 61/14/1 52/13/1
f 49/15/1 64/16/1 62/14/1 50/13/1
# 50 faces
