mtllib almura:cep_gladiator_walldisplay_headsmansaxe.mtl

v 0.0 0.0 0.9990001
v 0.0 1.0 0.9990001
v 1.0 1.0 0.999
v 1.0 0.0 0.999
v 0.0 2.0 0.9990001
v 1.0 2.0 0.999
v -1.0 0.0 0.9990002
v -1.0 1.0 0.9990002
v 1.0 0.0 0.9375
v 1.0 0.0625 0.9375
v 1.0 0.0625 1.0
v 1.0 0.0 1.0
v 0.0 0.0625 0.93750006
v 0.0 0.0625 1.0000001
v 0.0 0.0 0.93750006
v 0.0 0.0 1.0000001
# 16 vertices

vn -5.9604645E-8 0.0 -1.0
vn 5.9604645E-8 0.0 1.0
vn -8.940697E-8 0.0 -1.0
vn 8.940697E-8 0.0 1.0
vn 1.0 0.0 0.0
vn 0.0 1.0 0.0
vn 0.0 -1.0 0.0
# 7 vertex normals

vt 0.125 0.875
vt 0.125 1.0
vt 0.0 1.0
vt 0.0 0.875
vt 1.0 0.25
vt 1.0 0.375
vt 0.75 0.375
vt 0.75 0.25
# 8 texture coords

g cep_gladiator_walldisplay_headsmansaxe
usemtl cep_gladiator_walldisplay_headsmansaxe

f 1/1/1 2/2/1 3/3/1 4/4/1
f 4/1/2 3/2/2 2/3/2 1/4/2
f 1/1/1 5/2/1 6/3/1 4/4/1
f 4/1/2 6/2/2 5/3/2 1/4/2
f 7/5/3 8/6/3 3/7/3 4/8/3
f 4/5/4 3/6/4 8/7/4 7/8/4
f 4/1/2 3/2/2 2/3/2 1/4/2
f 9/1/5 10/2/5 11/3/5 12/4/5
f 10/1/6 13/2/6 14/3/6 11/4/6
f 15/1/7 9/2/7 12/3/7 16/4/7
# 10 faces
