mtllib almura:cep_harbormaster_anchor.mtl

v 0.49999994 0.0 0.5
v 0.49999994 0.2 0.45000005
v 0.5999999 0.2 0.45000005
v 0.59999996 0.1 0.5
v 0.79999995 0.3 0.45999998
v 0.79999995 0.2 0.5
v 0.79999995 0.15 0.5
v 0.79999995 0.35 0.45
v 0.99999994 0.4 0.5
v 0.39999992 0.1 0.50000006
v 0.39999992 0.2 0.45000005
v 0.19999993 0.2 0.50000006
v 0.19999993 0.3 0.46000004
v 0.0 0.4 0.5000001
v 0.19999993 0.35 0.45000005
v 0.19999993 0.15 0.50000006
v 0.49999994 0.2 0.5500001
v 0.39999992 0.2 0.5500001
v 0.19999993 0.3 0.5400001
v 0.19999993 0.35 0.50000006
v 0.19999993 0.35 0.5500001
v 0.59999996 0.2 0.5500001
v 0.79999995 0.3 0.54
v 0.79999995 0.35 0.5500001
v 0.79999995 0.3 0.44
v 0.54999995 0.2 0.47500008
v 0.44999993 0.2 0.47500008
v 0.44999993 0.7 0.47500008
v 0.54999995 0.7 0.47500008
v 0.54999995 0.7 0.52500004
v 0.44999993 0.7 0.5250001
v 0.44999993 0.2 0.5250001
v 0.54999995 0.2 0.52500004
v 0.14999992 0.7 0.47500008
v 0.14999992 0.75 0.47500008
v 0.84999996 0.75 0.47500002
v 0.84999996 0.7 0.47500002
v 0.84999996 0.7 0.525
v 0.84999996 0.75 0.525
v 0.14999992 0.75 0.5250001
v 0.14999992 0.7 0.5250001
v 0.44999993 0.75 0.47500008
v 0.44999993 0.9 0.47500008
v 0.54999995 0.9 0.47500008
v 0.54999995 0.75 0.47500008
v 0.54999995 0.75 0.52500004
v 0.54999995 0.9 0.52500004
v 0.44999993 0.9 0.5250001
v 0.44999993 0.75 0.5250001
v 0.44999993 0.9 0.45000005
v 0.44999993 1.0 0.45000005
v 0.54999995 1.0 0.45000005
v 0.54999995 0.9 0.45000005
v 0.54999995 0.9 0.5500001
v 0.54999995 1.0 0.5500001
v 0.44999993 1.0 0.5500001
v 0.44999993 0.9 0.5500001
# 57 vertices

vn 0.0 -0.2425354 -0.9701426
vn 0.25916 -0.43193382 -0.8638688
vn 0.2901295 -0.2321036 -0.92841417
vn 0.0 -0.44721368 -0.8944272
vn -0.22610787 -0.36177263 -0.9044312
vn -0.29012987 -0.23210357 -0.92841405
vn 0.0 -0.24253595 0.9701424
vn -0.25916058 -0.4319343 0.8638684
vn 1.0 0.0 0.0
vn 0.0 -0.4472141 0.89442694
vn 0.22610812 -0.36177263 0.9044312
vn 0.2901298 -0.23210384 0.928414
vn -1.0 0.0 0.0
vn 0.0 1.0 0.0
vn 0.44721365 0.8944272 0.0
vn 0.24253577 0.9701425 0.0
vn -0.44721356 0.8944272 0.0
vn -0.24253568 0.9701424 0.0
vn 0.0 0.0 -1.0
vn 5.9604633E-7 0.0 1.0
vn -8.514949E-8 0.0 -1.0
vn 1.7029897E-7 0.0 1.0
vn 0.0 -1.0 0.0
vn 5.960463E-7 0.0 1.0
vn 0.0 0.0 1.0
# 25 vertex normals

vt 0.0625 0.96875
vt 0.0625 1.0
vt 0.03125 1.0
vt 0.03125 0.96875
vt 0.09375 0.96875
vt 0.09375 1.0
vt 0.125 0.96875
vt 0.125 1.0
# 8 texture coords

g cep_harbormaster_anchor
usemtl cep_harbormaster_anchor

f 1/1/1 2/2/1 3/3/1 4/4/1
f 4/1/2 3/2/2 5/3/2 6/4/2
f 7/5/3 8/6/3 8/2/3 9/1/3
f 10/1/4 11/2/4 2/3/4 1/4/4
f 12/1/5 13/2/5 11/3/5 10/4/5
f 14/5/6 14/6/6 15/2/6 16/1/6
f 1/1/7 17/2/7 18/3/7 10/4/7
f 10/1/8 18/2/8 19/3/8 12/4/8
f 16/5/9 20/6/9 21/2/9 14/1/9
f 4/1/10 22/2/10 17/3/10 1/4/10
f 6/1/11 23/2/11 22/3/11 4/4/11
f 9/5/12 9/6/12 24/2/12 7/1/12
f 16/5/9 15/6/9 21/2/9 16/1/9
f 7/5/13 24/6/13 8/2/13 7/1/13
f 22/1/14 3/2/14 11/3/14 18/4/14
f 18/1/15 11/2/15 13/3/15 19/4/15
f 14/5/16 14/6/16 21/2/16 15/1/16
f 23/1/17 25/2/17 3/3/17 22/4/17
f 9/5/18 9/6/18 8/2/18 24/1/18
f 26/1/19 27/2/19 28/3/19 29/4/19
f 30/1/20 31/2/20 32/3/20 33/4/20
f 31/1/13 28/2/13 27/3/13 32/4/13
f 29/1/9 30/2/9 33/3/9 26/4/9
f 34/7/21 35/8/21 36/6/21 37/5/21
f 38/7/22 39/8/22 40/6/22 41/5/22
f 41/7/13 40/8/13 35/6/13 34/5/13
f 37/7/9 36/8/9 39/6/9 38/5/9
f 39/7/14 36/8/14 35/6/14 40/5/14
f 37/7/23 38/8/23 41/6/23 34/5/23
f 42/5/19 43/6/19 44/2/19 45/1/19
f 46/5/24 47/6/24 48/2/24 49/1/24
f 49/5/13 48/6/13 43/2/13 42/1/13
f 45/5/9 44/6/9 47/2/9 46/1/9
f 50/7/19 51/8/19 52/6/19 53/5/19
f 54/7/25 55/8/25 56/6/25 57/5/25
f 51/7/14 56/8/14 55/6/14 52/5/14
f 57/7/13 56/8/13 51/6/13 50/5/13
f 53/7/9 52/8/9 55/6/9 54/5/9
f 53/7/23 54/8/23 57/6/23 50/5/23
# 39 faces
