mtllib almura:cep_carpenter_drawer2.mtl

v 0.99999994 1.0 0.0
v -1.1920929E-7 1.0 5.9604645E-8
v 0.0 1.0 1.0000001
v 1.0 1.0 1.0
v -1.1920929E-7 0.0 5.9604645E-8
v 0.99999994 0.0 0.0
v 1.0 0.0 1.0
v 0.0 0.0 1.0000001
# 8 vertices

vn 0.0 1.0 0.0
vn 0.0 -1.0 0.0
vn -5.9604645E-8 0.0 -1.0
vn -1.0 0.0 1.1920929E-7
vn 1.1920929E-7 0.0 1.0
vn 1.0 0.0 -5.9604645E-8
# 6 vertex normals

vt 0.125 0.5
vt 0.125 0.625
vt 0.0 0.625
vt 0.0 0.5
vt 0.5 0.5
vt 0.5 0.625
vt 0.375 0.625
vt 0.375 0.5
vt 0.25 0.5
vt 0.25 0.625
# 10 texture coords

g cep_carpenter_drawer2
usemtl cep_carpenter_drawer2

f 1/1/1 2/2/1 3/3/1 4/4/1
f 5/1/2 6/2/2 7/3/2 8/4/2
f 5/5/3 2/6/3 1/7/3 6/8/3
f 8/9/4 3/10/4 2/2/4 5/1/4
f 7/9/5 4/10/5 3/2/5 8/1/5
f 6/9/6 1/10/6 4/2/6 7/1/6
# 6 faces
