mtllib almura:cep_shaman_standingstone_horizontal_ramp2.mtl

v 0.18749994 0.5 5.9604645E-8
v 0.18749994 1.0 5.9604645E-8
v 0.8124999 1.0 0.0
v 0.8124999 0.5 0.0
v 0.99999994 0.75 0.0
v -1.1920929E-7 0.7499999 5.9604645E-8
v -1.1920929E-7 0.75 5.9604645E-8
v 0.8125 1.0 1.0
v 0.8125 1.5 1.0
v 0.1875 1.5 1.0000001
v 0.1875 1.0 1.0000001
v 1.0 1.24999 1.0
v 1.0 1.25 1.0
v 0.0 1.25 1.0000001
# 14 vertices

vn -9.536744E-8 0.0 -1.0
vn 0.0 0.0 -1.0
vn 1.9073487E-7 0.0 1.0
vn 0.0 0.0 1.0
vn -8.529923E-8 0.8944272 -0.4472136
vn -0.7662611 0.5746958 -0.28734782
vn 0.76626104 0.57469577 -0.28734797
vn 8.529923E-8 -0.8944272 0.4472136
vn 0.76626104 -0.57469577 0.28734782
vn -0.76626104 -0.57469577 0.2873479
# 10 vertex normals

vt 0.0625 0.96875
vt 0.0625 1.0
vt 0.03125 1.0
vt 0.03125 0.96875
vt 0.046875 0.96875
vt 0.046875 1.0
# 6 texture coords

g cep_shaman_standingstone_horizontal_ramp2
usemtl cep_shaman_standingstone_horizontal_ramp2

f 1/1/1 2/2/1 3/3/1 4/4/1
f 4/1/2 3/2/2 5/3/2 5/4/2
f 6/1/2 7/2/2 2/3/2 1/4/2
f 8/1/3 9/2/3 10/3/3 11/4/3
f 12/1/4 13/2/4 9/3/4 8/4/4
f 11/1/4 10/2/4 14/3/4 14/4/4
f 2/1/5 10/2/5 9/3/5 3/4/5
f 7/5/6 14/6/6 10/3/6 2/4/6
f 3/1/7 9/2/7 13/6/7 5/5/7
f 4/1/8 8/2/8 11/3/8 1/4/8
f 5/5/9 13/6/9 8/3/9 4/4/9
f 1/1/10 11/2/10 14/6/10 7/5/10
# 12 faces
