mtllib almura:cep_gladiator_dagger_note_table.mtl

v -1.1920929E-7 0.001 5.9604645E-8
v 0.0 0.001 1.0000001
v 1.0 0.001 1.0
v 0.99999994 0.001 0.0
v 0.39999992 0.0 0.50000006
v 0.605 0.0 1.0
v 0.70500004 0.5 1.0
v 0.49999994 0.5 0.5
v 0.604 0.0 1.0
v 0.39899993 0.0 0.50000006
v 0.49899995 0.5 0.5
v 0.704 0.5 1.0
v 0.0 0.9375 0.46875006
v 0.0 1.0 0.46875006
v 0.99999994 1.0 0.46875
v 0.99999994 0.9375 0.46875
v 0.0 0.9375 0.5312501
v 0.0 1.0 0.5312501
v 0.99999994 1.0 0.53125
v 0.99999994 0.9375 0.53125
# 20 vertices

vn 0.0 1.0 0.0
vn -0.9098054 0.18196112 0.37302044
vn 0.9098054 -0.18196116 -0.37302035
vn -5.960465E-8 0.0 -1.0
vn -1.0 0.0 0.0
vn 1.0 0.0 0.0
# 6 vertex normals

vt 0.75 0.875
vt 0.75 1.0
vt 0.625 1.0
vt 0.625 0.875
vt 0.5 1.0
vt 0.5 0.875
vt 0.125 0.875
vt 0.125 1.0
vt 0.0 1.0
vt 0.0 0.875
# 10 texture coords

g cep_gladiator_dagger_note_table
usemtl cep_gladiator_dagger_note_table

f 1/1/1 2/2/1 3/3/1 4/4/1
f 5/4/2 6/3/2 7/5/2 8/6/2
f 9/4/3 10/3/3 11/5/3 12/6/3
f 13/7/4 14/8/4 15/9/4 16/10/4
f 17/7/5 18/8/5 14/9/5 13/10/5
f 16/7/6 15/8/6 19/9/6 20/10/6
# 6 faces
