mtllib almura:cep_priest_gravestone_2.mtl

v -1.1920929E-7 0.0625 5.9604645E-8
v 0.0 0.0625 1.0000001
v 1.0 0.0625 1.0
v 0.99999994 0.0625 0.0
v 1.0 0.0 1.0
v 0.0 0.0 1.0000001
v 0.99999994 0.0 0.0
v -1.1920929E-7 0.0 5.9604645E-8
v 0.8125 0.75 1.0
v 0.6875 1.0 1.0
v 0.3125 1.0 1.0000001
v 0.1875 0.75 1.0000001
v 0.1875 0.75 0.87500006
v 0.3125 1.0 0.87500006
v 0.6875 1.0 0.875
v 0.8125 0.75 0.875
v 0.8125 0.0625 0.875
v 0.8125 0.0625 1.0
v 0.1875 0.0625 1.0000001
v 0.1875 0.0625 0.87500006
v 0.74999994 0.0625 0.1875
v 0.74999994 0.125 0.1875
v 0.75 0.125 0.6875
v 0.75 0.0625 0.6875
v 0.25 0.0625 0.68750006
v 0.25 0.125 0.68750006
v 0.24999994 0.125 0.18750006
v 0.24999994 0.0625 0.18750006
v 0.8125 0.0 0.999
v 0.8125 0.75 0.999
v 0.1875 0.75 0.9990001
v 0.1875 0.0 0.9990001
v 0.24999994 0.126 0.18750006
v 0.25 0.126 0.68750006
v 0.75 0.126 0.6875
v 0.74999994 0.126 0.1875
# 36 vertices

vn 0.0 1.0 0.0
vn 1.1920929E-7 0.0 1.0
vn 1.0 0.0 -5.9604645E-8
vn -5.9604645E-8 0.0 -1.0
vn -1.0 0.0 1.1920929E-7
vn 0.0 -1.0 0.0
vn 3.1789145E-7 1.5894572E-7 1.0
vn -1.5894572E-7 7.947286E-8 -1.0
vn -0.89442724 0.44721362 0.0
vn 0.8944272 0.4472136 0.0
vn 1.0 0.0 0.0
vn -1.0 0.0 0.0
vn -9.536743E-8 0.0 -1.0
vn 1.0 0.0 -1.1920929E-7
vn -1.1920929E-7 0.0 -1.0
vn 9.536743E-8 0.0 1.0
# 16 vertex normals

vt 0.375 0.75
vt 0.375 0.875
vt 0.25 0.875
vt 0.25 0.75
vt 0.125 0.875
vt 0.125 0.75
vt 0.0 0.875
vt 0.0 0.75
vt 0.5 0.75
vt 0.5 0.875
vt 0.625 0.75
vt 0.625 0.875
# 12 texture coords

g cep_priest_gravestone_2
usemtl cep_priest_gravestone_2

f 1/1/1 2/2/1 3/3/1 4/4/1
f 5/1/2 3/2/2 2/3/2 6/4/2
f 7/1/3 4/2/3 3/3/3 5/4/3
f 8/1/4 1/2/4 4/3/4 7/4/4
f 6/1/5 2/2/5 1/3/5 8/4/5
f 7/1/6 5/2/6 6/3/6 8/4/6
f 9/4/7 10/3/7 11/5/7 12/6/7
f 13/4/8 14/3/8 15/5/8 16/6/8
f 14/1/1 11/2/1 10/3/1 15/4/1
f 12/4/9 11/3/9 14/5/9 13/6/9
f 16/4/10 15/3/10 10/5/10 9/6/10
f 17/6/11 16/5/11 9/7/11 18/8/11
f 19/6/12 12/5/12 13/7/12 20/8/12
f 20/9/13 13/10/13 16/2/13 17/1/13
f 21/4/14 22/3/14 23/5/14 24/6/14
f 25/4/5 26/3/5 27/5/5 28/6/5
f 28/1/15 27/2/15 22/3/15 21/4/15
f 29/6/16 30/5/16 31/7/16 32/8/16
f 23/1/2 26/2/2 25/3/2 24/4/2
f 27/1/1 26/2/1 23/3/1 22/4/1
f 33/11/1 34/12/1 35/10/1 36/9/1
# 21 faces
