mtllib almura:marbletile.mtl

v 0.99999994 1.0 0.0
v -1.1920929E-7 1.0 5.9604645E-8
v 0.0 1.0 1.0000001
v 1.0 1.0 1.0
v 0.99999994 0.0 0.0
v 1.0 0.0 1.0
v -1.1920929E-7 0.0 5.9604645E-8
v 0.0 0.0 1.0000001
# 8 vertices

vn 0.0 1.0 0.0
vn 1.0 0.0 -5.9604645E-8
vn -5.9604645E-8 0.0 -1.0
vn -1.0 0.0 1.1920929E-7
vn 1.1920929E-7 0.0 1.0
vn 0.0 -1.0 0.0
# 6 vertex normals

vt 0.125 0.375
vt 0.125 0.5
vt 0.0 0.5
vt 0.0 0.375
# 4 texture coords

g marbletile
usemtl marbletile

f 1/1/1 2/2/1 3/3/1 4/4/1
f 5/1/2 1/2/2 4/3/2 6/4/2
f 7/1/3 2/2/3 1/3/3 5/4/3
f 8/1/4 3/2/4 2/3/4 7/4/4
f 6/1/5 4/2/5 3/3/5 8/4/5
f 7/1/6 5/2/6 6/3/6 8/4/6
# 6 faces
