mtllib almura:cep_carpenter_barrel.mtl

v 0.81249994 0.96 0.1875
v 0.18749994 0.96 0.18750006
v 0.1875 0.96 0.81250006
v 0.8125 0.96 0.8125
v 0.8125 0.04 0.8125
v 0.1875 0.04 0.81250006
v 0.18749994 0.04 0.18750006
v 0.81249994 0.04 0.1875
v 0.625 0.0 0.8125
v 0.6875 0.3125 0.9375
v 0.3125 0.3125 0.93750006
v 0.375 0.0 0.81250006
v 0.8125 0.0 0.625
v 0.9375 0.3125 0.6875
v 0.81249994 0.0 0.375
v 0.93749994 0.3125 0.3125
v 0.62499994 0.0 0.18750006
v 0.6874999 0.3125 0.0625
v 0.18749994 0.0 0.37500006
v 0.06249994 0.3125 0.31250006
v 0.31249994 0.3125 0.06250006
v 0.37499994 0.0 0.18750006
v 0.18749994 0.0 0.62500006
v 0.0625 0.3125 0.6875001
v 0.93749994 0.6875 0.3125
v 0.9375 0.6875 0.6875
v 0.6875 0.6875 0.9375
v 0.3125 0.6875 0.93750006
v 0.0625 0.6875 0.6875001
v 0.06249994 0.6875 0.31250006
v 0.31249994 0.6875 0.06250006
v 0.6874999 0.6875 0.0625
v 0.37499994 1.0 0.18750006
v 0.62499994 1.0 0.18750006
v 0.18749994 1.0 0.62500006
v 0.18749994 1.0 0.37500006
v 0.375 1.0 0.81250006
v 0.8125 1.0 0.625
v 0.625 1.0 0.8125
v 0.81249994 1.0 0.375
# 40 vertices

vn 0.0 1.0 0.0
vn 0.0 -1.0 0.0
vn 1.475774E-7 -0.3713907 0.9284767
vn 0.6509446 -0.39056674 0.6509446
vn 0.9284767 -0.3713907 -1.475774E-7
vn 0.6509445 -0.39056674 -0.6509446
vn -0.6509446 -0.39056674 -0.6509446
vn -0.9284767 -0.37139055 1.4757738E-7
vn -0.6509445 -0.39056674 0.6509446
vn -1.4757741E-7 -0.37139067 -0.9284767
vn 1.0 0.0 -1.5894572E-7
vn 1.5894572E-7 0.0 1.0
vn -1.0 0.0 1.5894568E-7
vn -1.5894575E-7 0.0 -1.0
vn 0.7071067 0.0 -0.7071069
vn -0.7071068 0.0 -0.7071068
vn -0.7071067 0.0 0.7071069
vn 0.7071068 0.0 0.7071068
vn 0.0 0.37139067 -0.9284767
vn -0.9284768 0.37139055 0.0
vn -0.65094453 0.3905667 -0.65094453
vn -0.6509444 0.39056674 0.65094465
vn 0.65094453 0.3905667 0.65094453
vn 0.6509444 0.39056674 -0.65094465
vn 2.213661E-7 0.37139073 0.9284767
vn 0.9284767 0.37139073 -2.213661E-7
# 26 vertex normals

vt 0.25 0.875
vt 0.25 1.0
vt 0.125 1.0
vt 0.125 0.875
vt 0.375 0.875
vt 0.375 1.0
vt 0.5 0.875
vt 0.5 1.0
vt 0.625 0.875
vt 0.625 1.0
# 10 texture coords

g cep_carpenter_barrel
usemtl cep_carpenter_barrel

f 1/1/1 2/2/1 3/3/1 4/4/1
f 5/1/2 6/2/2 7/3/2 8/4/2
f 9/5/3 10/6/3 11/2/3 12/1/3
f 13/5/4 14/6/4 10/2/4 9/1/4
f 15/5/5 16/6/5 14/2/5 13/1/5
f 17/5/6 18/6/6 16/2/6 15/1/6
f 19/5/7 20/6/7 21/2/7 22/1/7
f 23/5/8 24/6/8 20/2/8 19/1/8
f 12/5/9 11/6/9 24/2/9 23/1/9
f 22/5/10 21/6/10 18/2/10 17/1/10
f 16/7/11 25/8/11 26/6/11 14/5/11
f 10/7/12 27/8/12 28/6/12 11/5/12
f 24/7/13 29/8/13 30/6/13 20/5/13
f 21/7/14 31/8/14 32/6/14 18/5/14
f 18/7/15 32/8/15 25/6/15 16/5/15
f 20/7/16 30/8/16 31/6/16 21/5/16
f 11/7/17 28/8/17 29/6/17 24/5/17
f 14/7/18 26/8/18 27/6/18 10/5/18
f 31/9/19 33/10/19 34/8/19 32/7/19
f 29/9/20 35/10/20 36/8/20 30/7/20
f 30/9/21 36/10/21 33/8/21 31/7/21
f 28/9/22 37/10/22 35/8/22 29/7/22
f 26/9/23 38/10/23 39/8/23 27/7/23
f 32/9/24 34/10/24 40/8/24 25/7/24
f 27/9/25 39/10/25 37/8/25 28/7/25
f 25/9/26 40/10/26 38/8/26 26/7/26
# 26 faces
