mtllib almura:white_grape_2.mtl

v -1.1920929E-7 0.0 5.9604645E-8
v -1.1920929E-7 2.0 5.9604645E-8
v 1.0 2.0 1.0
v 1.0 0.0 1.0
v 0.0 0.0 1.0000001
v 0.0 2.0 1.0000001
v 0.99999994 2.0 0.0
v 0.99999994 0.0 0.0
# 8 vertices

vn 0.70710677 0.0 -0.7071069
vn -0.7071069 0.0 -0.70710677
vn -0.70710677 0.0 0.7071069
vn 0.7071069 0.0 0.70710677
# 4 vertex normals

vt 0.74 0.52
vt 0.74 0.6
vt 0.7 0.6
vt 0.7 0.52
# 4 texture coords

g white_grape_2
usemtl white_grape_2

f 1/1/1 2/2/1 3/3/1 4/4/1
f 5/1/2 6/2/2 7/3/2 8/4/2
f 4/1/3 3/2/3 2/3/3 1/4/3
f 8/1/4 7/2/4 6/3/4 5/4/4
# 4 faces
